<svg xmlns="http://www.w3.org/2000/svg" xmlns:xlink="http://www.w3.org/1999/xlink" width="250" height="250" viewBox="0 0 250 250">
  <defs>
    <clipPath id="clip-path">
      <rect id="Rectángulo_455284" data-name="Rectángulo 455284" width="36.538" height="32.392" fill="none"/>
    </clipPath>
  </defs>
  <g id="Grupo_1205042" data-name="Grupo 1205042" transform="translate(-624 -4618)">
    <circle id="Elipse_13701" data-name="Elipse 13701" cx="125" cy="125" r="125" transform="translate(624 4618)" fill="#f2f6e6"/>
    <rect id="Rectángulo_455778" data-name="Rectángulo 455778" width="67.237" height="102.442" transform="translate(643.175 4693.27)" fill="#e3e8c0"/>
    <rect id="Rectángulo_455779" data-name="Rectángulo 455779" width="67.237" height="102.442" transform="translate(710.415 4693.27)" fill="#f8f8c5"/>
    <rect id="Rectángulo_455780" data-name="Rectángulo 455780" width="67.237" height="11.727" transform="translate(643.175 4693.27)" fill="#263963"/>
    <rect id="Rectángulo_455781" data-name="Rectángulo 455781" width="67.237" height="11.727" transform="translate(710.415 4693.27)" fill="#17233d"/>
    <rect id="Rectángulo_455782" data-name="Rectángulo 455782" width="5.974" height="5.974" transform="translate(756.256 4696.146)" fill="#fff"/>
    <rect id="Rectángulo_455783" data-name="Rectángulo 455783" width="5.974" height="5.974" transform="translate(765.964 4696.146)" fill="#fff"/>
    <rect id="Rectángulo_455784" data-name="Rectángulo 455784" width="67.237" height="102.445" transform="translate(727.822 4673.727)" fill="#ffffeb"/>
    <rect id="Rectángulo_455785" data-name="Rectángulo 455785" width="67.24" height="102.445" transform="translate(795.06 4673.727)" fill="#a8ada0"/>
    <rect id="Rectángulo_455786" data-name="Rectángulo 455786" width="58.091" height="21.434" transform="translate(736.968 4691.402)" fill="#5bb4db"/>
    <rect id="Rectángulo_455787" data-name="Rectángulo 455787" width="58.091" height="21.434" transform="translate(795.062 4691.402)" fill="#2691bf"/>
    <rect id="Rectángulo_455788" data-name="Rectángulo 455788" width="23.899" height="21.432" transform="translate(736.968 4719.32)" fill="#2691bf"/>
    <rect id="Rectángulo_455789" data-name="Rectángulo 455789" width="87.009" height="5.631" transform="translate(766.146 4719.32)" fill="#263963"/>
    <path id="Trazado_1263387" data-name="Trazado 1263387" d="M114.161,21.432v3.54h-69.7V19.341h69.7Z" transform="translate(721.683 4707.878)" fill="#263963"/>
    <path id="Trazado_1263388" data-name="Trazado 1263388" d="M125.023,24.287V27.83H44.463V22.2h80.56Z" transform="translate(721.684 4712.924)" fill="#263963"/>
    <rect id="Rectángulo_455790" data-name="Rectángulo 455790" width="87.009" height="5.631" transform="translate(766.146 4747.237)" fill="#263963"/>
    <path id="Trazado_1263389" data-name="Trazado 1263389" d="M114.161,31.524v3.54h-69.7V29.436h69.7Z" transform="translate(721.683 4725.703)" fill="#263963"/>
    <path id="Trazado_1263390" data-name="Trazado 1263390" d="M125.023,34.383v3.54H44.463V32.292h80.56Z" transform="translate(721.684 4730.746)" fill="#263963"/>
    <rect id="Rectángulo_455791" data-name="Rectángulo 455791" width="23.899" height="21.432" transform="translate(736.968 4747.237)" fill="#2691bf"/>
    <rect id="Rectángulo_455792" data-name="Rectángulo 455792" width="67.237" height="11.729" transform="translate(727.822 4673.727)" fill="#263963"/>
    <rect id="Rectángulo_455793" data-name="Rectángulo 455793" width="67.24" height="11.729" transform="translate(795.06 4673.727)" fill="#17233d"/>
    <rect id="Rectángulo_455794" data-name="Rectángulo 455794" width="5.974" height="5.974" transform="translate(840.907 4676.606)" fill="#fff"/>
    <rect id="Rectángulo_455795" data-name="Rectángulo 455795" width="5.971" height="5.974" transform="translate(850.614 4676.606)" fill="#fff"/>
    <path id="Trazado_1263391" data-name="Trazado 1263391" d="M150.1,26.594v1.231h-6.654L92.007,18.335,85.344,17.1,33.913,7.621V6.39h6.665l51.428,9.489,6.66,1.225Z" transform="translate(703.055 4685.011)" fill="#fff"/>
    <path id="Trazado_1263392" data-name="Trazado 1263392" d="M150.1,6.391V7.619L98.667,17.1l-6.66,1.231-51.44,9.489H33.913V26.594L85.344,17.1l6.663-1.225,51.426-9.489Z" transform="translate(703.055 4685.011)" fill="#fff"/>
    <path id="Trazado_1263393" data-name="Trazado 1263393" d="M57.811,37.108v.81H56.9l-11.044-9.9-.9-.813L33.913,17.3v-.813h.9l11.044,9.907.9.81Z" transform="translate(703.055 4702.834)" fill="#fff"/>
    <path id="Trazado_1263394" data-name="Trazado 1263394" d="M57.811,16.485v.808L46.765,27.2l-.9.813-11.044,9.9h-.9v-.81l11.044-9.9.9-.81L56.9,16.485Z" transform="translate(703.055 4702.835)" fill="#fff"/>
    <path id="Trazado_1263395" data-name="Trazado 1263395" d="M57.811,47.2v.81H56.9l-11.044-9.9-.907-.813-11.041-9.9v-.813h.9l11.044,9.9.907.81Z" transform="translate(703.055 4720.658)" fill="#fff"/>
    <path id="Trazado_1263396" data-name="Trazado 1263396" d="M57.811,26.579v.81l-11.044,9.9-.907.813-11.044,9.9h-.9V47.2l11.041-9.9.907-.81,11.044-9.9Z" transform="translate(703.055 4720.659)" fill="#fff"/>
    <rect id="Rectángulo_455796" data-name="Rectángulo 455796" width="67.24" height="102.445" transform="translate(694.202 4716.101)" fill="#f8f8c5"/>
    <rect id="Rectángulo_455797" data-name="Rectángulo 455797" width="67.24" height="102.445" transform="translate(761.442 4716.101)" fill="#e3e8c0"/>
    <rect id="Rectángulo_455798" data-name="Rectángulo 455798" width="58.091" height="21.432" transform="translate(703.351 4733.776)" fill="#62c3ed"/>
    <rect id="Rectángulo_455799" data-name="Rectángulo 455799" width="58.091" height="21.432" transform="translate(761.442 4733.776)" fill="#2a9ed1"/>
    <rect id="Rectángulo_455800" data-name="Rectángulo 455800" width="23.899" height="21.434" transform="translate(703.348 4761.69)" fill="#2a9ed1"/>
    <rect id="Rectángulo_455801" data-name="Rectángulo 455801" width="87.009" height="5.631" transform="translate(732.526 4761.69)" fill="#2d4375"/>
    <path id="Trazado_1263397" data-name="Trazado 1263397" d="M102.006,36.75v3.54h-69.7V34.662h69.7Z" transform="translate(700.219 4734.931)" fill="#2d4375"/>
    <path id="Trazado_1263398" data-name="Trazado 1263398" d="M112.869,39.607v3.543H32.307V37.518h80.563Z" transform="translate(700.219 4739.974)" fill="#2d4375"/>
    <rect id="Rectángulo_455802" data-name="Rectángulo 455802" width="87.009" height="5.631" transform="translate(732.526 4789.607)" fill="#2d4375"/>
    <path id="Trazado_1263399" data-name="Trazado 1263399" d="M102.006,46.844v3.54h-69.7V44.756h69.7Z" transform="translate(700.219 4752.753)" fill="#2d4375"/>
    <path id="Trazado_1263400" data-name="Trazado 1263400" d="M112.869,49.7v3.543H32.307V47.612h80.563Z" transform="translate(700.219 4757.796)" fill="#2d4375"/>
    <rect id="Rectángulo_455803" data-name="Rectángulo 455803" width="23.899" height="21.432" transform="translate(703.348 4789.61)" fill="#2a9ed1"/>
    <rect id="Rectángulo_455804" data-name="Rectángulo 455804" width="67.24" height="11.727" transform="translate(694.202 4716.101)" fill="#2d4375"/>
    <rect id="Rectángulo_455805" data-name="Rectángulo 455805" width="67.24" height="11.727" transform="translate(761.439 4716.098)" fill="#1e2d4f"/>
    <rect id="Rectángulo_455806" data-name="Rectángulo 455806" width="5.974" height="5.974" transform="translate(807.287 4718.977)" fill="#fff"/>
    <rect id="Rectángulo_455807" data-name="Rectángulo 455807" width="5.971" height="5.974" transform="translate(816.994 4718.977)" fill="#fff"/>
    <path id="Trazado_1263401" data-name="Trazado 1263401" d="M137.942,41.912v1.231h-6.654L79.851,33.653l-6.663-1.228L21.757,22.939V21.711h6.665L79.851,31.2l6.66,1.228Z" transform="translate(681.591 4712.063)" fill="#fff"/>
    <path id="Trazado_1263402" data-name="Trazado 1263402" d="M137.942,21.711v1.228L86.511,32.425l-6.66,1.228-51.44,9.489H21.757V41.912l51.431-9.486L79.851,31.2l51.426-9.486Z" transform="translate(681.591 4712.063)" fill="#fff"/>
    <path id="Trazado_1263403" data-name="Trazado 1263403" d="M45.656,52.429v.81h-.907L33.7,43.332l-.9-.81-11.044-9.9V31.8h.9l11.044,9.9.9.813Z" transform="translate(681.591 4729.886)" fill="#fff"/>
    <path id="Trazado_1263404" data-name="Trazado 1263404" d="M45.656,31.8v.81L34.609,42.522l-.9.81L22.661,53.239h-.9v-.813l11.044-9.9.9-.813,11.044-9.9Z" transform="translate(681.591 4729.886)" fill="#fff"/>
    <path id="Trazado_1263405" data-name="Trazado 1263405" d="M45.656,62.517v.816h-.907L33.7,53.427l-.907-.813-11.041-9.9V41.9h.9L33.7,51.8l.907.81Z" transform="translate(681.591 4747.709)" fill="#fff"/>
    <path id="Trazado_1263406" data-name="Trazado 1263406" d="M45.656,41.9v.808L34.612,52.614l-.907.813-11.044,9.9h-.9v-.813l11.041-9.9L33.7,51.8l11.044-9.9Z" transform="translate(681.591 4747.71)" fill="#fff"/>
    <path id="Trazado_1263408" data-name="Trazado 1263408" d="M3549,257.332a5.973,5.973,0,1,1,5.983-5.965,5.972,5.972,0,0,1-5.983,5.965m0-9.878a3.9,3.9,0,1,0,3.914,3.913,3.909,3.909,0,0,0-3.914-3.913" transform="translate(-2772.93 4394.543)" fill="#1c526e"/>
    <path id="Trazado_1263409" data-name="Trazado 1263409" d="M3549,257.332a5.973,5.973,0,1,1,5.983-5.965,5.972,5.972,0,0,1-5.983,5.965m0-9.878a3.9,3.9,0,1,0,3.914,3.913,3.909,3.909,0,0,0-3.914-3.913" transform="translate(-2802.93 4594.543)" fill="#69d2cd"/>
    <path id="Trazado_1261875" data-name="Trazado 1261875" d="M2520.772,103.113l5.854,7.53h-4.365l-5.834-7.53,5.834-7.51h4.365Z" transform="translate(-1841.53 4569.317)" fill="#1c526e"/>
    <path id="Trazado_1261876" data-name="Trazado 1261876" d="M2950.435,103.113l-5.854,7.53h4.365l5.854-7.53-5.854-7.51h-4.365Z" transform="translate(-2247.321 4569.317)" fill="#1c526e"/>
    <path id="Trazado_1261877" data-name="Trazado 1261877" d="M2739.406,23.806l8.61-23.8h-2.96l-8.611,23.8Z" transform="translate(-2050.058 4659.921)" fill="#1c526e"/>
    <g id="Grupo_1204272" data-name="Grupo 1204272" transform="translate(812.675 4631.043)">
      <g id="Grupo_1204271" data-name="Grupo 1204271" clip-path="url(#clip-path)">
        <path id="Trazado_1261839" data-name="Trazado 1261839" d="M3661.391,904.55h-34.96a.788.788,0,0,0-.8.8v21.265a.788.788,0,0,0,.8.8h3.986v8.72a.792.792,0,0,0,.508.749.529.529,0,0,0,.268.054.854.854,0,0,0,.642-.294l7.2-9.228h22.361a.782.782,0,0,0,.776-.8V905.352a.782.782,0,0,0-.776-.8m-26.828,13.722a3.331,3.331,0,1,1,3.424-3.344,3.4,3.4,0,0,1-3.424,3.344m9.6,0a3.331,3.331,0,1,1,3.424-3.344,3.4,3.4,0,0,1-3.424,3.344m9.095,0a3.331,3.331,0,1,1,3.423-3.344,3.38,3.38,0,0,1-3.423,3.344" transform="translate(-3625.629 -904.55)" fill="#1c526e"/>
      </g>
    </g>
    <path id="Trazado_1263410" data-name="Trazado 1263410" d="M3610.181,853.34h-34.96a.788.788,0,0,0-.8.8v21.265a.788.788,0,0,0,.8.8h3.985v8.72a.792.792,0,0,0,.509.749.528.528,0,0,0,.268.054.855.855,0,0,0,.642-.294l7.2-9.228h22.361a.782.782,0,0,0,.776-.8V854.142a.782.782,0,0,0-.776-.8m-26.828,13.722a3.331,3.331,0,1,1,3.424-3.344,3.4,3.4,0,0,1-3.424,3.344m9.6,0a3.331,3.331,0,1,1,3.424-3.344,3.4,3.4,0,0,1-3.424,3.344m9.094,0a3.331,3.331,0,1,1,3.424-3.344,3.38,3.38,0,0,1-3.424,3.344" transform="translate(-2764.419 3775.028)" fill="#1c526e"/>
  </g>
</svg>
