<svg xmlns="http://www.w3.org/2000/svg" xmlns:xlink="http://www.w3.org/1999/xlink" width="129.117" height="127.499" viewBox="0 0 129.117 127.499">
  <defs>
    <clipPath id="clip-path">
      <rect id="Rectángulo_455313" data-name="Rectángulo 455313" width="56.827" height="56.827" fill="#69d2cd"/>
    </clipPath>
    <clipPath id="clip-path-2">
      <rect id="Rectángulo_455810" data-name="Rectángulo 455810" width="65.575" height="58.404" fill="none"/>
    </clipPath>
  </defs>
  <g id="Grupo_1205035" data-name="Grupo 1205035" transform="translate(-598.059 -1541)">
    <g id="Grupo_108927" data-name="Grupo 108927" transform="translate(208.059 -2926)">
      <path id="Rectángulo_36179" data-name="Rectángulo 36179" d="M0,0H129.117V127.5H0Z" transform="translate(390 4467)" fill="#b9f0e8"/>
    </g>
    <g id="Grupo_1204743" data-name="Grupo 1204743" transform="translate(609.766 1556.586)">
      <g id="Grupo_1204367" data-name="Grupo 1204367" transform="translate(0 0)" clip-path="url(#clip-path)">
        <path id="Trazado_1262154" data-name="Trazado 1262154" d="M55.891,20.507,50.763,10.58l-5.491,2.837a22.422,22.422,0,0,0-4.892-4.15l1.872-5.874L31.607,0,29.744,5.844a22.433,22.433,0,0,0-6.43.525L20.507.936,10.58,6.064,13.387,11.5a22.407,22.407,0,0,0-4.15,4.94L3.393,14.575,0,25.22l5.874,1.872a22.4,22.4,0,0,0,.553,6.391L.936,36.32l5.129,9.926,5.529-2.856a22.426,22.426,0,0,0,4.881,4.083l-1.9,5.96L25.22,56.827l1.909-5.99a22.42,22.42,0,0,0,6.305-.532l2.885,5.586,9.927-5.128-2.885-5.586a22.414,22.414,0,0,0,4.083-4.834l5.99,1.909,3.393-10.645-5.96-1.9a22.419,22.419,0,0,0-.505-6.344ZM32.35,36.033a8.663,8.663,0,1,1,3.72-11.672,8.672,8.672,0,0,1-3.72,11.672" transform="translate(0 0)" fill="#69d2cd"/>
      </g>
    </g>
    <g id="Grupo_1204739" data-name="Grupo 1204739" transform="translate(640.425 1585.802)">
      <g id="Grupo_1204738" data-name="Grupo 1204738" clip-path="url(#clip-path-2)">
        <path id="Trazado_1263428" data-name="Trazado 1263428" d="M2.865,0H62.709a2.873,2.873,0,0,1,2.866,2.865V55.539A2.871,2.871,0,0,1,62.709,58.4H2.865A2.87,2.87,0,0,1,0,55.539V2.865A2.872,2.872,0,0,1,2.865,0"/>
        <path id="Trazado_1263429" data-name="Trazado 1263429" d="M11.378,11.538a.873.873,0,1,1,.91-.871.872.872,0,0,1-.91.871m5.038,0a.873.873,0,1,1,.91-.871.872.872,0,0,1-.91.871m5.035,0a.873.873,0,1,1,.911-.871.872.872,0,0,1-.911.871m10.046,0a.872.872,0,0,1,0-1.744H61.353a.872.872,0,1,1,0,1.744ZM5.324,15.873H67.407V6.443a1.125,1.125,0,0,0-1.119-1.119H6.443A1.125,1.125,0,0,0,5.324,6.443Z" transform="translate(-3.578 -3.578)" fill="#2c84c0"/>
        <path id="Trazado_1263430" data-name="Trazado 1263430" d="M67.407,42.821H5.324v41.5a1.125,1.125,0,0,0,1.12,1.119H66.288a1.125,1.125,0,0,0,1.12-1.119v-41.5Zm-46.875,28.5a.872.872,0,1,1-1.684-.45l3.735-13.939a.872.872,0,0,1,1.684.45Zm-3.157-3.4A.873.873,0,1,1,16.14,69.16l-4.491-4.489a.873.873,0,0,1,0-1.234l4.491-4.491a.873.873,0,0,1,1.234,1.234L13.5,64.053Zm41.4-17.66a2.7,2.7,0,1,1-2.557,3.573H49.866l-3.509,5.2a.874.874,0,0,1-.789.382l-11.106.012a.87.87,0,0,1,0-1.739l10.706-.011,3.49-5.164a.871.871,0,0,1,.746-.422h6.812a2.7,2.7,0,0,1,2.557-1.827ZM54.71,61.429A2.7,2.7,0,1,1,52.8,66.042,2.722,2.722,0,0,1,52.153,65H34.461a.873.873,0,0,1,0-1.746H52.153a2.727,2.727,0,0,1,.646-1.036,2.691,2.691,0,0,1,1.911-.792m4.062,11.163a2.7,2.7,0,1,1-2.557,3.574H49.4a.87.87,0,0,1-.746-.422l-3.494-5.172h-10.7a.872.872,0,1,1,0-1.744H45.626a.869.869,0,0,1,.722.385l3.517,5.207h6.348a2.71,2.71,0,0,1,2.558-1.829m-31.8-3.277a.873.873,0,0,1-1.234-1.234l3.874-3.874L25.74,60.334A.873.873,0,0,1,26.975,59.1l4.489,4.491a.87.87,0,0,1,0,1.234Z" transform="translate(-3.578 -28.781)" fill="#fff"/>
        <path id="Trazado_1263431" data-name="Trazado 1263431" d="M167.052,71.132a.958.958,0,1,0,.279.676.953.953,0,0,0-.279-.676" transform="translate(-111.183 -47.621)" fill="#31a7fb"/>
        <path id="Trazado_1263432" data-name="Trazado 1263432" d="M154.665,105.179a.955.955,0,1,0,.281.676.955.955,0,0,0-.281-.676" transform="translate(-102.858 -70.505)" fill="#31a7fb"/>
        <path id="Trazado_1263433" data-name="Trazado 1263433" d="M167.052,139.227a.956.956,0,1,0,.279.674.946.946,0,0,0-.279-.674" transform="translate(-111.183 -93.389)" fill="#31a7fb"/>
      </g>
    </g>
  </g>
</svg>
