<svg xmlns="http://www.w3.org/2000/svg" xmlns:xlink="http://www.w3.org/1999/xlink" width="261" height="145" viewBox="0 0 261 145">
  <defs>
    <clipPath id="clip-path">
      <rect id="Rectángulo_456041" data-name="Rectángulo 456041" width="164.795" height="124.312" fill="none"/>
    </clipPath>
    <clipPath id="clip-path-2">
      <rect id="Rectángulo_456040" data-name="Rectángulo 456040" width="164.796" height="124.312" fill="none"/>
    </clipPath>
    <clipPath id="clip-path-3">
      <rect id="Rectángulo_456002" data-name="Rectángulo 456002" width="60.566" height="100.102" fill="#c6ffcf"/>
    </clipPath>
    <clipPath id="clip-path-4">
      <rect id="Rectángulo_456003" data-name="Rectángulo 456003" width="5.2" height="7.323" fill="none"/>
    </clipPath>
    <clipPath id="clip-path-5">
      <rect id="Rectángulo_456009" data-name="Rectángulo 456009" width="2.918" height="2.918" fill="none"/>
    </clipPath>
    <clipPath id="clip-path-6">
      <rect id="Rectángulo_456011" data-name="Rectángulo 456011" width="2.917" height="2.918" fill="none"/>
    </clipPath>
    <clipPath id="clip-path-7">
      <rect id="Rectángulo_456012" data-name="Rectángulo 456012" width="7.848" height="11.056" fill="none"/>
    </clipPath>
    <clipPath id="clip-path-8">
      <rect id="Rectángulo_456018" data-name="Rectángulo 456018" width="4.406" height="4.405" fill="none"/>
    </clipPath>
    <clipPath id="clip-path-9">
      <rect id="Rectángulo_456020" data-name="Rectángulo 456020" width="4.405" height="4.405" fill="none"/>
    </clipPath>
    <clipPath id="clip-path-10">
      <rect id="Rectángulo_456021" data-name="Rectángulo 456021" width="7.85" height="11.056" fill="none"/>
    </clipPath>
    <clipPath id="clip-path-13">
      <rect id="Rectángulo_456030" data-name="Rectángulo 456030" width="7.851" height="11.056" fill="none"/>
    </clipPath>
    <clipPath id="clip-path-14">
      <rect id="Rectángulo_456036" data-name="Rectángulo 456036" width="4.404" height="4.405" fill="none"/>
    </clipPath>
  </defs>
  <g id="Grupo_1205043" data-name="Grupo 1205043" transform="translate(-1018.289 -7295.095)">
    <rect id="Rectángulo_454804" data-name="Rectángulo 454804" width="261" height="145" rx="25" transform="translate(1018.289 7295.095)" fill="#f7f7d7"/>
    <g id="Grupo_1204943" data-name="Grupo 1204943" transform="translate(1066.391 7305.438)">
      <g id="Grupo_1204942" data-name="Grupo 1204942" clip-path="url(#clip-path)">
        <g id="Grupo_1204941" data-name="Grupo 1204941">
          <g id="Grupo_1204940" data-name="Grupo 1204940" clip-path="url(#clip-path-2)">
            <path id="Trazado_1263631" data-name="Trazado 1263631" d="M221.716,209.832a4.872,4.872,0,0,1-4.648,5.068H105.1a4.872,4.872,0,0,1-4.648-5.068V119.867A4.872,4.872,0,0,1,105.1,114.8H217.068a4.873,4.873,0,0,1,4.648,5.069Z" transform="translate(-85.599 -97.821)" fill="#fff"/>
            <path id="Trazado_1263632" data-name="Trazado 1263632" d="M217.069,114.8H105.1a4.873,4.873,0,0,0-4.648,5.069v19.64H221.717v-19.64a4.873,4.873,0,0,0-4.648-5.069" transform="translate(-85.6 -97.821)" fill="#183968"/>
            <path id="Trazado_1263633" data-name="Trazado 1263633" d="M763.529,130.666a2.333,2.333,0,1,1-2.324-2.534,2.436,2.436,0,0,1,2.324,2.534" transform="translate(-646.654 -109.183)" fill="#ff614f"/>
            <path id="Trazado_1263634" data-name="Trazado 1263634" d="M815.495,130.666a2.333,2.333,0,1,1-2.324-2.534,2.436,2.436,0,0,1,2.324,2.534" transform="translate(-690.935 -109.183)" fill="#84e570"/>
            <path id="Trazado_1263635" data-name="Trazado 1263635" d="M869.635,130.666a2.333,2.333,0,1,1-2.324-2.534,2.436,2.436,0,0,1,2.324,2.534" transform="translate(-737.069 -109.183)" fill="#7d57ff"/>
            <path id="Trazado_1263636" data-name="Trazado 1263636" d="M266.282,149.191a3.773,3.773,0,0,1-3.6,3.924H191.817a3.939,3.939,0,0,1,0-7.849h70.865a3.773,3.773,0,0,1,3.6,3.924" transform="translate(-160.383 -123.784)" fill="#e3e8c0"/>
            <rect id="Rectángulo_455999" data-name="Rectángulo 455999" width="72.319" height="39.985" transform="translate(20.86 46.332)" fill="#b9f0e8"/>
            <rect id="Rectángulo_456000" data-name="Rectángulo 456000" width="109.382" height="7.321" transform="translate(20.86 93.638)" fill="#0d5fa3"/>
            <rect id="Rectángulo_456001" data-name="Rectángulo 456001" width="109.381" height="7.322" transform="translate(20.796 104.337)" fill="#0d5fa3"/>
            <g id="Grupo_1204903" data-name="Grupo 1204903" transform="translate(75.551 16.977)" opacity="0.06" style="isolation: isolate">
              <g id="Grupo_1204902" data-name="Grupo 1204902">
                <g id="Grupo_1204901" data-name="Grupo 1204901" clip-path="url(#clip-path-3)">
                  <path id="Trazado_1263637" data-name="Trazado 1263637" d="M566.8,114.8H510.879V214.9H566.8a4.872,4.872,0,0,0,4.648-5.068V119.867A4.873,4.873,0,0,0,566.8,114.8" transform="translate(-510.879 -114.798)" fill="#c6ffcf"/>
                </g>
              </g>
            </g>
            <path id="Trazado_1263638" data-name="Trazado 1263638" d="M0,222.259v31.832H23.04V227.61l-5.123-5.351Z" transform="translate(0 -189.39)" fill="#b9f0e8"/>
            <g id="Grupo_1204906" data-name="Grupo 1204906" transform="translate(18.013 35.938)" opacity="0.1" style="isolation: isolate">
              <g id="Grupo_1204905" data-name="Grupo 1204905">
                <g id="Grupo_1204904" data-name="Grupo 1204904" clip-path="url(#clip-path-4)">
                  <path id="Trazado_1263639" data-name="Trazado 1263639" d="M121.8,245.138l5.2,5.2v-5.2l-3.77-2.123Z" transform="translate(-121.803 -243.015)"/>
                </g>
              </g>
            </g>
            <path id="Trazado_1263640" data-name="Trazado 1263640" d="M126.27,227.61l-5.124.081v-5.432Z" transform="translate(-103.23 -189.39)" fill="#e8e8e8"/>
            <rect id="Rectángulo_456004" data-name="Rectángulo 456004" width="2.917" height="2.918" transform="translate(3.193 39.033)" fill="#0f3854"/>
            <rect id="Rectángulo_456005" data-name="Rectángulo 456005" width="2.917" height="0.656" transform="translate(3.193 42.604)" fill="#00b09e"/>
            <rect id="Rectángulo_456006" data-name="Rectángulo 456006" width="3.955" height="0.656" transform="translate(6.11 42.604)" fill="#dd3401"/>
            <rect id="Rectángulo_456007" data-name="Rectángulo 456007" width="4.047" height="0.656" transform="translate(10.065 42.604)" fill="#0f3854"/>
            <g id="Grupo_1204909" data-name="Grupo 1204909" transform="translate(7.147 39.033)" opacity="0.8" style="isolation: isolate">
              <g id="Grupo_1204908" data-name="Grupo 1204908">
                <g id="Grupo_1204907" data-name="Grupo 1204907" clip-path="url(#clip-path-5)">
                  <rect id="Rectángulo_456008" data-name="Rectángulo 456008" width="2.918" height="2.918" transform="translate(0)" fill="#0f3854"/>
                </g>
              </g>
            </g>
            <g id="Grupo_1204912" data-name="Grupo 1204912" transform="translate(11.195 39.033)" opacity="0.7" style="isolation: isolate">
              <g id="Grupo_1204911" data-name="Grupo 1204911">
                <g id="Grupo_1204910" data-name="Grupo 1204910" clip-path="url(#clip-path-6)">
                  <rect id="Rectángulo_456010" data-name="Rectángulo 456010" width="2.917" height="2.918" transform="translate(0)" fill="#0f3854"/>
                </g>
              </g>
            </g>
            <path id="Trazado_1263641" data-name="Trazado 1263641" d="M877.389,204.746V252.8H912.17V212.824l-7.733-8.078Z" transform="translate(-747.637 -174.467)" fill="#a5e1ea"/>
            <g id="Grupo_1204915" data-name="Grupo 1204915" transform="translate(156.947 34.911)" opacity="0.1" style="isolation: isolate">
              <g id="Grupo_1204914" data-name="Grupo 1204914">
                <g id="Grupo_1204913" data-name="Grupo 1204913" clip-path="url(#clip-path-7)">
                  <path id="Trazado_1263642" data-name="Trazado 1263642" d="M1061.276,239.273l7.849,7.851v-7.851l-5.691-3.205Z" transform="translate(-1061.276 -236.067)"/>
                </g>
              </g>
            </g>
            <path id="Trazado_1263643" data-name="Trazado 1263643" d="M1068.021,212.824l-7.734.121v-8.2Z" transform="translate(-903.487 -174.467)" fill="#e8e8e8"/>
            <rect id="Rectángulo_456013" data-name="Rectángulo 456013" width="4.405" height="4.405" transform="translate(134.572 39.585)" fill="#0f3854"/>
            <rect id="Rectángulo_456014" data-name="Rectángulo 456014" width="4.405" height="0.992" transform="translate(134.572 44.975)" fill="#00b09e"/>
            <rect id="Rectángulo_456015" data-name="Rectángulo 456015" width="5.971" height="0.992" transform="translate(138.977 44.975)" fill="#dd3401"/>
            <rect id="Rectángulo_456016" data-name="Rectángulo 456016" width="6.11" height="0.992" transform="translate(144.948 44.975)" fill="#0f3854"/>
            <g id="Grupo_1204918" data-name="Grupo 1204918" transform="translate(140.542 39.585)" opacity="0.8" style="isolation: isolate">
              <g id="Grupo_1204917" data-name="Grupo 1204917">
                <g id="Grupo_1204916" data-name="Grupo 1204916" clip-path="url(#clip-path-8)">
                  <rect id="Rectángulo_456017" data-name="Rectángulo 456017" width="4.406" height="4.405" fill="#0f3854"/>
                </g>
              </g>
            </g>
            <g id="Grupo_1204921" data-name="Grupo 1204921" transform="translate(146.653 39.585)" opacity="0.7" style="isolation: isolate">
              <g id="Grupo_1204920" data-name="Grupo 1204920">
                <g id="Grupo_1204919" data-name="Grupo 1204919" clip-path="url(#clip-path-9)">
                  <rect id="Rectángulo_456019" data-name="Rectángulo 456019" width="4.405" height="4.405" fill="#0f3854"/>
                </g>
              </g>
            </g>
            <path id="Trazado_1263644" data-name="Trazado 1263644" d="M329.3,515.657v48.055h34.782V523.735l-7.734-8.078Z" transform="translate(-280.599 -439.4)" fill="#c6ffcf"/>
            <g id="Grupo_1204924" data-name="Grupo 1204924" transform="translate(75.891 80.89)" opacity="0.1" style="isolation: isolate">
              <g id="Grupo_1204923" data-name="Grupo 1204923">
                <g id="Grupo_1204922" data-name="Grupo 1204922" clip-path="url(#clip-path-10)">
                  <path id="Trazado_1263645" data-name="Trazado 1263645" d="M513.177,550.185l7.85,7.85v-7.85l-5.69-3.206Z" transform="translate(-513.177 -546.979)"/>
                </g>
              </g>
            </g>
            <path id="Trazado_1263646" data-name="Trazado 1263646" d="M519.928,523.735l-7.734.121v-8.2Z" transform="translate(-436.448 -439.399)" fill="#e8e8e8"/>
            <rect id="Rectángulo_456022" data-name="Rectángulo 456022" width="4.405" height="4.405" transform="translate(53.518 85.564)" fill="#0f3854"/>
            <rect id="Rectángulo_456023" data-name="Rectángulo 456023" width="4.405" height="0.991" transform="translate(53.518 90.955)" fill="#00b09e"/>
            <rect id="Rectángulo_456024" data-name="Rectángulo 456024" width="5.97" height="0.991" transform="translate(57.922 90.955)" fill="#dd3401"/>
            <rect id="Rectángulo_456025" data-name="Rectángulo 456025" width="6.111" height="0.991" transform="translate(63.893 90.955)" fill="#0f3854"/>
            <g id="Grupo_1204927" data-name="Grupo 1204927" transform="translate(59.488 85.564)" opacity="0.8" style="isolation: isolate">
              <g id="Grupo_1204926" data-name="Grupo 1204926">
                <g id="Grupo_1204925" data-name="Grupo 1204925" clip-path="url(#clip-path-9)">
                  <rect id="Rectángulo_456026" data-name="Rectángulo 456026" width="4.405" height="4.405" fill="#0f3854"/>
                </g>
              </g>
            </g>
            <g id="Grupo_1204930" data-name="Grupo 1204930" transform="translate(65.599 85.564)" opacity="0.7" style="isolation: isolate">
              <g id="Grupo_1204929" data-name="Grupo 1204929">
                <g id="Grupo_1204928" data-name="Grupo 1204928" clip-path="url(#clip-path-9)">
                  <rect id="Rectángulo_456028" data-name="Rectángulo 456028" width="4.405" height="4.405" fill="#0f3854"/>
                </g>
              </g>
            </g>
            <path id="Trazado_1263647" data-name="Trazado 1263647" d="M354.882,0V48.055h34.782V8.078L381.931,0Z" transform="translate(-302.4)" fill="#69d2cd"/>
            <g id="Grupo_1204933" data-name="Grupo 1204933" transform="translate(79.675 4.632)" opacity="0.1" style="isolation: isolate">
              <g id="Grupo_1204932" data-name="Grupo 1204932">
                <g id="Grupo_1204931" data-name="Grupo 1204931" clip-path="url(#clip-path-13)">
                  <path id="Trazado_1263648" data-name="Trazado 1263648" d="M538.763,34.527l7.851,7.85v-7.85l-5.69-3.206Z" transform="translate(-538.763 -31.321)"/>
                </g>
              </g>
            </g>
            <path id="Trazado_1263649" data-name="Trazado 1263649" d="M545.52,8.078l-7.733.121V0Z" transform="translate(-458.256 0)" fill="#e8e8e8"/>
            <rect id="Rectángulo_456031" data-name="Rectángulo 456031" width="4.406" height="4.405" transform="translate(57.301 9.306)" fill="#0f3854"/>
            <rect id="Rectángulo_456032" data-name="Rectángulo 456032" width="4.406" height="0.991" transform="translate(57.301 14.697)" fill="#00b09e"/>
            <rect id="Rectángulo_456033" data-name="Rectángulo 456033" width="5.969" height="0.991" transform="translate(61.707 14.697)" fill="#dd3401"/>
            <rect id="Rectángulo_456034" data-name="Rectángulo 456034" width="6.112" height="0.991" transform="translate(67.676 14.697)" fill="#0f3854"/>
            <g id="Grupo_1204936" data-name="Grupo 1204936" transform="translate(63.272 9.306)" opacity="0.8" style="isolation: isolate">
              <g id="Grupo_1204935" data-name="Grupo 1204935">
                <g id="Grupo_1204934" data-name="Grupo 1204934" clip-path="url(#clip-path-14)">
                  <rect id="Rectángulo_456035" data-name="Rectángulo 456035" width="4.404" height="4.405" fill="#0f3854"/>
                </g>
              </g>
            </g>
            <g id="Grupo_1204939" data-name="Grupo 1204939" transform="translate(69.382 9.306)" opacity="0.7" style="isolation: isolate">
              <g id="Grupo_1204938" data-name="Grupo 1204938">
                <g id="Grupo_1204937" data-name="Grupo 1204937" clip-path="url(#clip-path-8)">
                  <rect id="Rectángulo_456037" data-name="Rectángulo 456037" width="4.406" height="4.405" fill="#0f3854"/>
                </g>
              </g>
            </g>
            <path id="Trazado_1263650" data-name="Trazado 1263650" d="M116.487,343.1l-5.049-5.05H75.7v-1.42h36.322l5.466,5.466Z" transform="translate(-64.508 -286.846)" fill="#231f20"/>
            <path id="Trazado_1263651" data-name="Trazado 1263651" d="M62.552,323.926a2.76,2.76,0,1,1-2.759-2.761,2.76,2.76,0,0,1,2.759,2.761" transform="translate(-48.597 -273.67)" fill="#231f20"/>
            <path id="Trazado_1263652" data-name="Trazado 1263652" d="M341.732,361.263a2.761,2.761,0,1,1-2.76-2.76,2.76,2.76,0,0,1,2.76,2.76" transform="translate(-286.49 -305.486)" fill="#231f20"/>
            <path id="Trazado_1263653" data-name="Trazado 1263653" d="M433.744,685.339a2.761,2.761,0,1,1-2.761-2.761,2.761,2.761,0,0,1,2.761,2.761" transform="translate(-364.895 -581.635)" fill="#231f20"/>
            <path id="Trazado_1263654" data-name="Trazado 1263654" d="M444.492,361.263a2.76,2.76,0,1,1-2.761-2.76,2.76,2.76,0,0,1,2.761,2.76" transform="translate(-374.054 -305.486)" fill="#231f20"/>
            <path id="Trazado_1263655" data-name="Trazado 1263655" d="M341.732,421.6a2.761,2.761,0,1,1-2.76-2.76,2.76,2.76,0,0,1,2.76,2.76" transform="translate(-286.49 -356.901)" fill="#231f20"/>
            <path id="Trazado_1263656" data-name="Trazado 1263656" d="M981.844,357.949a2.761,2.761,0,1,1-2.761-2.761,2.761,2.761,0,0,1,2.761,2.761" transform="translate(-831.939 -302.661)" fill="#231f20"/>
            <path id="Trazado_1263657" data-name="Trazado 1263657" d="M445.325,421.6a2.76,2.76,0,1,1-2.76-2.76,2.76,2.76,0,0,1,2.76,2.76" transform="translate(-374.764 -356.901)" fill="#231f20"/>
            <path id="Trazado_1263658" data-name="Trazado 1263658" d="M444.492,155.9a2.76,2.76,0,1,1-2.761-2.76,2.76,2.76,0,0,1,2.761,2.76" transform="translate(-374.054 -130.491)" fill="#231f20"/>
            <rect id="Rectángulo_456039" data-name="Rectángulo 456039" width="1.419" height="29.368" transform="translate(66.968 26.409)" fill="#231f20"/>
            <path id="Trazado_1263659" data-name="Trazado 1263659" d="M456.081,379.426l-1-1,9.665-9.665h69.689v1.419h-69.1Z" transform="translate(-387.779 -314.224)" fill="#231f20"/>
            <path id="Trazado_1263660" data-name="Trazado 1263660" d="M366.452,473.619h-1.42V448.666l-13.548-13.548,1-1,13.964,13.963Z" transform="translate(-299.505 -369.915)" fill="#231f20"/>
          </g>
        </g>
      </g>
    </g>
  </g>
</svg>
