<svg id="Grupo_1204711" data-name="Grupo 1204711" xmlns="http://www.w3.org/2000/svg" xmlns:xlink="http://www.w3.org/1999/xlink" width="149.522" height="130.815" viewBox="0 0 149.522 130.815">
  <defs>
    <clipPath id="clip-path">
      <rect id="Rectángulo_455701" data-name="Rectángulo 455701" width="149.522" height="130.815" fill="none"/>
    </clipPath>
  </defs>
  <g id="Grupo_1204710" data-name="Grupo 1204710" clip-path="url(#clip-path)">
    <path id="Trazado_1263116" data-name="Trazado 1263116" d="M40.723,95.476a14.5,14.5,0,0,1,1.619.092l.733-2.411L48.16,94.7l-.733,2.411a14.472,14.472,0,0,1,4.669,3.835l2.222-1.186,2.5,4.688L54.6,105.637a14.484,14.484,0,0,1,.588,6.014l2.41.733-1.546,5.084-2.41-.733a14.49,14.49,0,0,1-3.835,4.669l1.186,2.222-4.688,2.5-1.186-2.222a14.484,14.484,0,0,1-4.394.68v-3.807a10.749,10.749,0,0,0,0-21.5V95.476ZM31.64,98.658l-1.186-2.222,4.687-2.5,1.187,2.221a14.466,14.466,0,0,1,4.394-.68v3.806a10.749,10.749,0,0,0,0,21.5v3.807a14.517,14.517,0,0,1-1.62-.092l-.733,2.411-5.084-1.546.733-2.411a14.466,14.466,0,0,1-4.669-3.835L27.127,120.3l-2.5-4.688,2.222-1.187a14.479,14.479,0,0,1-.588-6.013l-2.41-.733,1.546-5.085,2.41.733a14.5,14.5,0,0,1,3.835-4.668" transform="translate(-12.93 -50.505)" fill="#427bad"/>
    <path id="Trazado_1263117" data-name="Trazado 1263117" d="M249.229,154.689a19.743,19.743,0,0,1,2.2.125l1-3.281,6.919,2.1-1,3.281a19.706,19.706,0,0,1,6.354,5.219l3.023-1.613,3.406,6.38-3.023,1.613a19.722,19.722,0,0,1,.8,8.184l3.28,1-2.1,6.919-3.28-1a19.717,19.717,0,0,1-5.219,6.355L263.2,193l-6.38,3.4-1.613-3.024a19.743,19.743,0,0,1-5.98.925v-5.181a14.628,14.628,0,0,0,0-29.255v-5.18Zm-12.36,4.33L235.255,156l6.379-3.406,1.616,3.024a19.713,19.713,0,0,1,5.98-.926v5.18a14.628,14.628,0,0,0,0,29.256V194.3a19.86,19.86,0,0,1-2.2-.125l-1,3.281-6.919-2.1,1-3.281a19.7,19.7,0,0,1-6.354-5.219l-3.025,1.613-3.4-6.38,3.024-1.615a19.7,19.7,0,0,1-.8-8.183l-3.28-1,2.1-6.92,3.28,1a19.7,19.7,0,0,1,5.22-6.354" transform="translate(-122.669 -82.153)" fill="#427bad"/>
    <path id="Trazado_1263118" data-name="Trazado 1263118" d="M54.666,122.165h89.876a3.35,3.35,0,0,1,3.34,3.34v56.78a3.35,3.35,0,0,1-3.34,3.34H54.666a3.35,3.35,0,0,1-3.34-3.34v-56.78a3.35,3.35,0,0,1,3.34-3.34" transform="translate(-27.826 -66.231)" fill="#013c5c" fill-rule="evenodd"/>
    <rect id="Rectángulo_455698" data-name="Rectángulo 455698" width="86.536" height="46.456" transform="translate(28.51 62.56)" fill="#f06358"/>
    <path id="Trazado_1263119" data-name="Trazado 1263119" d="M155.333,129.437a1.214,1.214,0,1,0-1.214-1.215,1.215,1.215,0,0,0,1.214,1.215" transform="translate(-83.555 -68.858)" fill="#6a7573" fill-rule="evenodd"/>
    <rect id="Rectángulo_455699" data-name="Rectángulo 455699" width="4.106" height="4.106" transform="translate(69.725 111.908)" fill="#6a7573"/>
    <path id="Trazado_1263120" data-name="Trazado 1263120" d="M31.468,260.769h96.556l16.77,7.135H14.7Z" transform="translate(-7.968 -141.375)" fill="#6a7573" fill-rule="evenodd"/>
    <path id="Trazado_1263121" data-name="Trazado 1263121" d="M14.7,276.352h130.1v1.873a2.422,2.422,0,0,1-2.414,2.414H17.112a2.421,2.421,0,0,1-2.414-2.414v-1.873Z" transform="translate(-7.968 -149.823)" fill="#013c5c" fill-rule="evenodd"/>
    <rect id="Rectángulo_455700" data-name="Rectángulo 455700" width="26.279" height="1.675" transform="translate(58.638 127.847)" fill="#f06358"/>
    <path id="Trazado_1263122" data-name="Trazado 1263122" d="M54.385,262.017H63.41c-.462.277-.914.554-1.365.831H52.693l1.692-.831" transform="translate(-28.567 -142.052)" fill="#fff" fill-rule="evenodd"/>
    <path id="Trazado_1263123" data-name="Trazado 1263123" d="M91.252,262.017h9.025l-.744.831H90.169l1.083-.831" transform="translate(-48.885 -142.052)" fill="#fff" fill-rule="evenodd"/>
    <path id="Trazado_1263124" data-name="Trazado 1263124" d="M128.133,262.017h9.036c-.034.277-.079.554-.124.831h-9.375c.158-.276.316-.554.462-.831" transform="translate(-69.216 -142.052)" fill="#fff" fill-rule="evenodd"/>
    <path id="Trazado_1263125" data-name="Trazado 1263125" d="M164.852,262.017h9.036c.158.277.327.554.485.831H165c-.045-.276-.09-.554-.147-.831" transform="translate(-89.374 -142.052)" fill="#fff" fill-rule="evenodd"/>
    <path id="Trazado_1263126" data-name="Trazado 1263126" d="M201.023,262.017h9.025c.372.277.744.554,1.106.831H201.79c-.249-.276-.508-.554-.767-.831" transform="translate(-108.984 -142.052)" fill="#fff" fill-rule="evenodd"/>
    <path id="Trazado_1263127" data-name="Trazado 1263127" d="M237.193,262.017h9.036c.576.277,1.151.554,1.715.831h-9.375c-.451-.276-.913-.554-1.376-.831" transform="translate(-128.594 -142.052)" fill="#fff" fill-rule="evenodd"/>
    <path id="Trazado_1263128" data-name="Trazado 1263128" d="M48.027,265.142h9.6c-.451.277-.914.554-1.365.831H46.335c.553-.277,1.128-.554,1.692-.831" transform="translate(-25.12 -143.746)" fill="#fff" fill-rule="evenodd"/>
    <path id="Trazado_1263129" data-name="Trazado 1263129" d="M87.212,265.142h9.6c-.248.277-.508.554-.744.831H86.129c.349-.277.722-.554,1.083-.831" transform="translate(-46.695 -143.746)" fill="#fff" fill-rule="evenodd"/>
    <path id="Trazado_1263130" data-name="Trazado 1263130" d="M126.395,265.142h9.612q-.068.416-.136.831h-9.95l.474-.831" transform="translate(-68.268 -143.746)" fill="#fff" fill-rule="evenodd"/>
    <path id="Trazado_1263131" data-name="Trazado 1263131" d="M165.418,265.142h9.612c.158.277.316.554.485.831h-9.95c-.056-.277-.1-.554-.147-.831" transform="translate(-89.681 -143.746)" fill="#fff" fill-rule="evenodd"/>
    <path id="Trazado_1263132" data-name="Trazado 1263132" d="M203.9,265.142h9.6c.361.277.733.554,1.094.831h-9.939c-.249-.277-.508-.554-.756-.831" transform="translate(-110.547 -143.746)" fill="#fff" fill-rule="evenodd"/>
    <path id="Trazado_1263133" data-name="Trazado 1263133" d="M242.368,265.142h9.623c.564.277,1.139.554,1.7.831h-9.95c-.452-.277-.914-.554-1.377-.831" transform="translate(-131.399 -143.746)" fill="#fff" fill-rule="evenodd"/>
    <path id="Trazado_1263134" data-name="Trazado 1263134" d="M41.645,268.266H51.821c-.462.277-.9.554-1.365.831h-10.5c.565-.277,1.117-.554,1.692-.831" transform="translate(-21.66 -145.44)" fill="#fff" fill-rule="evenodd"/>
    <path id="Trazado_1263135" data-name="Trazado 1263135" d="M83.134,268.266H93.322c-.26.277-.5.554-.744.831H82.063c.361-.277.711-.554,1.071-.831" transform="translate(-44.49 -145.44)" fill="#fff" fill-rule="evenodd"/>
    <path id="Trazado_1263136" data-name="Trazado 1263136" d="M124.634,268.266h10.2c-.056.277-.09.554-.135.831H124.172c.158-.277.3-.554.462-.831" transform="translate(-67.32 -145.44)" fill="#fff" fill-rule="evenodd"/>
    <path id="Trazado_1263137" data-name="Trazado 1263137" d="M165.96,268.266h10.2c.147.277.316.554.474.831H166.107c-.044-.277-.1-.554-.147-.831" transform="translate(-89.975 -145.44)" fill="#fff" fill-rule="evenodd"/>
    <path id="Trazado_1263138" data-name="Trazado 1263138" d="M206.764,268.266h10.187c.35.277.722.554,1.083.831H207.52c-.249-.277-.508-.554-.756-.831" transform="translate(-112.097 -145.44)" fill="#fff" fill-rule="evenodd"/>
    <path id="Trazado_1263139" data-name="Trazado 1263139" d="M247.543,268.266h10.2c.564.277,1.14.554,1.7.831H248.919c-.451-.277-.925-.554-1.376-.831" transform="translate(-134.205 -145.44)" fill="#fff" fill-rule="evenodd"/>
    <path id="Trazado_1263140" data-name="Trazado 1263140" d="M35.276,271.39H144.681c.576.277,1.14.554,1.7.83H33.572c.576-.277,1.14-.553,1.7-.83" transform="translate(-18.201 -147.133)" fill="#fff" fill-rule="evenodd"/>
    <path id="Trazado_1263141" data-name="Trazado 1263141" d="M148.8,136.638,62.268,183.094H148.8Z" transform="translate(-33.758 -74.078)" fill="#ee4e42" fill-rule="evenodd"/>
    <path id="Trazado_1263142" data-name="Trazado 1263142" d="M130.31,82.931a19.843,19.843,0,0,1,2.2.125l1-3.281,6.919,2.1-1,3.281a19.706,19.706,0,0,1,6.354,5.219l3.024-1.613,3.406,6.38-3.024,1.613a19.73,19.73,0,0,1,.8,8.184l3.28,1-2.1,6.919-3.28-1a19.723,19.723,0,0,1-5.22,6.355l1.613,3.024-6.38,3.4-1.614-3.024a19.733,19.733,0,0,1-5.98.925v-5.181a14.628,14.628,0,0,0,0-29.256v-5.18Zm-12.36,4.33-1.614-3.024,6.379-3.406,1.616,3.024a19.713,19.713,0,0,1,5.98-.925v5.18a14.628,14.628,0,0,0,0,29.256v5.181a19.742,19.742,0,0,1-2.2-.125l-1,3.281-6.919-2.1,1-3.281a19.69,19.69,0,0,1-6.354-5.219l-3.025,1.613-3.4-6.38,3.024-1.614a19.7,19.7,0,0,1-.8-8.184l-3.28-1,2.1-6.92,3.28,1a19.72,19.72,0,0,1,5.22-6.353" transform="translate(-58.197 -43.25)" fill="#b5d973"/>
    <path id="Trazado_1263143" data-name="Trazado 1263143" d="M91.257,181.725l1.795,1.506-3.731,4.444-1.795-1.508a13.344,13.344,0,0,1-4.207,2.192l.2,2.335-4.243.371v-6.542a9.062,9.062,0,0,0,0-18.124v-6.542l1.536-.134.2,2.334a13.507,13.507,0,0,1,4.525,1.429l1.507-1.8,4.444,3.729-1.507,1.8a13.357,13.357,0,0,1,2.19,4.209l2.335-.2L95.018,177l-2.337.2a13.328,13.328,0,0,1-1.424,4.525m-11.977,9.34-1.537.134-.2-2.335a13.5,13.5,0,0,1-4.522-1.428l-1.508,1.8L67.065,185.5l1.507-1.8a13.336,13.336,0,0,1-2.191-4.209l-2.334.2-.505-5.779,2.334-.2A13.411,13.411,0,0,1,67.3,169.2l-1.795-1.508,3.728-4.443,1.8,1.507a13.349,13.349,0,0,1,4.208-2.19l-.2-2.335,4.243-.371V166.4a9.062,9.062,0,0,0,0,18.124v6.542Z" transform="translate(-34.449 -86.593)" fill="#b3d6f5"/>
    <path id="Trazado_1263144" data-name="Trazado 1263144" d="M212.763,208.132a9.25,9.25,0,1,0-9.25-9.25,9.268,9.268,0,0,0,9.25,9.25" transform="translate(-110.334 -102.808)" fill="#fff" fill-rule="evenodd"/>
    <path id="Trazado_1263145" data-name="Trazado 1263145" d="M212.763,208.132a9.25,9.25,0,1,0-9.25-9.25A9.268,9.268,0,0,0,212.763,208.132Z" transform="translate(-110.334 -102.808)" fill="none" stroke="#000" stroke-miterlimit="22.926" stroke-width="0.567"/>
    <path id="Trazado_1263146" data-name="Trazado 1263146" d="M211.543,189.3a8.363,8.363,0,0,1,0,16.727v1.917a10.28,10.28,0,1,0,0-20.56Zm0,0h0v-1.917a10.28,10.28,0,1,0,0,20.56v-1.917a8.363,8.363,0,1,1,0-16.726" transform="translate(-109.114 -101.588)" fill="#ffae00" fill-rule="evenodd"/>
    <path id="Trazado_1263147" data-name="Trazado 1263147" d="M223.147,196.533h0a.481.481,0,0,1,.48.48v5.13a.48.48,0,0,1-.96,0v-5.13a.482.482,0,0,1,.48-.48" transform="translate(-120.718 -106.55)" fill="#ffae00" fill-rule="evenodd"/>
    <path id="Trazado_1263148" data-name="Trazado 1263148" d="M215.2,202.17h0a.481.481,0,0,1,.678-.038l3.119,2.783a.48.48,0,1,1-.639.716l-3.119-2.783a.482.482,0,0,1-.038-.678" transform="translate(-116.602 -109.519)" fill="#ffae00" fill-rule="evenodd"/>
    <path id="Trazado_1263149" data-name="Trazado 1263149" d="M223.088,193.133a.53.53,0,1,1-.53.53.53.53,0,0,1,.53-.53" transform="translate(-120.659 -104.707)" fill="#ffae00" fill-rule="evenodd"/>
    <path id="Trazado_1263150" data-name="Trazado 1263150" d="M239.768,209.656a.53.53,0,1,1-.531-.53.531.531,0,0,1,.531.53" transform="translate(-129.414 -113.377)" fill="#ffae00" fill-rule="evenodd"/>
    <path id="Trazado_1263151" data-name="Trazado 1263151" d="M223.244,226.336a.53.53,0,1,1,.531-.53.531.531,0,0,1-.531.53" transform="translate(-120.744 -122.133)" fill="#ffae00" fill-rule="evenodd"/>
    <path id="Trazado_1263152" data-name="Trazado 1263152" d="M206.564,209.812a.531.531,0,1,1,.531.531.53.53,0,0,1-.531-.531" transform="translate(-111.988 -113.462)" fill="#ffae00" fill-rule="evenodd"/>
    <path id="Trazado_1263153" data-name="Trazado 1263153" d="M222.247,209.606a1.241,1.241,0,1,0-1.241-1.241,1.244,1.244,0,0,0,1.241,1.241" transform="translate(-119.818 -112.292)" fill="#ffae00" fill-rule="evenodd"/>
    <path id="Trazado_1263154" data-name="Trazado 1263154" d="M212.258,39.42c3.63.744,6.346,3.507,6.346,6.778a6.905,6.905,0,0,1-6.652,6.836h-16.87a7.159,7.159,0,0,1-7.274-6.836c0-3.271,2.716-6.035,6.346-6.778,0-.065,0-.131,0-.2,0-4.2,4.054-7.609,9.055-7.609s9.055,3.407,9.055,7.609c0,.066,0,.132,0,.2" transform="translate(-101.82 -17.139)" fill="#fff" fill-rule="evenodd"/>
    <path id="Trazado_1263155" data-name="Trazado 1263155" d="M191.476,36.157c2.536.52,4.435,2.451,4.435,4.736a4.825,4.825,0,0,1-4.649,4.777H179.474a5,5,0,0,1-5.083-4.777c0-2.286,1.9-4.216,4.434-4.736,0-.046,0-.092,0-.138,0-2.937,2.833-5.317,6.328-5.317s6.328,2.38,6.328,5.317l0,.137" transform="translate(-94.546 -16.646)" fill="#91bde3" fill-rule="evenodd"/>
    <path id="Trazado_1263156" data-name="Trazado 1263156" d="M10.233,162.066a8.869,8.869,0,0,1,.982.056l.445-1.462,3.083.938-.445,1.461a8.787,8.787,0,0,1,2.832,2.326l1.347-.719L20,167.509l-1.347.719A8.794,8.794,0,0,1,19,171.876l1.461.445-.937,3.083-1.461-.445a8.8,8.8,0,0,1-2.326,2.832l.719,1.347-2.843,1.517-.719-1.347a8.788,8.788,0,0,1-2.664.412v-2.308a6.519,6.519,0,0,0,0-13.037v-2.308ZM4.725,164l-.719-1.347,2.842-1.517.72,1.347a8.786,8.786,0,0,1,2.665-.412v2.308a6.519,6.519,0,0,0,0,13.037v2.308a8.761,8.761,0,0,1-.983-.056l-.445,1.462-3.084-.938.445-1.461A8.78,8.78,0,0,1,3.335,176.4l-1.348.719L.471,174.277l1.347-.72a8.784,8.784,0,0,1-.357-3.647L0,169.466l.937-3.083,1.462.445A8.781,8.781,0,0,1,4.725,164" transform="translate(0 -87.101)" fill="#427bad"/>
    <path id="Trazado_1263157" data-name="Trazado 1263157" d="M171.49,197.639a.626.626,0,0,0-.1-1.247l-.059.005-.244.018-.241.015-.237.011-.234.007-.189,0a.626.626,0,0,0,.011,1.252l.208,0,.253-.008.255-.012.258-.016.261-.02Z" transform="translate(-91.928 -106.473)" fill="#cae4fc"/>
    <path id="Trazado_1263158" data-name="Trazado 1263158" d="M187.644,193.87a.626.626,0,0,0-.215-1.217.638.638,0,0,0-.2.035l-.132.047-.314.108-.312.1-.309.1-.1.032a.626.626,0,1,0,.374,1.194l.111-.035.319-.1.32-.108.323-.111Z" transform="translate(-100.638 -104.446)" fill="#cae4fc"/>
    <path id="Trazado_1263159" data-name="Trazado 1263159" d="M202.831,187.328a.626.626,0,0,0-.442-1.164.725.725,0,0,0-.119.045l-.25.126-.351.175-.349.172-.161.078a.625.625,0,1,0,.541,1.128l.167-.081.356-.175.357-.178Z" transform="translate(-108.866 -100.916)" fill="#cae4fc"/>
    <path id="Trazado_1263160" data-name="Trazado 1263160" d="M217.2,179.2a.625.625,0,1,0-.663-1.061l-.2.125-.371.231-.37.228-.116.071a.626.626,0,0,0,.511,1.133.645.645,0,0,0,.136-.062l.121-.074.375-.231.376-.234Z" transform="translate(-116.658 -96.525)" fill="#cae4fc"/>
    <path id="Trazado_1263161" data-name="Trazado 1263161" d="M230.824,169.906a.626.626,0,1,0-.741-1.008l-.342.253-.378.277-.285.206a.626.626,0,0,0,.732,1.015l.289-.21.383-.28Z" transform="translate(-124.053 -91.502)" fill="#cae4fc"/>
    <path id="Trazado_1263162" data-name="Trazado 1263162" d="M243.731,159.642a.626.626,0,0,0-.7-1.027.731.731,0,0,0-.111.076l-.125.107-.376.32-.376.317-.071.059a.626.626,0,0,0,.589,1.078.633.633,0,0,0,.211-.115l.075-.063.381-.321.38-.324Z" transform="translate(-131.06 -85.952)" fill="#cae4fc"/>
    <path id="Trazado_1263163" data-name="Trazado 1263163" d="M255.9,148.513a.626.626,0,0,0-.76-.983.691.691,0,0,0-.119.092l-.055.054-.365.358-.366.355-.1.1a.626.626,0,1,0,.865.9l.109-.1.37-.359.369-.362Z" transform="translate(-137.672 -79.934)" fill="#cae4fc"/>
    <path id="Trazado_1263164" data-name="Trazado 1263164" d="M267.263,136.572a.626.626,0,0,0-.937-.83l-.2.223-.347.39-.284.315a.626.626,0,0,0,.718.991.615.615,0,0,0,.21-.152l.288-.32.351-.395Z" transform="translate(-143.85 -73.478)" fill="#cae4fc"/>
    <path id="Trazado_1263165" data-name="Trazado 1263165" d="M277.747,123.837a.626.626,0,0,0-.838-.9.635.635,0,0,0-.158.146l-.236.311-.322.42-.2.256a.626.626,0,0,0,.828.913.644.644,0,0,0,.159-.144l.2-.262.326-.426Z" transform="translate(-149.557 -66.592)" fill="#cae4fc"/>
    <path id="Trazado_1263166" data-name="Trazado 1263166" d="M287.232,110.34a.626.626,0,1,0-1.053-.676l-.218.341-.29.448-.168.256a.626.626,0,1,0,1.045.689l.172-.262.294-.454Z" transform="translate(-154.729 -59.298)" fill="#cae4fc"/>
    <path id="Trazado_1263167" data-name="Trazado 1263167" d="M295.558,96.088a.626.626,0,0,0-.98-.749.638.638,0,0,0-.128.168l-.174.335-.25.473-.156.291a.626.626,0,1,0,1.1.6l.16-.3.254-.48Z" transform="translate(-159.279 -51.596)" fill="#cae4fc"/>
    <path id="Trazado_1263168" data-name="Trazado 1263168" d="M302.546,81.138a.626.626,0,1,0-1.16-.47l-.124.308-.2.5-.145.346a.626.626,0,0,0,1.153.487l.148-.354.206-.5Z" transform="translate(-163.112 -43.522)" fill="#cae4fc"/>
    <path id="Trazado_1263169" data-name="Trazado 1263169" d="M307.99,65.556a.626.626,0,0,0-1.157-.46.661.661,0,0,0-.047.118l-.072.258-.149.516-.125.418a.626.626,0,1,0,1.2.361l.127-.428.152-.525Z" transform="translate(-166.12 -35.109)" fill="#cae4fc"/>
    <path id="Trazado_1263170" data-name="Trazado 1263170" d="M311.674,49.474a.625.625,0,1,0-1.235-.2l-.025.16-.087.533-.092.53a.626.626,0,0,0,1.166.407.653.653,0,0,0,.066-.188l.094-.541.089-.544Z" transform="translate(-168.187 -26.43)" fill="#cae4fc"/>
    <path id="Trazado_1263171" data-name="Trazado 1263171" d="M302.064,35.585l5.857-8.111,3.715,9.29Z" transform="translate(-163.763 -14.895)" fill="#cae4fc"/>
    <path id="Trazado_1263172" data-name="Trazado 1263172" d="M156.582,190.435a.625.625,0,1,0-1.106.585l.1.173.1.169.106.164.112.16.117.155.122.15.127.145.029.03a.626.626,0,0,0,1.043-.656.635.635,0,0,0-.116-.185l-.029-.03-.1-.112-.094-.115-.09-.119-.086-.123-.082-.126-.078-.13Z" transform="translate(-84.252 -103.064)" fill="#cae4fc"/>
    <path id="Trazado_1263173" data-name="Trazado 1263173" d="M173.623,190.4a.626.626,0,1,0-.332-1.206l-.269.076-.292.079-.29.074-.287.07-.044.01a.626.626,0,0,0,.083,1.233.655.655,0,0,0,.191-.013l.06-.014.3-.074.3-.078.305-.082Z" transform="translate(-93.045 -102.556)" fill="#cae4fc"/>
    <path id="Trazado_1263174" data-name="Trazado 1263174" d="M189.014,184.189a.626.626,0,1,0-.565-1.116l-.2.1-.331.166-.329.162-.251.121a.626.626,0,1,0,.54,1.129l.26-.125.337-.166.338-.17Z" transform="translate(-101.374 -99.215)" fill="#cae4fc"/>
    <path id="Trazado_1263175" data-name="Trazado 1263175" d="M203.253,175.77a.626.626,0,0,0-.4-1.143.614.614,0,0,0-.3.1l-.106.072-.348.232-.347.229-.233.152a.626.626,0,1,0,.679,1.051l.239-.156.353-.233.354-.237Z" transform="translate(-109.099 -94.672)" fill="#cae4fc"/>
    <path id="Trazado_1263176" data-name="Trazado 1263176" d="M216.52,165.943a.626.626,0,0,0-.789-.971l-.114.093-.352.284-.352.282-.15.119a.626.626,0,1,0,.774.983l.155-.123.357-.286.357-.288Z" transform="translate(-116.303 -89.363)" fill="#cae4fc"/>
    <path id="Trazado_1263177" data-name="Trazado 1263177" d="M228.918,155.055a.626.626,0,1,0-.863-.906l-.111.106-.346.328-.347.325-.1.094a.626.626,0,0,0,.85.918l.105-.1.351-.329.35-.331Z" transform="translate(-123.04 -83.478)" fill="#cae4fc"/>
    <path id="Trazado_1263178" data-name="Trazado 1263178" d="M240.459,143.271a.626.626,0,0,0-.779-.961.634.634,0,0,0-.146.119l-.234.258-.331.363-.276.3a.626.626,0,0,0,.917.852l.28-.3.335-.366Z" transform="translate(-129.315 -77.105)" fill="#cae4fc"/>
    <path id="Trazado_1263179" data-name="Trazado 1263179" d="M251.11,130.684a.626.626,0,1,0-.985-.771l-.233.3-.308.391-.229.288a.626.626,0,0,0,.851.9.617.617,0,0,0,.125-.119l.233-.293.312-.4Z" transform="translate(-135.111 -70.301)" fill="#cae4fc"/>
    <path id="Trazado_1263180" data-name="Trazado 1263180" d="M260.788,117.323a.626.626,0,1,0-1.043-.692l-.19.288-.277.415-.224.332a.626.626,0,0,0,.883.86.644.644,0,0,0,.152-.157l.228-.337.282-.421Z" transform="translate(-140.385 -63.08)" fill="#cae4fc"/>
    <path id="Trazado_1263181" data-name="Trazado 1263181" d="M269.343,103.208a.626.626,0,1,0-1.1-.6l-.159.295-.238.434-.2.362a.626.626,0,0,0,.886.831.618.618,0,0,0,.206-.219l.205-.368.242-.441Z" transform="translate(-145.058 -55.451)" fill="#cae4fc"/>
    <path id="Trazado_1263182" data-name="Trazado 1263182" d="M276.565,88.36a.625.625,0,1,0-1.152-.487l-.163.391-.19.447-.133.305a.626.626,0,0,0,1.146.5l.136-.313.194-.455Z" transform="translate(-149.022 -47.432)" fill="#cae4fc"/>
    <path id="Trazado_1263183" data-name="Trazado 1263183" d="M282.136,72.81a.626.626,0,0,0-1.088-.565.618.618,0,0,0-.116.224l-.049.177-.131.455-.135.455-.031.1a.625.625,0,1,0,1.2.37l.034-.11.138-.465.134-.465Z" transform="translate(-152.103 -39.042)" fill="#cae4fc"/>
    <path id="Trazado_1263184" data-name="Trazado 1263184" d="M285.651,56.674a.626.626,0,1,0-1.241-.163l-.017.132-.062.457-.067.457-.027.175a.626.626,0,1,0,1.235.2l.029-.187.069-.469.064-.469Z" transform="translate(-154.094 -30.343)" fill="#cae4fc"/>
    <path id="Trazado_1263185" data-name="Trazado 1263185" d="M286.568,40.208a.626.626,0,1,0-1.25.051l.01.235.016.452.011.453v.088a.625.625,0,0,0,1.251-.008v-.1l-.011-.467-.016-.467Z" transform="translate(-154.684 -21.474)" fill="#cae4fc"/>
    <path id="Trazado_1263186" data-name="Trazado 1263186" d="M284.213,23.886a.626.626,0,0,0-1.217.29l.089.366.1.443.086.395a.626.626,0,0,0,1.224-.259l-.09-.41-.106-.459Z" transform="translate(-153.416 -12.691)" fill="#cae4fc"/>
    <path id="Trazado_1263187" data-name="Trazado 1263187" d="M271.489,10.233,272.806,0l7.937,6.592Z" transform="translate(-147.187)" fill="#cae4fc"/>
    <path id="Trazado_1263188" data-name="Trazado 1263188" d="M156.208,190.127a.626.626,0,0,0-.357,1.2l.234.067.236.06.239.056.242.05.244.045.1.016a.626.626,0,0,0,.212-1.233l-.1-.016-.217-.04-.213-.044-.21-.049-.207-.053Z" transform="translate(-84.252 -103.063)" fill="#cae4fc"/>
  </g>
</svg>
