<svg id="Grupo_1204709" data-name="Grupo 1204709" xmlns="http://www.w3.org/2000/svg" xmlns:xlink="http://www.w3.org/1999/xlink" width="152.11" height="147.77" viewBox="0 0 152.11 147.77">
  <defs>
    <clipPath id="clip-path">
      <rect id="Rectángulo_455697" data-name="Rectángulo 455697" width="152.11" height="147.77" fill="none"/>
    </clipPath>
  </defs>
  <g id="Grupo_1204708" data-name="Grupo 1204708" clip-path="url(#clip-path)">
    <path id="Trazado_1263069" data-name="Trazado 1263069" d="M139.545,97.783V97.4l.252.139a.636.636,0,0,1-.119.153.7.7,0,0,1-.133.1m0-1.795.849.441-.6,1.1.028-.05.191-.349.189-.35.187-.351,0,0a.622.622,0,0,0-.849-.831Zm2.351-5.694a.621.621,0,0,0,1.09.58.61.61,0,0,0,.059-.111l.049-.119.15-.372.148-.373.117-.3a.62.62,0,1,0-1.157-.448l-.114.291-.146.366-.148.365Zm2.4-6.962a.62.62,0,1,0,1.2.332l.075-.267.107-.392.105-.393.041-.157a.621.621,0,0,0-1.151-.441.73.73,0,0,0-.05.132l-.039.149-.1.385-.106.384Zm1.589-7.194a.621.621,0,0,0,1.128.442.627.627,0,0,0,.1-.247l.021-.128.064-.408.061-.409.042-.293a.62.62,0,0,0-1.228-.172l-.041.285-.06.4-.062.4Zm.756-7.328a.621.621,0,0,0,1.206.231.642.642,0,0,0,.033-.176l.006-.121.017-.421.015-.422.008-.287a.62.62,0,1,0-1.24-.031l-.008.279-.014.414-.017.413Zm-.073-7.367a.621.621,0,0,0,1.209.147.641.641,0,0,0,.028-.234l-.014-.219-.031-.418-.033-.417-.017-.194a.62.62,0,1,0-1.235.109l.016.187.032.41.03.41Zm-.905-7.312a.621.621,0,0,0,1.228-.062.681.681,0,0,0-.008-.163l-.031-.173-.076-.4-.078-.4-.05-.249a.621.621,0,0,0-1.215,0,.63.63,0,0,0,0,.25l.049.242.077.4.074.4Zm-1.735-7.161a.62.62,0,1,0,1.187-.361v0L145,46.219l-.122-.386-.123-.385-.012-.037a.621.621,0,0,0-1.208.226.659.659,0,0,0,.031.165l.01.03.122.377.119.378.117.38Zm-2.545-6.911a.621.621,0,0,0,1.187-.287.645.645,0,0,0-.051-.21l-.053-.122-.161-.366-.164-.365-.132-.29a.62.62,0,0,0-1.127.518l.129.283.16.358.159.359ZM139.545,95.6v.389l-.252-.131v0h0a.633.633,0,0,1,.1-.142.691.691,0,0,1,.148-.114m0,1.8v.388a.621.621,0,0,1-.834-.848Zm-19.524,22.193h0l.879-.628-.737-1,0,0h0a.613.613,0,0,1,.176-.09.621.621,0,0,1,.558,1.09l0,0-.321.232-.322.23Zm0-1.525.142-.1-.142.1Zm4.929-3.954a.62.62,0,0,0,.371,1.082.614.614,0,0,0,.452-.155l.044-.039.294-.263.293-.265.291-.266.009-.008a.62.62,0,1,0-.845-.908l0,0-.286.261-.287.26-.289.258Zm5.229-5.19a.62.62,0,1,0,.923.829l.03-.032.263-.295.261-.3.26-.3.018-.021a.62.62,0,1,0-.942-.807l-.013.015-.255.292-.257.29-.257.289Zm4.608-5.749a.621.621,0,0,0,.928.813.749.749,0,0,0,.083-.094l.022-.03.228-.323.226-.324.225-.326.017-.026a.62.62,0,0,0-1.028-.694l-.013.02-.22.32-.222.319-.225.317Zm4.506-7.313-.582,1.078.028-.05.187-.343.186-.344Zm-1.227-62.374a.62.62,0,1,0,1.072-.624l-.1-.166-.2-.343-.2-.341-.137-.228a.621.621,0,0,0-1.139.442.627.627,0,0,0,.078.2l.133.221.2.335.2.336Zm-4.05-6.154a.62.62,0,1,0,.993-.743l-.122-.165-.238-.316-.24-.314-.156-.2a.62.62,0,1,0-.98.761l.152.2.235.308.233.31Zm-4.722-5.655a.62.62,0,1,0,.9-.851l-.133-.142-.272-.286-.273-.285-.186-.192a.62.62,0,0,0-.887.866l.181.187.268.28.266.281Zm-5.333-5.084a.62.62,0,1,0,.8-.947l-.137-.117-.3-.254-.3-.252-.218-.178a.62.62,0,1,0-.784.961l.212.174.3.248.3.249ZM82.176,0H82a.62.62,0,0,0,.008,1.24h.583l.417,0,.4.007a.62.62,0,1,0,.016-1.24l-.4-.006L82.6,0Zm37.845,118.062h0l-.169.123-.316.226-.317.224-.053.037Zm0,1.525h0l-.089.063-.053.037ZM75.877,1.544A.62.62,0,1,0,75.752.31l-.3.03-.414.043-.413.046-.116.014a.62.62,0,1,0,.149,1.231l.109-.013.406-.045.406-.043ZM68.6,2.671a.62.62,0,1,0-.264-1.212l-.215.046-.4.088-.4.091-.209.049A.62.62,0,1,0,67.4,2.941l.2-.047L67.99,2.8l.392-.087Zm-7.1,1.954a.62.62,0,1,0-.4-1.175l-.016.006-.382.131-.381.133-.38.135-.027.01a.62.62,0,1,0,.426,1.165l.021-.008.372-.132.373-.13.374-.128Zm-6.83,2.756a.621.621,0,0,0-.3-1.179.612.612,0,0,0-.231.059l-.113.053-.36.172-.359.174L53,6.806a.62.62,0,1,0,.552,1.111l.288-.142.352-.171.353-.169Zm-6.47,3.52a.62.62,0,1,0-.656-1.052l-.144.089-.335.211-.335.213-.243.157a.62.62,0,1,0,.676,1.04l.237-.153.328-.209.329-.207Zm-6.028,4.235a.62.62,0,1,0-.772-.971l-.137.109-.308.247-.307.249-.222.182a.621.621,0,0,0,.6,1.063.634.634,0,0,0,.188-.107l.216-.177.3-.244.3-.242Zm-5.509,4.892a.621.621,0,0,0-.78-.957.711.711,0,0,0-.1.079l-.115.114-.278.28-.277.281-.209.215a.62.62,0,1,0,.893.861l.2-.21.272-.276.272-.274Zm-4.92,5.485a.621.621,0,0,0-.779-.933.627.627,0,0,0-.192.16l-.093.116-.245.31-.243.311-.19.247a.621.621,0,0,0,.828.9.633.633,0,0,0,.156-.144l.186-.241.239-.305.241-.3ZM27.47,31.521a.621.621,0,0,0-.829-.87.613.613,0,0,0-.223.213l-.082.131-.209.337-.207.338-.157.26a.621.621,0,0,0,.973.755.667.667,0,0,0,.091-.117l.153-.254.2-.332.205-.331Zm-3.553,6.453a.621.621,0,0,0-.976-.726.634.634,0,0,0-.145.195l-.086.179-.17.361-.168.362-.106.232a.62.62,0,1,0,1.13.511l.1-.224.165-.356.166-.354ZM21.126,44.79a.62.62,0,0,0-1.175-.4l-.1.29-.128.382-.125.383-.043.131a.62.62,0,1,0,1.182.375l.04-.124.124-.377.126-.375Zm-1.99,7.094a.621.621,0,0,0-1.213-.264l-.023.1-.086.4-.083.4-.065.322a.62.62,0,0,0,1.217.241l.063-.314.082-.393.085-.392Zm-1.165,7.275a.621.621,0,0,0-1.187-.306.611.611,0,0,0-.047.181l0,.021-.041.415-.038.416-.034.395a.621.621,0,0,0,1.2.254.66.66,0,0,0,.032-.153l.033-.387.038-.408.04-.407Zm-.331,7.36a.62.62,0,0,0-1.24.016v.1l.007.424.01.423.008.309a.62.62,0,1,0,1.24-.039l-.009-.3-.009-.415-.007-.416Zm.5,7.35a.62.62,0,0,0-1.23.156l.016.131.053.411.056.411.041.288a.62.62,0,1,0,1.227-.179l-.04-.281-.055-.4-.053-.4Zm1.331,7.247a.621.621,0,0,0-1.222.1.638.638,0,0,0,.016.194l0,.018.1.4.1.395.1.394,0,.015a.621.621,0,0,0,1.218-.127.614.614,0,0,0-.021-.2l0-.008-.1-.386-.1-.387-.1-.388Zm2.152,7.043a.621.621,0,0,0-1.2.27.655.655,0,0,0,.037.164l.067.182.142.376.144.375.093.237a.62.62,0,0,0,1.154-.455l-.09-.229-.141-.368-.139-.369Zm2.946,6.75a.621.621,0,0,0-1.168.355.605.605,0,0,0,.064.21l.127.251.183.354.185.352.081.153a.614.614,0,0,0,.25.252A.621.621,0,0,0,25.135,96l-.078-.146-.181-.346L24.7,95.16Zm3.7,6.37a.621.621,0,0,0-1.125.464.63.63,0,0,0,.093.224l.173.262.221.328.223.327.083.12a.62.62,0,1,0,1.02-.707l-.078-.114-.218-.321-.217-.323Zm4.4,5.908a.62.62,0,1,0-.947.8l.2.239.256.3.258.3.1.112a.62.62,0,1,0,.933-.817l-.093-.107-.253-.293-.251-.3Zm5.043,5.371a.62.62,0,1,0-.85.9l.217.2.288.27.289.268.121.111a.62.62,0,0,0,.834-.918l-.116-.106-.284-.263-.283-.265Zm5.619,4.765a.621.621,0,0,0-.879.854.655.655,0,0,0,.135.139l.23.173.318.236.319.234.14.1a.62.62,0,0,0,.725-1.006l-.133-.1-.313-.229-.311-.232Zm6.123,4.1a.62.62,0,0,0-.726,1,.649.649,0,0,0,.1.074l.26.153.343.2.345.2.136.077a.62.62,0,0,0,.606-1.083l-.129-.072-.338-.194-.337-.195ZM56,124.792a.621.621,0,0,0-.643,1.047.612.612,0,0,0,.146.089l.329.145.367.159.368.157.084.035a.62.62,0,1,0,.476-1.145l-.077-.032-.362-.155-.36-.156Zm6.9,2.6a.62.62,0,1,0-.368,1.184l.085.027.387.118.388.117.339.1a.62.62,0,0,0,.346-1.191l-.332-.1-.381-.115-.38-.117Zm7.144,1.79a.62.62,0,1,0-.226,1.22l.311.059.4.073.4.071.111.019a.62.62,0,1,0,.2-1.223l-.1-.017-.4-.07-.4-.072Zm7.3.961a.621.621,0,0,0-.327,1.17.613.613,0,0,0,.241.067l.273.02.419.028.42.025.139.008a.62.62,0,0,0,.209-1.214.638.638,0,0,0-.146-.025l-.131-.007-.412-.025-.411-.027Zm7.366.129a.62.62,0,0,0,.055,1.239l.372-.015.421-.02.42-.023.038,0a.62.62,0,1,0-.078-1.238l-.03,0-.412.022-.413.02Zm7.334-.7a.621.621,0,0,0,0,1.224.635.635,0,0,0,.2,0l.358-.056.407-.066.406-.069.063-.011a.62.62,0,1,0-.218-1.221l-.056.01-.4.067-.4.065Zm7.207-1.534a.621.621,0,0,0,.108,1.215.629.629,0,0,0,.224-.02l.208-.057.391-.11.389-.112.216-.063a.62.62,0,0,0-.23-1.212.736.736,0,0,0-.124.023l-.208.062-.382.11-.383.108Zm6.981-2.35a.62.62,0,0,0,.469,1.149l.338-.137.371-.153.369-.155.079-.034a.62.62,0,0,0-.49-1.14l-.072.031-.362.152-.363.15Zm6.668-3.136a.62.62,0,0,0,.592,1.09l.036-.02.349-.191.347-.193.346-.195.018-.011a.62.62,0,1,0-.618-1.075l-.012.007-.34.191-.341.189-.342.187Zm6.265-3.877a.62.62,0,0,0,.712,1.015ZM118.086,12.145a.62.62,0,1,0,.688-1.032l-.148-.1-.33-.219-.332-.217-.235-.152a.62.62,0,0,0-.669,1.044l.229.148.325.213.324.215ZM111.744,8.4a.62.62,0,1,0,.565-1.1l-.187-.1-.355-.18-.357-.179-.218-.108a.621.621,0,0,0-.717.989.64.64,0,0,0,.172.125l.212.1.35.175.348.177Zm-6.727-3a.62.62,0,1,0,.433-1.162l-.28-.106-.377-.14-.378-.137-.14-.049a.62.62,0,0,0-.412,1.17l.132.047.372.135.37.137Zm-7.03-2.208a.621.621,0,0,0,.527-1.1.613.613,0,0,0-.225-.108L98.22,1.97l-.4-.1-.4-.1-.357-.084A.62.62,0,1,0,96.792,2.9l.349.082.389.093.388.1ZM90.754,1.805A.62.62,0,1,0,90.91.575L90.552.528,90.14.477,89.728.428l-.06-.007a.62.62,0,1,0-.133,1.233l.052.006.4.047.4.05Z" transform="translate(-8.695)" fill="#fff0cf"/>
    <path id="Trazado_1263070" data-name="Trazado 1263070" d="M123.954,277.715h20.365l9.546,17.292H114.408Z" transform="translate(-60.656 -147.237)" fill="#736b2e" fill-rule="evenodd"/>
    <path id="Trazado_1263071" data-name="Trazado 1263071" d="M48.718,154.976h95.977a4.925,4.925,0,0,1,4.91,4.911v52.229a4.925,4.925,0,0,1-4.91,4.91H48.718a4.925,4.925,0,0,1-4.91-4.91V159.887a4.925,4.925,0,0,1,4.91-4.911" transform="translate(-23.226 -82.164)" fill="#fff" fill-rule="evenodd"/>
    <rect id="Rectángulo_455675" data-name="Rectángulo 455675" width="99.279" height="50.417" transform="translate(23.841 75.676)" fill="#6a8733"/>
    <path id="Trazado_1263072" data-name="Trazado 1263072" d="M255.581,277.728a.638.638,0,1,0-.638-.638.638.638,0,0,0,.638.638" transform="translate(-135.164 -146.568)" fill="#f06358" fill-rule="evenodd"/>
    <path id="Trazado_1263073" data-name="Trazado 1263073" d="M250.282,277.728a.638.638,0,1,0-.638-.638.638.638,0,0,0,.638.638" transform="translate(-132.355 -146.568)" fill="#f06358" fill-rule="evenodd"/>
    <path id="Trazado_1263074" data-name="Trazado 1263074" d="M244.982,277.728a.638.638,0,1,0-.638-.638.639.639,0,0,0,.638.638" transform="translate(-129.545 -146.568)" fill="#f06358" fill-rule="evenodd"/>
    <path id="Trazado_1263075" data-name="Trazado 1263075" d="M28.788,303.4H145.929a2.613,2.613,0,1,1,0,5.226H28.788a2.613,2.613,0,0,1,0-5.226" transform="translate(-13.877 -160.854)" fill="#b6a94a" fill-rule="evenodd"/>
    <path id="Trazado_1263076" data-name="Trazado 1263076" d="M148.542,308.96a2.621,2.621,0,0,1-2.614,2.613H28.788a2.62,2.62,0,0,1-2.613-2.613Z" transform="translate(-13.877 -163.802)" fill="#fff" fill-rule="evenodd"/>
    <path id="Trazado_1263077" data-name="Trazado 1263077" d="M150.023,161.073,50.744,211.49V161.073Z" transform="translate(-26.903 -85.397)" fill="#95ba50" fill-rule="evenodd"/>
    <path id="Trazado_1263078" data-name="Trazado 1263078" d="M80.622,22.461a10.19,10.19,0,1,0-10.19-10.19,10.21,10.21,0,0,0,10.19,10.19" transform="translate(-37.341 -1.103)" fill="#ffae00" fill-rule="evenodd"/>
    <path id="Trazado_1263079" data-name="Trazado 1263079" d="M82.766,6.124a8.291,8.291,0,1,1-8.291,8.291,8.29,8.29,0,0,1,8.291-8.291" transform="translate(-39.485 -3.247)" fill="#fff" fill-rule="evenodd"/>
    <path id="Trazado_1263080" data-name="Trazado 1263080" d="M91.584,10.921h0a.477.477,0,0,1,.475.475v5.085a.476.476,0,1,1-.951,0V11.4a.478.478,0,0,1,.476-.475" transform="translate(-48.303 -5.79)" fill="#5896cc" fill-rule="evenodd"/>
    <path id="Trazado_1263081" data-name="Trazado 1263081" d="M83.895,16.37h0a.477.477,0,0,1,.671-.038l3.092,2.759a.476.476,0,0,1-.634.71l-3.091-2.759a.476.476,0,0,1-.038-.672" transform="translate(-44.415 -8.595)" fill="#5896cc" fill-rule="evenodd"/>
    <path id="Trazado_1263082" data-name="Trazado 1263082" d="M91.528,8.688A.526.526,0,1,0,91,8.163a.527.527,0,0,0,.526.526" transform="translate(-48.247 -4.049)" fill="#5896cc" fill-rule="evenodd"/>
    <path id="Trazado_1263083" data-name="Trazado 1263083" d="M107.654,23.611a.526.526,0,1,1-.526-.526.526.526,0,0,1,.526.526" transform="translate(-56.518 -12.239)" fill="#5896cc" fill-rule="evenodd"/>
    <path id="Trazado_1263084" data-name="Trazado 1263084" d="M91.68,39.737a.526.526,0,1,1,.526-.526.526.526,0,0,1-.526.526" transform="translate(-48.327 -20.51)" fill="#5896cc" fill-rule="evenodd"/>
    <path id="Trazado_1263085" data-name="Trazado 1263085" d="M75.553,23.762a.526.526,0,1,1,.526.526.526.526,0,0,1-.526-.526" transform="translate(-40.056 -12.319)" fill="#5896cc" fill-rule="evenodd"/>
    <path id="Trazado_1263086" data-name="Trazado 1263086" d="M90.734,23.612a1.23,1.23,0,1,0-1.23-1.23,1.232,1.232,0,0,0,1.23,1.23" transform="translate(-47.453 -11.215)" fill="#5896cc" fill-rule="evenodd"/>
    <path id="Trazado_1263087" data-name="Trazado 1263087" d="M22.181,83.489A7.4,7.4,0,0,1,26.064,97.2l-.781,6.1h-6.2L18.3,97.2a7.4,7.4,0,0,1,3.883-13.708" transform="translate(-7.834 -44.264)" fill="#fff" fill-rule="evenodd"/>
    <path id="Trazado_1263088" data-name="Trazado 1263088" d="M25.264,110.452a.294.294,0,1,1-.571.138l-1.259-5.134v-2.408l.03.059a.288.288,0,0,0-.03-.075v-.011a3.61,3.61,0,0,0,.349.321,4.244,4.244,0,0,0,2.618.9,3.708,3.708,0,0,0,2.532-.907,3.092,3.092,0,0,0,.318-.339.294.294,0,0,1,.512.266l-1.8,7.333a.294.294,0,0,1-.572-.138l1.567-6.392a4.406,4.406,0,0,1-2.561.764A4.9,4.9,0,0,1,23.682,104Zm-1.83-5-.542-2.211a.294.294,0,0,1,.513-.256l.03.031v.011a.289.289,0,0,0-.03-.043l.03.059v2.408Z" transform="translate(-12.133 -54.546)" fill="#5896cc"/>
    <path id="Trazado_1263089" data-name="Trazado 1263089" d="M21.588,117.716H30l-.421,3.915c-.075.708-.1,1.045-1.044,1.045H23.053c-.943,0-.969-.336-1.045-1.045Z" transform="translate(-11.445 -62.41)" fill="#5896cc" fill-rule="evenodd"/>
    <path id="Trazado_1263090" data-name="Trazado 1263090" d="M38.274,69.984a.368.368,0,0,1,.691.25l-1.623,4.46a.368.368,0,1,1-.691-.251Z" transform="translate(-19.42 -36.975)" fill="#fff"/>
    <path id="Trazado_1263091" data-name="Trazado 1263091" d="M45.812,75.115a.368.368,0,0,1,.565.472l-3.051,3.636a.368.368,0,0,1-.565-.472Z" transform="translate(-22.626 -39.754)" fill="#fff"/>
    <path id="Trazado_1263092" data-name="Trazado 1263092" d="M51.459,83.067a.368.368,0,0,1,.368.637l-4.11,2.373a.368.368,0,1,1-.369-.636Z" transform="translate(-25.006 -44.014)" fill="#fff"/>
    <path id="Trazado_1263093" data-name="Trazado 1263093" d="M54.534,92.877a.368.368,0,1,1,.126.725l-4.673.824a.368.368,0,0,1-.127-.725Z" transform="translate(-26.273 -49.238)" fill="#fff"/>
    <path id="Trazado_1263094" data-name="Trazado 1263094" d="M29.75,68.291a.369.369,0,1,1,.737,0v4.746a.369.369,0,1,1-.737,0Z" transform="translate(-15.773 -36.01)" fill="#fff"/>
    <path id="Trazado_1263095" data-name="Trazado 1263095" d="M19.444,70.236a.368.368,0,0,1,.692-.25l1.623,4.46a.368.368,0,1,1-.691.251Z" transform="translate(-10.297 -36.976)" fill="#fff"/>
    <path id="Trazado_1263096" data-name="Trazado 1263096" d="M10.422,75.588a.368.368,0,0,1,.565-.472l3.05,3.636a.368.368,0,1,1-.564.472Z" transform="translate(-5.48 -39.754)" fill="#fff"/>
    <path id="Trazado_1263097" data-name="Trazado 1263097" d="M3.776,83.7a.368.368,0,0,1,.368-.637l4.11,2.373a.368.368,0,0,1-.368.636Z" transform="translate(-1.904 -44.013)" fill="#fff"/>
    <path id="Trazado_1263098" data-name="Trazado 1263098" d="M.3,93.6a.368.368,0,0,1,.126-.725L5.1,93.7a.368.368,0,1,1-.126.725Z" transform="translate(0 -49.238)" fill="#fff"/>
    <path id="Trazado_1263099" data-name="Trazado 1263099" d="M270.7,105.477a8.8,8.8,0,1,0-8.8-8.8,8.82,8.82,0,0,0,8.8,8.8" transform="translate(-138.849 -46.587)" fill="#fff" fill-rule="evenodd"/>
    <path id="Trazado_1263100" data-name="Trazado 1263100" d="M281.3,77.767,280.263,82.7l4.347-2.562,12.449-17.325a1.113,1.113,0,0,0-.254-1.549l-1.5-1.08a1.114,1.114,0,0,0-1.549.254Z" transform="translate(-148.588 -31.8)" fill="#f06358" fill-rule="evenodd"/>
    <path id="Trazado_1263101" data-name="Trazado 1263101" d="M281.3,77.767,280.263,82.7l2.8-3.9,12.99-18.077-.751-.54a1.113,1.113,0,0,0-1.549.254Z" transform="translate(-148.588 -31.8)" fill="#ee4e42" fill-rule="evenodd"/>
    <path id="Trazado_1263102" data-name="Trazado 1263102" d="M281.3,79.785l-1.042,4.937,4.347-2.562,11.5-16a11.681,11.681,0,0,0-3.3-2.375Z" transform="translate(-148.588 -33.818)" fill="#c0f7fc" fill-rule="evenodd"/>
    <path id="Trazado_1263103" data-name="Trazado 1263103" d="M281.3,79.785l-1.042,4.937,2.8-3.9L294.557,64.83a11.275,11.275,0,0,0-1.757-1.043Z" transform="translate(-148.588 -33.818)" fill="#a2edf4" fill-rule="evenodd"/>
    <path id="Trazado_1263104" data-name="Trazado 1263104" d="M281.3,80.974l-1.042,4.937,4.347-2.562,10.738-14.943a10.921,10.921,0,0,0-3.3-2.375Z" transform="translate(-148.588 -35.008)" fill="#7fb4e3" fill-rule="evenodd"/>
    <path id="Trazado_1263105" data-name="Trazado 1263105" d="M281.505,80.858l-1.033,4.9,2.78-3.869L293.91,67.055a10.429,10.429,0,0,0-1.751-1.024Z" transform="translate(-148.699 -35.008)" fill="#5896cc" fill-rule="evenodd"/>
    <path id="Trazado_1263106" data-name="Trazado 1263106" d="M281.3,97.837l-1.042,4.936,4.347-2.561a11.319,11.319,0,0,0-3.305-2.375" transform="translate(-148.588 -51.871)" fill="#c0f7fc" fill-rule="evenodd"/>
    <path id="Trazado_1263107" data-name="Trazado 1263107" d="M281.305,97.837l-1.042,4.936,2.8-3.9a11.2,11.2,0,0,0-1.76-1.037" transform="translate(-148.588 -51.871)" fill="#a2edf4" fill-rule="evenodd"/>
    <path id="Trazado_1263108" data-name="Trazado 1263108" d="M280.607,104.873l-.344,1.631,1.436-.846a3.747,3.747,0,0,0-1.092-.785" transform="translate(-148.588 -55.601)" fill="#004e78" fill-rule="evenodd"/>
    <path id="Trazado_1263109" data-name="Trazado 1263109" d="M227.454,11.93V10.579h3.377v-5.4h-8.1v5.4H226.1V11.93h-4.728v-.675h-2.026v.675H218V22.737h17.561V11.93Z" transform="translate(-115.577 -2.744)" fill="#013c5c"/>
    <path id="Trazado_1263110" data-name="Trazado 1263110" d="M250.214,23.1h-2.026v-.676h2.026Z" transform="translate(-131.583 -11.89)" fill="#ffae00"/>
    <path id="Trazado_1263111" data-name="Trazado 1263111" d="M232.876,30.619h0a3.377,3.377,0,1,1,3.377-3.377,3.377,3.377,0,0,1-3.377,3.377" transform="translate(-121.674 -12.653)" fill="#ffae00"/>
    <path id="Trazado_1263112" data-name="Trazado 1263112" d="M229.5,10.666h0V6.614h6.754v4.052Z" transform="translate(-121.674 -3.507)" fill="#ffae00"/>
    <rect id="Rectángulo_455676" data-name="Rectángulo 455676" width="65.144" height="92.694" transform="translate(40.908 33.399)" fill="#fff"/>
    <rect id="Rectángulo_455677" data-name="Rectángulo 455677" width="65.144" height="4.501" transform="translate(40.908 33.399)" fill="#91bde3"/>
    <rect id="Rectángulo_455678" data-name="Rectángulo 455678" width="30.318" height="6.856" transform="translate(58.321 40.638)" fill="#5896cc"/>
    <rect id="Rectángulo_455679" data-name="Rectángulo 455679" width="65.144" height="18.899" transform="translate(40.908 55.521)" fill="#5896cc"/>
    <rect id="Rectángulo_455680" data-name="Rectángulo 455680" width="40.119" height="2.873" transform="translate(53.421 50.174)" fill="#91bde3"/>
    <rect id="Rectángulo_455681" data-name="Rectángulo 455681" width="16.358" height="15.273" transform="translate(44.854 78.215)" fill="#91bde3"/>
    <rect id="Rectángulo_455682" data-name="Rectángulo 455682" width="16.357" height="15.273" transform="translate(65.302 78.215)" fill="#91bde3"/>
    <rect id="Rectángulo_455683" data-name="Rectángulo 455683" width="16.357" height="15.273" transform="translate(85.749 78.215)" fill="#91bde3"/>
    <rect id="Rectángulo_455684" data-name="Rectángulo 455684" width="65.144" height="8.24" transform="translate(40.908 117.854)" fill="#91bde3"/>
    <rect id="Rectángulo_455685" data-name="Rectángulo 455685" width="16.358" height="2.873" transform="translate(44.854 95.584)" fill="#91bde3"/>
    <rect id="Rectángulo_455686" data-name="Rectángulo 455686" width="16.358" height="2.873" transform="translate(44.854 100.522)" fill="#91bde3"/>
    <rect id="Rectángulo_455687" data-name="Rectángulo 455687" width="16.358" height="2.874" transform="translate(44.854 105.459)" fill="#91bde3"/>
    <rect id="Rectángulo_455688" data-name="Rectángulo 455688" width="10.357" height="2.874" transform="translate(44.854 110.396)" fill="#91bde3"/>
    <rect id="Rectángulo_455689" data-name="Rectángulo 455689" width="16.357" height="2.873" transform="translate(65.302 95.584)" fill="#91bde3"/>
    <rect id="Rectángulo_455690" data-name="Rectángulo 455690" width="16.357" height="2.873" transform="translate(65.302 100.522)" fill="#91bde3"/>
    <rect id="Rectángulo_455691" data-name="Rectángulo 455691" width="16.357" height="2.874" transform="translate(65.302 105.459)" fill="#91bde3"/>
    <rect id="Rectángulo_455692" data-name="Rectángulo 455692" width="10.357" height="2.874" transform="translate(65.302 110.396)" fill="#91bde3"/>
    <rect id="Rectángulo_455693" data-name="Rectángulo 455693" width="16.357" height="2.873" transform="translate(85.749 95.584)" fill="#91bde3"/>
    <rect id="Rectángulo_455694" data-name="Rectángulo 455694" width="16.357" height="2.873" transform="translate(85.749 100.522)" fill="#91bde3"/>
    <rect id="Rectángulo_455695" data-name="Rectángulo 455695" width="16.357" height="2.874" transform="translate(85.749 105.459)" fill="#91bde3"/>
    <rect id="Rectángulo_455696" data-name="Rectángulo 455696" width="10.357" height="2.874" transform="translate(85.749 110.396)" fill="#91bde3"/>
    <path id="Trazado_1263113" data-name="Trazado 1263113" d="M298.22,157.829h7.271V171H298.22v-4.646l3.293-1.939-3.293-1.939Zm-8.916,0h8.917v4.646l-3.292-1.939v7.758l3.292-1.939V171H289.3Z" transform="translate(-153.381 -83.677)" fill="#f06358" fill-rule="evenodd"/>
    <path id="Trazado_1263114" data-name="Trazado 1263114" d="M216.987,131.3a.281.281,0,0,1,.445-.343l1.425,1.854a.233.233,0,0,1,.023.033v.007a.158.158,0,0,1,.011.022l.006.014,0,.006.006.018,0,.02a.252.252,0,0,1,0,.026h0v.057h0a.234.234,0,0,1,0,.026l0,.02-.006.018,0,.006-.006.014-.011.022v.007a.3.3,0,0,1-.023.033l-1.425,1.854a.281.281,0,0,1-.445-.343l1.3-1.686Z" transform="translate(-115.01 -69.372)" fill="#fff"/>
    <path id="Trazado_1263115" data-name="Trazado 1263115" d="M93.12,130.956a.281.281,0,1,1,.445.343l-1.3,1.686,1.3,1.686a.281.281,0,1,1-.445.343L91.7,133.161a.263.263,0,0,1-.023-.033v-.007a.233.233,0,0,1-.01-.022l-.006-.014,0-.006-.006-.018,0-.02c0-.008,0-.017,0-.026h0v-.057h0c0-.008,0-.017,0-.026l0-.02.006-.018,0-.006.006-.014.01-.022v-.007a.3.3,0,0,1,.023-.033Z" transform="translate(-48.581 -69.371)" fill="#fff"/>
  </g>
</svg>
