<svg xmlns="http://www.w3.org/2000/svg" width="107" height="107" viewBox="0 0 107 107">
  <g id="Grupo_1205052" data-name="Grupo 1205052" transform="translate(-359.02 -1138)">
    <g id="Grupo_1119617" data-name="Grupo 1119617" transform="translate(18.52 -7555)">
      <g id="Grupo_156312" data-name="Grupo 156312" transform="translate(51.832 4244.563)">
        <path id="Elipse_5845" data-name="Elipse 5845" d="M53.5,0A53.5,53.5,0,1,1,0,53.5,53.5,53.5,0,0,1,53.5,0Z" transform="translate(288.668 4448.437)" fill="#69695b"/>
      </g>
      <g id="Grupo_1098917" data-name="Grupo 1098917" transform="translate(-46.027 2674.787)">
        <path id="Trazado_873216" data-name="Trazado 873216" d="M0,0H63.184V63.186H0Z" transform="translate(408.527 6040.213)" fill="none"/>
      </g>
    </g>
    <path id="support-svgrepo-com" d="M120.9,68.6,109.488,79.882s-3.409,0-6.819-3.409-3.409-6.819-3.409-6.819l11.408-11.408A20.856,20.856,0,0,0,91.785,63.49C84.7,70.571,91,79.619,89.162,81.455a261.458,261.458,0,0,1-20.456,18.621,7.427,7.427,0,1,0,10.49,10.49c.393-.393,8.786-11.015,18.62-20.85,1.836-1.836,10.49,4.852,17.834-2.36A20.963,20.963,0,0,0,120.9,68.6Zm-46.289,39.47a3.344,3.344,0,1,1,3.278-3.409A3.359,3.359,0,0,1,74.607,108.075Z" transform="translate(317.714 1102.962)" fill="#f7f7d7"/>
  </g>
</svg>
