<svg id="Grupo_1204667" data-name="Grupo 1204667" xmlns="http://www.w3.org/2000/svg" xmlns:xlink="http://www.w3.org/1999/xlink" width="249.654" height="190.142" viewBox="0 0 249.654 190.142">
  <defs>
    <clipPath id="clip-path">
      <rect id="Rectángulo_455595" data-name="Rectángulo 455595" width="249.654" height="190.142" fill="none"/>
    </clipPath>
    <clipPath id="clip-path-3">
      <rect id="Rectángulo_455525" data-name="Rectángulo 455525" width="239.143" height="4.69" fill="none"/>
    </clipPath>
    <clipPath id="clip-path-4">
      <rect id="Rectángulo_455526" data-name="Rectángulo 455526" width="41.124" height="3.506" fill="none"/>
    </clipPath>
    <clipPath id="clip-path-5">
      <rect id="Rectángulo_455528" data-name="Rectángulo 455528" width="205.102" height="141.146" fill="none"/>
    </clipPath>
    <clipPath id="clip-path-6">
      <rect id="Rectángulo_455555" data-name="Rectángulo 455555" width="170.831" height="95.838" fill="none"/>
    </clipPath>
    <clipPath id="clip-path-7">
      <rect id="Rectángulo_455587" data-name="Rectángulo 455587" width="235.886" height="161.54" fill="none"/>
    </clipPath>
    <clipPath id="clip-path-8">
      <rect id="Rectángulo_455582" data-name="Rectángulo 455582" width="6.133" height="9.975" fill="none"/>
    </clipPath>
    <clipPath id="clip-path-9">
      <rect id="Rectángulo_455583" data-name="Rectángulo 455583" width="14.008" height="9.975" fill="none"/>
    </clipPath>
    <clipPath id="clip-path-10">
      <rect id="Rectángulo_455584" data-name="Rectángulo 455584" width="16.155" height="9.976" fill="none"/>
    </clipPath>
    <clipPath id="clip-path-11">
      <rect id="Rectángulo_455585" data-name="Rectángulo 455585" width="11.991" height="9.976" fill="none"/>
    </clipPath>
    <clipPath id="clip-path-12">
      <rect id="Rectángulo_455586" data-name="Rectángulo 455586" width="11.783" height="9.975" fill="none"/>
    </clipPath>
    <clipPath id="clip-path-18">
      <rect id="Rectángulo_455593" data-name="Rectángulo 455593" width="228.487" height="150.794" fill="none"/>
    </clipPath>
  </defs>
  <g id="Grupo_1204666" data-name="Grupo 1204666" clip-path="url(#clip-path)">
    <g id="Grupo_1204665" data-name="Grupo 1204665">
      <g id="Grupo_1204664" data-name="Grupo 1204664" clip-path="url(#clip-path)">
        <path id="Trazado_1262728" data-name="Trazado 1262728" d="M238.09,113.71c-7.006-5.973-16.646-8.631-22.747-15.694-7.631-8.834-4.737-21.361,1.1-30.305,6.058-9.284,14.969-16.343,20.666-25.891,4.731-7.93,7.027-17.525,2.754-26.158C232.51.807,213.817-1.88,199.026,1.051c-15.59,3.09-29.492,11.644-43.6,18.517-13.681,6.665-29.9,12.417-44.339,4.5C104.061,20.215,97.79,14.7,90.3,11.739c-8.062-3.185-17.564-2.729-25.741-.285-8.979,2.684-17.97,8.076-22.149,16.8-8.708,18.179,7.712,44.2-9.177,59.376C25.815,94.292,15.2,95.245,7.318,101.177c-7.173,5.4-9.2,13.669-5.514,21.853,4.365,9.687,13.579,15.506,19.726,23.865,3.082,4.191,5.211,9.1,4.934,14.39-.276,5.266-2.684,10.1-5.8,14.259A65.917,65.917,0,0,1,9.573,186.7a.111.111,0,0,0-.044.107c-.011.008-.024.011-.032.024-.078.122-.163.247-.253.369,13.527-1,60.156-1.744,115.606-1.744,56.812,0,104.367.777,116.546,1.819a21.27,21.27,0,0,1-5.11-24.577c1.631-3.4,4.348-5.522,6.767-8.272a26.686,26.686,0,0,0,5.723-10.645c3.027-11.265-2.081-22.731-10.687-30.068" transform="translate(0 0)" fill="#f8f8c5"/>
        <g id="Grupo_1204618" data-name="Grupo 1204618" transform="translate(5.28 185.452)" opacity="0.2" style="isolation: isolate">
          <g id="Grupo_1204617" data-name="Grupo 1204617">
            <g id="Grupo_1204616" data-name="Grupo 1204616" clip-path="url(#clip-path-3)">
              <path id="Trazado_1262729" data-name="Trazado 1262729" d="M130.427,381.33c66.038,0,119.571,1.05,119.571,2.345s-53.534,2.345-119.571,2.345-119.571-1.05-119.571-2.345,53.534-2.345,119.571-2.345" transform="translate(-10.856 -381.33)" fill="#20293a"/>
            </g>
          </g>
        </g>
        <path id="Trazado_1262730" data-name="Trazado 1262730" d="M251.426,331.512H211.509l-3.951,26.076h47.819Z" transform="translate(-106.617 -170.288)" fill="#99a2b8"/>
        <g id="Grupo_1204621" data-name="Grupo 1204621" transform="translate(104.289 162.382)" opacity="0.3" style="isolation: isolate">
          <g id="Grupo_1204620" data-name="Grupo 1204620">
            <g id="Grupo_1204619" data-name="Grupo 1204619" clip-path="url(#clip-path-4)">
              <path id="Trazado_1262731" data-name="Trazado 1262731" d="M214.441,337.4h41.124l-.454-3.506H214.895Z" transform="translate(-214.441 -333.894)" fill="#b3b3b3"/>
            </g>
          </g>
        </g>
        <path id="Trazado_1262732" data-name="Trazado 1262732" d="M244.807,184.813H52a6.149,6.149,0,0,1-6.15-6.15V49.818A6.149,6.149,0,0,1,52,43.668h192.8a6.149,6.149,0,0,1,6.15,6.15V178.664a6.15,6.15,0,0,1-6.15,6.15" transform="translate(-23.554 -22.431)" fill="#464e61"/>
        <rect id="Rectángulo_455527" data-name="Rectángulo 455527" width="186.757" height="105.991" transform="translate(31.473 29.961)" fill="#20293a"/>
        <g id="Grupo_1204624" data-name="Grupo 1204624" transform="translate(22.3 21.237)" opacity="0.04">
          <g id="Grupo_1204623" data-name="Grupo 1204623">
            <g id="Grupo_1204622" data-name="Grupo 1204622" clip-path="url(#clip-path-5)">
              <path id="Trazado_1262733" data-name="Trazado 1262733" d="M63.806,43.667,45.854,61.619v99.119L162.925,43.667Z" transform="translate(-45.854 -43.667)" fill="#fff"/>
              <path id="Trazado_1262734" data-name="Trazado 1262734" d="M179.294,43.667,45.854,177.108v1.75a5.955,5.955,0,0,0,5.955,5.955h9.13L202.084,43.667Z" transform="translate(-45.854 -43.667)" fill="#fff"/>
              <path id="Trazado_1262735" data-name="Trazado 1262735" d="M278.222,43.667H251.674L110.529,184.813h99.12l74.529-74.529V49.623a5.956,5.956,0,0,0-5.956-5.956" transform="translate(-79.076 -43.667)" fill="#fff"/>
              <path id="Trazado_1262736" data-name="Trazado 1262736" d="M370.789,272.464l35.37-35.37V214.3L348,272.464Z" transform="translate(-201.057 -131.318)" fill="#fff"/>
            </g>
          </g>
        </g>
        <path id="Trazado_1262737" data-name="Trazado 1262737" d="M250.956,307.955V294.99H45.854v12.965a5.955,5.955,0,0,0,5.955,5.955H245a5.956,5.956,0,0,0,5.956-5.955" transform="translate(-23.554 -151.528)" fill="#c7d0e6"/>
        <path id="Trazado_1262738" data-name="Trazado 1262738" d="M245.027,44.182a5.42,5.42,0,0,1,5.414,5.414V178.884a5.42,5.42,0,0,1-5.414,5.414H51.783a5.42,5.42,0,0,1-5.414-5.414V49.6a5.42,5.42,0,0,1,5.414-5.414Zm0-.515H51.783A5.929,5.929,0,0,0,45.854,49.6V178.884a5.929,5.929,0,0,0,5.929,5.929H245.027a5.929,5.929,0,0,0,5.929-5.929V49.6a5.929,5.929,0,0,0-5.929-5.929" transform="translate(-23.554 -22.43)" fill="#fff"/>
        <path id="Trazado_1262739" data-name="Trazado 1262739" d="M254.2,383.178H189.042a.655.655,0,0,1-.655-.655v-.538a.655.655,0,0,1,.655-.655H254.2a.655.655,0,0,1,.655.655v.538a.655.655,0,0,1-.655.655" transform="translate(-96.769 -195.879)" fill="#464e61"/>
        <g id="Grupo_1204627" data-name="Grupo 1204627" transform="translate(39.003 36.382)" opacity="0.12">
          <g id="Grupo_1204626" data-name="Grupo 1204626">
            <g id="Grupo_1204625" data-name="Grupo 1204625" clip-path="url(#clip-path-6)">
              <path id="Trazado_1262740" data-name="Trazado 1262740" d="M249.939,170.782H217.751a5.565,5.565,0,0,1-5.565-5.565V87.336a5.565,5.565,0,0,1,5.565-5.565h32.188a5.565,5.565,0,0,1,5.565,5.565v77.881a5.564,5.564,0,0,1-5.565,5.565" transform="translate(-147.996 -78.385)"/>
              <path id="Trazado_1262741" data-name="Trazado 1262741" d="M250.74,83.548a4.824,4.824,0,0,1,4.819,4.819V166.01a4.824,4.824,0,0,1-4.819,4.819H219.022a4.824,4.824,0,0,1-4.819-4.819V88.368a4.824,4.824,0,0,1,4.819-4.819H250.74" transform="translate(-149.033 -79.298)"/>
              <path id="Trazado_1262742" data-name="Trazado 1262742" d="M251.524,85.426h-4.005a.489.489,0,0,0-.48.434,3.2,3.2,0,0,1-3.168,2.763H227.608a3.2,3.2,0,0,1-3.168-2.763.487.487,0,0,0-.478-.434h-4.007a4.08,4.08,0,0,0-4.08,4.08v77.3a4.08,4.08,0,0,0,4.08,4.08h31.57a4.08,4.08,0,0,0,4.08-4.08v-77.3a4.08,4.08,0,0,0-4.08-4.08" transform="translate(-149.891 -80.263)"/>
              <path id="Trazado_1262743" data-name="Trazado 1262743" d="M256.078,86.577h-5.612a.284.284,0,1,1,0-.568h5.612a.284.284,0,1,1,0,.568" transform="translate(-167.514 -80.562)"/>
              <path id="Trazado_1262744" data-name="Trazado 1262744" d="M266.668,85.5a.53.53,0,1,1-.53.53.53.53,0,0,1,.53-.53" transform="translate(-175.71 -80.303)"/>
              <path id="Trazado_1262745" data-name="Trazado 1262745" d="M266.8,85.756a.408.408,0,1,1-.408.408.407.407,0,0,1,.408-.408" transform="translate(-175.839 -80.432)"/>
              <path id="Trazado_1262746" data-name="Trazado 1262746" d="M267.127,86.4a.094.094,0,1,1-.094.094.094.094,0,0,1,.094-.094" transform="translate(-176.17 -80.763)"/>
              <path id="Trazado_1262747" data-name="Trazado 1262747" d="M234.722,172.7l1.877-1.181-1.1-2.789a6.293,6.293,0,0,0,.927-1.31l3,.109.492-2.162-2.748-1.2a6.292,6.292,0,0,0-.269-1.583l2.195-2.04-1.181-1.877-2.789,1.1a6.294,6.294,0,0,0-1.31-.927l.109-3-2.162-.492-1.2,2.748a6.292,6.292,0,0,0-1.583.269l-2.04-2.195-1.877,1.181,1.1,2.789a6.294,6.294,0,0,0-.927,1.31l-3-.109-.492,2.162,2.748,1.2a6.292,6.292,0,0,0,.269,1.583l-2.195,2.04,1.181,1.877,2.789-1.1a6.292,6.292,0,0,0,1.31.927l-.109,3,2.162.492,1.2-2.748a6.292,6.292,0,0,0,1.583-.269Zm-8.117-5.6a4.994,4.994,0,1,1,6.886,1.566,4.994,4.994,0,0,1-6.886-1.566" transform="translate(-152.907 -116.179)"/>
              <path id="Trazado_1262748" data-name="Trazado 1262748" d="M267.9,158.226l1.7-1.427-1.467-2.613a6.3,6.3,0,0,0,.739-1.425l2.982-.3.192-2.209-2.886-.81a6.319,6.319,0,0,0-.483-1.531l1.895-2.321-1.426-1.7-2.613,1.467a6.292,6.292,0,0,0-1.425-.739l-.3-2.982-2.209-.192-.81,2.886a6.309,6.309,0,0,0-1.53.483l-2.321-1.895-1.7,1.426,1.467,2.613a6.292,6.292,0,0,0-.739,1.425l-2.982.3-.192,2.209,2.886.81a6.32,6.32,0,0,0,.483,1.531l-1.895,2.321,1.427,1.7,2.613-1.467a6.3,6.3,0,0,0,1.425.739l.3,2.982,2.209.192.81-2.886a6.309,6.309,0,0,0,1.53-.483Zm-8.807-4.44a4.994,4.994,0,1,1,7.036.61,4.994,4.994,0,0,1-7.036-.61" transform="translate(-169.368 -109.038)"/>
              <path id="Trazado_1262749" data-name="Trazado 1262749" d="M264.709,189.986l1.289-1.8-2.071-2.165a6.293,6.293,0,0,0,.361-1.564l2.813-1.034-.364-2.187-3-.066a6.3,6.3,0,0,0-.849-1.362l1.257-2.72-1.8-1.289-2.165,2.071a6.293,6.293,0,0,0-1.564-.361l-1.034-2.813-2.187.364-.066,3a6.3,6.3,0,0,0-1.362.849l-2.72-1.257-1.289,1.8,2.071,2.165a6.293,6.293,0,0,0-.361,1.564l-2.813,1.034.364,2.187,3,.066a6.3,6.3,0,0,0,.849,1.362l-1.257,2.72,1.8,1.289,2.165-2.071a6.292,6.292,0,0,0,1.564.361l1.034,2.813,2.187-.364.066-3a6.317,6.317,0,0,0,1.362-.849Zm-9.635-2.108a4.994,4.994,0,1,1,6.966-1.161,4.994,4.994,0,0,1-6.966,1.161" transform="translate(-166.831 -126.115)"/>
              <line id="Línea_3262" data-name="Línea 3262" x2="45.312" transform="translate(63.193 94.343)" fill="none" stroke="#000" stroke-miterlimit="10" stroke-width="0.75"/>
              <line id="Línea_3263" data-name="Línea 3263" y2="90.221" transform="translate(61.88 2.808)" fill="none" stroke="#000" stroke-miterlimit="10" stroke-width="0.75"/>
              <line id="Línea_3264" data-name="Línea 3264" x1="45.312" transform="translate(63.193 1.495)" fill="none" stroke="#000" stroke-miterlimit="10" stroke-width="0.75"/>
              <line id="Línea_3265" data-name="Línea 3265" y1="90.263" transform="translate(109.818 2.808)" fill="none" stroke="#000" stroke-miterlimit="10" stroke-width="0.75"/>
              <rect id="Rectángulo_455529" data-name="Rectángulo 455529" width="2.626" height="2.626" transform="translate(108.504 0.182)" fill="none" stroke="#000" stroke-miterlimit="10" stroke-width="0.75"/>
              <rect id="Rectángulo_455530" data-name="Rectángulo 455530" width="2.626" height="2.626" transform="translate(60.566 0.182)" fill="none" stroke="#000" stroke-miterlimit="10" stroke-width="0.75"/>
              <rect id="Rectángulo_455531" data-name="Rectángulo 455531" width="2.626" height="2.626" transform="translate(108.504 93.029)" fill="none" stroke="#000" stroke-miterlimit="10" stroke-width="0.75"/>
              <rect id="Rectángulo_455532" data-name="Rectángulo 455532" width="2.626" height="2.626" transform="translate(60.566 93.029)" fill="none" stroke="#000" stroke-miterlimit="10" stroke-width="0.75"/>
              <rect id="Rectángulo_455533" data-name="Rectángulo 455533" width="24.513" height="0.236" transform="translate(115.699 94.826)"/>
              <rect id="Rectángulo_455534" data-name="Rectángulo 455534" width="0.237" height="19.159" transform="translate(114.87 75.075)"/>
              <rect id="Rectángulo_455535" data-name="Rectángulo 455535" width="24.513" height="0.237" transform="translate(115.699 74.246)"/>
              <rect id="Rectángulo_455536" data-name="Rectángulo 455536" width="0.237" height="19.182" transform="translate(140.804 75.075)"/>
              <path id="Trazado_1262750" data-name="Trazado 1262750" d="M369.918,227.672h-1.657v-1.658h1.657Zm-1.421-.237h1.184V226.25H368.5Z" transform="translate(-228.168 -152.479)"/>
              <path id="Trazado_1262751" data-name="Trazado 1262751" d="M316.592,227.672h-1.657v-1.658h1.657Zm-1.421-.237h1.184V226.25h-1.184Z" transform="translate(-200.776 -152.479)"/>
              <path id="Trazado_1262752" data-name="Trazado 1262752" d="M369.918,269.99h-1.657v-1.657h1.657Zm-1.421-.237h1.184v-1.184H368.5Z" transform="translate(-228.168 -174.217)"/>
              <path id="Trazado_1262753" data-name="Trazado 1262753" d="M316.592,269.99h-1.657v-1.657h1.657Zm-1.421-.237h1.184v-1.184h-1.184Z" transform="translate(-200.776 -174.217)"/>
              <rect id="Rectángulo_455537" data-name="Rectángulo 455537" width="22.488" height="17.634" transform="translate(116.712 75.838)"/>
              <rect id="Rectángulo_455538" data-name="Rectángulo 455538" width="21.257" height="16.379" transform="translate(117.326 76.465)"/>
              <path id="Trazado_1262754" data-name="Trazado 1262754" d="M327.8,241.581a1.489,1.489,0,0,0,.922-.418c.119-.125.218-.283.38-.34a.7.7,0,0,1,.634.216,1.352,1.352,0,0,1-.3-.44.461.461,0,0,1,.1-.5.453.453,0,0,1,.638.155.96.96,0,0,1-.036-.478.746.746,0,0,1,.5-.546.761.761,0,0,1,.986,1,.4.4,0,0,1,.53-.089.592.592,0,0,1,.247.513.847.847,0,0,1,.236-.634.947.947,0,0,1,1.244-.03,1.161,1.161,0,0,1,.308,1.248.455.455,0,0,1,.628-.071,2.527,2.527,0,0,1,.181.2.794.794,0,0,0,.6.192s-6.833-.013-7.788.017" transform="translate(-207.383 -159.243)"/>
              <path id="Trazado_1262755" data-name="Trazado 1262755" d="M343.949,237.541a.426.426,0,0,0,.263-.119c.034-.035.062-.081.108-.1a.2.2,0,0,1,.181.062.387.387,0,0,1-.087-.125.132.132,0,0,1,.028-.142.129.129,0,0,1,.182.044.273.273,0,0,1-.01-.137.213.213,0,0,1,.142-.156.217.217,0,0,1,.281.286.114.114,0,0,1,.151-.025.17.17,0,0,1,.071.146.242.242,0,0,1,.067-.181.27.27,0,0,1,.355-.009.331.331,0,0,1,.088.356.13.13,0,0,1,.179-.02c.019.017.034.038.052.057a.227.227,0,0,0,.172.055s-1.951,0-2.223.005" transform="translate(-215.679 -158.048)"/>
              <path id="Trazado_1262756" data-name="Trazado 1262756" d="M351.284,241.69a.7.7,0,0,0,.433-.2c.056-.058.1-.133.178-.16a.327.327,0,0,1,.3.1.638.638,0,0,1-.142-.207A.217.217,0,0,1,352.1,241a.213.213,0,0,1,.3.072.453.453,0,0,1-.017-.224.351.351,0,0,1,.233-.257.357.357,0,0,1,.463.471.187.187,0,0,1,.249-.041.278.278,0,0,1,.116.241.4.4,0,0,1,.111-.3.445.445,0,0,1,.584-.014.545.545,0,0,1,.145.587.214.214,0,0,1,.3-.034c.032.027.055.063.085.094a.373.373,0,0,0,.283.09s-3.21-.006-3.659.008" transform="translate(-219.447 -159.952)"/>
              <rect id="Rectángulo_455539" data-name="Rectángulo 455539" width="21.257" height="7.663" transform="translate(117.326 85.181)"/>
              <path id="Trazado_1262757" data-name="Trazado 1262757" d="M342.705,260.116a99.151,99.151,0,0,1-10.629.814,82.123,82.123,0,0,1-10.629-.814v2.724h21.257Z" transform="translate(-204.121 -169.996)"/>
              <rect id="Rectángulo_455540" data-name="Rectángulo 455540" width="24.513" height="0.236" transform="translate(144.779 94.826)"/>
              <rect id="Rectángulo_455541" data-name="Rectángulo 455541" width="0.236" height="19.159" transform="translate(143.951 75.075)"/>
              <rect id="Rectángulo_455542" data-name="Rectángulo 455542" width="24.513" height="0.237" transform="translate(144.779 74.246)"/>
              <rect id="Rectángulo_455543" data-name="Rectángulo 455543" width="0.236" height="19.182" transform="translate(169.885 75.075)"/>
              <path id="Trazado_1262758" data-name="Trazado 1262758" d="M429.714,227.672h-1.657v-1.658h1.657Zm-1.421-.237h1.184V226.25h-1.184Z" transform="translate(-258.883 -152.479)"/>
              <path id="Trazado_1262759" data-name="Trazado 1262759" d="M376.388,227.672h-1.657v-1.658h1.657Zm-1.421-.237h1.184V226.25h-1.184Z" transform="translate(-231.491 -152.479)"/>
              <path id="Trazado_1262760" data-name="Trazado 1262760" d="M429.714,269.99h-1.657v-1.657h1.657Zm-1.421-.237h1.184v-1.184h-1.184Z" transform="translate(-258.883 -174.217)"/>
              <path id="Trazado_1262761" data-name="Trazado 1262761" d="M376.388,269.99h-1.657v-1.657h1.657Zm-1.421-.237h1.184v-1.184h-1.184Z" transform="translate(-231.491 -174.217)"/>
              <rect id="Rectángulo_455544" data-name="Rectángulo 455544" width="22.488" height="17.634" transform="translate(145.792 75.838)"/>
              <rect id="Rectángulo_455545" data-name="Rectángulo 455545" width="21.257" height="16.379" transform="translate(146.407 76.465)"/>
              <path id="Trazado_1262762" data-name="Trazado 1262762" d="M387.594,241.581a1.49,1.49,0,0,0,.922-.418c.119-.125.218-.283.38-.34a.7.7,0,0,1,.634.216,1.352,1.352,0,0,1-.3-.44.461.461,0,0,1,.1-.5.453.453,0,0,1,.638.155.96.96,0,0,1-.036-.478.746.746,0,0,1,.5-.546.761.761,0,0,1,.986,1,.4.4,0,0,1,.53-.089.593.593,0,0,1,.247.513.847.847,0,0,1,.236-.634.947.947,0,0,1,1.244-.03,1.161,1.161,0,0,1,.308,1.248.455.455,0,0,1,.628-.071,2.51,2.51,0,0,1,.181.2.794.794,0,0,0,.6.192s-6.833-.013-7.788.017" transform="translate(-238.098 -159.243)"/>
              <path id="Trazado_1262763" data-name="Trazado 1262763" d="M403.744,237.541a.426.426,0,0,0,.263-.119c.034-.035.062-.081.108-.1a.2.2,0,0,1,.181.062.387.387,0,0,1-.087-.125.132.132,0,0,1,.028-.142.129.129,0,0,1,.182.044.279.279,0,0,1-.011-.137.213.213,0,0,1,.142-.156.217.217,0,0,1,.282.286.114.114,0,0,1,.151-.025.17.17,0,0,1,.07.146.24.24,0,0,1,.068-.181.27.27,0,0,1,.355-.009.331.331,0,0,1,.088.356.13.13,0,0,1,.179-.02c.019.017.034.038.052.057a.228.228,0,0,0,.172.055s-1.952,0-2.224.005" transform="translate(-246.394 -158.048)"/>
              <path id="Trazado_1262764" data-name="Trazado 1262764" d="M411.08,241.69a.7.7,0,0,0,.433-.2c.056-.058.1-.133.178-.16a.327.327,0,0,1,.3.1.63.63,0,0,1-.143-.207.216.216,0,0,1,.046-.233.213.213,0,0,1,.3.072.453.453,0,0,1-.017-.224.351.351,0,0,1,.233-.257.357.357,0,0,1,.463.471.187.187,0,0,1,.249-.041.278.278,0,0,1,.116.241.4.4,0,0,1,.111-.3.445.445,0,0,1,.584-.014.545.545,0,0,1,.145.587.214.214,0,0,1,.3-.034c.032.027.055.063.085.094a.373.373,0,0,0,.283.09s-3.211-.006-3.659.008" transform="translate(-250.162 -159.952)"/>
              <rect id="Rectángulo_455546" data-name="Rectángulo 455546" width="21.257" height="7.663" transform="translate(146.407 85.181)"/>
              <path id="Trazado_1262765" data-name="Trazado 1262765" d="M402.5,260.116a99.153,99.153,0,0,1-10.629.814,82.113,82.113,0,0,1-10.629-.814v2.724H402.5Z" transform="translate(-234.836 -169.996)"/>
              <path id="Trazado_1262766" data-name="Trazado 1262766" d="M368.539,202.32H323.3a3.178,3.178,0,0,0,0,6.355h45.244a3.178,3.178,0,1,0,0-6.355" transform="translate(-203.438 -140.308)"/>
              <path id="Trazado_1262767" data-name="Trazado 1262767" d="M329.589,205.334a1.255,1.255,0,0,0-2.146,1.3l-.3.2a.269.269,0,0,0-.267.018l-2.279,1.538a.27.27,0,1,0,.3.447l2.279-1.538a.268.268,0,0,0,.117-.241l.3-.206a1.255,1.255,0,0,0,1.991-1.521m-1.88,1.269a1.013,1.013,0,1,1,1.406.273,1.013,1.013,0,0,1-1.406-.273" transform="translate(-205.676 -141.571)"/>
              <rect id="Rectángulo_455547" data-name="Rectángulo 455547" width="53.594" height="0.236" transform="translate(115.699 69.483)"/>
              <rect id="Rectángulo_455548" data-name="Rectángulo 455548" width="0.237" height="7.402" transform="translate(114.87 61.489)"/>
              <rect id="Rectángulo_455549" data-name="Rectángulo 455549" width="53.594" height="0.236" transform="translate(115.699 60.66)"/>
              <rect id="Rectángulo_455550" data-name="Rectángulo 455550" width="0.236" height="7.425" transform="translate(169.885 61.489)"/>
              <path id="Trazado_1262768" data-name="Trazado 1262768" d="M429.714,199.736h-1.657v-1.657h1.657Zm-1.421-.236h1.184v-1.184h-1.184Z" transform="translate(-258.883 -138.129)"/>
              <path id="Trazado_1262769" data-name="Trazado 1262769" d="M316.592,199.736h-1.657v-1.657h1.657Zm-1.421-.236h1.184v-1.184h-1.184Z" transform="translate(-200.776 -138.129)"/>
              <path id="Trazado_1262770" data-name="Trazado 1262770" d="M429.714,217.878h-1.657v-1.657h1.657Zm-1.421-.237h1.184v-1.184h-1.184Z" transform="translate(-258.883 -147.448)"/>
              <path id="Trazado_1262771" data-name="Trazado 1262771" d="M316.592,217.878h-1.657v-1.657h1.657Zm-1.421-.237h1.184v-1.184h-1.184Z" transform="translate(-200.776 -147.448)"/>
              <rect id="Rectángulo_455551" data-name="Rectángulo 455551" width="21.383" height="21.383" transform="translate(118.287 5.244)"/>
              <path id="Trazado_1262772" data-name="Trazado 1262772" d="M340.022,115.948a8.615,8.615,0,0,0,5.1-1.662,8.473,8.473,0,0,0-1.43-3.645,1.2,1.2,0,0,0-.253-.257,5.764,5.764,0,0,0-6.827,0,1.2,1.2,0,0,0-.253.257,8.479,8.479,0,0,0-1.431,3.645,8.612,8.612,0,0,0,5.1,1.662" transform="translate(-211.044 -92.508)"/>
              <path id="Trazado_1262773" data-name="Trazado 1262773" d="M340.614,115.888a8.611,8.611,0,0,0,4.537-1.284,9.443,9.443,0,0,0-1.307-4.072,1.121,1.121,0,0,0-.223-.258,4.578,4.578,0,0,0-6.014,0,1.144,1.144,0,0,0-.223.258,9.442,9.442,0,0,0-1.307,4.072,8.612,8.612,0,0,0,4.537,1.284" transform="translate(-211.636 -92.447)"/>
              <path id="Trazado_1262774" data-name="Trazado 1262774" d="M342.918,104.768v2.42c0,.25.542.453,1.21.453s1.21-.2,1.21-.453v-2.42Z" transform="translate(-215.15 -90.198)"/>
              <path id="Trazado_1262775" data-name="Trazado 1262775" d="M351.445,99.449a.293.293,0,0,0-.194-.12c-.24-.037-.446.262-.53.449a.068.068,0,0,0,0,.041,1.62,1.62,0,0,0-.264,1.075.135.135,0,0,0,.128.121.447.447,0,0,0,.547.191.419.419,0,0,0,.19-.364c.053-.441.445-.964.125-1.393" transform="translate(-219.016 -87.402)"/>
              <path id="Trazado_1262776" data-name="Trazado 1262776" d="M338.3,100.843a.419.419,0,0,0,.19.364.447.447,0,0,0,.547-.191.136.136,0,0,0,.128-.121,1.616,1.616,0,0,0-.264-1.075.062.062,0,0,0,0-.041c-.084-.187-.289-.486-.53-.449a.294.294,0,0,0-.194.12c-.32.428.072.951.125,1.393" transform="translate(-212.65 -87.403)"/>
              <path id="Trazado_1262777" data-name="Trazado 1262777" d="M345.086,93.58c0-.073-.011-.146-.021-.219a1.14,1.14,0,0,0-.174-.494c-.025-.036-.322-.354-.342-.328a.612.612,0,0,0,.126-.428c-.027-.51-.549-.678-.973-.771a5.365,5.365,0,0,0-3.4.362,1.991,1.991,0,0,1-.316.063,3.515,3.515,0,0,0-.357.109,2.7,2.7,0,0,0-.685.361,1.541,1.541,0,0,0-.47.543,1.731,1.731,0,0,0-.117.844,10.516,10.516,0,0,0,.374,2.1c.029.126.046.514.171.579a4.4,4.4,0,0,0,2.063.278c1.023-.021,2.044-.2,3.067-.169.121,0,.244,0,.364.019.081.01.182.039.256-.015a.148.148,0,0,0,.045-.1,17.048,17.048,0,0,0,.392-2.738" transform="translate(-212.803 -83.235)"/>
              <path id="Trazado_1262778" data-name="Trazado 1262778" d="M344.726,95.805h-.1a1.722,1.722,0,0,0-.565.11,9.033,9.033,0,0,1-3.515,0,1.708,1.708,0,0,0-.565-.11h-.1a.514.514,0,0,0-.514.514v3.163a2.942,2.942,0,1,0,5.877,0V96.319a.513.513,0,0,0-.514-.514" transform="translate(-213.324 -85.594)"/>
              <path id="Trazado_1262779" data-name="Trazado 1262779" d="M344.858,107.028H325.391V87.561h19.467Zm-19.349-.118H344.74V87.679H325.509Z" transform="translate(-206.147 -81.359)"/>
              <rect id="Rectángulo_455552" data-name="Rectángulo 455552" width="21.383" height="21.383" transform="translate(144.328 5.244)"/>
              <path id="Trazado_1262780" data-name="Trazado 1262780" d="M390.05,95.178h-7.9a.733.733,0,1,0,0,1.467h7.9a.733.733,0,0,0,0-1.467" transform="translate(-234.925 -85.272)"/>
              <path id="Trazado_1262781" data-name="Trazado 1262781" d="M386.69,102.539h-4.874a.4.4,0,0,0-.4.4v.075a.4.4,0,0,0,.4.4h4.874a.4.4,0,0,0,.4-.4v-.075a.4.4,0,0,0-.4-.4" transform="translate(-234.925 -89.053)"/>
              <path id="Trazado_1262782" data-name="Trazado 1262782" d="M386.69,115.573h-4.874a.4.4,0,0,0-.4.4v.075a.4.4,0,0,0,.4.4h4.874a.4.4,0,0,0,.4-.4v-.075a.4.4,0,0,0-.4-.4" transform="translate(-234.925 -95.748)"/>
              <path id="Trazado_1262783" data-name="Trazado 1262783" d="M383.977,106.884h-2.162a.4.4,0,0,0-.4.4v.075a.4.4,0,0,0,.4.4h2.162a.4.4,0,0,0,.4-.4v-.075a.4.4,0,0,0-.4-.4" transform="translate(-234.925 -91.285)"/>
              <path id="Trazado_1262784" data-name="Trazado 1262784" d="M404.506,111.229h-2.162a.4.4,0,0,0-.4.4v.075a.4.4,0,0,0,.4.4h2.162a.4.4,0,0,0,.4-.4v-.075a.4.4,0,0,0-.4-.4" transform="translate(-245.47 -93.517)"/>
              <path id="Trazado_1262785" data-name="Trazado 1262785" d="M396.287,115.573h-2.162a.4.4,0,0,0-.4.4v.075a.4.4,0,0,0,.4.4h2.162a.4.4,0,0,0,.4-.4v-.075a.4.4,0,0,0-.4-.4" transform="translate(-241.248 -95.748)"/>
              <path id="Trazado_1262786" data-name="Trazado 1262786" d="M403.35,102.539h-8.791a.4.4,0,0,0-.4.4v.075a.4.4,0,0,0,.4.4h8.791a.4.4,0,0,0,.4-.4v-.075a.4.4,0,0,0-.4-.4" transform="translate(-241.471 -89.053)"/>
              <path id="Trazado_1262787" data-name="Trazado 1262787" d="M390.607,111.229h-8.791a.4.4,0,0,0-.4.4v.075a.4.4,0,0,0,.4.4h8.791a.4.4,0,0,0,.4-.4v-.075a.4.4,0,0,0-.4-.4" transform="translate(-234.925 -93.517)"/>
              <path id="Trazado_1262788" data-name="Trazado 1262788" d="M397.5,106.884h-8.791a.4.4,0,0,0-.4.4v.075a.4.4,0,0,0,.4.4H397.5a.4.4,0,0,0,.4-.4v-.075a.4.4,0,0,0-.4-.4" transform="translate(-238.468 -91.285)"/>
              <path id="Trazado_1262789" data-name="Trazado 1262789" d="M415.81,102.539h-.417a.4.4,0,0,0-.4.4v.075a.4.4,0,0,0,.4.4h.417a.4.4,0,0,0,.4-.4v-.075a.4.4,0,0,0-.4-.4" transform="translate(-252.173 -89.053)"/>
              <path id="Trazado_1262790" data-name="Trazado 1262790" d="M409.7,111.229h-.417a.4.4,0,0,0-.4.4v.075a.4.4,0,0,0,.4.4h.417a.4.4,0,0,0,.4-.4v-.075a.4.4,0,0,0-.4-.4" transform="translate(-249.034 -93.517)"/>
              <path id="Trazado_1262791" data-name="Trazado 1262791" d="M401.493,115.573h-.417a.4.4,0,0,0-.4.4v.075a.4.4,0,0,0,.4.4h.417a.4.4,0,0,0,.4-.4v-.075a.4.4,0,0,0-.4-.4" transform="translate(-244.819 -95.748)"/>
              <path id="Trazado_1262792" data-name="Trazado 1262792" d="M383.977,119.918h-2.162a.4.4,0,0,0-.4.4v.075a.4.4,0,0,0,.4.4h2.162a.4.4,0,0,0,.4-.4v-.075a.4.4,0,0,0-.4-.4" transform="translate(-234.925 -97.98)"/>
              <path id="Trazado_1262793" data-name="Trazado 1262793" d="M389.183,119.918h-.417a.4.4,0,0,0-.4.4v.075a.4.4,0,0,0,.4.4h.417a.4.4,0,0,0,.4-.4v-.075a.4.4,0,0,0-.4-.4" transform="translate(-238.495 -97.98)"/>
              <path id="Trazado_1262794" data-name="Trazado 1262794" d="M407.009,95.178h-3.151a.733.733,0,0,0,0,1.467h3.151a.733.733,0,1,0,0-1.467" transform="translate(-246.076 -85.272)"/>
              <rect id="Rectángulo_455553" data-name="Rectángulo 455553" width="21.383" height="21.383" transform="translate(118.287 30.898)"/>
              <path id="Trazado_1262795" data-name="Trazado 1262795" d="M340.824,159.144l1.507-.948-.88-2.24a5.048,5.048,0,0,0,.745-1.052l2.405.088.395-1.736-2.207-.961a5.039,5.039,0,0,0-.216-1.271l1.762-1.638-.948-1.507-2.24.88a5.05,5.05,0,0,0-1.052-.745l.088-2.405-1.736-.395-.961,2.207a5.039,5.039,0,0,0-1.271.216l-1.638-1.762-1.507.948.88,2.24a5.052,5.052,0,0,0-.745,1.052l-2.405-.088-.395,1.736,2.207.961a5.038,5.038,0,0,0,.216,1.271l-1.762,1.638.948,1.507,2.24-.88a5.052,5.052,0,0,0,1.052.745l-.088,2.405,1.736.395.961-2.207a5.039,5.039,0,0,0,1.271-.216Zm-6.518-4.5a4.01,4.01,0,1,1,5.53,1.258,4.01,4.01,0,0,1-5.53-1.258" transform="translate(-208.721 -110.973)"/>
              <path id="Trazado_1262796" data-name="Trazado 1262796" d="M371.083,78.1V74.843h-3.259V76.3H317.4V74.843h-3.259V78.1H315.6v50.42h-1.452v3.259H317.4v-1.452h50.42v1.452h3.259v-3.259h-1.452V78.1Zm-2.9-2.9h2.55v2.55h-2.55Zm-53.679,0h2.55v2.55H314.5Zm2.55,56.228H314.5v-2.55h2.55Zm53.678,0h-2.55v-2.55h2.55Zm-1.452-2.9h-1.452v1.452H317.4v-1.452h-1.452V78.1H317.4V76.65h50.42V78.1h1.452v50.42Z" transform="translate(-200.37 -74.826)"/>
              <rect id="Rectángulo_455554" data-name="Rectángulo 455554" width="21.383" height="21.383" transform="translate(144.328 30.898)"/>
              <path id="Trazado_1262797" data-name="Trazado 1262797" d="M398.406,159.666H378.939V140.2h19.467Zm-19.349-.118h19.231V140.317H379.057Z" transform="translate(-233.653 -108.398)"/>
              <path id="Trazado_1262798" data-name="Trazado 1262798" d="M389.383,155.826a.61.61,0,0,1-.316-1.108l7.8-5.508a.61.61,0,1,1,.7,1l-7.8,5.508a.61.61,0,0,1-.389.111" transform="translate(-238.722 -112.969)"/>
              <path id="Trazado_1262799" data-name="Trazado 1262799" d="M396.732,165.82a.605.605,0,0,1-.264-.079l-7.35-4.176a.61.61,0,0,1,.6-1.062l7.35,4.176a.611.611,0,0,1-.339,1.14" transform="translate(-238.722 -118.787)"/>
              <path id="Trazado_1262800" data-name="Trazado 1262800" d="M389.945,159.633a2.056,2.056,0,1,0-2.177,1.927,2.055,2.055,0,0,0,2.177-1.927" transform="translate(-237.195 -117.26)"/>
              <path id="Trazado_1262801" data-name="Trazado 1262801" d="M405.986,148.308a2.056,2.056,0,1,0-2.177,1.928,2.056,2.056,0,0,0,2.177-1.928" transform="translate(-245.435 -111.443)"/>
              <path id="Trazado_1262802" data-name="Trazado 1262802" d="M405.059,168.219a2.056,2.056,0,1,0-2.177,1.927,2.056,2.056,0,0,0,2.177-1.927" transform="translate(-244.959 -121.671)"/>
              <path id="Trazado_1262803" data-name="Trazado 1262803" d="M108.75,93.487H81.268a1.07,1.07,0,0,0,0,2.141H108.75a1.07,1.07,0,0,0,0-2.141" transform="translate(-80.198 -84.403)"/>
              <path id="Trazado_1262804" data-name="Trazado 1262804" d="M97.5,102.851H80.835a.637.637,0,1,0,0,1.274H97.5a.637.637,0,1,0,0-1.274" transform="translate(-80.198 -89.213)"/>
              <path id="Trazado_1262805" data-name="Trazado 1262805" d="M97.5,121.868H80.835a.637.637,0,0,0,0,1.274H97.5a.637.637,0,0,0,0-1.274" transform="translate(-80.198 -98.982)"/>
              <path id="Trazado_1262806" data-name="Trazado 1262806" d="M88.921,109.19H80.835a.637.637,0,1,0,0,1.274h8.086a.637.637,0,0,0,0-1.274" transform="translate(-80.198 -92.47)"/>
              <path id="Trazado_1262807" data-name="Trazado 1262807" d="M153.843,115.529h-8.086a.637.637,0,0,0,0,1.274h8.086a.637.637,0,0,0,0-1.274" transform="translate(-113.547 -95.726)"/>
              <path id="Trazado_1262808" data-name="Trazado 1262808" d="M127.85,121.868h-8.086a.637.637,0,0,0,0,1.274h8.086a.637.637,0,0,0,0-1.274" transform="translate(-100.195 -98.982)"/>
              <path id="Trazado_1262809" data-name="Trazado 1262809" d="M123.782,128.206H115.7a.637.637,0,1,0,0,1.274h8.086a.637.637,0,1,0,0-1.274" transform="translate(-98.105 -102.237)"/>
              <path id="Trazado_1262810" data-name="Trazado 1262810" d="M150.187,102.851H121.135a.637.637,0,0,0,0,1.274h29.052a.637.637,0,0,0,0-1.274" transform="translate(-100.899 -89.213)"/>
              <path id="Trazado_1262811" data-name="Trazado 1262811" d="M109.887,115.529H80.835a.637.637,0,1,0,0,1.274h29.052a.637.637,0,1,0,0-1.274" transform="translate(-80.198 -95.726)"/>
              <path id="Trazado_1262812" data-name="Trazado 1262812" d="M131.7,109.19H102.647a.637.637,0,1,0,0,1.274H131.7a.637.637,0,1,0,0-1.274" transform="translate(-91.402 -92.47)"/>
              <path id="Trazado_1262813" data-name="Trazado 1262813" d="M189.59,102.851h-2.568a.637.637,0,1,0,0,1.274h2.568a.637.637,0,0,0,0-1.274" transform="translate(-134.743 -89.213)"/>
              <path id="Trazado_1262814" data-name="Trazado 1262814" d="M170.265,115.529H167.7a.637.637,0,0,0,0,1.274h2.568a.637.637,0,1,0,0-1.274" transform="translate(-124.817 -95.726)"/>
              <path id="Trazado_1262815" data-name="Trazado 1262815" d="M109.887,133.3H80.835a.637.637,0,0,0,0,1.274h29.052a.637.637,0,0,0,0-1.274" transform="translate(-80.198 -104.857)"/>
              <path id="Trazado_1262816" data-name="Trazado 1262816" d="M148.264,133.3H145.7a.637.637,0,1,0,0,1.274h2.568a.637.637,0,0,0,0-1.274" transform="translate(-113.515 -104.857)"/>
              <path id="Trazado_1262817" data-name="Trazado 1262817" d="M144.313,121.868h-2.568a.637.637,0,0,0,0,1.274h2.568a.637.637,0,0,0,0-1.274" transform="translate(-111.486 -98.982)"/>
              <path id="Trazado_1262818" data-name="Trazado 1262818" d="M88.921,128.206H80.835a.637.637,0,1,0,0,1.274h8.086a.637.637,0,0,0,0-1.274" transform="translate(-80.198 -102.237)"/>
              <path id="Trazado_1262819" data-name="Trazado 1262819" d="M105.385,128.206h-2.568a.637.637,0,1,0,0,1.274h2.568a.637.637,0,1,0,0-1.274" transform="translate(-91.49 -102.237)"/>
              <path id="Trazado_1262820" data-name="Trazado 1262820" d="M162.38,93.487H149.914a1.07,1.07,0,0,0,0,2.141H162.38a1.07,1.07,0,0,0,0-2.141" transform="translate(-115.46 -84.403)"/>
              <path id="Trazado_1262821" data-name="Trazado 1262821" d="M108.75,154.1H81.268a1.07,1.07,0,1,0,0,2.141H108.75a1.07,1.07,0,1,0,0-2.141" transform="translate(-80.198 -115.541)"/>
              <path id="Trazado_1262822" data-name="Trazado 1262822" d="M97.5,163.468H80.835a.637.637,0,0,0,0,1.274H97.5a.637.637,0,0,0,0-1.274" transform="translate(-80.198 -120.351)"/>
              <path id="Trazado_1262823" data-name="Trazado 1262823" d="M97.5,182.484H80.835a.637.637,0,1,0,0,1.274H97.5a.637.637,0,1,0,0-1.274" transform="translate(-80.198 -130.118)"/>
              <path id="Trazado_1262824" data-name="Trazado 1262824" d="M88.921,169.807H80.835a.637.637,0,1,0,0,1.274h8.086a.637.637,0,0,0,0-1.274" transform="translate(-80.198 -123.607)"/>
              <path id="Trazado_1262825" data-name="Trazado 1262825" d="M153.843,176.146h-8.086a.637.637,0,0,0,0,1.274h8.086a.637.637,0,0,0,0-1.274" transform="translate(-113.547 -126.863)"/>
              <path id="Trazado_1262826" data-name="Trazado 1262826" d="M127.85,182.484h-8.086a.637.637,0,0,0,0,1.274h8.086a.637.637,0,1,0,0-1.274" transform="translate(-100.195 -130.118)"/>
              <path id="Trazado_1262827" data-name="Trazado 1262827" d="M123.782,188.823H115.7a.637.637,0,1,0,0,1.274h8.086a.637.637,0,1,0,0-1.274" transform="translate(-98.105 -133.375)"/>
              <path id="Trazado_1262828" data-name="Trazado 1262828" d="M150.187,163.468H121.135a.637.637,0,0,0,0,1.274h29.052a.637.637,0,0,0,0-1.274" transform="translate(-100.899 -120.351)"/>
              <path id="Trazado_1262829" data-name="Trazado 1262829" d="M109.887,176.146H80.835a.637.637,0,1,0,0,1.274h29.052a.637.637,0,1,0,0-1.274" transform="translate(-80.198 -126.863)"/>
              <path id="Trazado_1262830" data-name="Trazado 1262830" d="M131.7,169.807H102.647a.637.637,0,1,0,0,1.274H131.7a.637.637,0,1,0,0-1.274" transform="translate(-91.402 -123.607)"/>
              <path id="Trazado_1262831" data-name="Trazado 1262831" d="M189.59,163.468h-2.568a.637.637,0,1,0,0,1.274h2.568a.637.637,0,0,0,0-1.274" transform="translate(-134.743 -120.351)"/>
              <path id="Trazado_1262832" data-name="Trazado 1262832" d="M170.265,176.146H167.7a.637.637,0,0,0,0,1.274h2.568a.637.637,0,1,0,0-1.274" transform="translate(-124.817 -126.863)"/>
              <path id="Trazado_1262833" data-name="Trazado 1262833" d="M109.887,193.922H80.835a.637.637,0,0,0,0,1.274h29.052a.637.637,0,0,0,0-1.274" transform="translate(-80.198 -135.994)"/>
              <path id="Trazado_1262834" data-name="Trazado 1262834" d="M148.264,193.922H145.7a.637.637,0,1,0,0,1.274h2.568a.637.637,0,0,0,0-1.274" transform="translate(-113.515 -135.994)"/>
              <path id="Trazado_1262835" data-name="Trazado 1262835" d="M144.313,182.484h-2.568a.637.637,0,0,0,0,1.274h2.568a.637.637,0,0,0,0-1.274" transform="translate(-111.486 -130.118)"/>
              <path id="Trazado_1262836" data-name="Trazado 1262836" d="M88.921,188.823H80.835a.637.637,0,1,0,0,1.274h8.086a.637.637,0,0,0,0-1.274" transform="translate(-80.198 -133.375)"/>
              <path id="Trazado_1262837" data-name="Trazado 1262837" d="M105.385,188.823h-2.568a.637.637,0,1,0,0,1.274h2.568a.637.637,0,1,0,0-1.274" transform="translate(-91.49 -133.375)"/>
              <path id="Trazado_1262838" data-name="Trazado 1262838" d="M162.38,154.1H149.914a1.07,1.07,0,0,0,0,2.141H162.38a1.07,1.07,0,0,0,0-2.141" transform="translate(-115.46 -115.541)"/>
              <path id="Trazado_1262839" data-name="Trazado 1262839" d="M108.75,214.721H81.268a1.07,1.07,0,1,0,0,2.141H108.75a1.07,1.07,0,0,0,0-2.141" transform="translate(-80.198 -146.678)"/>
              <path id="Trazado_1262840" data-name="Trazado 1262840" d="M97.5,224.085H80.835a.637.637,0,1,0,0,1.274H97.5a.637.637,0,1,0,0-1.274" transform="translate(-80.198 -151.488)"/>
              <path id="Trazado_1262841" data-name="Trazado 1262841" d="M97.5,243.1H80.835a.637.637,0,1,0,0,1.274H97.5a.637.637,0,1,0,0-1.274" transform="translate(-80.198 -161.256)"/>
              <path id="Trazado_1262842" data-name="Trazado 1262842" d="M88.921,230.424H80.835a.637.637,0,1,0,0,1.274h8.086a.637.637,0,0,0,0-1.274" transform="translate(-80.198 -154.744)"/>
              <path id="Trazado_1262843" data-name="Trazado 1262843" d="M153.843,236.763h-8.086a.637.637,0,0,0,0,1.274h8.086a.637.637,0,0,0,0-1.274" transform="translate(-113.547 -158)"/>
              <path id="Trazado_1262844" data-name="Trazado 1262844" d="M127.85,243.1h-8.086a.637.637,0,0,0,0,1.274h8.086a.637.637,0,1,0,0-1.274" transform="translate(-100.195 -161.256)"/>
              <path id="Trazado_1262845" data-name="Trazado 1262845" d="M123.782,249.44H115.7a.637.637,0,1,0,0,1.274h8.086a.637.637,0,1,0,0-1.274" transform="translate(-98.105 -164.512)"/>
              <path id="Trazado_1262846" data-name="Trazado 1262846" d="M150.187,224.085H121.135a.637.637,0,0,0,0,1.274h29.052a.637.637,0,0,0,0-1.274" transform="translate(-100.899 -151.488)"/>
              <path id="Trazado_1262847" data-name="Trazado 1262847" d="M109.887,236.763H80.835a.637.637,0,1,0,0,1.274h29.052a.637.637,0,1,0,0-1.274" transform="translate(-80.198 -158)"/>
              <path id="Trazado_1262848" data-name="Trazado 1262848" d="M131.7,230.424H102.647a.637.637,0,1,0,0,1.274H131.7a.637.637,0,1,0,0-1.274" transform="translate(-91.402 -154.744)"/>
              <path id="Trazado_1262849" data-name="Trazado 1262849" d="M189.59,224.085h-2.568a.637.637,0,1,0,0,1.274h2.568a.637.637,0,0,0,0-1.274" transform="translate(-134.743 -151.488)"/>
              <path id="Trazado_1262850" data-name="Trazado 1262850" d="M170.265,236.763H167.7a.637.637,0,0,0,0,1.274h2.568a.637.637,0,1,0,0-1.274" transform="translate(-124.817 -158)"/>
              <path id="Trazado_1262851" data-name="Trazado 1262851" d="M109.887,254.539H80.835a.637.637,0,1,0,0,1.274h29.052a.637.637,0,1,0,0-1.274" transform="translate(-80.198 -167.131)"/>
              <path id="Trazado_1262852" data-name="Trazado 1262852" d="M148.264,254.539H145.7a.637.637,0,1,0,0,1.274h2.568a.637.637,0,1,0,0-1.274" transform="translate(-113.515 -167.131)"/>
              <path id="Trazado_1262853" data-name="Trazado 1262853" d="M144.313,243.1h-2.568a.637.637,0,0,0,0,1.274h2.568a.637.637,0,0,0,0-1.274" transform="translate(-111.486 -161.256)"/>
              <path id="Trazado_1262854" data-name="Trazado 1262854" d="M88.921,249.44H80.835a.637.637,0,1,0,0,1.274h8.086a.637.637,0,0,0,0-1.274" transform="translate(-80.198 -164.512)"/>
              <path id="Trazado_1262855" data-name="Trazado 1262855" d="M105.385,249.44h-2.568a.637.637,0,1,0,0,1.274h2.568a.637.637,0,1,0,0-1.274" transform="translate(-91.49 -164.512)"/>
              <path id="Trazado_1262856" data-name="Trazado 1262856" d="M162.38,214.721H149.914a1.07,1.07,0,0,0,0,2.141H162.38a1.07,1.07,0,0,0,0-2.141" transform="translate(-115.46 -146.678)"/>
            </g>
          </g>
        </g>
        <path id="Trazado_1262857" data-name="Trazado 1262857" d="M249.939,167.782H217.751a5.565,5.565,0,0,1-5.565-5.565V84.336a5.565,5.565,0,0,1,5.565-5.565h32.188a5.565,5.565,0,0,1,5.565,5.565v77.881a5.564,5.564,0,0,1-5.565,5.565" transform="translate(-108.994 -40.462)" fill="#c7d0e6"/>
        <path id="Trazado_1262858" data-name="Trazado 1262858" d="M250.74,80.548a4.824,4.824,0,0,1,4.819,4.819V163.01a4.824,4.824,0,0,1-4.819,4.819H219.022a4.824,4.824,0,0,1-4.819-4.819V85.368a4.824,4.824,0,0,1,4.819-4.819H250.74" transform="translate(-110.03 -41.375)" fill="#20293a"/>
        <path id="Trazado_1262859" data-name="Trazado 1262859" d="M251.524,82.426h-4.005a.489.489,0,0,0-.48.434,3.2,3.2,0,0,1-3.168,2.763H227.608a3.2,3.2,0,0,1-3.168-2.763.487.487,0,0,0-.478-.434h-4.007a4.08,4.08,0,0,0-4.08,4.08v77.3a4.08,4.08,0,0,0,4.08,4.08h31.57a4.08,4.08,0,0,0,4.08-4.08v-77.3a4.08,4.08,0,0,0-4.08-4.08" transform="translate(-110.889 -42.34)" fill="#181f2b"/>
        <path id="Trazado_1262860" data-name="Trazado 1262860" d="M256.078,83.577h-5.612a.284.284,0,1,1,0-.568h5.612a.284.284,0,1,1,0,.568" transform="translate(-128.511 -42.639)" fill="#20293a"/>
        <path id="Trazado_1262861" data-name="Trazado 1262861" d="M266.668,82.5a.53.53,0,1,1-.53.53.53.53,0,0,1,.53-.53" transform="translate(-136.707 -42.38)" fill="#20293a"/>
        <path id="Trazado_1262862" data-name="Trazado 1262862" d="M266.8,82.756a.408.408,0,1,1-.408.408.407.407,0,0,1,.408-.408" transform="translate(-136.836 -42.509)" fill="#181f2b"/>
        <path id="Trazado_1262863" data-name="Trazado 1262863" d="M267.127,83.4a.094.094,0,1,1-.094.094.094.094,0,0,1,.094-.094" transform="translate(-137.167 -42.84)" fill="#85e8ff"/>
        <path id="Trazado_1262864" data-name="Trazado 1262864" d="M234.722,169.7l1.877-1.181-1.1-2.789a6.293,6.293,0,0,0,.927-1.31l3,.109.492-2.162-2.748-1.2a6.292,6.292,0,0,0-.269-1.583l2.195-2.04-1.181-1.877-2.789,1.1a6.294,6.294,0,0,0-1.31-.927l.109-3-2.162-.492-1.2,2.748a6.293,6.293,0,0,0-1.583.269l-2.04-2.195-1.877,1.181,1.1,2.789a6.294,6.294,0,0,0-.927,1.31l-3-.109-.492,2.162,2.748,1.2a6.292,6.292,0,0,0,.269,1.583l-2.195,2.04,1.181,1.877,2.789-1.1a6.293,6.293,0,0,0,1.31.927l-.109,3,2.162.492,1.2-2.748a6.292,6.292,0,0,0,1.583-.269Zm-8.117-5.6a4.994,4.994,0,1,1,6.886,1.566,4.994,4.994,0,0,1-6.886-1.566" transform="translate(-113.904 -78.256)" fill="#20293a"/>
        <path id="Trazado_1262865" data-name="Trazado 1262865" d="M267.9,155.226l1.7-1.427-1.467-2.613a6.3,6.3,0,0,0,.739-1.425l2.982-.3.192-2.209-2.886-.81a6.319,6.319,0,0,0-.483-1.531l1.895-2.321-1.426-1.7-2.613,1.467a6.292,6.292,0,0,0-1.425-.739l-.3-2.982-2.209-.192-.81,2.886a6.309,6.309,0,0,0-1.53.483l-2.321-1.895-1.7,1.426,1.467,2.613a6.293,6.293,0,0,0-.739,1.425l-2.982.3-.192,2.209,2.886.81a6.32,6.32,0,0,0,.483,1.531l-1.895,2.321,1.427,1.7,2.613-1.467a6.3,6.3,0,0,0,1.425.739l.3,2.982,2.209.192.81-2.886a6.309,6.309,0,0,0,1.53-.483Zm-8.807-4.44a4.994,4.994,0,1,1,7.036.61,4.994,4.994,0,0,1-7.036-.61" transform="translate(-130.365 -71.116)" fill="#20293a"/>
        <path id="Trazado_1262866" data-name="Trazado 1262866" d="M264.709,186.986l1.289-1.8-2.071-2.165a6.293,6.293,0,0,0,.361-1.564l2.813-1.034-.364-2.187-3-.066a6.3,6.3,0,0,0-.849-1.362l1.257-2.72-1.8-1.289-2.165,2.071a6.292,6.292,0,0,0-1.564-.361l-1.034-2.813-2.187.364-.066,3a6.3,6.3,0,0,0-1.362.849l-2.72-1.257-1.289,1.8,2.071,2.165a6.293,6.293,0,0,0-.361,1.564l-2.813,1.034.364,2.187,3,.066a6.3,6.3,0,0,0,.849,1.362l-1.257,2.72,1.8,1.289,2.165-2.071a6.292,6.292,0,0,0,1.564.361l1.034,2.813,2.187-.364.066-3a6.3,6.3,0,0,0,1.362-.849Zm-9.635-2.108a4.994,4.994,0,1,1,6.966-1.161,4.994,4.994,0,0,1-6.966,1.161" transform="translate(-127.828 -88.192)" fill="#20293a"/>
        <line id="Línea_3266" data-name="Línea 3266" x2="45.312" transform="translate(102.195 129.265)" fill="none" stroke="#464e61" stroke-miterlimit="10" stroke-width="0.75"/>
        <line id="Línea_3267" data-name="Línea 3267" y2="90.221" transform="translate(100.882 37.731)" fill="none" stroke="#464e61" stroke-miterlimit="10" stroke-width="0.75"/>
        <line id="Línea_3268" data-name="Línea 3268" x1="45.312" transform="translate(102.195 36.418)" fill="none" stroke="#464e61" stroke-miterlimit="10" stroke-width="0.75"/>
        <line id="Línea_3269" data-name="Línea 3269" y1="90.263" transform="translate(148.82 37.731)" fill="none" stroke="#464e61" stroke-miterlimit="10" stroke-width="0.75"/>
        <rect id="Rectángulo_455556" data-name="Rectángulo 455556" width="2.626" height="2.626" transform="translate(147.507 35.105)" fill="none" stroke="#464e61" stroke-miterlimit="10" stroke-width="0.75"/>
        <rect id="Rectángulo_455557" data-name="Rectángulo 455557" width="2.626" height="2.626" transform="translate(99.569 35.105)" fill="none" stroke="#464e61" stroke-miterlimit="10" stroke-width="0.75"/>
        <rect id="Rectángulo_455558" data-name="Rectángulo 455558" width="2.626" height="2.626" transform="translate(147.507 127.952)" fill="none" stroke="#464e61" stroke-miterlimit="10" stroke-width="0.75"/>
        <rect id="Rectángulo_455559" data-name="Rectángulo 455559" width="2.626" height="2.626" transform="translate(99.569 127.952)" fill="none" stroke="#464e61" stroke-miterlimit="10" stroke-width="0.75"/>
        <rect id="Rectángulo_455560" data-name="Rectángulo 455560" width="24.513" height="0.236" transform="translate(154.701 129.749)" fill="#464e61"/>
        <rect id="Rectángulo_455561" data-name="Rectángulo 455561" width="0.237" height="19.159" transform="translate(153.873 109.998)" fill="#464e61"/>
        <rect id="Rectángulo_455562" data-name="Rectángulo 455562" width="24.513" height="0.237" transform="translate(154.701 109.169)" fill="#464e61"/>
        <rect id="Rectángulo_455563" data-name="Rectángulo 455563" width="0.237" height="19.182" transform="translate(179.807 109.998)" fill="#464e61"/>
        <path id="Trazado_1262867" data-name="Trazado 1262867" d="M369.918,224.672h-1.657v-1.658h1.657Zm-1.421-.237h1.184V223.25H368.5Z" transform="translate(-189.165 -114.556)" fill="#464e61"/>
        <path id="Trazado_1262868" data-name="Trazado 1262868" d="M316.592,224.672h-1.657v-1.658h1.657Zm-1.421-.237h1.184V223.25h-1.184Z" transform="translate(-161.773 -114.556)" fill="#464e61"/>
        <path id="Trazado_1262869" data-name="Trazado 1262869" d="M369.918,266.99h-1.657v-1.657h1.657Zm-1.421-.237h1.184v-1.184H368.5Z" transform="translate(-189.165 -136.294)" fill="#464e61"/>
        <path id="Trazado_1262870" data-name="Trazado 1262870" d="M316.592,266.99h-1.657v-1.657h1.657Zm-1.421-.237h1.184v-1.184h-1.184Z" transform="translate(-161.773 -136.294)" fill="#464e61"/>
        <rect id="Rectángulo_455564" data-name="Rectángulo 455564" width="22.488" height="17.634" transform="translate(155.714 110.761)" fill="#fff"/>
        <rect id="Rectángulo_455565" data-name="Rectángulo 455565" width="21.257" height="16.379" transform="translate(156.329 111.388)" fill="#85e8ff"/>
        <path id="Trazado_1262871" data-name="Trazado 1262871" d="M327.8,238.581a1.489,1.489,0,0,0,.922-.418c.119-.125.218-.283.38-.34a.7.7,0,0,1,.634.216,1.352,1.352,0,0,1-.3-.44.461.461,0,0,1,.1-.5.453.453,0,0,1,.638.155.96.96,0,0,1-.036-.478.746.746,0,0,1,.5-.546.761.761,0,0,1,.986,1,.4.4,0,0,1,.53-.089.592.592,0,0,1,.247.513.847.847,0,0,1,.236-.634.947.947,0,0,1,1.244-.03,1.161,1.161,0,0,1,.308,1.248.455.455,0,0,1,.628-.071,2.53,2.53,0,0,1,.181.2.794.794,0,0,0,.6.192s-6.833-.013-7.788.017" transform="translate(-168.38 -121.32)" fill="#fefefe"/>
        <path id="Trazado_1262872" data-name="Trazado 1262872" d="M343.949,234.541a.426.426,0,0,0,.263-.119c.034-.035.062-.081.108-.1a.2.2,0,0,1,.181.062.387.387,0,0,1-.087-.125.132.132,0,0,1,.028-.142.129.129,0,0,1,.182.044.273.273,0,0,1-.01-.137.213.213,0,0,1,.142-.156.217.217,0,0,1,.281.286.114.114,0,0,1,.151-.025.17.17,0,0,1,.071.146.242.242,0,0,1,.067-.181.27.27,0,0,1,.355-.009.331.331,0,0,1,.088.356.13.13,0,0,1,.179-.02c.019.017.034.038.052.057a.227.227,0,0,0,.172.055s-1.951,0-2.223.005" transform="translate(-176.676 -120.125)" fill="#fefefe"/>
        <path id="Trazado_1262873" data-name="Trazado 1262873" d="M351.284,238.69a.7.7,0,0,0,.433-.2c.056-.058.1-.133.178-.16a.327.327,0,0,1,.3.1.638.638,0,0,1-.142-.207A.217.217,0,0,1,352.1,238a.213.213,0,0,1,.3.072.453.453,0,0,1-.017-.224.351.351,0,0,1,.233-.257.357.357,0,0,1,.463.471.187.187,0,0,1,.249-.041.278.278,0,0,1,.116.241.4.4,0,0,1,.111-.3.445.445,0,0,1,.584-.014.545.545,0,0,1,.145.587.214.214,0,0,1,.3-.034c.032.027.055.063.085.094a.373.373,0,0,0,.283.09s-3.21-.006-3.659.008" transform="translate(-180.444 -122.029)" fill="#fefefe"/>
        <rect id="Rectángulo_455566" data-name="Rectángulo 455566" width="21.257" height="7.663" transform="translate(156.329 120.104)" fill="#71abff"/>
        <path id="Trazado_1262874" data-name="Trazado 1262874" d="M342.705,257.116a99.151,99.151,0,0,1-10.629.814,82.123,82.123,0,0,1-10.629-.814v2.724h21.257Z" transform="translate(-165.118 -132.073)" fill="#ffa64d"/>
        <rect id="Rectángulo_455567" data-name="Rectángulo 455567" width="24.513" height="0.236" transform="translate(183.781 129.749)" fill="#464e61"/>
        <rect id="Rectángulo_455568" data-name="Rectángulo 455568" width="0.236" height="19.159" transform="translate(182.953 109.998)" fill="#464e61"/>
        <rect id="Rectángulo_455569" data-name="Rectángulo 455569" width="24.513" height="0.237" transform="translate(183.781 109.169)" fill="#464e61"/>
        <rect id="Rectángulo_455570" data-name="Rectángulo 455570" width="0.236" height="19.182" transform="translate(208.887 109.998)" fill="#464e61"/>
        <path id="Trazado_1262875" data-name="Trazado 1262875" d="M429.714,224.672h-1.657v-1.658h1.657Zm-1.421-.237h1.184V223.25h-1.184Z" transform="translate(-219.88 -114.556)" fill="#464e61"/>
        <path id="Trazado_1262876" data-name="Trazado 1262876" d="M376.388,224.672h-1.657v-1.658h1.657Zm-1.421-.237h1.184V223.25h-1.184Z" transform="translate(-192.488 -114.556)" fill="#464e61"/>
        <path id="Trazado_1262877" data-name="Trazado 1262877" d="M429.714,266.99h-1.657v-1.657h1.657Zm-1.421-.237h1.184v-1.184h-1.184Z" transform="translate(-219.88 -136.294)" fill="#464e61"/>
        <path id="Trazado_1262878" data-name="Trazado 1262878" d="M376.388,266.99h-1.657v-1.657h1.657Zm-1.421-.237h1.184v-1.184h-1.184Z" transform="translate(-192.488 -136.294)" fill="#464e61"/>
        <rect id="Rectángulo_455571" data-name="Rectángulo 455571" width="22.488" height="17.634" transform="translate(184.794 110.761)" fill="#fff"/>
        <rect id="Rectángulo_455572" data-name="Rectángulo 455572" width="21.257" height="16.379" transform="translate(185.41 111.388)" fill="#85e8ff"/>
        <path id="Trazado_1262879" data-name="Trazado 1262879" d="M387.594,238.581a1.49,1.49,0,0,0,.922-.418c.119-.125.218-.283.38-.34a.7.7,0,0,1,.634.216,1.352,1.352,0,0,1-.3-.44.461.461,0,0,1,.1-.5.453.453,0,0,1,.638.155.96.96,0,0,1-.036-.478.746.746,0,0,1,.5-.546.761.761,0,0,1,.986,1,.4.4,0,0,1,.53-.089.593.593,0,0,1,.247.513.847.847,0,0,1,.236-.634.947.947,0,0,1,1.244-.03,1.161,1.161,0,0,1,.308,1.248.455.455,0,0,1,.628-.071,2.513,2.513,0,0,1,.181.2.794.794,0,0,0,.6.192s-6.833-.013-7.788.017" transform="translate(-199.096 -121.32)" fill="#fefefe"/>
        <path id="Trazado_1262880" data-name="Trazado 1262880" d="M403.744,234.541a.426.426,0,0,0,.263-.119c.034-.035.062-.081.108-.1a.2.2,0,0,1,.181.062.387.387,0,0,1-.087-.125.132.132,0,0,1,.028-.142.129.129,0,0,1,.182.044.279.279,0,0,1-.011-.137.213.213,0,0,1,.142-.156.217.217,0,0,1,.282.286.114.114,0,0,1,.151-.025.17.17,0,0,1,.07.146.24.24,0,0,1,.068-.181.271.271,0,0,1,.355-.009.331.331,0,0,1,.088.356.13.13,0,0,1,.179-.02c.019.017.034.038.052.057a.228.228,0,0,0,.172.055s-1.952,0-2.224.005" transform="translate(-207.391 -120.125)" fill="#fefefe"/>
        <path id="Trazado_1262881" data-name="Trazado 1262881" d="M411.08,238.69a.7.7,0,0,0,.433-.2c.056-.058.1-.133.178-.16a.327.327,0,0,1,.3.1.63.63,0,0,1-.143-.207.216.216,0,0,1,.046-.233.213.213,0,0,1,.3.072.453.453,0,0,1-.017-.224.351.351,0,0,1,.233-.257.357.357,0,0,1,.463.471.187.187,0,0,1,.249-.041.278.278,0,0,1,.116.241.4.4,0,0,1,.111-.3.445.445,0,0,1,.584-.014.545.545,0,0,1,.145.587.214.214,0,0,1,.3-.034c.032.027.055.063.085.094a.373.373,0,0,0,.283.09s-3.211-.006-3.659.008" transform="translate(-211.16 -122.029)" fill="#fefefe"/>
        <rect id="Rectángulo_455573" data-name="Rectángulo 455573" width="21.257" height="7.663" transform="translate(185.41 120.104)" fill="#71abff"/>
        <path id="Trazado_1262882" data-name="Trazado 1262882" d="M402.5,257.116a99.153,99.153,0,0,1-10.629.814,82.113,82.113,0,0,1-10.629-.814v2.724H402.5Z" transform="translate(-195.833 -132.073)" fill="#ffa64d"/>
        <path id="Trazado_1262883" data-name="Trazado 1262883" d="M368.539,199.32H323.3a3.178,3.178,0,0,0,0,6.355h45.244a3.178,3.178,0,1,0,0-6.355" transform="translate(-164.435 -102.385)" fill="#181f2b"/>
        <path id="Trazado_1262884" data-name="Trazado 1262884" d="M329.589,202.334a1.255,1.255,0,0,0-2.146,1.3l-.3.2a.269.269,0,0,0-.267.018l-2.279,1.538a.27.27,0,1,0,.3.447l2.279-1.538a.268.268,0,0,0,.117-.241l.3-.206a1.255,1.255,0,0,0,1.991-1.521m-1.88,1.269a1.013,1.013,0,1,1,1.406.273,1.013,1.013,0,0,1-1.406-.273" transform="translate(-166.674 -103.649)" fill="#99a2b8"/>
        <rect id="Rectángulo_455574" data-name="Rectángulo 455574" width="53.594" height="0.236" transform="translate(154.701 104.406)" fill="#464e61"/>
        <rect id="Rectángulo_455575" data-name="Rectángulo 455575" width="0.237" height="7.402" transform="translate(153.873 96.412)" fill="#464e61"/>
        <rect id="Rectángulo_455576" data-name="Rectángulo 455576" width="53.594" height="0.236" transform="translate(154.701 95.583)" fill="#464e61"/>
        <rect id="Rectángulo_455577" data-name="Rectángulo 455577" width="0.236" height="7.425" transform="translate(208.887 96.412)" fill="#464e61"/>
        <path id="Trazado_1262885" data-name="Trazado 1262885" d="M429.714,196.736h-1.657v-1.657h1.657Zm-1.421-.236h1.184v-1.184h-1.184Z" transform="translate(-219.88 -100.206)" fill="#464e61"/>
        <path id="Trazado_1262886" data-name="Trazado 1262886" d="M316.592,196.736h-1.657v-1.657h1.657Zm-1.421-.236h1.184v-1.184h-1.184Z" transform="translate(-161.773 -100.206)" fill="#464e61"/>
        <path id="Trazado_1262887" data-name="Trazado 1262887" d="M429.714,214.878h-1.657v-1.657h1.657Zm-1.421-.237h1.184v-1.184h-1.184Z" transform="translate(-219.88 -109.525)" fill="#464e61"/>
        <path id="Trazado_1262888" data-name="Trazado 1262888" d="M316.592,214.878h-1.657v-1.657h1.657Zm-1.421-.237h1.184v-1.184h-1.184Z" transform="translate(-161.773 -109.525)" fill="#464e61"/>
        <rect id="Rectángulo_455578" data-name="Rectángulo 455578" width="21.383" height="21.383" transform="translate(157.29 40.166)" fill="#181f2b"/>
        <path id="Trazado_1262889" data-name="Trazado 1262889" d="M340.022,112.948a8.615,8.615,0,0,0,5.1-1.662,8.473,8.473,0,0,0-1.43-3.645,1.2,1.2,0,0,0-.253-.257,5.764,5.764,0,0,0-6.827,0,1.2,1.2,0,0,0-.253.257,8.479,8.479,0,0,0-1.431,3.645,8.612,8.612,0,0,0,5.1,1.662" transform="translate(-172.041 -54.585)" fill="#464e61"/>
        <path id="Trazado_1262890" data-name="Trazado 1262890" d="M340.614,112.888a8.611,8.611,0,0,0,4.537-1.284,9.443,9.443,0,0,0-1.307-4.072,1.121,1.121,0,0,0-.223-.258,4.578,4.578,0,0,0-6.014,0,1.145,1.145,0,0,0-.223.258,9.442,9.442,0,0,0-1.307,4.072,8.612,8.612,0,0,0,4.537,1.284" transform="translate(-172.633 -54.525)" fill="#464e61"/>
        <path id="Trazado_1262891" data-name="Trazado 1262891" d="M342.918,101.768v2.42c0,.25.542.453,1.21.453s1.21-.2,1.21-.453v-2.42Z" transform="translate(-176.147 -52.275)" fill="#464e61"/>
        <path id="Trazado_1262892" data-name="Trazado 1262892" d="M351.445,96.449a.293.293,0,0,0-.194-.12c-.24-.037-.446.262-.53.449a.068.068,0,0,0,0,.041,1.62,1.62,0,0,0-.264,1.075.135.135,0,0,0,.128.121.447.447,0,0,0,.547.191.419.419,0,0,0,.19-.364c.053-.441.445-.964.125-1.393" transform="translate(-180.013 -49.48)" fill="#464e61"/>
        <path id="Trazado_1262893" data-name="Trazado 1262893" d="M338.3,97.843a.419.419,0,0,0,.19.364.447.447,0,0,0,.547-.191.136.136,0,0,0,.128-.121,1.616,1.616,0,0,0-.264-1.075.062.062,0,0,0,0-.041c-.084-.187-.289-.486-.53-.449a.294.294,0,0,0-.194.12c-.32.428.072.951.125,1.393" transform="translate(-173.648 -49.48)" fill="#464e61"/>
        <path id="Trazado_1262894" data-name="Trazado 1262894" d="M345.086,90.58c0-.073-.011-.146-.021-.219a1.14,1.14,0,0,0-.174-.494c-.025-.036-.322-.354-.342-.328a.612.612,0,0,0,.126-.428c-.027-.51-.549-.678-.973-.771a5.365,5.365,0,0,0-3.4.362,1.991,1.991,0,0,1-.316.063,3.515,3.515,0,0,0-.357.109,2.7,2.7,0,0,0-.685.361,1.541,1.541,0,0,0-.47.543,1.731,1.731,0,0,0-.117.844,10.516,10.516,0,0,0,.374,2.1c.029.126.046.514.171.579a4.4,4.4,0,0,0,2.063.278c1.023-.021,2.044-.2,3.067-.169.121,0,.244,0,.364.019.081.01.182.039.256-.015a.148.148,0,0,0,.045-.1,17.048,17.048,0,0,0,.392-2.738" transform="translate(-173.801 -45.312)" fill="#20293a"/>
        <path id="Trazado_1262895" data-name="Trazado 1262895" d="M344.726,92.805h-.1a1.722,1.722,0,0,0-.565.11,9.033,9.033,0,0,1-3.515,0,1.708,1.708,0,0,0-.565-.11h-.1a.514.514,0,0,0-.514.514v3.163a2.942,2.942,0,1,0,5.877,0V93.319a.513.513,0,0,0-.514-.514" transform="translate(-174.321 -47.671)" fill="#464e61"/>
        <path id="Trazado_1262896" data-name="Trazado 1262896" d="M344.858,104.028H325.391V84.561h19.467Zm-19.349-.118H344.74V84.679H325.509Z" transform="translate(-167.144 -43.436)" fill="#71abff"/>
        <rect id="Rectángulo_455579" data-name="Rectángulo 455579" width="21.383" height="21.383" transform="translate(183.331 40.166)" fill="#464e61"/>
        <path id="Trazado_1262897" data-name="Trazado 1262897" d="M390.05,92.178h-7.9a.733.733,0,1,0,0,1.467h7.9a.733.733,0,0,0,0-1.467" transform="translate(-195.923 -47.349)" fill="#99a2b8"/>
        <path id="Trazado_1262898" data-name="Trazado 1262898" d="M386.69,99.539h-4.874a.4.4,0,0,0-.4.4v.075a.4.4,0,0,0,.4.4h4.874a.4.4,0,0,0,.4-.4v-.075a.4.4,0,0,0-.4-.4" transform="translate(-195.923 -51.13)" fill="#20293a"/>
        <path id="Trazado_1262899" data-name="Trazado 1262899" d="M386.69,112.573h-4.874a.4.4,0,0,0-.4.4v.075a.4.4,0,0,0,.4.4h4.874a.4.4,0,0,0,.4-.4v-.075a.4.4,0,0,0-.4-.4" transform="translate(-195.923 -57.825)" fill="#20293a"/>
        <path id="Trazado_1262900" data-name="Trazado 1262900" d="M383.977,103.884h-2.162a.4.4,0,0,0-.4.4v.075a.4.4,0,0,0,.4.4h2.162a.4.4,0,0,0,.4-.4v-.075a.4.4,0,0,0-.4-.4" transform="translate(-195.922 -53.362)" fill="#20293a"/>
        <path id="Trazado_1262901" data-name="Trazado 1262901" d="M404.506,108.229h-2.162a.4.4,0,0,0-.4.4v.075a.4.4,0,0,0,.4.4h2.162a.4.4,0,0,0,.4-.4v-.075a.4.4,0,0,0-.4-.4" transform="translate(-206.467 -55.594)" fill="#20293a"/>
        <path id="Trazado_1262902" data-name="Trazado 1262902" d="M396.287,112.573h-2.162a.4.4,0,0,0-.4.4v.075a.4.4,0,0,0,.4.4h2.162a.4.4,0,0,0,.4-.4v-.075a.4.4,0,0,0-.4-.4" transform="translate(-202.245 -57.825)" fill="#20293a"/>
        <path id="Trazado_1262903" data-name="Trazado 1262903" d="M403.35,99.539h-8.791a.4.4,0,0,0-.4.4v.075a.4.4,0,0,0,.4.4h8.791a.4.4,0,0,0,.4-.4v-.075a.4.4,0,0,0-.4-.4" transform="translate(-202.468 -51.13)" fill="#20293a"/>
        <path id="Trazado_1262904" data-name="Trazado 1262904" d="M390.607,108.229h-8.791a.4.4,0,0,0-.4.4v.075a.4.4,0,0,0,.4.4h8.791a.4.4,0,0,0,.4-.4v-.075a.4.4,0,0,0-.4-.4" transform="translate(-195.922 -55.594)" fill="#20293a"/>
        <path id="Trazado_1262905" data-name="Trazado 1262905" d="M397.5,103.884h-8.791a.4.4,0,0,0-.4.4v.075a.4.4,0,0,0,.4.4H397.5a.4.4,0,0,0,.4-.4v-.075a.4.4,0,0,0-.4-.4" transform="translate(-199.465 -53.362)" fill="#20293a"/>
        <path id="Trazado_1262906" data-name="Trazado 1262906" d="M415.81,99.539h-.417a.4.4,0,0,0-.4.4v.075a.4.4,0,0,0,.4.4h.417a.4.4,0,0,0,.4-.4v-.075a.4.4,0,0,0-.4-.4" transform="translate(-213.17 -51.13)" fill="#20293a"/>
        <path id="Trazado_1262907" data-name="Trazado 1262907" d="M409.7,108.229h-.417a.4.4,0,0,0-.4.4v.075a.4.4,0,0,0,.4.4h.417a.4.4,0,0,0,.4-.4v-.075a.4.4,0,0,0-.4-.4" transform="translate(-210.031 -55.594)" fill="#20293a"/>
        <path id="Trazado_1262908" data-name="Trazado 1262908" d="M401.493,112.573h-.417a.4.4,0,0,0-.4.4v.075a.4.4,0,0,0,.4.4h.417a.4.4,0,0,0,.4-.4v-.075a.4.4,0,0,0-.4-.4" transform="translate(-205.816 -57.825)" fill="#20293a"/>
        <path id="Trazado_1262909" data-name="Trazado 1262909" d="M383.977,116.918h-2.162a.4.4,0,0,0-.4.4v.075a.4.4,0,0,0,.4.4h2.162a.4.4,0,0,0,.4-.4v-.075a.4.4,0,0,0-.4-.4" transform="translate(-195.922 -60.057)" fill="#20293a"/>
        <path id="Trazado_1262910" data-name="Trazado 1262910" d="M389.183,116.918h-.417a.4.4,0,0,0-.4.4v.075a.4.4,0,0,0,.4.4h.417a.4.4,0,0,0,.4-.4v-.075a.4.4,0,0,0-.4-.4" transform="translate(-199.493 -60.057)" fill="#20293a"/>
        <path id="Trazado_1262911" data-name="Trazado 1262911" d="M407.009,92.178h-3.151a.733.733,0,0,0,0,1.467h3.151a.733.733,0,1,0,0-1.467" transform="translate(-207.073 -47.349)" fill="#99a2b8"/>
        <rect id="Rectángulo_455580" data-name="Rectángulo 455580" width="21.383" height="21.383" transform="translate(157.29 65.821)" fill="#99a2b8"/>
        <path id="Trazado_1262912" data-name="Trazado 1262912" d="M340.824,156.144l1.507-.948-.88-2.24a5.048,5.048,0,0,0,.745-1.052l2.405.088.395-1.736-2.207-.961a5.039,5.039,0,0,0-.216-1.271l1.762-1.638-.948-1.507-2.24.88a5.051,5.051,0,0,0-1.052-.745l.088-2.405-1.736-.395-.961,2.207a5.039,5.039,0,0,0-1.271.216l-1.638-1.762-1.507.948.88,2.24a5.052,5.052,0,0,0-.745,1.052l-2.405-.088-.395,1.736,2.207.961a5.038,5.038,0,0,0,.216,1.271l-1.762,1.638.948,1.507,2.24-.88a5.052,5.052,0,0,0,1.052.745l-.088,2.405,1.736.395.961-2.207a5.039,5.039,0,0,0,1.271-.216Zm-6.518-4.5a4.01,4.01,0,1,1,5.53,1.258,4.01,4.01,0,0,1-5.53-1.258" transform="translate(-169.718 -73.051)" fill="#464e61"/>
        <path id="Trazado_1262913" data-name="Trazado 1262913" d="M371.083,75.1V71.843h-3.259V73.3H317.4V71.843h-3.259V75.1H315.6v50.42h-1.452v3.259H317.4v-1.452h50.42v1.452h3.259v-3.259h-1.452V75.1Zm-2.9-2.9h2.55v2.55h-2.55Zm-53.679,0h2.55v2.55H314.5Zm2.55,56.228H314.5v-2.55h2.55Zm53.678,0h-2.55v-2.55h2.55Zm-1.452-2.9h-1.452v1.452H317.4v-1.452h-1.452V75.1H317.4V73.65h50.42V75.1h1.452v50.42Z" transform="translate(-161.368 -36.904)" fill="#464e61"/>
        <rect id="Rectángulo_455581" data-name="Rectángulo 455581" width="21.383" height="21.383" transform="translate(183.331 65.821)" fill="#181f2b"/>
        <path id="Trazado_1262914" data-name="Trazado 1262914" d="M398.406,156.666H378.939V137.2h19.467Zm-19.349-.118h19.231V137.317H379.057Z" transform="translate(-194.65 -70.475)" fill="#c7d0e6"/>
        <path id="Trazado_1262915" data-name="Trazado 1262915" d="M389.383,152.826a.61.61,0,0,1-.316-1.108l7.8-5.508a.61.61,0,1,1,.7,1l-7.8,5.508a.61.61,0,0,1-.389.111" transform="translate(-199.719 -75.046)" fill="#464e61"/>
        <path id="Trazado_1262916" data-name="Trazado 1262916" d="M396.732,162.82a.605.605,0,0,1-.264-.079l-7.35-4.176a.61.61,0,0,1,.6-1.062l7.35,4.176a.611.611,0,0,1-.339,1.14" transform="translate(-199.719 -80.864)" fill="#464e61"/>
        <path id="Trazado_1262917" data-name="Trazado 1262917" d="M389.945,156.633a2.056,2.056,0,1,0-2.177,1.927,2.055,2.055,0,0,0,2.177-1.927" transform="translate(-198.193 -79.337)" fill="#85e8ff"/>
        <path id="Trazado_1262918" data-name="Trazado 1262918" d="M405.986,145.308a2.056,2.056,0,1,0-2.177,1.928,2.056,2.056,0,0,0,2.177-1.928" transform="translate(-206.432 -73.52)" fill="#ffa64d"/>
        <path id="Trazado_1262919" data-name="Trazado 1262919" d="M405.059,165.219a2.056,2.056,0,1,0-2.177,1.927,2.056,2.056,0,0,0,2.177-1.927" transform="translate(-205.956 -83.748)" fill="#71abff"/>
        <path id="Trazado_1262920" data-name="Trazado 1262920" d="M108.75,90.487H81.268a1.07,1.07,0,0,0,0,2.141H108.75a1.07,1.07,0,0,0,0-2.141" transform="translate(-41.195 -46.481)" fill="#c7d0e6"/>
        <path id="Trazado_1262921" data-name="Trazado 1262921" d="M97.5,99.851H80.835a.637.637,0,1,0,0,1.274H97.5a.637.637,0,1,0,0-1.274" transform="translate(-41.195 -51.291)" fill="#71abff"/>
        <path id="Trazado_1262922" data-name="Trazado 1262922" d="M97.5,118.868H80.835a.637.637,0,0,0,0,1.274H97.5a.637.637,0,0,0,0-1.274" transform="translate(-41.195 -61.059)" fill="#464e61"/>
        <path id="Trazado_1262923" data-name="Trazado 1262923" d="M88.921,106.19H80.835a.637.637,0,1,0,0,1.274h8.086a.637.637,0,0,0,0-1.274" transform="translate(-41.195 -54.547)" fill="#85e8ff"/>
        <path id="Trazado_1262924" data-name="Trazado 1262924" d="M153.843,112.529h-8.086a.637.637,0,0,0,0,1.274h8.086a.637.637,0,0,0,0-1.274" transform="translate(-74.544 -57.803)" fill="#464e61"/>
        <path id="Trazado_1262925" data-name="Trazado 1262925" d="M127.85,118.868h-8.086a.637.637,0,0,0,0,1.274h8.086a.637.637,0,0,0,0-1.274" transform="translate(-61.192 -61.059)" fill="#464e61"/>
        <path id="Trazado_1262926" data-name="Trazado 1262926" d="M123.782,125.206H115.7a.637.637,0,1,0,0,1.274h8.086a.637.637,0,1,0,0-1.274" transform="translate(-59.102 -64.315)" fill="#464e61"/>
        <path id="Trazado_1262927" data-name="Trazado 1262927" d="M150.187,99.851H121.135a.637.637,0,0,0,0,1.274h29.052a.637.637,0,0,0,0-1.274" transform="translate(-61.896 -51.291)" fill="#464e61"/>
        <path id="Trazado_1262928" data-name="Trazado 1262928" d="M109.887,112.529H80.835a.637.637,0,1,0,0,1.274h29.052a.637.637,0,1,0,0-1.274" transform="translate(-41.195 -57.803)" fill="#464e61"/>
        <path id="Trazado_1262929" data-name="Trazado 1262929" d="M131.7,106.19H102.647a.637.637,0,1,0,0,1.274H131.7a.637.637,0,1,0,0-1.274" transform="translate(-52.4 -54.547)" fill="#71abff"/>
        <path id="Trazado_1262930" data-name="Trazado 1262930" d="M189.59,99.851h-2.568a.637.637,0,1,0,0,1.274h2.568a.637.637,0,0,0,0-1.274" transform="translate(-95.74 -51.291)" fill="#464e61"/>
        <path id="Trazado_1262931" data-name="Trazado 1262931" d="M170.265,112.529H167.7a.637.637,0,0,0,0,1.274h2.568a.637.637,0,1,0,0-1.274" transform="translate(-85.814 -57.803)" fill="#464e61"/>
        <path id="Trazado_1262932" data-name="Trazado 1262932" d="M109.887,130.3H80.835a.637.637,0,1,0,0,1.274h29.052a.637.637,0,1,0,0-1.274" transform="translate(-41.195 -66.934)" fill="#464e61"/>
        <path id="Trazado_1262933" data-name="Trazado 1262933" d="M148.264,130.3H145.7a.637.637,0,1,0,0,1.274h2.568a.637.637,0,0,0,0-1.274" transform="translate(-74.513 -66.934)" fill="#464e61"/>
        <path id="Trazado_1262934" data-name="Trazado 1262934" d="M144.313,118.868h-2.568a.637.637,0,0,0,0,1.274h2.568a.637.637,0,0,0,0-1.274" transform="translate(-72.483 -61.059)" fill="#464e61"/>
        <path id="Trazado_1262935" data-name="Trazado 1262935" d="M88.921,125.206H80.835a.637.637,0,1,0,0,1.274h8.086a.637.637,0,0,0,0-1.274" transform="translate(-41.195 -64.315)" fill="#ffa64d"/>
        <path id="Trazado_1262936" data-name="Trazado 1262936" d="M105.385,125.206h-2.568a.637.637,0,1,0,0,1.274h2.568a.637.637,0,1,0,0-1.274" transform="translate(-52.487 -64.315)" fill="#ffa64d"/>
        <path id="Trazado_1262937" data-name="Trazado 1262937" d="M162.38,90.487H149.914a1.07,1.07,0,0,0,0,2.141H162.38a1.07,1.07,0,0,0,0-2.141" transform="translate(-76.457 -46.481)" fill="#c7d0e6"/>
        <path id="Trazado_1262938" data-name="Trazado 1262938" d="M108.75,151.1H81.268a1.07,1.07,0,1,0,0,2.141H108.75a1.07,1.07,0,1,0,0-2.141" transform="translate(-41.195 -77.618)" fill="#c7d0e6"/>
        <path id="Trazado_1262939" data-name="Trazado 1262939" d="M97.5,160.468H80.835a.637.637,0,1,0,0,1.274H97.5a.637.637,0,1,0,0-1.274" transform="translate(-41.195 -82.428)" fill="#464e61"/>
        <path id="Trazado_1262940" data-name="Trazado 1262940" d="M97.5,179.484H80.835a.637.637,0,1,0,0,1.274H97.5a.637.637,0,1,0,0-1.274" transform="translate(-41.195 -92.196)" fill="#71abff"/>
        <path id="Trazado_1262941" data-name="Trazado 1262941" d="M88.921,166.807H80.835a.637.637,0,1,0,0,1.274h8.086a.637.637,0,0,0,0-1.274" transform="translate(-41.195 -85.684)" fill="#464e61"/>
        <path id="Trazado_1262942" data-name="Trazado 1262942" d="M153.843,173.146h-8.086a.637.637,0,0,0,0,1.274h8.086a.637.637,0,0,0,0-1.274" transform="translate(-74.544 -88.94)" fill="#464e61"/>
        <path id="Trazado_1262943" data-name="Trazado 1262943" d="M127.85,179.484h-8.086a.637.637,0,0,0,0,1.274h8.086a.637.637,0,1,0,0-1.274" transform="translate(-61.192 -92.196)" fill="#71abff"/>
        <path id="Trazado_1262944" data-name="Trazado 1262944" d="M123.782,185.823H115.7a.637.637,0,1,0,0,1.274h8.086a.637.637,0,1,0,0-1.274" transform="translate(-59.102 -95.452)" fill="#464e61"/>
        <path id="Trazado_1262945" data-name="Trazado 1262945" d="M150.187,160.468H121.135a.637.637,0,0,0,0,1.274h29.052a.637.637,0,0,0,0-1.274" transform="translate(-61.896 -82.428)" fill="#ffa64d"/>
        <path id="Trazado_1262946" data-name="Trazado 1262946" d="M109.887,173.146H80.835a.637.637,0,0,0,0,1.274h29.052a.637.637,0,0,0,0-1.274" transform="translate(-41.195 -88.94)" fill="#464e61"/>
        <path id="Trazado_1262947" data-name="Trazado 1262947" d="M131.7,166.807H102.647a.637.637,0,1,0,0,1.274H131.7a.637.637,0,1,0,0-1.274" transform="translate(-52.4 -85.684)" fill="#464e61"/>
        <path id="Trazado_1262948" data-name="Trazado 1262948" d="M189.59,160.468h-2.568a.637.637,0,1,0,0,1.274h2.568a.637.637,0,0,0,0-1.274" transform="translate(-95.74 -82.428)" fill="#ffa64d"/>
        <path id="Trazado_1262949" data-name="Trazado 1262949" d="M170.265,173.146H167.7a.637.637,0,0,0,0,1.274h2.568a.637.637,0,1,0,0-1.274" transform="translate(-85.814 -88.94)" fill="#464e61"/>
        <path id="Trazado_1262950" data-name="Trazado 1262950" d="M109.887,190.922H80.835a.637.637,0,1,0,0,1.274h29.052a.637.637,0,1,0,0-1.274" transform="translate(-41.195 -98.071)" fill="#464e61"/>
        <path id="Trazado_1262951" data-name="Trazado 1262951" d="M148.264,190.922H145.7a.637.637,0,1,0,0,1.274h2.568a.637.637,0,0,0,0-1.274" transform="translate(-74.513 -98.071)" fill="#464e61"/>
        <path id="Trazado_1262952" data-name="Trazado 1262952" d="M144.313,179.484h-2.568a.637.637,0,0,0,0,1.274h2.568a.637.637,0,0,0,0-1.274" transform="translate(-72.483 -92.196)" fill="#464e61"/>
        <path id="Trazado_1262953" data-name="Trazado 1262953" d="M88.921,185.823H80.835a.637.637,0,1,0,0,1.274h8.086a.637.637,0,0,0,0-1.274" transform="translate(-41.195 -95.452)" fill="#85e8ff"/>
        <path id="Trazado_1262954" data-name="Trazado 1262954" d="M105.385,185.823h-2.568a.637.637,0,1,0,0,1.274h2.568a.637.637,0,1,0,0-1.274" transform="translate(-52.487 -95.452)" fill="#85e8ff"/>
        <path id="Trazado_1262955" data-name="Trazado 1262955" d="M162.38,151.1H149.914a1.07,1.07,0,0,0,0,2.141H162.38a1.07,1.07,0,0,0,0-2.141" transform="translate(-76.457 -77.618)" fill="#c7d0e6"/>
        <path id="Trazado_1262956" data-name="Trazado 1262956" d="M108.75,211.721H81.268a1.07,1.07,0,1,0,0,2.141H108.75a1.07,1.07,0,0,0,0-2.141" transform="translate(-41.195 -108.755)" fill="#c7d0e6"/>
        <path id="Trazado_1262957" data-name="Trazado 1262957" d="M97.5,221.085H80.835a.637.637,0,1,0,0,1.274H97.5a.637.637,0,1,0,0-1.274" transform="translate(-41.195 -113.565)" fill="#464e61"/>
        <path id="Trazado_1262958" data-name="Trazado 1262958" d="M97.5,240.1H80.835a.637.637,0,1,0,0,1.274H97.5a.637.637,0,1,0,0-1.274" transform="translate(-41.195 -123.333)" fill="#464e61"/>
        <path id="Trazado_1262959" data-name="Trazado 1262959" d="M88.921,227.424H80.835a.637.637,0,1,0,0,1.274h8.086a.637.637,0,0,0,0-1.274" transform="translate(-41.195 -116.821)" fill="#464e61"/>
        <path id="Trazado_1262960" data-name="Trazado 1262960" d="M153.843,233.763h-8.086a.637.637,0,0,0,0,1.274h8.086a.637.637,0,0,0,0-1.274" transform="translate(-74.544 -120.077)" fill="#464e61"/>
        <path id="Trazado_1262961" data-name="Trazado 1262961" d="M127.85,240.1h-8.086a.637.637,0,0,0,0,1.274h8.086a.637.637,0,1,0,0-1.274" transform="translate(-61.192 -123.333)" fill="#ffa64d"/>
        <path id="Trazado_1262962" data-name="Trazado 1262962" d="M123.782,246.44H115.7a.637.637,0,1,0,0,1.274h8.086a.637.637,0,1,0,0-1.274" transform="translate(-59.102 -126.589)" fill="#464e61"/>
        <path id="Trazado_1262963" data-name="Trazado 1262963" d="M150.187,221.085H121.135a.637.637,0,0,0,0,1.274h29.052a.637.637,0,0,0,0-1.274" transform="translate(-61.896 -113.565)" fill="#464e61"/>
        <path id="Trazado_1262964" data-name="Trazado 1262964" d="M109.887,233.763H80.835a.637.637,0,1,0,0,1.274h29.052a.637.637,0,1,0,0-1.274" transform="translate(-41.195 -120.077)" fill="#85e8ff"/>
        <path id="Trazado_1262965" data-name="Trazado 1262965" d="M131.7,227.424H102.647a.637.637,0,1,0,0,1.274H131.7a.637.637,0,1,0,0-1.274" transform="translate(-52.4 -116.821)" fill="#85e8ff"/>
        <path id="Trazado_1262966" data-name="Trazado 1262966" d="M189.59,221.085h-2.568a.637.637,0,1,0,0,1.274h2.568a.637.637,0,0,0,0-1.274" transform="translate(-95.74 -113.565)" fill="#464e61"/>
        <path id="Trazado_1262967" data-name="Trazado 1262967" d="M170.265,233.763H167.7a.637.637,0,1,0,0,1.274h2.568a.637.637,0,1,0,0-1.274" transform="translate(-85.814 -120.077)" fill="#464e61"/>
        <path id="Trazado_1262968" data-name="Trazado 1262968" d="M109.887,251.539H80.835a.637.637,0,1,0,0,1.274h29.052a.637.637,0,1,0,0-1.274" transform="translate(-41.195 -129.208)" fill="#71abff"/>
        <path id="Trazado_1262969" data-name="Trazado 1262969" d="M148.264,251.539H145.7a.637.637,0,1,0,0,1.274h2.568a.637.637,0,1,0,0-1.274" transform="translate(-74.513 -129.208)" fill="#71abff"/>
        <path id="Trazado_1262970" data-name="Trazado 1262970" d="M144.313,240.1h-2.568a.637.637,0,0,0,0,1.274h2.568a.637.637,0,0,0,0-1.274" transform="translate(-72.483 -123.333)" fill="#ffa64d"/>
        <path id="Trazado_1262971" data-name="Trazado 1262971" d="M88.921,246.44H80.835a.637.637,0,1,0,0,1.274h8.086a.637.637,0,0,0,0-1.274" transform="translate(-41.195 -126.589)" fill="#464e61"/>
        <path id="Trazado_1262972" data-name="Trazado 1262972" d="M105.385,246.44h-2.568a.637.637,0,1,0,0,1.274h2.568a.637.637,0,1,0,0-1.274" transform="translate(-52.487 -126.589)" fill="#464e61"/>
        <path id="Trazado_1262973" data-name="Trazado 1262973" d="M162.38,211.721H149.914a1.07,1.07,0,0,0,0,2.141H162.38a1.07,1.07,0,0,0,0-2.141" transform="translate(-76.457 -108.755)" fill="#c7d0e6"/>
        <g id="Grupo_1204645" data-name="Grupo 1204645" transform="translate(8.536 11.882)" opacity="0.05">
          <g id="Grupo_1204644" data-name="Grupo 1204644">
            <g id="Grupo_1204643" data-name="Grupo 1204643" clip-path="url(#clip-path-7)">
              <path id="Trazado_1262974" data-name="Trazado 1262974" d="M136.638,277.831a11.575,11.575,0,1,1,0,16.369,11.575,11.575,0,0,1,0-16.369" transform="translate(-76.982 -152.854)"/>
              <path id="Trazado_1262975" data-name="Trazado 1262975" d="M156.279,283.706a.672.672,0,0,0-.572-.662,13.277,13.277,0,0,0-12.529-12.529.669.669,0,0,0-1.325,0,13.274,13.274,0,0,0-12.529,12.529.669.669,0,0,0,0,1.325A13.277,13.277,0,0,0,141.853,296.9a.669.669,0,0,0,1.325,0,13.278,13.278,0,0,0,12.529-12.529.673.673,0,0,0,.572-.663m-13.764-13.527a.436.436,0,1,1-.436.436.436.436,0,0,1,.436-.436m-13.528,13.527a.436.436,0,1,1,.436.436.436.436,0,0,1-.436-.436m13.528,13.528a.436.436,0,1,1,.436-.436.436.436,0,0,1-.436.436m.658-.573a.672.672,0,0,0-1.316,0,13.038,13.038,0,0,1-12.3-12.3.672.672,0,0,0,0-1.316,13.036,13.036,0,0,1,12.3-12.3.672.672,0,0,0,1.316,0,13.038,13.038,0,0,1,12.3,12.3.672.672,0,0,0,0,1.316,13.039,13.039,0,0,1-12.3,12.3m12.433-12.519a.436.436,0,1,1,.436-.436.436.436,0,0,1-.436.436" transform="translate(-74.672 -150.543)"/>
              <g id="Grupo_1204630" data-name="Grupo 1204630" transform="translate(64.014 128.213)" style="isolation: isolate">
                <g id="Grupo_1204629" data-name="Grupo 1204629">
                  <g id="Grupo_1204628" data-name="Grupo 1204628" clip-path="url(#clip-path-8)">
                    <text id="JS" transform="translate(0 8.291)" font-size="9" font-family="BebasKai, Bebas Kai"><tspan x="0" y="0">JS</tspan></text>
                  </g>
                </g>
              </g>
              <path id="Trazado_1262976" data-name="Trazado 1262976" d="M354.872,304.49A11.575,11.575,0,1,1,343.3,316.065a11.575,11.575,0,0,1,11.575-11.575" transform="translate(-184.878 -168.29)"/>
              <path id="Trazado_1262977" data-name="Trazado 1262977" d="M366.324,313.754a.672.672,0,0,0-.572-.662,13.277,13.277,0,0,0-12.529-12.529.669.669,0,0,0-1.325,0,13.274,13.274,0,0,0-12.529,12.529.669.669,0,0,0,0,1.325A13.277,13.277,0,0,0,351.9,326.946a.669.669,0,0,0,1.325,0,13.278,13.278,0,0,0,12.529-12.529.672.672,0,0,0,.572-.663M352.56,300.226a.436.436,0,1,1-.436.436.436.436,0,0,1,.436-.436m-13.527,13.527a.436.436,0,1,1,.436.436.436.436,0,0,1-.436-.436m13.527,13.528a.436.436,0,1,1,.436-.436.436.436,0,0,1-.436.436m.658-.573a.672.672,0,0,0-1.316,0,13.038,13.038,0,0,1-12.3-12.3.672.672,0,0,0,0-1.316,13.036,13.036,0,0,1,12.3-12.3.672.672,0,0,0,1.316,0,13.038,13.038,0,0,1,12.3,12.3.672.672,0,0,0,0,1.316,13.038,13.038,0,0,1-12.3,12.3m12.434-12.519a.436.436,0,1,1,.436-.436.436.436,0,0,1-.436.436" transform="translate(-182.566 -165.978)"/>
              <g id="Grupo_1204633" data-name="Grupo 1204633" transform="translate(162.213 142.207)" style="isolation: isolate">
                <g id="Grupo_1204632" data-name="Grupo 1204632">
                  <g id="Grupo_1204631" data-name="Grupo 1204631" clip-path="url(#clip-path-9)">
                    <text id="JAVA" transform="translate(0 8.291)" font-size="9" font-family="BebasKai, Bebas Kai"><tspan x="0" y="0" letter-spacing="-0.004em">J</tspan><tspan y="0" letter-spacing="-0.023em">A</tspan><tspan y="0" letter-spacing="-0.024em">V</tspan><tspan y="0">A</tspan></text>
                  </g>
                </g>
              </g>
              <path id="Trazado_1262978" data-name="Trazado 1262978" d="M459.372,157.5A11.575,11.575,0,1,1,450.8,171.45a11.575,11.575,0,0,1,8.573-13.945" transform="translate(-239.935 -92.624)"/>
              <path id="Trazado_1262979" data-name="Trazado 1262979" d="M473.51,166.444a.672.672,0,0,0-.572-.662,13.277,13.277,0,0,0-12.529-12.529.669.669,0,0,0-1.325,0,13.274,13.274,0,0,0-12.529,12.529.669.669,0,0,0,0,1.325,13.277,13.277,0,0,0,12.529,12.529.669.669,0,0,0,1.325,0,13.278,13.278,0,0,0,12.529-12.529.673.673,0,0,0,.572-.663m-13.764-13.527a.436.436,0,1,1-.436.436.436.436,0,0,1,.436-.436m-13.527,13.527a.436.436,0,1,1,.436.436.436.436,0,0,1-.436-.436m13.527,13.527a.436.436,0,1,1,.436-.436.436.436,0,0,1-.436.436m.658-.572a.672.672,0,0,0-1.316,0,13.038,13.038,0,0,1-12.3-12.3.672.672,0,0,0,0-1.316,13.036,13.036,0,0,1,12.3-12.3.672.672,0,0,0,1.316,0,13.038,13.038,0,0,1,12.3,12.3.672.672,0,0,0,0,1.316,13.038,13.038,0,0,1-12.3,12.3m12.434-12.519a.436.436,0,1,1,.436-.436.436.436,0,0,1-.436.436" transform="translate(-237.624 -90.309)"/>
              <g id="Grupo_1204636" data-name="Grupo 1204636" transform="translate(213.812 71.111)" style="isolation: isolate">
                <g id="Grupo_1204635" data-name="Grupo 1204635">
                  <g id="Grupo_1204634" data-name="Grupo 1204634" clip-path="url(#clip-path-10)">
                    <text id="HTML" transform="translate(0 8.291)" font-size="9" font-family="BebasKai, Bebas Kai"><tspan x="0" y="0">HTML</tspan></text>
                  </g>
                </g>
              </g>
              <path id="Trazado_1262980" data-name="Trazado 1262980" d="M246.812,32.324a11.575,11.575,0,1,1,0,16.369,11.575,11.575,0,0,1,0-16.369" transform="translate(-133.575 -26.744)"/>
              <g id="Grupo_1204639" data-name="Grupo 1204639" transform="translate(115.235 9.057)" style="isolation: isolate">
                <g id="Grupo_1204638" data-name="Grupo 1204638">
                  <g id="Grupo_1204637" data-name="Grupo 1204637" clip-path="url(#clip-path-11)">
                    <text id="C_" data-name="C++" transform="translate(0 8.291)" font-size="9" font-family="BebasKai, Bebas Kai"><tspan x="0" y="0">C++</tspan></text>
                  </g>
                </g>
              </g>
              <path id="Trazado_1262981" data-name="Trazado 1262981" d="M266.453,38.2a.672.672,0,0,0-.572-.662A13.277,13.277,0,0,0,253.351,25a.669.669,0,0,0-1.325,0A13.274,13.274,0,0,0,239.5,37.534a.669.669,0,0,0,0,1.325,13.277,13.277,0,0,0,12.529,12.529.669.669,0,0,0,1.325,0,13.278,13.278,0,0,0,12.529-12.529.673.673,0,0,0,.572-.663M252.689,24.668a.436.436,0,1,1-.436.436.436.436,0,0,1,.436-.436M239.161,38.2a.436.436,0,1,1,.436.436.436.436,0,0,1-.436-.436m13.527,13.528a.436.436,0,1,1,.436-.436.436.436,0,0,1-.436.436m.658-.573a.672.672,0,0,0-1.316,0,13.038,13.038,0,0,1-12.3-12.3.672.672,0,0,0,0-1.316,13.036,13.036,0,0,1,12.3-12.3.672.672,0,0,0,1.316,0,13.038,13.038,0,0,1,12.3,12.3.672.672,0,0,0,0,1.316,13.039,13.039,0,0,1-12.3,12.3m12.434-12.519a.436.436,0,1,1,.436-.436.436.436,0,0,1-.436.436" transform="translate(-131.265 -24.432)"/>
              <path id="Trazado_1262982" data-name="Trazado 1262982" d="M22.836,123.927a11.575,11.575,0,1,1,6.6,14.982,11.575,11.575,0,0,1-6.6-14.982" transform="translate(-19.861 -71.746)"/>
              <path id="Trazado_1262983" data-name="Trazado 1262983" d="M45.08,125.8a.672.672,0,0,0-.572-.662,13.277,13.277,0,0,0-12.529-12.529.669.669,0,0,0-1.325,0,13.275,13.275,0,0,0-12.529,12.529.669.669,0,0,0,0,1.325A13.277,13.277,0,0,0,30.654,139a.669.669,0,0,0,1.325,0,13.278,13.278,0,0,0,12.529-12.529.673.673,0,0,0,.572-.663M31.316,112.277a.436.436,0,1,1-.436.436.436.436,0,0,1,.436-.436M17.788,125.8a.436.436,0,1,1,.436.436.436.436,0,0,1-.436-.436m13.527,13.528a.436.436,0,1,1,.436-.436.436.436,0,0,1-.436.436m.658-.573a.672.672,0,0,0-1.316,0,13.038,13.038,0,0,1-12.3-12.3.672.672,0,0,0,0-1.316,13.036,13.036,0,0,1,12.3-12.3.672.672,0,0,0,1.316,0,13.038,13.038,0,0,1,12.3,12.3.672.672,0,0,0,0,1.316,13.039,13.039,0,0,1-12.3,12.3M44.408,126.24a.436.436,0,1,1,.436-.436.436.436,0,0,1-.436.436" transform="translate(-17.552 -69.434)"/>
              <g id="Grupo_1204642" data-name="Grupo 1204642" transform="translate(7.631 51.941)" style="isolation: isolate">
                <g id="Grupo_1204641" data-name="Grupo 1204641">
                  <g id="Grupo_1204640" data-name="Grupo 1204640" clip-path="url(#clip-path-12)">
                    <text id="PHP" transform="translate(0 8.291)" font-size="9" font-family="BebasKai, Bebas Kai"><tspan x="0" y="0">PHP</tspan></text>
                  </g>
                </g>
              </g>
            </g>
          </g>
        </g>
        <path id="Trazado_1262984" data-name="Trazado 1262984" d="M136.638,272.831a11.575,11.575,0,1,1,0,16.369,11.575,11.575,0,0,1,0-16.369" transform="translate(-68.445 -138.404)" fill="#85e8ff"/>
        <path id="Trazado_1262985" data-name="Trazado 1262985" d="M156.279,278.706a.672.672,0,0,0-.572-.662,13.277,13.277,0,0,0-12.529-12.529.669.669,0,0,0-1.325,0,13.274,13.274,0,0,0-12.529,12.529.669.669,0,0,0,0,1.325A13.277,13.277,0,0,0,141.853,291.9a.669.669,0,0,0,1.325,0,13.278,13.278,0,0,0,12.529-12.529.673.673,0,0,0,.572-.663m-13.764-13.527a.436.436,0,1,1-.436.436.436.436,0,0,1,.436-.436m-13.528,13.527a.436.436,0,1,1,.436.436.436.436,0,0,1-.436-.436m13.528,13.528a.436.436,0,1,1,.436-.436.436.436,0,0,1-.436.436m.658-.573a.672.672,0,0,0-1.316,0,13.038,13.038,0,0,1-12.3-12.3.672.672,0,0,0,0-1.316,13.036,13.036,0,0,1,12.3-12.3.672.672,0,0,0,1.316,0,13.038,13.038,0,0,1,12.3,12.3.672.672,0,0,0,0,1.316,13.039,13.039,0,0,1-12.3,12.3m12.433-12.519a.436.436,0,1,1,.436-.436.436.436,0,0,1-.436.436" transform="translate(-66.136 -136.093)" fill="#fff"/>
        <g id="Grupo_1204648" data-name="Grupo 1204648" transform="translate(72.551 137.663)" style="isolation: isolate">
          <g id="Grupo_1204647" data-name="Grupo 1204647">
            <g id="Grupo_1204646" data-name="Grupo 1204646" clip-path="url(#clip-path-8)">
              <text id="JS-2" data-name="JS" transform="translate(0 8.291)" fill="#fff" font-size="9" font-family="BebasKai, Bebas Kai"><tspan x="0" y="0">JS</tspan></text>
            </g>
          </g>
        </g>
        <path id="Trazado_1262986" data-name="Trazado 1262986" d="M354.872,299.49A11.575,11.575,0,1,1,343.3,311.065a11.575,11.575,0,0,1,11.575-11.575" transform="translate(-176.342 -153.839)" fill="#71abff"/>
        <path id="Trazado_1262987" data-name="Trazado 1262987" d="M366.324,308.754a.672.672,0,0,0-.572-.662,13.277,13.277,0,0,0-12.529-12.529.669.669,0,0,0-1.325,0,13.274,13.274,0,0,0-12.529,12.529.669.669,0,0,0,0,1.325A13.277,13.277,0,0,0,351.9,321.946a.669.669,0,0,0,1.325,0,13.278,13.278,0,0,0,12.529-12.529.673.673,0,0,0,.572-.663M352.56,295.226a.436.436,0,1,1-.436.436.436.436,0,0,1,.436-.436m-13.527,13.527a.436.436,0,1,1,.436.436.436.436,0,0,1-.436-.436m13.527,13.528a.436.436,0,1,1,.436-.436.436.436,0,0,1-.436.436m.658-.573a.672.672,0,0,0-1.316,0,13.038,13.038,0,0,1-12.3-12.3.672.672,0,0,0,0-1.316,13.036,13.036,0,0,1,12.3-12.3.672.672,0,0,0,1.316,0,13.038,13.038,0,0,1,12.3,12.3.672.672,0,0,0,0,1.316,13.038,13.038,0,0,1-12.3,12.3m12.434-12.519a.436.436,0,1,1,.436-.436.436.436,0,0,1-.436.436" transform="translate(-174.03 -151.528)" fill="#fff"/>
        <g id="Grupo_1204651" data-name="Grupo 1204651" transform="translate(170.749 151.657)" style="isolation: isolate">
          <g id="Grupo_1204650" data-name="Grupo 1204650">
            <g id="Grupo_1204649" data-name="Grupo 1204649" clip-path="url(#clip-path-9)">
              <text id="JAVA-2" data-name="JAVA" transform="translate(0 8.291)" fill="#fff" font-size="9" font-family="BebasKai, Bebas Kai"><tspan x="0" y="0" letter-spacing="-0.004em">J</tspan><tspan y="0" letter-spacing="-0.023em">A</tspan><tspan y="0" letter-spacing="-0.024em">V</tspan><tspan y="0">A</tspan></text>
            </g>
          </g>
        </g>
        <path id="Trazado_1262988" data-name="Trazado 1262988" d="M459.372,152.5A11.575,11.575,0,1,1,450.8,166.45a11.575,11.575,0,0,1,8.573-13.946" transform="translate(-231.399 -78.173)" fill="#ffa64d"/>
        <path id="Trazado_1262989" data-name="Trazado 1262989" d="M473.51,161.444a.672.672,0,0,0-.572-.662,13.277,13.277,0,0,0-12.529-12.529.669.669,0,0,0-1.325,0,13.274,13.274,0,0,0-12.529,12.529.669.669,0,0,0,0,1.325,13.277,13.277,0,0,0,12.529,12.529.669.669,0,0,0,1.325,0,13.278,13.278,0,0,0,12.529-12.529.673.673,0,0,0,.572-.663m-13.764-13.527a.436.436,0,1,1-.436.436.436.436,0,0,1,.436-.436m-13.527,13.527a.436.436,0,1,1,.436.436.436.436,0,0,1-.436-.436m13.527,13.527a.436.436,0,1,1,.436-.436.436.436,0,0,1-.436.436m.658-.572a.672.672,0,0,0-1.316,0,13.038,13.038,0,0,1-12.3-12.3.672.672,0,0,0,0-1.316,13.036,13.036,0,0,1,12.3-12.3.672.672,0,0,0,1.316,0,13.038,13.038,0,0,1,12.3,12.3.672.672,0,0,0,0,1.316,13.038,13.038,0,0,1-12.3,12.3m12.434-12.519a.436.436,0,1,1,.436-.436.436.436,0,0,1-.436.436" transform="translate(-229.088 -75.859)" fill="#fff"/>
        <g id="Grupo_1204654" data-name="Grupo 1204654" transform="translate(222.348 80.561)" style="isolation: isolate">
          <g id="Grupo_1204653" data-name="Grupo 1204653">
            <g id="Grupo_1204652" data-name="Grupo 1204652" clip-path="url(#clip-path-10)">
              <text id="HTML-2" data-name="HTML" transform="translate(0 8.291)" fill="#fff" font-size="9" font-family="BebasKai, Bebas Kai"><tspan x="0" y="0">HTML</tspan></text>
            </g>
          </g>
        </g>
        <path id="Trazado_1262990" data-name="Trazado 1262990" d="M246.813,27.324a11.575,11.575,0,1,1,0,16.369,11.575,11.575,0,0,1,0-16.369" transform="translate(-125.039 -12.294)" fill="#71abff"/>
        <g id="Grupo_1204657" data-name="Grupo 1204657" transform="translate(123.771 18.508)" style="isolation: isolate">
          <g id="Grupo_1204656" data-name="Grupo 1204656">
            <g id="Grupo_1204655" data-name="Grupo 1204655" clip-path="url(#clip-path-11)">
              <text id="C_2" data-name="C++" transform="translate(0 8.291)" fill="#fff" font-size="9" font-family="BebasKai, Bebas Kai"><tspan x="0" y="0">C++</tspan></text>
            </g>
          </g>
        </g>
        <path id="Trazado_1262991" data-name="Trazado 1262991" d="M266.453,33.2a.672.672,0,0,0-.572-.662A13.277,13.277,0,0,0,253.351,20a.669.669,0,0,0-1.325,0A13.274,13.274,0,0,0,239.5,32.534a.669.669,0,0,0,0,1.325,13.277,13.277,0,0,0,12.529,12.529.669.669,0,0,0,1.325,0,13.278,13.278,0,0,0,12.529-12.529.673.673,0,0,0,.572-.663M252.689,19.668a.436.436,0,1,1-.436.436.436.436,0,0,1,.436-.436M239.161,33.2a.436.436,0,1,1,.436.436.436.436,0,0,1-.436-.436m13.527,13.528a.436.436,0,1,1,.436-.436.436.436,0,0,1-.436.436m.658-.573a.672.672,0,0,0-1.316,0,13.038,13.038,0,0,1-12.3-12.3.672.672,0,0,0,0-1.316,13.036,13.036,0,0,1,12.3-12.3.672.672,0,0,0,1.316,0,13.038,13.038,0,0,1,12.3,12.3.672.672,0,0,0,0,1.316,13.039,13.039,0,0,1-12.3,12.3m12.434-12.519a.436.436,0,1,1,.436-.436.436.436,0,0,1-.436.436" transform="translate(-122.729 -9.982)" fill="#fff"/>
        <path id="Trazado_1262992" data-name="Trazado 1262992" d="M22.836,118.927a11.575,11.575,0,1,1,6.6,14.982,11.575,11.575,0,0,1-6.6-14.982" transform="translate(-11.325 -57.296)" fill="#ffa64d"/>
        <path id="Trazado_1262993" data-name="Trazado 1262993" d="M45.08,120.8a.672.672,0,0,0-.572-.662,13.277,13.277,0,0,0-12.529-12.529.669.669,0,0,0-1.325,0,13.275,13.275,0,0,0-12.529,12.529.669.669,0,0,0,0,1.325A13.277,13.277,0,0,0,30.654,134a.669.669,0,0,0,1.325,0,13.278,13.278,0,0,0,12.529-12.529.673.673,0,0,0,.572-.663M31.316,107.277a.436.436,0,1,1-.436.436.436.436,0,0,1,.436-.436M17.788,120.8a.436.436,0,1,1,.436.436.436.436,0,0,1-.436-.436m13.527,13.528a.436.436,0,1,1,.436-.436.436.436,0,0,1-.436.436m.658-.573a.672.672,0,0,0-1.316,0,13.038,13.038,0,0,1-12.3-12.3.672.672,0,0,0,0-1.316,13.036,13.036,0,0,1,12.3-12.3.672.672,0,0,0,1.316,0,13.038,13.038,0,0,1,12.3,12.3.672.672,0,0,0,0,1.316,13.039,13.039,0,0,1-12.3,12.3M44.408,121.24a.436.436,0,1,1,.436-.436.436.436,0,0,1-.436.436" transform="translate(-9.016 -54.984)" fill="#fff"/>
        <g id="Grupo_1204660" data-name="Grupo 1204660" transform="translate(16.167 61.391)" style="isolation: isolate">
          <g id="Grupo_1204659" data-name="Grupo 1204659">
            <g id="Grupo_1204658" data-name="Grupo 1204658" clip-path="url(#clip-path-12)">
              <text id="PHP-2" data-name="PHP" transform="translate(0 8.291)" fill="#fff" font-size="9" font-family="BebasKai, Bebas Kai"><tspan x="0" y="0">PHP</tspan></text>
            </g>
          </g>
        </g>
        <g id="Grupo_1204663" data-name="Grupo 1204663" transform="translate(8.773 7.415)" opacity="0.09">
          <g id="Grupo_1204662" data-name="Grupo 1204662">
            <g id="Grupo_1204661" data-name="Grupo 1204661" clip-path="url(#clip-path-18)">
              <path id="Trazado_1262994" data-name="Trazado 1262994" d="M40.9,282.139l-3.607-3.607-3.607,3.607-3.648-3.647,3.607-3.607-3.607-3.608,3.648-3.647,3.607,3.607,3.607-3.607,3.647,3.647-3.607,3.608,3.607,3.607Zm-10.192-3.648,2.979,2.978,3.607-3.607,3.607,3.607,2.978-2.978-3.607-3.607,3.607-3.608L40.9,268.3,37.295,271.9,33.687,268.3l-2.979,2.978,3.607,3.608Z" transform="translate(-24.203 -144.888)"/>
              <path id="Trazado_1262995" data-name="Trazado 1262995" d="M329.19,44.595l-3.647-3.648,3.607-3.607-3.607-3.607,3.647-3.647,3.607,3.607,3.608-3.607,3.647,3.647-3.607,3.607,3.607,3.607-3.647,3.648L332.8,40.988Zm3.607-4.276,3.608,3.607,2.978-2.979-3.607-3.607,3.607-3.607-2.978-2.978L332.8,34.361l-3.607-3.607-2.978,2.978,3.607,3.607-3.607,3.607,2.978,2.979Z" transform="translate(-175.994 -22.869)"/>
              <path id="Trazado_1262996" data-name="Trazado 1262996" d="M226.5,314.2l-2.692-2.692,2.567-2.567-2.567-2.567,2.692-2.692,2.567,2.567,2.567-2.567,2.692,2.692-2.567,2.567,2.567,2.567-2.692,2.692-2.567-2.567Zm2.567-3.236,2.567,2.567,2.023-2.023-2.567-2.567,2.567-2.567-2.023-2.023-2.567,2.567-2.567-2.567-2.023,2.023,2.567,2.567-2.567,2.567,2.023,2.023Z" transform="translate(-123.737 -163.409)"/>
              <path id="Trazado_1262997" data-name="Trazado 1262997" d="M93.291,24.673,90.878,22.26l2.3-2.3-2.3-2.3,2.413-2.413,2.3,2.3,2.3-2.3L100.3,17.66,98,19.96l2.3,2.3-2.413,2.413-2.3-2.3Zm2.3-2.9,2.3,2.3L99.7,22.26l-2.3-2.3,2.3-2.3-1.813-1.813-2.3,2.3-2.3-2.3L91.478,17.66l2.3,2.3-2.3,2.3,1.813,1.813Z" transform="translate(-55.454 -15.247)"/>
              <path id="Trazado_1262998" data-name="Trazado 1262998" d="M59.014,245.887l-1.476-1.476-1.607,1.607-1.607-1.607-1.476,1.476,1.607,1.607L52.848,249.1l1.476,1.476,1.607-1.607,1.607,1.607,1.476-1.476-1.607-1.607Z" transform="translate(-35.919 -132.962)"/>
              <path id="Trazado_1262999" data-name="Trazado 1262999" d="M387.075,69.671,385.6,68.2,383.992,69.8,382.385,68.2l-1.476,1.476,1.607,1.607-1.607,1.607,1.476,1.476,1.607-1.607,1.607,1.607,1.476-1.476-1.607-1.607Z" transform="translate(-204.434 -42.445)"/>
              <path id="Trazado_1263000" data-name="Trazado 1263000" d="M24.2,173.9l-1.476-1.476-1.607,1.607-1.607-1.607L18.038,173.9l1.607,1.607-1.607,1.607,1.476,1.476,1.607-1.607,1.607,1.607,1.476-1.476L22.6,175.51Z" transform="translate(-18.038 -95.986)"/>
              <path id="Trazado_1263001" data-name="Trazado 1263001" d="M267.053,295.406l-1.476-1.476-1.607,1.607-1.607-1.607-1.476,1.476,1.607,1.606-1.607,1.607,1.476,1.476,1.607-1.607,1.607,1.607,1.476-1.476-1.606-1.607Z" transform="translate(-142.783 -158.398)"/>
              <path id="Trazado_1263002" data-name="Trazado 1263002" d="M481.346,131.063l-1.476-1.476-1.607,1.607-1.607-1.607-1.476,1.476,1.607,1.607-1.607,1.606,1.476,1.476,1.607-1.607,1.607,1.607,1.476-1.476-1.607-1.606Z" transform="translate(-252.859 -73.98)"/>
              <path id="Trazado_1263003" data-name="Trazado 1263003" d="M126.663,32.2l-1.476-1.476-1.607,1.607-1.607-1.607L120.5,32.2l1.607,1.607L120.5,35.41l1.476,1.476,1.607-1.607,1.607,1.607,1.476-1.476L125.057,33.8Z" transform="translate(-70.669 -23.195)"/>
            </g>
          </g>
        </g>
        <path id="Trazado_1263004" data-name="Trazado 1263004" d="M40.9,279.139l-3.607-3.607-3.607,3.607-3.648-3.647,3.607-3.607-3.607-3.608,3.648-3.647,3.607,3.607,3.607-3.607,3.647,3.647-3.607,3.608,3.607,3.607Zm-10.192-3.648,2.979,2.978,3.607-3.607,3.607,3.607,2.978-2.978-3.607-3.607,3.607-3.608L40.9,265.3,37.295,268.9,33.687,265.3l-2.979,2.978,3.607,3.608Z" transform="translate(-15.43 -135.932)" fill="#71abff"/>
        <path id="Trazado_1263005" data-name="Trazado 1263005" d="M329.19,41.595l-3.647-3.648,3.607-3.607-3.607-3.607,3.647-3.647,3.607,3.607,3.608-3.607,3.647,3.647-3.607,3.607,3.607,3.607-3.647,3.648L332.8,37.988Zm3.607-4.276,3.608,3.607,2.978-2.979-3.607-3.607,3.607-3.607-2.978-2.978L332.8,31.361l-3.607-3.607-2.978,2.978,3.607,3.607-3.607,3.607,2.978,2.979Z" transform="translate(-167.222 -13.913)" fill="#ffa64d"/>
        <path id="Trazado_1263006" data-name="Trazado 1263006" d="M226.5,311.2l-2.692-2.692,2.567-2.567-2.567-2.567,2.692-2.692,2.567,2.567,2.567-2.567,2.692,2.692-2.567,2.567,2.567,2.567-2.692,2.692-2.567-2.567Zm2.567-3.236,2.567,2.567,2.023-2.023-2.567-2.567,2.567-2.567-2.023-2.023-2.567,2.567-2.567-2.567-2.023,2.023,2.567,2.567-2.567,2.567,2.023,2.023Z" transform="translate(-114.964 -154.453)" fill="#181f2b"/>
        <path id="Trazado_1263007" data-name="Trazado 1263007" d="M93.291,21.673,90.878,19.26l2.3-2.3-2.3-2.3,2.413-2.413,2.3,2.3,2.3-2.3L100.3,14.66,98,16.96l2.3,2.3-2.413,2.413-2.3-2.3Zm2.3-2.9,2.3,2.3L99.7,19.26l-2.3-2.3,2.3-2.3-1.813-1.813-2.3,2.3-2.3-2.3L91.478,14.66l2.3,2.3-2.3,2.3,1.813,1.813Z" transform="translate(-46.681 -6.291)" fill="#181f2b"/>
        <path id="Trazado_1263008" data-name="Trazado 1263008" d="M59.014,242.887l-1.476-1.476-1.607,1.607-1.607-1.607-1.476,1.476,1.607,1.607L52.848,246.1l1.476,1.476,1.607-1.607,1.607,1.607,1.476-1.476-1.607-1.607Z" transform="translate(-27.147 -124.006)" fill="#ffa64d"/>
        <path id="Trazado_1263009" data-name="Trazado 1263009" d="M387.075,66.671,385.6,65.2,383.992,66.8,382.385,65.2l-1.476,1.476,1.607,1.607-1.607,1.607,1.476,1.476,1.607-1.607,1.607,1.607,1.476-1.476-1.607-1.607Z" transform="translate(-195.662 -33.489)" fill="#fff"/>
        <path id="Trazado_1263010" data-name="Trazado 1263010" d="M24.2,170.9l-1.476-1.476-1.607,1.607-1.607-1.607L18.038,170.9l1.607,1.607-1.607,1.607,1.476,1.476,1.607-1.607,1.607,1.607,1.476-1.476L22.6,172.51Z" transform="translate(-9.266 -87.03)" fill="#85e8ff"/>
        <path id="Trazado_1263011" data-name="Trazado 1263011" d="M267.053,292.406l-1.476-1.476-1.607,1.607-1.607-1.607-1.476,1.476,1.607,1.606-1.607,1.607,1.476,1.476,1.607-1.607,1.607,1.607,1.476-1.476-1.606-1.607Z" transform="translate(-134.011 -149.442)" fill="#ffa64d"/>
        <path id="Trazado_1263012" data-name="Trazado 1263012" d="M481.346,128.063l-1.476-1.476-1.607,1.607-1.607-1.607-1.476,1.476,1.607,1.607-1.607,1.606,1.476,1.476,1.607-1.607,1.607,1.607,1.476-1.476-1.607-1.606Z" transform="translate(-244.086 -65.024)" fill="#c7d0e6"/>
        <path id="Trazado_1263013" data-name="Trazado 1263013" d="M126.663,29.2l-1.476-1.476-1.607,1.607-1.607-1.607L120.5,29.2l1.607,1.607L120.5,32.41l1.476,1.476,1.607-1.607,1.607,1.607,1.476-1.476L125.057,30.8Z" transform="translate(-61.896 -14.239)" fill="#c7d0e6"/>
      </g>
    </g>
  </g>
</svg>
