<svg xmlns="http://www.w3.org/2000/svg" width="84" height="84" viewBox="0 0 84 84">
  <g id="Grupo_1205045" data-name="Grupo 1205045" transform="translate(-214.629 -6369.653)">
    <circle id="Elipse_13698" data-name="Elipse 13698" cx="42" cy="42" r="42" transform="translate(214.629 6369.653)" fill="#a6f6af"/>
    <path id="Trazado_1263711" data-name="Trazado 1263711" d="M48.371,30.186A24.186,24.186,0,1,0,24.186,54.371,24.213,24.213,0,0,0,48.371,30.186ZM34.3,48.265c2.973-4.272,4.824-10.434,4.824-17.418,0-.224-.017-.439-.021-.661h5.814A20.736,20.736,0,0,1,34.3,48.265ZM44.6,26.73H38.889c-.7-6.518-3.042-12.045-6.367-15.511A20.771,20.771,0,0,1,44.6,26.73ZM25.913,11.04c4.661,1.294,8.5,7.68,9.5,15.69h-9.5Zm0,19.145h9.735c0,.221.02.438.02.661,0,9.852-4.317,18.3-9.755,19.805ZM15.848,11.22c-3.325,3.466-5.663,8.993-6.367,15.511H3.767A20.772,20.772,0,0,1,15.848,11.22ZM3.455,30.186H9.267c0,.222-.021.438-.021.661,0,6.983,1.851,13.145,4.824,17.417A20.736,20.736,0,0,1,3.455,30.186Zm19,20.467C17.02,49.143,12.7,40.7,12.7,30.847c0-.223.016-.441.02-.662h9.736Zm0-23.922h-9.5c1-8.011,4.836-14.4,9.5-15.691Z" transform="translate(232.292 6381.468)" fill="#1c526e"/>
  </g>
</svg>
