<svg id="Grupo_1204707" data-name="Grupo 1204707" xmlns="http://www.w3.org/2000/svg" xmlns:xlink="http://www.w3.org/1999/xlink" width="252.2" height="268.675" viewBox="0 0 252.2 268.675">
  <defs>
    <clipPath id="clip-path">
      <rect id="Rectángulo_455674" data-name="Rectángulo 455674" width="252.2" height="268.675" fill="none"/>
    </clipPath>
    <clipPath id="clip-path-2">
      <rect id="Rectángulo_455673" data-name="Rectángulo 455673" width="252.2" height="268.675" fill="#1c526e"/>
    </clipPath>
    <clipPath id="clip-path-3">
      <rect id="Rectángulo_455596" data-name="Rectángulo 455596" width="239.942" height="2.987" fill="none"/>
    </clipPath>
    <clipPath id="clip-path-4">
      <rect id="Rectángulo_455599" data-name="Rectángulo 455599" width="76.296" height="114.795" fill="#e3e8c0"/>
    </clipPath>
    <clipPath id="clip-path-5">
      <rect id="Rectángulo_455601" data-name="Rectángulo 455601" width="34.817" height="16.138" fill="none"/>
    </clipPath>
    <clipPath id="clip-path-6">
      <rect id="Rectángulo_455623" data-name="Rectángulo 455623" width="20.767" height="9.625" fill="none"/>
    </clipPath>
    <clipPath id="clip-path-7">
      <rect id="Rectángulo_455659" data-name="Rectángulo 455659" width="22.33" height="7.706" fill="none"/>
    </clipPath>
    <clipPath id="clip-path-8">
      <rect id="Rectángulo_455661" data-name="Rectángulo 455661" width="9.395" height="8.243" fill="none"/>
    </clipPath>
    <clipPath id="clip-path-9">
      <rect id="Rectángulo_455663" data-name="Rectángulo 455663" width="13.817" height="7.063" fill="none"/>
    </clipPath>
    <clipPath id="clip-path-10">
      <rect id="Rectángulo_455665" data-name="Rectángulo 455665" width="17.572" height="6.421" fill="none"/>
    </clipPath>
    <clipPath id="clip-path-11">
      <rect id="Rectángulo_455667" data-name="Rectángulo 455667" width="15.457" height="7.063" fill="none"/>
    </clipPath>
    <clipPath id="clip-path-12">
      <rect id="Rectángulo_455669" data-name="Rectángulo 455669" width="17.806" height="9.632" fill="none"/>
    </clipPath>
    <clipPath id="clip-path-13">
      <rect id="Rectángulo_455671" data-name="Rectángulo 455671" width="12.125" height="7.706" fill="none"/>
    </clipPath>
    <clipPath id="clip-path-14">
      <rect id="Rectángulo_455672" data-name="Rectángulo 455672" width="246.394" height="227.665" fill="none"/>
    </clipPath>
  </defs>
  <g id="Grupo_1204706" data-name="Grupo 1204706" clip-path="url(#clip-path)">
    <g id="Grupo_1204705" data-name="Grupo 1204705">
      <g id="Grupo_1204704" data-name="Grupo 1204704" clip-path="url(#clip-path-2)">
        <path id="Trazado_1263014" data-name="Trazado 1263014" d="M406.943,85.223a1.7,1.7,0,1,0-1.986,1.669v30.534H388.27v23.721h.575V118h16.687V86.892a1.7,1.7,0,0,0,1.411-1.669m-1.7,1.123a1.123,1.123,0,1,1,1.123-1.123,1.125,1.125,0,0,1-1.123,1.123" transform="translate(-164.859 -35.464)" fill="#a6d7ff"/>
        <path id="Trazado_1263015" data-name="Trazado 1263015" d="M372.326,111.611a1.7,1.7,0,0,0-.288,3.368v38.093h.575V114.979a1.7,1.7,0,0,0-.288-3.368m0,2.822a1.123,1.123,0,1,1,1.123-1.123,1.125,1.125,0,0,1-1.123,1.123" transform="translate(-157.368 -47.39)" fill="#a6d7ff"/>
        <path id="Trazado_1263016" data-name="Trazado 1263016" d="M279.174,44.952h-31.11a1.7,1.7,0,1,0,0,.575H278.6v7.48h23.72v-.575H279.174ZM246.4,46.363a1.123,1.123,0,1,1,1.123-1.123,1.124,1.124,0,0,1-1.123,1.123" transform="translate(-103.898 -18.488)" fill="#a6d7ff"/>
        <path id="Trazado_1263017" data-name="Trazado 1263017" d="M293.131,68.192a1.7,1.7,0,1,0,1.669,1.986h26.585V69.6H294.8a1.7,1.7,0,0,0-1.669-1.411m0,2.822a1.123,1.123,0,1,1,1.123-1.123,1.125,1.125,0,0,1-1.123,1.123" transform="translate(-123.742 -28.954)" fill="#a6d7ff"/>
        <path id="Trazado_1263018" data-name="Trazado 1263018" d="M226.784,124.263a1.7,1.7,0,0,0,.288-3.368V94.31H226.5V120.9a1.7,1.7,0,0,0,.288,3.368m0-2.822a1.123,1.123,0,1,1-1.123,1.123,1.125,1.125,0,0,1,1.123-1.123" transform="translate(-95.571 -40.044)" fill="#a6d7ff"/>
        <path id="Trazado_1263019" data-name="Trazado 1263019" d="M236.523,111.054V84.469h-.575v26.585a1.7,1.7,0,1,0,.575,0m-.288,2.793a1.123,1.123,0,1,1,1.123-1.123,1.125,1.125,0,0,1-1.123,1.123" transform="translate(-99.584 -35.866)" fill="#a6d7ff"/>
        <path id="Trazado_1263020" data-name="Trazado 1263020" d="M29.954,310.087v-.575H3.368a1.7,1.7,0,1,0,0,.575ZM1.7,310.923A1.123,1.123,0,1,1,2.822,309.8,1.125,1.125,0,0,1,1.7,310.923" transform="translate(0 -130.82)" fill="#a6d7ff"/>
        <path id="Trazado_1263021" data-name="Trazado 1263021" d="M11.54,317.553a1.7,1.7,0,1,0,1.669,1.986H39.794v-.575H13.209a1.7,1.7,0,0,0-1.669-1.411m0,2.822a1.123,1.123,0,1,1,1.123-1.123,1.124,1.124,0,0,1-1.123,1.123" transform="translate(-4.178 -134.833)" fill="#a6d7ff"/>
        <path id="Trazado_1263022" data-name="Trazado 1263022" d="M190.286,403.041a1.7,1.7,0,0,0-1.669,1.41H158.083V387.765H134.362v.575h23.145v16.687h31.11a1.7,1.7,0,1,0,1.669-1.986m0,2.822a1.123,1.123,0,1,1,1.124-1.124,1.124,1.124,0,0,1-1.124,1.124" transform="translate(-57.05 -164.645)" fill="#a6d7ff"/>
        <path id="Trazado_1263023" data-name="Trazado 1263023" d="M174.125,373.52a1.7,1.7,0,1,0-1.67-1.987H134.363v.575h38.093a1.7,1.7,0,0,0,1.67,1.411m0-2.822A1.123,1.123,0,1,1,173,371.82a1.124,1.124,0,0,1,1.123-1.123" transform="translate(-57.051 -157.154)" fill="#a6d7ff"/>
        <path id="Trazado_1263024" data-name="Trazado 1263024" d="M27.3,419.938h-7.48v13.848a1.7,1.7,0,1,0,.575,0V420.513h7.48v-23.72H27.3ZM21.23,435.455a1.123,1.123,0,1,1-1.124-1.123,1.125,1.125,0,0,1,1.124,1.123" transform="translate(-7.816 -168.478)" fill="#a6d7ff"/>
        <path id="Trazado_1263025" data-name="Trazado 1263025" d="M45.043,424.729V398.144h-.575v26.585a1.7,1.7,0,1,0,.575,0m-.288,2.792a1.123,1.123,0,1,1,1.123-1.123,1.124,1.124,0,0,1-1.123,1.123" transform="translate(-18.282 -169.052)" fill="#a6d7ff"/>
        <path id="Trazado_1263026" data-name="Trazado 1263026" d="M362.084,17.215h7.48V3.368a1.7,1.7,0,1,0-.575,0V16.64h-7.48V40.361h.575ZM368.153,1.7a1.123,1.123,0,1,1,1.124,1.123A1.126,1.126,0,0,1,368.153,1.7" transform="translate(-153.497)" fill="#a6d7ff"/>
        <path id="Trazado_1263027" data-name="Trazado 1263027" d="M348.818,20.1V46.689h.575V20.1a1.7,1.7,0,1,0-.575,0m.288-2.793a1.123,1.123,0,1,1-1.123,1.123,1.125,1.125,0,0,1,1.123-1.123" transform="translate(-147.509 -7.106)" fill="#a6d7ff"/>
        <g id="Grupo_1204670" data-name="Grupo 1204670" transform="translate(0.443 204.892)" opacity="0.5" style="isolation: isolate">
          <g id="Grupo_1204669" data-name="Grupo 1204669">
            <g id="Grupo_1204668" data-name="Grupo 1204668" clip-path="url(#clip-path-3)">
              <path id="Trazado_1263028" data-name="Trazado 1263028" d="M240.712,357.579a1.494,1.494,0,0,1-1.494,1.494H2.264a1.493,1.493,0,1,1,0-2.987H239.219a1.493,1.493,0,0,1,1.493,1.493" transform="translate(-0.77 -356.086)" fill="#a6d7ff"/>
            </g>
          </g>
        </g>
        <path id="Rectángulo_455597" data-name="Rectángulo 455597" d="M14.214,0h55.2A14.213,14.213,0,0,1,83.626,14.213v117.2a14.214,14.214,0,0,1-14.214,14.214h-55.2A14.214,14.214,0,0,1,0,131.414V14.214A14.214,14.214,0,0,1,14.214,0Z" transform="translate(27.389 59.264)" fill="#223d94"/>
        <path id="Trazado_1263029" data-name="Trazado 1263029" d="M121.7,336.266a5.452,5.452,0,1,1-5.452-5.452,5.452,5.452,0,0,1,5.452,5.452" transform="translate(-47.042 -140.464)" fill="#fff"/>
        <path id="Trazado_1263030" data-name="Trazado 1263030" d="M123.081,118.208a1.192,1.192,0,0,1-1.192,1.192H102.8a1.193,1.193,0,0,1,0-2.385h19.084a1.192,1.192,0,0,1,1.192,1.193" transform="translate(-43.144 -49.685)" fill="#fff"/>
        <path id="Trazado_1263031" data-name="Trazado 1263031" d="M120.551,110.326a1.079,1.079,0,1,1-1.079-1.079,1.08,1.08,0,0,1,1.079,1.079" transform="translate(-50.269 -46.386)" fill="#fff"/>
        <path id="Trazado_1263068" data-name="Trazado 1263068" d="M0,0H76.3V114.8H0Z" transform="translate(31.054 72.659)" fill="#f8f8c5"/>
        <g id="Grupo_1204673" data-name="Grupo 1204673" transform="translate(31.054 72.659)" opacity="0.5" style="isolation: isolate">
          <g id="Grupo_1204672" data-name="Grupo 1204672">
            <g id="Grupo_1204671" data-name="Grupo 1204671" clip-path="url(#clip-path-4)">
              <path id="Trazado_1263032" data-name="Trazado 1263032" d="M53.969,241.07l76.3-114.795V241.07Z" transform="translate(-53.969 -126.275)" fill="#e3e8c0"/>
            </g>
          </g>
        </g>
        <rect id="Rectángulo_455600" data-name="Rectángulo 455600" width="63.177" height="28.056" transform="translate(37.614 78.621)" fill="#fff"/>
        <g id="Grupo_1204676" data-name="Grupo 1204676" transform="translate(51.793 85.4)" opacity="0.4">
          <g id="Grupo_1204675" data-name="Grupo 1204675">
            <g id="Grupo_1204674" data-name="Grupo 1204674" clip-path="url(#clip-path-5)">
              <path id="Trazado_1263033" data-name="Trazado 1263033" d="M102.244,148.418l9.449,12.472,5.179-6.836,7.958,10.5H90.013Z" transform="translate(-90.013 -148.418)" fill="#9ec7ef"/>
              <path id="Trazado_1263034" data-name="Trazado 1263034" d="M125.34,151.872a1.939,1.939,0,1,0,1.938-1.941,1.939,1.939,0,0,0-1.938,1.941" transform="translate(-105.013 -149.06)" fill="#9ec7ef"/>
            </g>
          </g>
        </g>
        <rect id="Rectángulo_455602" data-name="Rectángulo 455602" width="28.538" height="1.274" transform="translate(37.614 116.313)" fill="#b492f4"/>
        <rect id="Rectángulo_455603" data-name="Rectángulo 455603" width="28.538" height="1.274" transform="translate(37.614 119.431)" fill="#b492f4"/>
        <rect id="Rectángulo_455604" data-name="Rectángulo 455604" width="28.538" height="1.275" transform="translate(37.614 122.548)" fill="#b492f4"/>
        <rect id="Rectángulo_455605" data-name="Rectángulo 455605" width="28.538" height="1.274" transform="translate(37.614 125.665)" fill="#b492f4"/>
        <rect id="Rectángulo_455606" data-name="Rectángulo 455606" width="28.538" height="2.805" transform="translate(37.614 110.729)" fill="#fff"/>
        <rect id="Rectángulo_455607" data-name="Rectángulo 455607" width="28.538" height="2.805" transform="translate(72.254 110.729)" fill="#fff"/>
        <rect id="Rectángulo_455608" data-name="Rectángulo 455608" width="28.538" height="1.274" transform="translate(72.254 116.313)" fill="#b492f4"/>
        <rect id="Rectángulo_455609" data-name="Rectángulo 455609" width="28.538" height="1.274" transform="translate(72.254 119.431)" fill="#b492f4"/>
        <rect id="Rectángulo_455610" data-name="Rectángulo 455610" width="28.538" height="1.275" transform="translate(72.254 122.548)" fill="#b492f4"/>
        <rect id="Rectángulo_455611" data-name="Rectángulo 455611" width="28.538" height="1.274" transform="translate(72.254 125.665)" fill="#b492f4"/>
        <rect id="Rectángulo_455612" data-name="Rectángulo 455612" width="28.538" height="1.274" transform="translate(37.614 136.264)" fill="#b492f4"/>
        <rect id="Rectángulo_455613" data-name="Rectángulo 455613" width="28.538" height="1.274" transform="translate(37.614 139.382)" fill="#b492f4"/>
        <rect id="Rectángulo_455614" data-name="Rectángulo 455614" width="28.538" height="1.273" transform="translate(37.614 142.499)" fill="#b492f4"/>
        <rect id="Rectángulo_455615" data-name="Rectángulo 455615" width="28.538" height="1.274" transform="translate(37.614 145.616)" fill="#b492f4"/>
        <rect id="Rectángulo_455616" data-name="Rectángulo 455616" width="28.538" height="2.806" transform="translate(37.614 130.68)" fill="#fff"/>
        <rect id="Rectángulo_455617" data-name="Rectángulo 455617" width="28.538" height="2.806" transform="translate(72.254 130.68)" fill="#fff"/>
        <rect id="Rectángulo_455618" data-name="Rectángulo 455618" width="28.538" height="1.274" transform="translate(72.254 136.264)" fill="#b492f4"/>
        <rect id="Rectángulo_455619" data-name="Rectángulo 455619" width="28.538" height="1.274" transform="translate(72.254 139.382)" fill="#b492f4"/>
        <rect id="Rectángulo_455620" data-name="Rectángulo 455620" width="28.538" height="1.273" transform="translate(72.254 142.499)" fill="#b492f4"/>
        <rect id="Rectángulo_455621" data-name="Rectángulo 455621" width="28.538" height="1.274" transform="translate(72.254 145.616)" fill="#b492f4"/>
        <rect id="Rectángulo_455622" data-name="Rectángulo 455622" width="29.095" height="29.095" transform="translate(37.614 152.605)" fill="#fff"/>
        <g id="Grupo_1204679" data-name="Grupo 1204679" transform="translate(41.498 162.444)" opacity="0.4">
          <g id="Grupo_1204678" data-name="Grupo 1204678">
            <g id="Grupo_1204677" data-name="Grupo 1204677" clip-path="url(#clip-path-6)">
              <path id="Trazado_1263035" data-name="Trazado 1263035" d="M79.416,282.314l5.637,7.438,3.089-4.077,4.747,6.264H72.121Z" transform="translate(-72.121 -282.314)" fill="#9ec7ef"/>
              <path id="Trazado_1263036" data-name="Trazado 1263036" d="M93.194,284.373a1.157,1.157,0,1,0,1.155-1.158,1.156,1.156,0,0,0-1.155,1.158" transform="translate(-81.069 -282.697)" fill="#9ec7ef"/>
            </g>
          </g>
        </g>
        <rect id="Rectángulo_455624" data-name="Rectángulo 455624" width="28.538" height="2.806" transform="translate(72.254 152.605)" fill="#fff"/>
        <rect id="Rectángulo_455625" data-name="Rectángulo 455625" width="28.538" height="1.274" transform="translate(72.254 158.189)" fill="#b492f4"/>
        <rect id="Rectángulo_455626" data-name="Rectángulo 455626" width="28.538" height="1.274" transform="translate(72.254 161.307)" fill="#b492f4"/>
        <rect id="Rectángulo_455627" data-name="Rectángulo 455627" width="28.538" height="1.274" transform="translate(72.254 164.423)" fill="#b492f4"/>
        <rect id="Rectángulo_455628" data-name="Rectángulo 455628" width="28.538" height="1.274" transform="translate(72.254 167.541)" fill="#b492f4"/>
        <rect id="Rectángulo_455629" data-name="Rectángulo 455629" width="28.538" height="1.274" transform="translate(72.254 170.659)" fill="#b492f4"/>
        <rect id="Rectángulo_455630" data-name="Rectángulo 455630" width="28.538" height="1.274" transform="translate(72.254 173.775)" fill="#b492f4"/>
        <rect id="Rectángulo_455631" data-name="Rectángulo 455631" width="28.538" height="1.274" transform="translate(72.254 176.893)" fill="#b492f4"/>
        <rect id="Rectángulo_455632" data-name="Rectángulo 455632" width="28.538" height="1.273" transform="translate(72.254 180.01)" fill="#b492f4"/>
        <path id="Trazado_1263037" data-name="Trazado 1263037" d="M274.35,281.213a4.561,4.561,0,0,1-4.547,4.548H159.192a4.56,4.56,0,0,1-4.547-4.548V205.546A4.56,4.56,0,0,1,159.192,201H269.8a4.561,4.561,0,0,1,4.547,4.547v75.666Z" transform="translate(-65.662 -85.344)" fill="#0f5f6b"/>
        <rect id="Rectángulo_455633" data-name="Rectángulo 455633" width="110.957" height="73.71" transform="translate(93.356 121.18)" fill="#b9f0e8"/>
        <path id="Trazado_1263038" data-name="Trazado 1263038" d="M138.854,338.74v4.744a5.253,5.253,0,0,0,5.237,5.237h127.4a5.254,5.254,0,0,0,5.238-5.237V338.74Z" transform="translate(-58.957 -143.829)" fill="#69d2cd"/>
        <path id="Trazado_1263039" data-name="Trazado 1263039" d="M218.152,338.74v1.6a1.775,1.775,0,0,0,1.77,1.771H263a1.776,1.776,0,0,0,1.771-1.771v-1.6Z" transform="translate(-92.627 -143.829)" fill="#8dc6ff"/>
        <rect id="Rectángulo_455634" data-name="Rectángulo 455634" width="23.016" height="1.726" transform="translate(98.032 126.132)" fill="#9ec7ef"/>
        <rect id="Rectángulo_455635" data-name="Rectángulo 455635" width="51.019" height="1.726" transform="translate(129.486 126.132)" fill="#dcc5f9"/>
        <rect id="Rectángulo_455636" data-name="Rectángulo 455636" width="15.897" height="1.726" transform="translate(98.032 131.886)" fill="#9ec7ef"/>
        <rect id="Rectángulo_455637" data-name="Rectángulo 455637" width="35.239" height="1.726" transform="translate(119.757 131.886)" fill="#dcc5f9"/>
        <rect id="Rectángulo_455638" data-name="Rectángulo 455638" width="17.395" height="1.726" transform="translate(98.032 137.64)" fill="#9ec7ef"/>
        <rect id="Rectángulo_455639" data-name="Rectángulo 455639" width="38.561" height="1.726" transform="translate(121.805 137.64)" fill="#dcc5f9"/>
        <rect id="Rectángulo_455640" data-name="Rectángulo 455640" width="10.425" height="1.726" transform="translate(98.032 143.394)" fill="#9ec7ef"/>
        <rect id="Rectángulo_455641" data-name="Rectángulo 455641" width="63.814" height="1.726" transform="translate(112.279 143.394)" fill="#dcc5f9"/>
        <rect id="Rectángulo_455642" data-name="Rectángulo 455642" width="23.016" height="1.726" transform="translate(98.032 149.148)" fill="#9ec7ef"/>
        <rect id="Rectángulo_455643" data-name="Rectángulo 455643" width="51.019" height="1.726" transform="translate(129.486 149.148)" fill="#dcc5f9"/>
        <rect id="Rectángulo_455644" data-name="Rectángulo 455644" width="15.897" height="1.726" transform="translate(98.032 154.902)" fill="#9ec7ef"/>
        <rect id="Rectángulo_455645" data-name="Rectángulo 455645" width="35.239" height="1.726" transform="translate(119.757 154.902)" fill="#dcc5f9"/>
        <rect id="Rectángulo_455646" data-name="Rectángulo 455646" width="19.805" height="1.726" transform="translate(98.032 160.656)" fill="#9ec7ef"/>
        <rect id="Rectángulo_455647" data-name="Rectángulo 455647" width="43.9" height="1.726" transform="translate(125.097 160.656)" fill="#dcc5f9"/>
        <rect id="Rectángulo_455648" data-name="Rectángulo 455648" width="10.425" height="1.726" transform="translate(98.032 166.41)" fill="#9ec7ef"/>
        <rect id="Rectángulo_455649" data-name="Rectángulo 455649" width="63.814" height="1.726" transform="translate(112.279 166.41)" fill="#dcc5f9"/>
        <rect id="Rectángulo_455650" data-name="Rectángulo 455650" width="24.996" height="1.726" transform="translate(98.032 172.164)" fill="#9ec7ef"/>
        <rect id="Rectángulo_455651" data-name="Rectángulo 455651" width="55.409" height="1.726" transform="translate(132.193 172.164)" fill="#dcc5f9"/>
        <rect id="Rectángulo_455652" data-name="Rectángulo 455652" width="21.357" height="1.726" transform="translate(98.032 177.918)" fill="#9ec7ef"/>
        <rect id="Rectángulo_455653" data-name="Rectángulo 455653" width="47.341" height="1.726" transform="translate(127.218 177.918)" fill="#dcc5f9"/>
        <rect id="Rectángulo_455654" data-name="Rectángulo 455654" width="18.893" height="1.726" transform="translate(98.032 183.672)" fill="#9ec7ef"/>
        <rect id="Rectángulo_455655" data-name="Rectángulo 455655" width="41.879" height="1.726" transform="translate(123.851 183.672)" fill="#dcc5f9"/>
        <rect id="Rectángulo_455656" data-name="Rectángulo 455656" width="11.323" height="1.726" transform="translate(98.032 189.426)" fill="#9ec7ef"/>
        <rect id="Rectángulo_455657" data-name="Rectángulo 455657" width="69.305" height="1.726" transform="translate(113.505 189.426)" fill="#dcc5f9"/>
        <path id="Trazado_1263040" data-name="Trazado 1263040" d="M368.459,273.687v-6.174h-3.342a18.831,18.831,0,0,0-3.295-7.949l2.364-2.364-4.365-4.366-2.364,2.364a18.848,18.848,0,0,0-7.949-3.3v-3.341h-6.174V251.9a18.835,18.835,0,0,0-7.949,3.3l-2.364-2.364-4.366,4.366,2.364,2.364a18.834,18.834,0,0,0-3.295,7.949h-3.342v6.174h3.342a18.841,18.841,0,0,0,3.3,7.949L328.655,284l4.366,4.366L335.385,286a18.844,18.844,0,0,0,7.949,3.3v3.342h6.174V289.3a18.835,18.835,0,0,0,7.949-3.3l2.365,2.364L364.187,284l-2.365-2.365a18.832,18.832,0,0,0,3.3-7.948ZM346.42,283.3a12.7,12.7,0,1,1,12.7-12.7,12.7,12.7,0,0,1-12.7,12.7" transform="translate(-137.733 -105.539)" fill="#c6ffcf"/>
        <path id="Trazado_1263041" data-name="Trazado 1263041" d="M199.808,183.393v-8.25h-4.465a25.178,25.178,0,0,0-4.4-10.621l3.159-3.16-5.833-5.833-3.16,3.16a25.183,25.183,0,0,0-10.622-4.4V149.82h-8.25v4.465a25.183,25.183,0,0,0-10.622,4.4l-3.159-3.16-5.834,5.833,3.16,3.16a25.172,25.172,0,0,0-4.4,10.621h-4.465v8.25h4.465a25.187,25.187,0,0,0,4.4,10.621l-3.16,3.16,5.834,5.833,3.16-3.16a25.18,25.18,0,0,0,10.621,4.4v4.465h8.25v-4.465a25.174,25.174,0,0,0,10.621-4.4l3.161,3.16,5.833-5.833-3.16-3.16a25.179,25.179,0,0,0,4.4-10.621ZM170.36,196.24a16.973,16.973,0,1,1,16.973-16.973A16.973,16.973,0,0,1,170.36,196.24" transform="translate(-59.831 -63.614)" fill="#69d2cd"/>
        <path id="Trazado_1263042" data-name="Trazado 1263042" d="M320.48,118.533v-5.449h-2.949a16.608,16.608,0,0,0-2.908-7.015l2.086-2.087-3.852-3.852-2.086,2.087a16.626,16.626,0,0,0-7.015-2.909V96.359h-5.449v2.949a16.613,16.613,0,0,0-7.015,2.909l-2.086-2.087-3.853,3.852,2.086,2.087a16.633,16.633,0,0,0-2.908,7.015h-2.949v5.449h2.949a16.635,16.635,0,0,0,2.908,7.015l-2.086,2.087,3.853,3.852,2.086-2.087a16.623,16.623,0,0,0,7.015,2.908v2.949h5.449v-2.949a16.607,16.607,0,0,0,7.014-2.908l2.088,2.087,3.853-3.852-2.088-2.088a16.617,16.617,0,0,0,2.908-7.014Zm-19.449,8.485a11.21,11.21,0,1,1,11.21-11.21,11.21,11.21,0,0,1-11.21,11.21" transform="translate(-119.56 -40.914)" fill="#69d2cd"/>
        <path id="Trazado_1263043" data-name="Trazado 1263043" d="M294.915,162.4H258.757V126.246h36.158Zm-35.583-.575H294.34V126.821H259.332Z" transform="translate(-109.868 -53.604)" fill="#fff"/>
        <rect id="Rectángulo_455658" data-name="Rectángulo 455658" width="29.922" height="29.922" transform="translate(152.007 75.76)" fill="#b9f0e8"/>
        <g id="Grupo_1204682" data-name="Grupo 1204682" transform="translate(155.627 86.868)" style="isolation: isolate">
          <g id="Grupo_1204681" data-name="Grupo 1204681">
            <g id="Grupo_1204680" data-name="Grupo 1204680" clip-path="url(#clip-path-7)">
              <text id="HTML" transform="translate(-0.001 4.964)" fill="#223d94" font-size="6" font-family="Montserrat-Bold, Montserrat" font-weight="700"><tspan x="0" y="0" letter-spacing="0.083em">HTM</tspan><tspan y="0">L</tspan></text>
            </g>
          </g>
        </g>
        <path id="Trazado_1263044" data-name="Trazado 1263044" d="M235.274,99.939h-24.7v-24.7h24.7Zm-24.124-.575H234.7V75.814H211.149Z" transform="translate(-89.41 -31.946)" fill="#7946f2"/>
        <rect id="Rectángulo_455660" data-name="Rectángulo 455660" width="20.286" height="20.287" transform="translate(123.371 45.499)" fill="#69d2cd"/>
        <g id="Grupo_1204685" data-name="Grupo 1204685" transform="translate(128.559 51.521)" style="isolation: isolate">
          <g id="Grupo_1204684" data-name="Grupo 1204684">
            <g id="Grupo_1204683" data-name="Grupo 1204683" clip-path="url(#clip-path-8)">
              <text id="JS" transform="translate(0.118 5.374)" fill="#fff" font-size="6" font-family="Montserrat-Bold, Montserrat" font-weight="700"><tspan x="0" y="0" letter-spacing="0.077em">J</tspan><tspan y="0">S</tspan></text>
            </g>
          </g>
        </g>
        <path id="Trazado_1263045" data-name="Trazado 1263045" d="M361.42,69.633h-24.7v-24.7h24.7ZM337.3,69.057h23.549V45.508H337.3Z" transform="translate(-142.971 -19.079)" fill="#5ba1f4"/>
        <rect id="Rectángulo_455662" data-name="Rectángulo 455662" width="20.286" height="20.286" transform="translate(195.955 28.061)" fill="#646867"/>
        <g id="Grupo_1204688" data-name="Grupo 1204688" transform="translate(198.995 34.981)" style="isolation: isolate">
          <g id="Grupo_1204687" data-name="Grupo 1204687">
            <g id="Grupo_1204686" data-name="Grupo 1204686" clip-path="url(#clip-path-9)">
              <text id="CSS" transform="translate(-0.001 5.051)" fill="#fff" font-size="6" font-family="Montserrat-Bold, Montserrat" font-weight="700"><tspan x="0" y="0" letter-spacing="0.084em">C</tspan><tspan y="0" letter-spacing="0.09em">S</tspan><tspan y="0">S</tspan></text>
            </g>
          </g>
        </g>
        <path id="Trazado_1263046" data-name="Trazado 1263046" d="M377.432,199.418H348.023v-29.41h29.409Zm-28.834-.575h28.258V170.583H348.6Z" transform="translate(-147.771 -72.185)" fill="#7946f2"/>
        <rect id="Rectángulo_455664" data-name="Rectángulo 455664" width="24.247" height="24.247" transform="translate(202.834 100.404)" fill="#1c526e"/>
        <g id="Grupo_1204691" data-name="Grupo 1204691" transform="translate(205.756 110.214)" style="isolation: isolate">
          <g id="Grupo_1204690" data-name="Grupo 1204690">
            <g id="Grupo_1204689" data-name="Grupo 1204689" clip-path="url(#clip-path-10)">
              <text id="JAVA" transform="translate(0.092 4.137)" fill="#fff" font-size="5" font-family="Montserrat-Bold, Montserrat" font-weight="700"><tspan x="0" y="0" letter-spacing="0.085em">J</tspan><tspan y="0" letter-spacing="0.062em">AV</tspan><tspan y="0">A</tspan></text>
            </g>
          </g>
        </g>
        <path id="Trazado_1263047" data-name="Trazado 1263047" d="M60.607,324.562H31.2V295.153H60.607Zm-28.834-.575H60.032V295.728H31.773Z" transform="translate(-13.247 -125.322)" fill="#5ba1f4"/>
        <rect id="Rectángulo_455666" data-name="Rectángulo 455666" width="24.247" height="24.247" transform="translate(20.533 172.412)" fill="#a6f6af"/>
        <g id="Grupo_1204694" data-name="Grupo 1204694" transform="translate(24.697 181.733)" style="isolation: isolate">
          <g id="Grupo_1204693" data-name="Grupo 1204693">
            <g id="Grupo_1204692" data-name="Grupo 1204692" clip-path="url(#clip-path-11)">
              <text id="PHP" transform="translate(0 5.051)" fill="#fff" font-size="6" font-family="Montserrat-Bold, Montserrat" font-weight="700"><tspan x="0" y="0" letter-spacing="0.08em">P</tspan><tspan y="0" letter-spacing="0.089em">H</tspan><tspan y="0">P</tspan></text>
            </g>
          </g>
        </g>
        <path id="Trazado_1263048" data-name="Trazado 1263048" d="M125.006,378.894H88.848V342.736h36.158Zm-35.583-.575h35.007V343.311H89.423Z" transform="translate(-37.725 -145.526)" fill="#7946f2"/>
        <rect id="Rectángulo_455668" data-name="Rectángulo 455668" width="29.922" height="29.923" transform="translate(54.241 200.328)" fill="#69d2cd"/>
        <g id="Grupo_1204697" data-name="Grupo 1204697" transform="translate(60.006 210.545)" style="isolation: isolate">
          <g id="Grupo_1204696" data-name="Grupo 1204696">
            <g id="Grupo_1204695" data-name="Grupo 1204695" clip-path="url(#clip-path-12)">
              <text id="C_" data-name="C++" transform="translate(0 6.706)" fill="#fff" font-size="8" font-family="Montserrat-Bold, Montserrat" font-weight="700"><tspan x="0" y="0" letter-spacing="0.06em">C</tspan><tspan y="0" letter-spacing="0.071em">+</tspan><tspan y="0">+</tspan></text>
            </g>
          </g>
        </g>
        <path id="Trazado_1263049" data-name="Trazado 1263049" d="M42.256,403.393h-24.7v-24.7h24.7Zm-24.124-.575H41.68V379.268H18.131Z" transform="translate(-7.454 -160.793)" fill="#fff"/>
        <rect id="Rectángulo_455670" data-name="Rectángulo 455670" width="20.286" height="20.286" transform="translate(12.308 220.107)" fill="#c6ffcf"/>
        <g id="Grupo_1204700" data-name="Grupo 1204700" transform="translate(16.158 226.538)" style="isolation: isolate">
          <g id="Grupo_1204699" data-name="Grupo 1204699">
            <g id="Grupo_1204698" data-name="Grupo 1204698" clip-path="url(#clip-path-13)">
              <text id="_" data-name="&lt;/&gt;" transform="translate(0 4.965)" fill="#223d94" font-size="6" font-family="Montserrat-Bold, Montserrat" font-weight="700"><tspan x="0" y="0" letter-spacing="0.083em">&lt;</tspan><tspan y="0" letter-spacing="0.082em">/</tspan><tspan y="0">&gt;</tspan></text>
            </g>
          </g>
        </g>
        <path id="Trazado_1263050" data-name="Trazado 1263050" d="M104.029,72.782l-4.924,1.8,4.924,1.789v1.848l-7.038-2.676V73.625l7.038-2.676Z" transform="translate(-41.182 -30.125)" fill="#a6d7ff"/>
        <path id="Trazado_1263051" data-name="Trazado 1263051" d="M117.389,64.627h2.055l-4.879,13.927H112.51Z" transform="translate(-47.772 -27.441)" fill="#a6d7ff"/>
        <path id="Trazado_1263052" data-name="Trazado 1263052" d="M134.63,73.624v1.922l-7.037,2.676V76.374l4.924-1.789-4.924-1.8V70.948Z" transform="translate(-54.176 -30.125)" fill="#a6d7ff"/>
        <path id="Trazado_1263053" data-name="Trazado 1263053" d="M186.2,42.341h-2.158V40.183h-1.151v2.158h-2.158v1.151h2.158v2.158h1.151V43.492H186.2Z" transform="translate(-76.741 -17.062)" fill="#a6d7ff"/>
        <path id="Trazado_1263054" data-name="Trazado 1263054" d="M395.364,110.406h-2.158v-2.158h-1.151v2.158H389.9v1.151h2.158v2.158h1.151v-2.158h2.158Z" transform="translate(-165.551 -45.962)" fill="#a6d7ff"/>
        <path id="Trazado_1263055" data-name="Trazado 1263055" d="M426.188,201.765h-2.158v-2.158H422.88v2.158h-2.158v1.151h2.158v2.158h1.151v-2.158h2.158Z" transform="translate(-178.638 -84.753)" fill="#a6d7ff"/>
        <path id="Trazado_1263056" data-name="Trazado 1263056" d="M46.725,37.591H44.568V35.433H43.417v2.158H41.259v1.151h2.158V40.9h1.151V38.742h2.158Z" transform="translate(-17.519 -15.045)" fill="#a6d7ff"/>
        <path id="Trazado_1263057" data-name="Trazado 1263057" d="M26.744,143.774H24.587v-2.158H23.436v2.158H21.278v1.151h2.158v2.158h1.151v-2.158h2.158Z" transform="translate(-9.035 -60.13)" fill="#a6d7ff"/>
        <path id="Trazado_1263058" data-name="Trazado 1263058" d="M421.438,248.116h-2.158v-2.158H418.13v2.158h-2.158v1.151h2.158v2.158h1.151v-2.158h2.158Z" transform="translate(-176.622 -104.434)" fill="#a6d7ff"/>
        <path id="Trazado_1263059" data-name="Trazado 1263059" d="M19.124,239.642H16.967v-2.158H15.816v2.158H13.658v1.151h2.158v2.158h1.151v-2.158h2.158Z" transform="translate(-5.799 -100.836)" fill="#a6d7ff"/>
        <path id="Trazado_1263060" data-name="Trazado 1263060" d="M225.753,385.173H223.6v-2.158h-1.151v2.158h-2.158v1.151h2.158v2.158H223.6v-2.158h2.158Z" transform="translate(-93.534 -162.628)" fill="#a6d7ff"/>
        <path id="Trazado_1263061" data-name="Trazado 1263061" d="M326.754,419.028H324.6V416.87h-1.151v2.158h-2.158v1.151h2.158v2.158H324.6v-2.158h2.158Z" transform="translate(-136.419 -177.003)" fill="#a6d7ff"/>
        <g id="Grupo_1204703" data-name="Grupo 1204703" transform="translate(5.806 12.796)" opacity="0.5">
          <g id="Grupo_1204702" data-name="Grupo 1204702">
            <g id="Grupo_1204701" data-name="Grupo 1204701" clip-path="url(#clip-path-14)">
              <path id="Trazado_1263062" data-name="Trazado 1263062" d="M268.045,399.978a12.145,12.145,0,1,1,12.145-12.146,12.159,12.159,0,0,1-12.145,12.146m0-23.716a11.57,11.57,0,1,0,11.57,11.57,11.584,11.584,0,0,0-11.57-11.57" transform="translate(-114.461 -172.313)" fill="#5ba1f4"/>
              <path id="Trazado_1263063" data-name="Trazado 1263063" d="M420.025,319.487a7.383,7.383,0,1,1,7.383-7.384,7.392,7.392,0,0,1-7.383,7.384m0-14.191a6.808,6.808,0,1,0,6.808,6.808,6.816,6.816,0,0,0-6.808-6.808" transform="translate(-181.014 -142.181)" fill="#5ba1f4"/>
              <path id="Trazado_1263064" data-name="Trazado 1263064" d="M383.775,394.112a6.093,6.093,0,1,1,6.092-6.093,6.1,6.1,0,0,1-6.092,6.093m0-11.61a5.518,5.518,0,1,0,5.517,5.517,5.524,5.524,0,0,0-5.517-5.517" transform="translate(-166.17 -174.962)" fill="#5ba1f4"/>
              <path id="Trazado_1263065" data-name="Trazado 1263065" d="M22.236,82.257A12.145,12.145,0,1,1,34.381,70.111,12.159,12.159,0,0,1,22.236,82.257m0-23.715a11.57,11.57,0,1,0,11.57,11.57,11.583,11.583,0,0,0-11.57-11.57" transform="translate(-10.091 -37.409)" fill="#5ba1f4"/>
              <path id="Trazado_1263066" data-name="Trazado 1263066" d="M120.123,37.006a7.384,7.384,0,1,1,7.383-7.384,7.392,7.392,0,0,1-7.383,7.384m0-14.192a6.808,6.808,0,1,0,6.808,6.808,6.816,6.816,0,0,0-6.808-6.808" transform="translate(-53.675 -22.239)" fill="#5ba1f4"/>
              <path id="Trazado_1263067" data-name="Trazado 1263067" d="M18.992,204.076a5.666,5.666,0,1,1,5.665-5.666,5.672,5.672,0,0,1-5.665,5.666m0-10.756a5.09,5.09,0,1,0,5.09,5.09,5.1,5.1,0,0,0-5.09-5.09" transform="translate(-11.465 -94.636)" fill="#5ba1f4"/>
            </g>
          </g>
        </g>
      </g>
    </g>
  </g>
</svg>
