<svg xmlns="http://www.w3.org/2000/svg" xmlns:xlink="http://www.w3.org/1999/xlink" width="84" height="84" viewBox="0 0 84 84">
  <defs>
    <clipPath id="clip-path">
      <rect id="Rectángulo_456187" data-name="Rectángulo 456187" width="58.638" height="55.109" fill="#0f5f6b"/>
    </clipPath>
  </defs>
  <g id="Grupo_1205049" data-name="Grupo 1205049" transform="translate(-704.629 -12740.913)">
    <circle id="Elipse_13698" data-name="Elipse 13698" cx="42" cy="42" r="42" transform="translate(704.629 12740.913)" fill="#a6f6af"/>
    <g id="Grupo_1204970" data-name="Grupo 1204970" transform="translate(716.311 12753)">
      <g id="Grupo_1204970-2" data-name="Grupo 1204970" clip-path="url(#clip-path)">
        <path id="Trazado_1263712" data-name="Trazado 1263712" d="M105.144,86.28A10.886,10.886,0,1,1,94.258,75.394,10.886,10.886,0,0,1,105.144,86.28" transform="translate(-46.506 -42.056)" fill="#0f5f6b"/>
        <path id="Trazado_1263713" data-name="Trazado 1263713" d="M94.335,99.024l-3.779-3.78,3.779-3.779,1.36,1.359-2.42,2.42,2.42,2.421Z" transform="translate(-50.513 -51.02)" fill="#a6f6af"/>
        <path id="Trazado_1263714" data-name="Trazado 1263714" d="M115.163,99.024l-1.36-1.359,2.42-2.421-2.42-2.42,1.36-1.359,3.779,3.779Z" transform="translate(-63.481 -51.02)" fill="#a6f6af"/>
        <rect id="Rectángulo_456166" data-name="Rectángulo 456166" width="10.382" height="1.923" transform="translate(45.41 48.956) rotate(-74.158)" fill="#a6f6af"/>
        <rect id="Rectángulo_456167" data-name="Rectángulo 456167" width="5.184" height="1.923" transform="translate(23.44 19.609)" fill="#0f5f6b"/>
        <rect id="Rectángulo_456168" data-name="Rectángulo 456168" width="5.575" height="1.923" transform="translate(28.625 26.203)" fill="#0f5f6b"/>
        <rect id="Rectángulo_456169" data-name="Rectángulo 456169" width="5.575" height="1.923" transform="translate(28.625 29.498)" fill="#0f5f6b"/>
        <rect id="Rectángulo_456170" data-name="Rectángulo 456170" width="5.575" height="1.923" transform="translate(28.625 39.387)" fill="#0f5f6b"/>
        <rect id="Rectángulo_456171" data-name="Rectángulo 456171" width="5.575" height="1.923" transform="translate(28.625 42.683)" fill="#0f5f6b"/>
        <rect id="Rectángulo_456172" data-name="Rectángulo 456172" width="10.759" height="1.923" transform="translate(23.44 22.905)" fill="#0f5f6b"/>
        <rect id="Rectángulo_456173" data-name="Rectángulo 456173" width="5.184" height="1.923" transform="translate(23.44 32.795)" fill="#0f5f6b"/>
        <rect id="Rectángulo_456174" data-name="Rectángulo 456174" width="10.759" height="1.923" transform="translate(23.44 36.091)" fill="#0f5f6b"/>
        <rect id="Rectángulo_456175" data-name="Rectángulo 456175" width="5.576" height="1.923" transform="translate(36.38 26.203)" fill="#0f5f6b"/>
        <rect id="Rectángulo_456176" data-name="Rectángulo 456176" width="10.76" height="1.923" transform="translate(36.38 29.498)" fill="#0f5f6b"/>
        <rect id="Rectángulo_456177" data-name="Rectángulo 456177" width="5.576" height="1.923" transform="translate(36.38 22.905)" fill="#0f5f6b"/>
        <path id="Trazado_1263715" data-name="Trazado 1263715" d="M75.284,28.268H40.674V20.577h34.61ZM42.6,26.344H73.362V22.5H42.6Z" transform="translate(-22.688 -11.478)" fill="#0f5f6b"/>
        <rect id="Rectángulo_456178" data-name="Rectángulo 456178" width="1.923" height="1.923" transform="translate(21.83 11.983)" fill="#0f5f6b"/>
        <rect id="Rectángulo_456179" data-name="Rectángulo 456179" width="1.923" height="1.923" transform="translate(25.676 11.983)" fill="#0f5f6b"/>
        <rect id="Rectángulo_456180" data-name="Rectángulo 456180" width="1.924" height="1.923" transform="translate(29.52 11.983)" fill="#0f5f6b"/>
        <path id="Trazado_1263716" data-name="Trazado 1263716" d="M56.888,68.1H40.674V33.62h34.61v16.5H73.362V35.543H42.6V66.179H56.888Z" transform="translate(-22.689 -18.753)" fill="#0f5f6b"/>
        <path id="Trazado_1263717" data-name="Trazado 1263717" d="M17.155,113.672a3.5,3.5,0,1,1,3.5-3.5,3.5,3.5,0,0,1-3.5,3.5m0-5.08a1.579,1.579,0,1,0,1.579,1.579,1.581,1.581,0,0,0-1.579-1.579" transform="translate(-7.616 -59.501)" fill="#0f5f6b"/>
        <rect id="Rectángulo_456181" data-name="Rectángulo 456181" width="1.923" height="7.003" transform="translate(14.013 47.168)" fill="#0f5f6b"/>
        <path id="Trazado_1263718" data-name="Trazado 1263718" d="M97.892,7a3.5,3.5,0,1,1,3.5-3.5,3.5,3.5,0,0,1-3.5,3.5m0-5.079A1.579,1.579,0,1,0,99.471,3.5a1.58,1.58,0,0,0-1.579-1.578" transform="translate(-52.652)" fill="#0f5f6b"/>
        <rect id="Rectángulo_456182" data-name="Rectángulo 456182" width="1.923" height="7.002" transform="translate(38.843)" fill="#0f5f6b"/>
        <rect id="Rectángulo_456183" data-name="Rectángulo 456183" width="1.923" height="7.002" transform="translate(35.947)" fill="#0f5f6b"/>
        <path id="Trazado_1263719" data-name="Trazado 1263719" d="M27.219,67.583h-.961V65.661h.961a.854.854,0,0,0,.853-.853V57.551a.853.853,0,0,0-.853-.853h-.961V54.775h.961a2.776,2.776,0,0,1,2.776,2.776v7.257a2.777,2.777,0,0,1-2.776,2.776" transform="translate(-14.647 -30.554)" fill="#0f5f6b"/>
        <path id="Trazado_1263720" data-name="Trazado 1263720" d="M3.736,67.583H2.775A2.776,2.776,0,0,1,0,64.808V57.551a2.774,2.774,0,0,1,2.775-2.776h.961V56.7H2.775a.851.851,0,0,0-.853.853v7.257a.852.852,0,0,0,.853.853h.961Z" transform="translate(0 -30.554)" fill="#0f5f6b"/>
        <rect id="Rectángulo_456184" data-name="Rectángulo 456184" width="1.923" height="1.923" transform="translate(3.07 29.664)" fill="#0f5f6b"/>
        <rect id="Rectángulo_456185" data-name="Rectángulo 456185" width="1.923" height="1.923" transform="translate(6.531 29.664)" fill="#0f5f6b"/>
        <rect id="Rectángulo_456186" data-name="Rectángulo 456186" width="1.923" height="1.923" transform="translate(9.991 29.664)" fill="#0f5f6b"/>
      </g>
    </g>
  </g>
</svg>
