<svg xmlns="http://www.w3.org/2000/svg" width="21.604" height="19.153" viewBox="0 0 21.604 19.153">
  <g id="Grupo_1205039" data-name="Grupo 1205039" transform="translate(-186 -1235)">
    <path id="Trazado_1261840" data-name="Trazado 1261840" d="M3595.564,853.34h-20.671a.466.466,0,0,0-.474.474v12.574a.466.466,0,0,0,.474.474h2.356v5.156a.468.468,0,0,0,.3.443.313.313,0,0,0,.158.032.5.5,0,0,0,.379-.174l4.255-5.457h13.222a.463.463,0,0,0,.459-.474V853.814a.463.463,0,0,0-.459-.474m-15.863,8.114a1.97,1.97,0,1,1,2.024-1.977,2.012,2.012,0,0,1-2.024,1.977m5.678,0a1.97,1.97,0,1,1,2.024-1.977,2.012,2.012,0,0,1-2.024,1.977m5.377,0a1.97,1.97,0,1,1,2.024-1.977,2,2,0,0,1-2.024,1.977" transform="translate(-3388.419 381.66)" fill="#69d2cd"/>
  </g>
</svg>
