<svg xmlns="http://www.w3.org/2000/svg" width="84" height="84" viewBox="0 0 84 84">
  <g id="Grupo_1205040" data-name="Grupo 1205040" transform="translate(-705.711 -2118)">
    <circle id="Elipse_13697" data-name="Elipse 13697" cx="42" cy="42" r="42" transform="translate(705.711 2118)" fill="#69d2cd"/>
    <path id="Trazado_1263412" data-name="Trazado 1263412" d="M162.045,100.24a1.342,1.342,0,0,0-1.554-1.088l-4.816.849a18.067,18.067,0,0,0-2.193-3.79l3.146-3.749a1.341,1.341,0,0,0-.166-1.89l-4.213-3.535a1.342,1.342,0,0,0-1.89.165l-3.144,3.747a17.983,17.983,0,0,0-4.116-1.5V84.56a1.341,1.341,0,0,0-1.341-1.342h-5.5a1.342,1.342,0,0,0-1.341,1.342v4.89a17.976,17.976,0,0,0-4.116,1.5L127.66,87.2a1.341,1.341,0,0,0-1.89-.165l-4.213,3.535a1.341,1.341,0,0,0-.166,1.89l3.146,3.749a18.078,18.078,0,0,0-2.193,3.79l-4.816-.849a1.342,1.342,0,0,0-1.554,1.088l-.955,5.416a1.341,1.341,0,0,0,1.088,1.554l4.82.851a18.029,18.029,0,0,0,.757,4.313l-4.235,2.445a1.341,1.341,0,0,0-.491,1.832l2.749,4.763a1.34,1.34,0,0,0,1.832.491l4.24-2.447a18.272,18.272,0,0,0,3.352,2.815l-1.674,4.6a1.341,1.341,0,0,0,.8,1.719l5.168,1.881a1.341,1.341,0,0,0,1.719-.8l1.674-4.6a18.154,18.154,0,0,0,4.378,0l1.674,4.6a1.341,1.341,0,0,0,1.719.8l5.168-1.881a1.341,1.341,0,0,0,.8-1.719l-1.674-4.6a18.22,18.22,0,0,0,3.352-2.815l4.24,2.447a1.341,1.341,0,0,0,1.832-.491l2.749-4.763a1.34,1.34,0,0,0-.49-1.832l-4.235-2.445a18.084,18.084,0,0,0,.757-4.313l4.82-.851A1.341,1.341,0,0,0,163,105.656ZM139.01,114.262a7.377,7.377,0,1,1,7.377-7.377A7.377,7.377,0,0,1,139.01,114.262Z" transform="translate(608.991 2053.445)" fill="#1c526e"/>
  </g>
</svg>
