<svg xmlns="http://www.w3.org/2000/svg" xmlns:xlink="http://www.w3.org/1999/xlink" width="261" height="145" viewBox="0 0 261 145">
  <defs>
    <clipPath id="clip-path">
      <rect id="Rectángulo_456165" data-name="Rectángulo 456165" width="171.854" height="111.376" fill="none"/>
    </clipPath>
    <clipPath id="clip-path-3">
      <rect id="Rectángulo_456133" data-name="Rectángulo 456133" width="20.295" height="3.164" fill="none"/>
    </clipPath>
    <clipPath id="clip-path-4">
      <rect id="Rectángulo_456148" data-name="Rectángulo 456148" width="3.624" height="3.757" fill="none"/>
    </clipPath>
  </defs>
  <g id="Grupo_1205044" data-name="Grupo 1205044" transform="translate(-1017.686 -5758.671)">
    <rect id="Rectángulo_454987" data-name="Rectángulo 454987" width="261" height="145" rx="25" transform="translate(1017.686 5758.671)" fill="#f7f7d7"/>
    <g id="Grupo_1204968" data-name="Grupo 1204968" transform="translate(1055.146 5774.226)" clip-path="url(#clip-path)">
      <rect id="Rectángulo_456129" data-name="Rectángulo 456129" width="20.295" height="13.122" transform="translate(81.345 94.667)" fill="#d1d2d3"/>
      <g id="Grupo_1204967" data-name="Grupo 1204967">
        <g id="Grupo_1204966" data-name="Grupo 1204966" clip-path="url(#clip-path)">
          <path id="Trazado_1263690" data-name="Trazado 1263690" d="M365.671,215.507a2.637,2.637,0,0,1-2.628,2.629H267.906a2.637,2.637,0,0,1-2.629-2.629V145.889a2.636,2.636,0,0,1,2.629-2.628h95.137a2.636,2.636,0,0,1,2.628,2.628Z" transform="translate(-223.981 -120.96)" fill="#d1d2d3"/>
          <path id="Trazado_1263691" data-name="Trazado 1263691" d="M363.043,143.261H267.906a2.636,2.636,0,0,0-2.629,2.628v59.327H365.671V145.889a2.636,2.636,0,0,0-2.628-2.628" transform="translate(-223.981 -120.96)" fill="#0f142b"/>
          <rect id="Rectángulo_456130" data-name="Rectángulo 456130" width="93.778" height="54.65" transform="translate(44.604 25.754)" fill="#77cccf"/>
          <rect id="Rectángulo_456131" data-name="Rectángulo 456131" width="28.424" height="4.854" transform="translate(77.28 106.522)" fill="#d1d2d3"/>
          <g id="Grupo_1204962" data-name="Grupo 1204962" transform="translate(81.345 97.449)" opacity="0.1" style="isolation: isolate">
            <g id="Grupo_1204961" data-name="Grupo 1204961">
              <g id="Grupo_1204960" data-name="Grupo 1204960" clip-path="url(#clip-path-3)">
                <rect id="Rectángulo_456132" data-name="Rectángulo 456132" width="20.295" height="3.164" transform="translate(0 0)"/>
              </g>
            </g>
          </g>
          <rect id="Rectángulo_456134" data-name="Rectángulo 456134" width="6.906" height="6.907" transform="translate(154.542 45.111)" fill="#081d3a"/>
          <path id="Trazado_1263692" data-name="Trazado 1263692" d="M974.723,184.069a7.417,7.417,0,0,0-6.637,10.723c.856,1.789,3.184,5.734,3.184,5.734h6.906s2.328-3.945,3.184-5.734a7.417,7.417,0,0,0-6.637-10.723" transform="translate(-816.728 -155.415)" fill="#ffd11b"/>
          <rect id="Rectángulo_456135" data-name="Rectángulo 456135" width="3.453" height="0.908" transform="translate(156.269 52.017)" fill="#08192d"/>
          <rect id="Rectángulo_456136" data-name="Rectángulo 456136" width="2.69" height="0.908" transform="translate(156.65 52.925)" fill="#08192d"/>
          <rect id="Rectángulo_456137" data-name="Rectángulo 456137" width="0.356" height="7.221" transform="translate(157.817 37.89)" fill="#fff"/>
          <rect id="Rectángulo_456138" data-name="Rectángulo 456138" width="1.605" height="0.426" transform="translate(157.193 37.89)" fill="#fff"/>
          <rect id="Rectángulo_456139" data-name="Rectángulo 456139" width="1.605" height="0.425" transform="translate(157.193 38.589)" fill="#fff"/>
          <rect id="Rectángulo_456140" data-name="Rectángulo 456140" width="1.605" height="0.426" transform="translate(157.193 39.286)" fill="#fff"/>
          <rect id="Rectángulo_456141" data-name="Rectángulo 456141" width="4.15" height="1.176" rx="0.588" transform="translate(167.704 35.707)" fill="#ffd11b"/>
          <path id="Trazado_1263693" data-name="Trazado 1263693" d="M1072.495,170.53a.544.544,0,0,1,0,.765l-2.17,2.17a.544.544,0,0,1-.765,0l-.066-.066a.544.544,0,0,1,0-.766l2.169-2.169a.543.543,0,0,1,.766,0Z" transform="translate(-902.873 -143.794)" fill="#ffd11b"/>
          <path id="Trazado_1263694" data-name="Trazado 1263694" d="M1072.428,276.191a.543.543,0,0,1-.766,0l-2.169-2.169a.544.544,0,0,1,0-.766l.066-.065a.542.542,0,0,1,.765,0l2.17,2.169a.544.544,0,0,1,0,.765Z" transform="translate(-902.872 -230.53)" fill="#ffd11b"/>
          <path id="Trazado_1263695" data-name="Trazado 1263695" d="M936.5,167.434a.544.544,0,0,1,.766,0l2.169,2.169a.543.543,0,0,1,0,.765l-.065.067a.544.544,0,0,1-.766,0l-2.169-2.17a.543.543,0,0,1,0-.765Z" transform="translate(-790.525 -141.237)" fill="#ffd11b"/>
          <path id="Trazado_1263696" data-name="Trazado 1263696" d="M936.434,276.126a.543.543,0,0,1,0-.765l2.169-2.169a.543.543,0,0,1,.766,0l.065.065a.544.544,0,0,1,0,.766l-2.169,2.169a.543.543,0,0,1-.766,0Z" transform="translate(-790.526 -230.531)" fill="#ffd11b"/>
          <rect id="Rectángulo_456142" data-name="Rectángulo 456142" width="1.176" height="4.15" rx="0.588" transform="translate(157.407 21.167)" fill="#ffd11b"/>
          <rect id="Rectángulo_456143" data-name="Rectángulo 456143" width="4.15" height="1.176" rx="0.588" transform="translate(143.674 35.707)" fill="#ffd11b"/>
          <rect id="Rectángulo_456144" data-name="Rectángulo 456144" width="79.57" height="15.311" transform="translate(67.401)" fill="#ed5d5d"/>
          <rect id="Rectángulo_456145" data-name="Rectángulo 456145" width="17.19" height="15.311" transform="translate(67.401)" fill="#fdfcf4"/>
          <rect id="Rectángulo_456146" data-name="Rectángulo 456146" width="0.912" height="1.714" transform="matrix(0.708, -0.707, 0.707, 0.708, 76.339, 8.567)" fill="#01667c"/>
          <path id="Trazado_1263697" data-name="Trazado 1263697" d="M501.145,61.23a.322.322,0,0,1,0,.454l-.454.454a.324.324,0,0,1-.455,0l-2.848-2.849a.321.321,0,0,1,0-.454l.454-.454a.321.321,0,0,1,.455,0Z" transform="translate(-419.88 -49.213)" fill="#007193"/>
          <path id="Trazado_1263698" data-name="Trazado 1263698" d="M454.784,15.777a3.587,3.587,0,1,0,5.072,0,3.587,3.587,0,0,0-5.072,0m4.541,4.542a2.836,2.836,0,1,1,0-4.011,2.836,2.836,0,0,1,0,4.011" transform="translate(-383.101 -12.435)" fill="#007193"/>
          <rect id="Rectángulo_456147" data-name="Rectángulo 456147" width="1.285" height="0.579" transform="translate(77.275 9.835) rotate(-44.985)" fill="#fbb826"/>
          <g id="Grupo_1204965" data-name="Grupo 1204965" transform="translate(77.735 8.941)" opacity="0.1" style="isolation: isolate">
            <g id="Grupo_1204964" data-name="Grupo 1204964">
              <g id="Grupo_1204963" data-name="Grupo 1204963" clip-path="url(#clip-path-4)">
                <path id="Trazado_1263699" data-name="Trazado 1263699" d="M500.038,57.662l-.227-.227-.227.227-.227.227.409.41,2.893,2.893.228-.227a.322.322,0,0,0,0-.454Z" transform="translate(-499.357 -57.435)"/>
              </g>
            </g>
          </g>
          <rect id="Rectángulo_456149" data-name="Rectángulo 456149" width="39.307" height="8.21" transform="translate(13.781 9.792)" fill="#fdfcf4"/>
          <rect id="Rectángulo_456150" data-name="Rectángulo 456150" width="3.252" height="8.21" transform="translate(13.781 9.792)" fill="#1c6693"/>
          <rect id="Rectángulo_456151" data-name="Rectángulo 456151" width="9.074" height="8.21" transform="translate(44.014 9.792)" fill="#1c6693"/>
          <path id="Trazado_1263700" data-name="Trazado 1263700" d="M301.045,79.882l1.687,2.923,1.688-2.923Z" transform="translate(-254.181 -67.446)" fill="#06b8dd"/>
          <rect id="Rectángulo_456152" data-name="Rectángulo 456152" width="52.93" height="34.425" transform="translate(0 34.472)" fill="#0f3653"/>
          <rect id="Rectángulo_456153" data-name="Rectángulo 456153" width="52.93" height="4.618" transform="translate(0 34.472)" fill="#1a5370"/>
          <rect id="Rectángulo_456154" data-name="Rectángulo 456154" width="45.511" height="3.21" transform="translate(3.709 42.977)" fill="#fff"/>
          <rect id="Rectángulo_456155" data-name="Rectángulo 456155" width="45.511" height="3.21" transform="translate(3.709 47.542)" fill="#fff"/>
          <rect id="Rectángulo_456156" data-name="Rectángulo 456156" width="7.874" height="4.161" transform="translate(30.554 53.625)" fill="#fdc545"/>
          <rect id="Rectángulo_456157" data-name="Rectángulo 456157" width="7.873" height="4.161" transform="translate(41.166 53.625)" fill="#fdc545"/>
          <rect id="Rectángulo_456158" data-name="Rectángulo 456158" width="49.484" height="37.562" transform="translate(67.683 33.798)" fill="#1a5370"/>
          <rect id="Rectángulo_456159" data-name="Rectángulo 456159" width="46.031" height="26.72" transform="translate(69.409 35.443)" fill="#0f3653"/>
          <rect id="Rectángulo_456160" data-name="Rectángulo 456160" width="27.955" height="1.838" transform="translate(70.842 64.913)" fill="#bbbdbf"/>
          <rect id="Rectángulo_456161" data-name="Rectángulo 456161" width="12.491" height="1.838" transform="translate(100.939 64.913)" fill="#f1f1f2"/>
          <rect id="Rectángulo_456162" data-name="Rectángulo 456162" width="2.142" height="1.838" transform="translate(98.797 64.913)" fill="#06b8dd"/>
          <path id="Trazado_1263701" data-name="Trazado 1263701" d="M556.035,273.034H542.017a1.237,1.237,0,0,0-1.232,1.232V284.4a1.236,1.236,0,0,0,1.232,1.232h14.017a1.235,1.235,0,0,0,1.232-1.232V274.266a1.236,1.236,0,0,0-1.232-1.232" transform="translate(-456.601 -230.531)" fill="#69d2cd"/>
          <path id="Trazado_1263703" data-name="Trazado 1263703" d="M953.675,499.743A11.774,11.774,0,1,1,941.9,487.968a11.773,11.773,0,0,1,11.774,11.775" transform="translate(-785.335 -412.006)" fill="#ed5d5d"/>
          <rect id="Rectángulo_456163" data-name="Rectángulo 456163" width="1.008" height="5.07" transform="translate(150.895 85.201)" fill="#fff"/>
          <path id="Trazado_1263704" data-name="Trazado 1263704" d="M982.868,540.183l-4.659-2.759v-5.07l4.659-2.759Z" transform="translate(-825.932 -447.154)" fill="#fff"/>
          <path id="Trazado_1263705" data-name="Trazado 1263705" d="M1014.722,553.333a2.738,2.738,0,0,0,0-4.49.345.345,0,1,0-.4.566,2.057,2.057,0,0,1,.636.719,2.051,2.051,0,0,1,0,1.923,2.058,2.058,0,0,1-.636.717.345.345,0,1,0,.4.566" transform="translate(-856.302 -463.353)" fill="#fff"/>
          <path id="Trazado_1263706" data-name="Trazado 1263706" d="M1024.3,543.511a5.473,5.473,0,0,0,1.692-1.909,5.456,5.456,0,0,0,0-5.114,5.478,5.478,0,0,0-1.692-1.908.345.345,0,0,0-.4.566,4.8,4.8,0,0,1,1.479,1.667,4.756,4.756,0,0,1-1.479,6.134.345.345,0,0,0,.4.566" transform="translate(-864.387 -451.309)" fill="#fff"/>
          <path id="Trazado_1263707" data-name="Trazado 1263707" d="M98.975,520.459a.913.913,0,0,0,.91.91H120.18a.913.913,0,0,0,.91-.91V504.35H98.975Z" transform="translate(-83.568 -425.838)" fill="#e6e6e6"/>
          <path id="Trazado_1263708" data-name="Trazado 1263708" d="M139.495,524.009a1.241,1.241,0,0,1-.136.63,1.632,1.632,0,0,1-.495.472l-1.962,1.562a.277.277,0,0,0-.1.243v1.618h2.506l-.372,1.934h-4.21V526.73a2.2,2.2,0,0,1,.143-.845,1.289,1.289,0,0,1,.53-.587l1.962-1.5a.417.417,0,0,0,.122-.114.253.253,0,0,0,.022-.115V522.2q0-.185-.2-.185h-2.535l.358-1.934h3.151a1.221,1.221,0,0,1,.866.329,1.236,1.236,0,0,1,.351.944v2.65Z" transform="translate(-113.753 -439.124)" fill="#3b3f4f"/>
          <path id="Trazado_1263709" data-name="Trazado 1263709" d="M170.882,521.517a1.533,1.533,0,0,1,.344-1.023,1.309,1.309,0,0,1,1.06-.409h2.549a1.31,1.31,0,0,1,1.06.409,1.534,1.534,0,0,1,.344,1.023v7.519a1.539,1.539,0,0,1-.344,1.025,1.309,1.309,0,0,1-1.06.407h-2.549a1.308,1.308,0,0,1-1.06-.407,1.538,1.538,0,0,1-.344-1.025Zm2.277.387q-.186,0-.186.2v6.33a.291.291,0,0,0,.035.164c.024.034.079.051.165.051h.759c.086,0,.141-.017.165-.051a.29.29,0,0,0,.036-.164V522.1c0-.134-.062-.2-.186-.2Z" transform="translate(-144.281 -439.124)" fill="#3b3f4f"/>
          <path id="Trazado_1263710" data-name="Trazado 1263710" d="M120.179,471.615h-.757v1.133a.667.667,0,1,1-.456,0v-1.133h-4.117v1.133a.667.667,0,1,1-.457,0v-1.133h-4.117v1.133a.668.668,0,1,1-.457,0v-1.133H105.7v1.133a.667.667,0,1,1-.456,0v-1.133h-4.117v1.133a.667.667,0,1,1-.456,0v-1.133h-.788a.913.913,0,0,0-.91.91v4.186h22.115v-4.186a.912.912,0,0,0-.91-.91" transform="translate(-83.567 -398.199)" fill="#ed5d5d"/>
        </g>
      </g>
    </g>
  </g>
</svg>
