<svg xmlns="http://www.w3.org/2000/svg" xmlns:xlink="http://www.w3.org/1999/xlink" width="261" height="145" viewBox="0 0 261 145">
  <defs>
    <clipPath id="clip-path">
      <rect id="Rectángulo_456128" data-name="Rectángulo 456128" width="147.396" height="131.277" fill="none"/>
    </clipPath>
    <clipPath id="clip-path-2">
      <rect id="Rectángulo_456127" data-name="Rectángulo 456127" width="147.397" height="131.277" fill="none"/>
    </clipPath>
    <clipPath id="clip-path-3">
      <rect id="Rectángulo_456084" data-name="Rectángulo 456084" width="12.041" height="16.464" fill="none"/>
    </clipPath>
    <clipPath id="clip-path-4">
      <rect id="Rectángulo_456091" data-name="Rectángulo 456091" width="19.813" height="3.089" fill="none"/>
    </clipPath>
    <clipPath id="clip-path-5">
      <rect id="Rectángulo_456125" data-name="Rectángulo 456125" width="8.648" height="6.336" fill="none"/>
    </clipPath>
    <clipPath id="clip-path-6">
      <rect id="Rectángulo_456126" data-name="Rectángulo 456126" width="4.324" height="6.336" fill="none"/>
    </clipPath>
  </defs>
  <g id="Grupo_1205043" data-name="Grupo 1205043" transform="translate(-320.627 -5963.382)">
    <rect id="Rectángulo_454804" data-name="Rectángulo 454804" width="261" height="145" rx="25" transform="translate(320.627 5963.382)" fill="#e3e8c0"/>
    <g id="Grupo_1204958" data-name="Grupo 1204958" transform="translate(374 5974.39)" clip-path="url(#clip-path)">
      <g id="Grupo_1204957" data-name="Grupo 1204957">
        <g id="Grupo_1204956" data-name="Grupo 1204956" clip-path="url(#clip-path-2)">
          <path id="Rectángulo_456042" data-name="Rectángulo 456042" d="M7.328,0H43.985a7.328,7.328,0,0,1,7.328,7.328v5.091a7.331,7.331,0,0,1-7.331,7.331H7.331A7.331,7.331,0,0,1,0,12.419V7.328A7.328,7.328,0,0,1,7.328,0Z" transform="translate(24.333 89.95)" fill="#f1f2f2"/>
          <rect id="Rectángulo_456043" data-name="Rectángulo 456043" width="48.661" height="16.773" transform="translate(25.659 91.439)" fill="#d1d3d4"/>
          <rect id="Rectángulo_456044" data-name="Rectángulo 456044" width="2.685" height="2.685" transform="translate(26.337 92.117)" fill="#fff"/>
          <rect id="Rectángulo_456045" data-name="Rectángulo 456045" width="2.685" height="2.685" transform="translate(30.793 92.117)" fill="#fff"/>
          <rect id="Rectángulo_456046" data-name="Rectángulo 456046" width="2.685" height="2.685" transform="translate(35.248 92.117)" fill="#fff"/>
          <rect id="Rectángulo_456047" data-name="Rectángulo 456047" width="2.684" height="2.685" transform="translate(39.703 92.117)" fill="#fff"/>
          <rect id="Rectángulo_456048" data-name="Rectángulo 456048" width="2.685" height="2.685" transform="translate(44.157 92.117)" fill="#fff"/>
          <rect id="Rectángulo_456049" data-name="Rectángulo 456049" width="2.685" height="2.685" transform="translate(48.613 92.117)" fill="#fff"/>
          <rect id="Rectángulo_456050" data-name="Rectángulo 456050" width="2.685" height="2.685" transform="translate(53.068 92.117)" fill="#fff"/>
          <rect id="Rectángulo_456051" data-name="Rectángulo 456051" width="2.685" height="2.685" transform="translate(57.522 92.117)" fill="#fff"/>
          <rect id="Rectángulo_456052" data-name="Rectángulo 456052" width="2.684" height="2.685" transform="translate(61.978 92.117)" fill="#fff"/>
          <rect id="Rectángulo_456053" data-name="Rectángulo 456053" width="2.685" height="2.685" transform="translate(66.433 92.117)" fill="#fff"/>
          <rect id="Rectángulo_456054" data-name="Rectángulo 456054" width="2.685" height="2.685" transform="translate(70.888 92.117)" fill="#fff"/>
          <rect id="Rectángulo_456055" data-name="Rectángulo 456055" width="2.685" height="2.685" transform="translate(26.349 96.36)" fill="#fff"/>
          <rect id="Rectángulo_456056" data-name="Rectángulo 456056" width="2.685" height="2.685" transform="translate(30.804 96.36)" fill="#fff"/>
          <rect id="Rectángulo_456057" data-name="Rectángulo 456057" width="2.685" height="2.685" transform="translate(35.259 96.36)" fill="#fff"/>
          <rect id="Rectángulo_456058" data-name="Rectángulo 456058" width="2.685" height="2.685" transform="translate(39.714 96.36)" fill="#fff"/>
          <rect id="Rectángulo_456059" data-name="Rectángulo 456059" width="2.685" height="2.685" transform="translate(44.169 96.36)" fill="#fff"/>
          <rect id="Rectángulo_456060" data-name="Rectángulo 456060" width="2.685" height="2.685" transform="translate(48.624 96.36)" fill="#fff"/>
          <rect id="Rectángulo_456061" data-name="Rectángulo 456061" width="2.684" height="2.685" transform="translate(53.079 96.36)" fill="#fff"/>
          <rect id="Rectángulo_456062" data-name="Rectángulo 456062" width="2.685" height="2.685" transform="translate(57.534 96.36)" fill="#fff"/>
          <rect id="Rectángulo_456063" data-name="Rectángulo 456063" width="2.685" height="2.685" transform="translate(61.989 96.36)" fill="#fff"/>
          <rect id="Rectángulo_456064" data-name="Rectángulo 456064" width="2.685" height="2.685" transform="translate(66.444 96.36)" fill="#fff"/>
          <rect id="Rectángulo_456065" data-name="Rectángulo 456065" width="2.685" height="2.685" transform="translate(70.899 96.36)" fill="#fff"/>
          <rect id="Rectángulo_456066" data-name="Rectángulo 456066" width="2.685" height="2.685" transform="translate(26.36 100.603)" fill="#fff"/>
          <rect id="Rectángulo_456067" data-name="Rectángulo 456067" width="2.684" height="2.685" transform="translate(30.815 100.603)" fill="#fff"/>
          <rect id="Rectángulo_456068" data-name="Rectángulo 456068" width="2.685" height="2.685" transform="translate(35.27 100.603)" fill="#fff"/>
          <rect id="Rectángulo_456069" data-name="Rectángulo 456069" width="2.685" height="2.685" transform="translate(39.725 100.603)" fill="#fff"/>
          <rect id="Rectángulo_456070" data-name="Rectángulo 456070" width="2.685" height="2.685" transform="translate(44.181 100.603)" fill="#fff"/>
          <rect id="Rectángulo_456071" data-name="Rectángulo 456071" width="2.685" height="2.685" transform="translate(48.635 100.603)" fill="#fff"/>
          <rect id="Rectángulo_456072" data-name="Rectángulo 456072" width="2.684" height="2.685" transform="translate(53.091 100.603)" fill="#fff"/>
          <rect id="Rectángulo_456073" data-name="Rectángulo 456073" width="2.685" height="2.685" transform="translate(57.545 100.603)" fill="#fff"/>
          <rect id="Rectángulo_456074" data-name="Rectángulo 456074" width="2.684" height="2.685" transform="translate(66.456 100.603)" fill="#fff"/>
          <rect id="Rectángulo_456075" data-name="Rectángulo 456075" width="2.685" height="2.685" transform="translate(26.371 104.846)" fill="#fff"/>
          <rect id="Rectángulo_456076" data-name="Rectángulo 456076" width="2.684" height="2.685" transform="translate(30.827 104.846)" fill="#fff"/>
          <path id="Trazado_1263661" data-name="Trazado 1263661" d="M273.4,772.735l-.034.049v-.049H260.033v2.685h16.05v-2.685Z" transform="translate(-224.751 -667.889)" fill="#fff"/>
          <rect id="Rectángulo_456077" data-name="Rectángulo 456077" width="2.685" height="2.685" transform="translate(53.102 104.846)" fill="#fff"/>
          <rect id="Rectángulo_456078" data-name="Rectángulo 456078" width="2.685" height="2.685" transform="translate(57.557 104.846)" fill="#fff"/>
          <rect id="Rectángulo_456079" data-name="Rectángulo 456079" width="2.685" height="2.685" transform="translate(62.012 104.846)" fill="#fff"/>
          <rect id="Rectángulo_456080" data-name="Rectángulo 456080" width="2.684" height="2.685" transform="translate(66.467 104.846)" fill="#fff"/>
          <rect id="Rectángulo_456081" data-name="Rectángulo 456081" width="2.685" height="2.685" transform="translate(70.922 104.846)" fill="#fff"/>
          <rect id="Rectángulo_456082" data-name="Rectángulo 456082" width="7.758" height="3.698" transform="translate(58.259 127.579)" fill="#07162c"/>
          <path id="Trazado_1263662" data-name="Trazado 1263662" d="M414.892,779.333a.95.95,0,1,0-1.9,0h0v2.585h-.942v-4.145h0a.95.95,0,1,0-1.9,0h0v4.145h-.942v-5.593h0a.95.95,0,0,0-1.9,0h0v5.593h-.925v-8.21h0c0-.008,0-.016,0-.024a.95.95,0,1,0-1.9,0c0,.008,0,.016,0,.024h0v13.257l-1.349-.625v-2.517c2.236-1.933.546-3.123.546-3.123l-2.657,2.06v7.488l3.848,5.218h7.757l2.27-4.934v-11.2Z" transform="translate(-346.606 -667.888)" fill="#ffe373"/>
          <rect id="Rectángulo_456083" data-name="Rectángulo 456083" width="7.758" height="3.697" transform="translate(33.287 119.551)" fill="#07162c"/>
          <path id="Trazado_1263663" data-name="Trazado 1263663" d="M228.6,720.164a.95.95,0,0,1,1.9,0h0v2.585h.943V718.6h0a.95.95,0,1,1,1.9,0h0v4.145h.942v-5.592h0a.95.95,0,1,1,1.9,0h0v5.592h.925v-8.21h0c0-.008,0-.016,0-.023a.95.95,0,0,1,1.9,0c0,.008,0,.015,0,.023h0V727.8l1.349-.625v-2.516c-2.236-1.933-.546-3.124-.546-3.124l2.657,2.061v7.488l-3.849,5.219h-7.758l-2.27-4.935v-11.2Z" transform="translate(-197.582 -616.747)" fill="#ffe373"/>
          <path id="Trazado_1263664" data-name="Trazado 1263664" d="M951.083,226.8l1.088-1.088-2.8-2.8-1.193,1.193a8.824,8.824,0,0,0-2.467-.969v-1.686h-3.963v1.686a8.841,8.841,0,0,0-2.952,1.268l-1.165-1.165-2.8,2.8,1.239,1.24a8.856,8.856,0,0,0-1.015,2.549h-1.686v3.962h1.686a8.862,8.862,0,0,0,1.047,2.6l-1.513,1.513,2.8,2.8,1.459-1.459a8.857,8.857,0,0,0,2.9,1.235v1.685h3.963v-1.685a8.867,8.867,0,0,0,2.6-1.046l1.27,1.27,2.8-2.8-1.215-1.215a8.855,8.855,0,0,0,1.237-2.9h1.718v-3.962H952.4a8.847,8.847,0,0,0-1.321-3.029m-7.339,11.441a6.431,6.431,0,1,1,6.431-6.432,6.431,6.431,0,0,1-6.431,6.432" transform="translate(-806.725 -191.404)" fill="#0f142b"/>
          <path id="Trazado_1263665" data-name="Trazado 1263665" d="M980.056,263.344a4.677,4.677,0,1,0,4.677,4.677,4.678,4.678,0,0,0-4.677-4.677" transform="translate(-843.037 -227.613)" fill="#0f142b"/>
          <path id="Trazado_1263666" data-name="Trazado 1263666" d="M929.309,374.3l.579-.579-1.49-1.49-.635.635a4.7,4.7,0,0,0-1.312-.515v-.9h-2.108v.9a4.7,4.7,0,0,0-1.57.674l-.62-.619-1.491,1.49.66.659a4.7,4.7,0,0,0-.541,1.355h-.9v2.108h.9a4.7,4.7,0,0,0,.557,1.384l-.8.8,1.49,1.49.776-.776a4.71,4.71,0,0,0,1.542.657v.9h2.108v-.9a4.707,4.707,0,0,0,1.383-.557l.675.675,1.491-1.49-.647-.646a4.693,4.693,0,0,0,.657-1.543h.914V375.91h-.914a4.7,4.7,0,0,0-.7-1.611m-3.9,6.085a3.42,3.42,0,1,1,3.42-3.42,3.42,3.42,0,0,1-3.42,3.42" transform="translate(-795.074 -321.054)" fill="#0f142b"/>
          <path id="Trazado_1263667" data-name="Trazado 1263667" d="M944.719,393.734a2.487,2.487,0,1,0,2.487,2.487,2.487,2.487,0,0,0-2.487-2.487" transform="translate(-814.388 -340.312)" fill="#0f142b"/>
          <path id="Trazado_1263668" data-name="Trazado 1263668" d="M1025.963,384.359l.34-.34-.875-.875-.373.373a2.757,2.757,0,0,0-.771-.3v-.526h-1.238v.526a2.764,2.764,0,0,0-.922.4l-.364-.364-.875.875.388.387a2.754,2.754,0,0,0-.318.8h-.527v1.238h.527a2.738,2.738,0,0,0,.327.814l-.473.473.875.875.456-.456a2.773,2.773,0,0,0,.906.386v.526h1.238v-.526a2.768,2.768,0,0,0,.813-.327l.4.4.875-.875-.379-.379a2.763,2.763,0,0,0,.386-.907h.537v-1.238h-.537a2.763,2.763,0,0,0-.412-.947m-2.293,3.574a2.009,2.009,0,1,1,2.01-2.009,2.009,2.009,0,0,1-2.01,2.009" transform="translate(-881.975 -330.763)" fill="#0f142b"/>
          <path id="Trazado_1263669" data-name="Trazado 1263669" d="M1035.015,395.775a1.461,1.461,0,1,0,1.462,1.461,1.461,1.461,0,0,0-1.462-1.461" transform="translate(-893.32 -342.076)" fill="#0f142b"/>
          <path id="Trazado_1263670" data-name="Trazado 1263670" d="M977.609,1.223A4.96,4.96,0,0,0,973.979,0V0l-.05,0-.05,0V0a4.889,4.889,0,0,0-3.6,1.219,2.561,2.561,0,0,0-.714,1.751v9.588h1.8v-9.6l0-.059a.861.861,0,0,1,.23-.451,3.34,3.34,0,0,1,2.349-.65c1.99.007,2.554.694,2.577,1.113v9.644h1.8V2.974a2.564,2.564,0,0,0-.714-1.751" transform="translate(-838.01 -0.001)" fill="#0f142b"/>
          <path id="Trazado_1263671" data-name="Trazado 1263671" d="M950.675,50.692a8.375,8.375,0,1,0,6.2,8.09,8.394,8.394,0,0,0-6.2-8.09m-2.17,5.19a2.048,2.048,0,0,1,.768,3.946v2.786h-1.536V59.828a2.048,2.048,0,0,1,.768-3.946" transform="translate(-812.572 -43.568)" fill="#ffc54e"/>
          <g id="Grupo_1204946" data-name="Grupo 1204946" transform="translate(132.266 7.124)" opacity="0.1" style="isolation: isolate">
            <g id="Grupo_1204945" data-name="Grupo 1204945">
              <g id="Grupo_1204944" data-name="Grupo 1204944" clip-path="url(#clip-path-3)">
                <path id="Trazado_1263672" data-name="Trazado 1263672" d="M980.664,52.507a8.376,8.376,0,0,1-5.837,15.621,8.376,8.376,0,1,0,5.837-15.621" transform="translate(-974.827 -52.507)" fill="#231f20"/>
              </g>
            </g>
          </g>
          <path id="Rectángulo_456085" data-name="Rectángulo 456085" d="M16,0H34.09a16,16,0,0,1,16,16v2.994a16,16,0,0,1-16,16H16a16,16,0,0,1-16-16V16A16,16,0,0,1,16,0Z" transform="translate(91.689 75.963)" fill="#fff"/>
          <path id="Trazado_1263673" data-name="Trazado 1263673" d="M723.683,559.86H677.936a2.177,2.177,0,0,0-2.171,2.171v2.524h50.09v-2.524a2.178,2.178,0,0,0-2.171-2.171" transform="translate(-584.076 -483.897)" fill="#d1d3d4"/>
          <path id="Trazado_1263674" data-name="Trazado 1263674" d="M766.914,672.928v-2l7.825-4.2v2.616l-5.407,2.571,5.407,2.594v2.616Z" transform="translate(-662.858 -576.266)" fill="#aadfed"/>
          <path id="Trazado_1263675" data-name="Trazado 1263675" d="M840.592,645.346l-4.814,16.2h-2.286l4.792-16.2Z" transform="translate(-720.403 -557.784)" fill="#aadfed"/>
          <path id="Trazado_1263676" data-name="Trazado 1263676" d="M894.727,677.125V674.51l5.407-2.594-5.407-2.571v-2.616l7.825,4.2v2Z" transform="translate(-773.329 -576.265)" fill="#aadfed"/>
          <path id="Trazado_1263677" data-name="Trazado 1263677" d="M942.048,568.342a1.411,1.411,0,1,1-1.411-1.411,1.411,1.411,0,0,1,1.411,1.411" transform="translate(-811.79 -490.009)" fill="#faf071"/>
          <path id="Trazado_1263678" data-name="Trazado 1263678" d="M971.381,568.342a1.411,1.411,0,1,1-1.411-1.411,1.411,1.411,0,0,1,1.411,1.411" transform="translate(-837.143 -490.009)" fill="#ee1e3b"/>
          <path id="Trazado_1263679" data-name="Trazado 1263679" d="M1002.048,568.342a1.411,1.411,0,1,1-1.411-1.411,1.411,1.411,0,0,1,1.411,1.411" transform="translate(-863.65 -490.009)" fill="#4993cf"/>
          <rect id="Rectángulo_456086" data-name="Rectángulo 456086" width="19.813" height="12.81" transform="translate(63.43 70.645)" fill="#d1d3d4"/>
          <path id="Rectángulo_456087" data-name="Rectángulo 456087" d="M18.909,0H79.1A18.909,18.909,0,0,1,98.007,18.909V54.184A18.91,18.91,0,0,1,79.1,73.094H18.91A18.91,18.91,0,0,1,0,54.184V18.909A18.909,18.909,0,0,1,18.909,0Z" transform="translate(24.333 0)" fill="#d1d3d4"/>
          <path id="Trazado_1263680" data-name="Trazado 1263680" d="M274.78,0H181.9a2.574,2.574,0,0,0-2.566,2.566V60.482l98.007-.144V2.566A2.573,2.573,0,0,0,274.78,0" transform="translate(-155.006)" fill="#0f142b"/>
          <rect id="Rectángulo_456088" data-name="Rectángulo 456088" width="91.549" height="53.353" transform="translate(27.562 3.37)" fill="#e6e7e8"/>
          <rect id="Rectángulo_456089" data-name="Rectángulo 456089" width="27.749" height="4.738" transform="translate(59.462 82.219)" fill="#d1d3d4"/>
          <g id="Grupo_1204949" data-name="Grupo 1204949" transform="translate(63.43 73.362)" opacity="0.1" style="isolation: isolate">
            <g id="Grupo_1204948" data-name="Grupo 1204948">
              <g id="Grupo_1204947" data-name="Grupo 1204947" clip-path="url(#clip-path-4)">
                <rect id="Rectángulo_456090" data-name="Rectángulo 456090" width="19.813" height="3.089"/>
              </g>
            </g>
          </g>
          <rect id="Rectángulo_456092" data-name="Rectángulo 456092" width="91.549" height="5.972" transform="translate(27.562 3.37)" fill="#fff"/>
          <path id="Trazado_1263681" data-name="Trazado 1263681" d="M784.918,37.566a1.411,1.411,0,1,1,1.042,1.7,1.411,1.411,0,0,1-1.042-1.7" transform="translate(-678.385 -31.535)" fill="#e6e7e8"/>
          <path id="Trazado_1263682" data-name="Trazado 1263682" d="M817.158,37.86a1.411,1.411,0,1,1-1.411-1.411,1.411,1.411,0,0,1,1.411,1.411" transform="translate(-703.845 -31.504)" fill="#e6e7e8"/>
          <path id="Trazado_1263683" data-name="Trazado 1263683" d="M844.917,37.567a1.411,1.411,0,1,1,1.042,1.7,1.411,1.411,0,0,1-1.042-1.7" transform="translate(-730.243 -31.535)" fill="#e6e7e8"/>
          <path id="Trazado_1263684" data-name="Trazado 1263684" d="M433.379,153.371a.153.153,0,0,0,0-.037Z" transform="translate(-374.577 -132.529)" fill="#716558"/>
          <rect id="Rectángulo_456093" data-name="Rectángulo 456093" width="0.001" height="1.144" transform="translate(63.841 31.07) rotate(-80.727)" fill="#9a8379"/>
          <rect id="Rectángulo_456094" data-name="Rectángulo 456094" width="8.683" height="2.652" transform="translate(40.942 12.562)" fill="#69c8f2"/>
          <rect id="Rectángulo_456095" data-name="Rectángulo 456095" width="8.684" height="2.652" transform="translate(54.46 18.914)" fill="#69c8f2"/>
          <rect id="Rectángulo_456096" data-name="Rectángulo 456096" width="8.683" height="2.652" transform="translate(40.942 18.914)" fill="#ef3a50"/>
          <rect id="Rectángulo_456097" data-name="Rectángulo 456097" width="8.683" height="2.652" transform="translate(40.942 25.267)" fill="#69c8f2"/>
          <rect id="Rectángulo_456098" data-name="Rectángulo 456098" width="21.936" height="2.652" transform="translate(54.464 25.267)" fill="#7ac9ac"/>
          <rect id="Rectángulo_456099" data-name="Rectángulo 456099" width="21.936" height="2.652" transform="translate(67.634 31.619)" fill="#7ac9ac"/>
          <rect id="Rectángulo_456100" data-name="Rectángulo 456100" width="7.193" height="2.652" transform="translate(52.853 12.562)" fill="#7ac9ac"/>
          <rect id="Rectángulo_456101" data-name="Rectángulo 456101" width="21.936" height="2.652" transform="translate(58.671 37.972)" fill="#7ac9ac"/>
          <rect id="Rectángulo_456102" data-name="Rectángulo 456102" width="21.936" height="2.652" transform="translate(53.978 44.324)" fill="#ef3a50"/>
          <rect id="Rectángulo_456103" data-name="Rectángulo 456103" width="10.968" height="2.652" transform="translate(80.614 43.759)" fill="#ef3a50"/>
          <rect id="Rectángulo_456104" data-name="Rectángulo 456104" width="10.968" height="2.652" transform="translate(93.133 43.759)" fill="#ef3a50"/>
          <rect id="Rectángulo_456105" data-name="Rectángulo 456105" width="21.936" height="2.653" transform="translate(80.614 50.77)" fill="#7ac9ac"/>
          <rect id="Rectángulo_456106" data-name="Rectángulo 456106" width="22.201" height="2.652" transform="translate(40.942 31.619)" fill="#ef3a50"/>
          <rect id="Rectángulo_456107" data-name="Rectángulo 456107" width="13.522" height="2.652" transform="translate(40.942 37.972)" fill="#69c8f2"/>
          <rect id="Rectángulo_456108" data-name="Rectángulo 456108" width="8.683" height="2.652" transform="translate(40.942 44.324)" fill="#7ac9ac"/>
          <rect id="Rectángulo_456109" data-name="Rectángulo 456109" width="35.458" height="2.652" transform="translate(40.942 50.677)" fill="#69c8f2"/>
          <path id="Rectángulo_456110" data-name="Rectángulo 456110" d="M14.655,0H42.627A14.658,14.658,0,0,1,57.285,14.658v13.51A14.658,14.658,0,0,1,42.627,42.826H14.658A14.658,14.658,0,0,1,0,28.168V14.655A14.655,14.655,0,0,1,14.655,0Z" transform="translate(5.199 44.131)" fill="#0f142b"/>
          <rect id="Rectángulo_456111" data-name="Rectángulo 456111" width="51.083" height="33.393" transform="translate(8.3 46.926)" fill="#fff"/>
          <path id="Trazado_1263685" data-name="Trazado 1263685" d="M66.319,612.087H40.564v.864H27.12v-.864H0v2.543a1.369,1.369,0,0,0,1.365,1.365H66.319a1.369,1.369,0,0,0,1.365-1.365v-2.543Z" transform="translate(0 -529.038)" fill="#f58120"/>
          <rect id="Rectángulo_456112" data-name="Rectángulo 456112" width="8.25" height="3.256" transform="translate(13.149 51.846)" fill="#2bb673"/>
          <rect id="Rectángulo_456113" data-name="Rectángulo 456113" width="8.25" height="6.855" transform="translate(13.149 59.806)" fill="#2bb673"/>
          <rect id="Rectángulo_456114" data-name="Rectángulo 456114" width="8.25" height="6.855" transform="translate(40.363 59.806)" fill="#2bb673"/>
          <rect id="Rectángulo_456115" data-name="Rectángulo 456115" width="8.249" height="3.256" transform="translate(23.59 51.846)" fill="#2bb673"/>
          <rect id="Rectángulo_456116" data-name="Rectángulo 456116" width="8.249" height="3.256" transform="translate(23.59 59.806)" fill="#2bb673"/>
          <rect id="Rectángulo_456117" data-name="Rectángulo 456117" width="8.25" height="3.256" transform="translate(40.757 71.365)" fill="#2bb673"/>
          <rect id="Rectángulo_456118" data-name="Rectángulo 456118" width="19.259" height="3.256" transform="translate(36.198 51.846)" fill="#2bb673"/>
          <rect id="Rectángulo_456119" data-name="Rectángulo 456119" width="0.786" height="4.704" transform="translate(44.095 55.102)" fill="#2bb673"/>
          <rect id="Rectángulo_456120" data-name="Rectángulo 456120" width="0.787" height="4.704" transform="translate(44.488 66.661)" fill="#2bb673"/>
          <rect id="Rectángulo_456121" data-name="Rectángulo 456121" width="0.787" height="4.704" transform="translate(16.881 55.102)" fill="#2bb673"/>
          <rect id="Rectángulo_456122" data-name="Rectángulo 456122" width="0.786" height="4.704" transform="translate(27.321 55.102)" fill="#2bb673"/>
          <rect id="Rectángulo_456123" data-name="Rectángulo 456123" width="4.704" height="0.787" transform="translate(31.653 53.081)" fill="#2bb673"/>
          <rect id="Rectángulo_456124" data-name="Rectángulo 456124" width="4.703" height="0.787" transform="translate(20.093 61.434)" fill="#2bb673"/>
          <path id="Trazado_1263686" data-name="Trazado 1263686" d="M588.659,666.729h-3.9a2.383,2.383,0,0,0-2.376,2.376v10.549a2.383,2.383,0,0,0,2.376,2.376h3.9a2.382,2.382,0,0,0,2.376-2.376V669.105a2.383,2.383,0,0,0-2.376-2.376" transform="translate(-503.367 -576.266)" fill="#d1d3d4"/>
          <g id="Grupo_1204952" data-name="Grupo 1204952" transform="translate(79.019 90.463)" opacity="0.1" style="isolation: isolate">
            <g id="Grupo_1204951" data-name="Grupo 1204951">
              <g id="Grupo_1204950" data-name="Grupo 1204950" clip-path="url(#clip-path-5)">
                <path id="Trazado_1263687" data-name="Trazado 1263687" d="M588.659,666.729h-3.9a2.383,2.383,0,0,0-2.376,2.376v3.96h8.648v-3.96a2.383,2.383,0,0,0-2.376-2.376" transform="translate(-582.386 -666.729)" fill="#231f20"/>
              </g>
            </g>
          </g>
          <path id="Trazado_1263688" data-name="Trazado 1263688" d="M612.024,691.933a.419.419,0,1,1-.832,0v-1.378a.42.42,0,1,1,.832,0Z" transform="translate(-528.265 -596.448)" fill="#fff"/>
          <g id="Grupo_1204955" data-name="Grupo 1204955" transform="translate(83.344 90.463)" opacity="0.2" style="isolation: isolate">
            <g id="Grupo_1204954" data-name="Grupo 1204954">
              <g id="Grupo_1204953" data-name="Grupo 1204953" clip-path="url(#clip-path-6)">
                <path id="Trazado_1263689" data-name="Trazado 1263689" d="M618.582,673.065v-3.96a2.383,2.383,0,0,0-2.376-2.376h-1.948v6.336Z" transform="translate(-614.258 -666.729)" fill="#231f20"/>
              </g>
            </g>
          </g>
        </g>
      </g>
    </g>
  </g>
</svg>
