<svg xmlns="http://www.w3.org/2000/svg" width="84" height="84" viewBox="0 0 84 84">
  <g id="Grupo_1205039" data-name="Grupo 1205039" transform="translate(-704.629 -342.816)">
    <circle id="Elipse_13698" data-name="Elipse 13698" cx="42" cy="42" r="42" transform="translate(704.629 342.816)" fill="#a6f6af"/>
    <path id="code-file-svgrepo-com_1_" data-name="code-file-svgrepo-com (1)" d="M16.236,1.616A2.1,2.1,0,0,1,17.723,1H34.549a6.31,6.31,0,0,1,6.31,6.31V17.826a2.1,2.1,0,0,1-4.207,0V7.31a2.1,2.1,0,0,0-2.1-2.1H19.826V15.723a2.1,2.1,0,0,1-2.1,2.1H7.207V40.962a2.1,2.1,0,0,0,2.1,2.1h6.31a2.1,2.1,0,1,1,0,4.207H9.31A6.31,6.31,0,0,1,3,40.962V15.723a2.1,2.1,0,0,1,.616-1.487Zm-6.055,12H15.62V8.181ZM36.036,24.752l8.413,8.413a2.1,2.1,0,0,1,0,2.974l-8.413,8.413a2.1,2.1,0,0,1-2.974-2.974l6.926-6.926-6.926-6.926a2.1,2.1,0,1,1,2.974-2.974Zm-8.413,2.974a2.1,2.1,0,0,0-2.974-2.974l-8.413,8.413a2.1,2.1,0,0,0,0,2.974l8.413,8.413a2.1,2.1,0,0,0,2.974-2.974L20.7,34.652Z" transform="translate(722.598 359.949)" fill="#0f5f6b" fill-rule="evenodd"/>
  </g>
</svg>
