<svg id="software-svgrepo-com" xmlns="http://www.w3.org/2000/svg" width="110.333" height="110.333" viewBox="0 0 110.333 110.333">
  <g id="Grupo_1204242" data-name="Grupo 1204242">
    <path id="Trazado_1261782" data-name="Trazado 1261782" d="M108.494,0H1.839A1.737,1.737,0,0,0,0,1.839V86.428a1.737,1.737,0,0,0,1.839,1.839H9.194v20.228a1.737,1.737,0,0,0,1.839,1.839H99.3a1.737,1.737,0,0,0,1.839-1.839V88.266h7.356a1.737,1.737,0,0,0,1.839-1.839V1.839A1.737,1.737,0,0,0,108.494,0Zm-1.839,3.678V14.711H3.678V3.678ZM97.461,44.133H12.872V33.1H97.461ZM12.872,106.655V47.811H97.461v58.844Zm88.266-22.067V31.261A1.737,1.737,0,0,0,99.3,29.422H11.033a1.737,1.737,0,0,0-1.839,1.839V84.589H3.678v-66.2H106.655v66.2Z" fill="#f7f7d7"/>
    <rect id="Rectángulo_455245" data-name="Rectángulo 455245" width="7" height="4" transform="translate(7.333 7)" fill="#f7f7d7"/>
    <rect id="Rectángulo_455246" data-name="Rectángulo 455246" width="7" height="4" transform="translate(18.333 7)" fill="#f7f7d7"/>
    <rect id="Rectángulo_455247" data-name="Rectángulo 455247" width="8" height="3" transform="translate(16.333 37)" fill="#f7f7d7"/>
    <rect id="Rectángulo_455248" data-name="Rectángulo 455248" width="8" height="3" transform="translate(27.333 37)" fill="#f7f7d7"/>
    <rect id="Rectángulo_455249" data-name="Rectángulo 455249" width="4" height="4" transform="translate(99.333 7)" fill="#f7f7d7"/>
    <rect id="Rectángulo_455250" data-name="Rectángulo 455250" width="3" height="4" transform="translate(92.333 7)" fill="#f7f7d7"/>
    <rect id="Rectángulo_455251" data-name="Rectángulo 455251" width="3" height="3" transform="translate(90.333 37)" fill="#f7f7d7"/>
    <rect id="Rectángulo_455252" data-name="Rectángulo 455252" width="4" height="3" transform="translate(82.333 37)" fill="#f7f7d7"/>
    <path id="Trazado_1261783" data-name="Trazado 1261783" d="M11.839,62.1H41.261A1.737,1.737,0,0,0,43.1,60.261V30.839A1.737,1.737,0,0,0,41.261,29H11.839A1.737,1.737,0,0,0,10,30.839V60.261A1.737,1.737,0,0,0,11.839,62.1Zm1.839-14.711H24.711V58.422H13.678ZM28.389,58.422V47.389H39.422V58.422ZM39.422,43.711H28.389V32.678H39.422ZM24.711,32.678V43.711H13.678V32.678Z" transform="translate(8.389 24.328)" fill="#f7f7d7"/>
    <rect id="Rectángulo_455253" data-name="Rectángulo 455253" width="7" height="4" transform="translate(57.333 53)" fill="#f7f7d7"/>
    <rect id="Rectángulo_455254" data-name="Rectángulo 455254" width="3" height="3" transform="translate(57.333 61)" fill="#f7f7d7"/>
    <rect id="Rectángulo_455255" data-name="Rectángulo 455255" width="4" height="3" transform="translate(64.333 61)" fill="#f7f7d7"/>
    <rect id="Rectángulo_455256" data-name="Rectángulo 455256" width="4" height="3" transform="translate(71.333 61)" fill="#f7f7d7"/>
    <rect id="Rectángulo_455257" data-name="Rectángulo 455257" width="3" height="3" transform="translate(79.333 61)" fill="#f7f7d7"/>
    <rect id="Rectángulo_455258" data-name="Rectángulo 455258" width="4" height="3" transform="translate(86.333 61)" fill="#f7f7d7"/>
    <rect id="Rectángulo_455259" data-name="Rectángulo 455259" width="7" height="4" transform="translate(70.333 53)" fill="#f7f7d7"/>
    <rect id="Rectángulo_455260" data-name="Rectángulo 455260" width="8" height="4" transform="translate(82.333 53)" fill="#f7f7d7"/>
    <rect id="Rectángulo_455261" data-name="Rectángulo 455261" width="33" height="4" transform="translate(57.333 68)" fill="#f7f7d7"/>
    <rect id="Rectángulo_455262" data-name="Rectángulo 455262" width="33" height="4" transform="translate(57.333 75)" fill="#f7f7d7"/>
    <rect id="Rectángulo_455263" data-name="Rectángulo 455263" width="33" height="3" transform="translate(57.333 83)" fill="#f7f7d7"/>
    <rect id="Rectángulo_455264" data-name="Rectángulo 455264" width="4" height="3" transform="translate(18.333 94)" fill="#f7f7d7"/>
    <rect id="Rectángulo_455265" data-name="Rectángulo 455265" width="4" height="3" transform="translate(25.333 94)" fill="#f7f7d7"/>
    <rect id="Rectángulo_455266" data-name="Rectángulo 455266" width="3" height="3" transform="translate(33.333 94)" fill="#f7f7d7"/>
    <rect id="Rectángulo_455267" data-name="Rectángulo 455267" width="50" height="3" transform="translate(40.333 94)" fill="#f7f7d7"/>
  </g>
</svg>
