<svg id="Grupo_1204729" data-name="Grupo 1204729" xmlns="http://www.w3.org/2000/svg" xmlns:xlink="http://www.w3.org/1999/xlink" width="211.188" height="207.997" viewBox="0 0 211.188 207.997">
  <defs>
    <clipPath id="clip-path">
      <rect id="Rectángulo_455777" data-name="Rectángulo 455777" width="211.188" height="207.997" fill="none"/>
    </clipPath>
  </defs>
  <g id="Grupo_1204728" data-name="Grupo 1204728" clip-path="url(#clip-path)">
    <path id="Trazado_1263356" data-name="Trazado 1263356" d="M30.376,31.386l3.5-.212a.925.925,0,0,1,.355-.01,11.827,11.827,0,0,0,1.38,2.115.9.9,0,0,1-.056.8L34.3,37.348a.743.743,0,0,0,.247,1.015L37.567,40.2a.738.738,0,0,0,1.013-.25l2.326-2.622a.886.886,0,0,1,.245-.26,11.986,11.986,0,0,0,2.467.52.88.88,0,0,1,.525.6l1.429,3.2a.739.739,0,0,0,.893.541L49.9,41.09a.742.742,0,0,0,.543-.89l-.212-3.5a.823.823,0,0,1-.01-.352,11.827,11.827,0,0,0,2.115-1.38.875.875,0,0,1,.793.054L56.4,36.274a.735.735,0,0,0,1.013-.247l1.829-3.02A.737.737,0,0,0,59,31.988l-2.622-2.321a.9.9,0,0,1-.26-.25,11.509,11.509,0,0,0,.518-2.464.888.888,0,0,1,.607-.525L60.442,25a.738.738,0,0,0,.541-.893l-.842-3.431a.739.739,0,0,0-.893-.541l-3.5.212a.876.876,0,0,1-.355.008,11.806,11.806,0,0,0-1.38-2.112.88.88,0,0,1,.056-.8l1.253-3.273a.738.738,0,0,0-.247-1.015l-3.018-1.834a.741.741,0,0,0-1.018.25L48.718,14.2a.853.853,0,0,1-.247.258A11.936,11.936,0,0,0,46,13.935a.894.894,0,0,1-.523-.6l-1.426-3.2a.739.739,0,0,0-.893-.541l-3.431.837a.733.733,0,0,0-.541.893l.209,3.5a.924.924,0,0,1,.01.355,11.815,11.815,0,0,0-2.115,1.378.881.881,0,0,1-.8-.054l-3.273-1.255a.735.735,0,0,0-1.015.25l-1.832,3.018a.736.736,0,0,0,.247,1.015l2.625,2.324a.832.832,0,0,1,.258.25,11.633,11.633,0,0,0-.518,2.464.892.892,0,0,1-.6.523l-3.2,1.426a.74.74,0,0,0-.541.9l.839,3.428a.739.739,0,0,0,.9.543M43.605,20.828a5.078,5.078,0,1,1-3.724,6.138,5.074,5.074,0,0,1,3.724-6.138" transform="translate(44.387 14.842)" fill="#a6f6af"/>
    <path id="Trazado_1263357" data-name="Trazado 1263357" d="M37.709,17.167,40.461,17a.7.7,0,0,1,.281-.008,9.38,9.38,0,0,0,1.087,1.663.7.7,0,0,1-.046.625L40.8,21.858a.58.58,0,0,0,.194.8L43.369,24.1a.578.578,0,0,0,.8-.2L46,21.841a.707.707,0,0,1,.194-.2,9.337,9.337,0,0,0,1.944.408.7.7,0,0,1,.408.472l1.125,2.52a.582.582,0,0,0,.7.426l2.7-.661a.578.578,0,0,0,.426-.7l-.166-2.755a.641.641,0,0,1-.005-.278,9.359,9.359,0,0,0,1.661-1.087.7.7,0,0,1,.625.046l2.576.985a.58.58,0,0,0,.8-.2l1.439-2.375a.578.578,0,0,0-.194-.8l-2.066-1.826a.714.714,0,0,1-.2-.2,9.225,9.225,0,0,0,.411-1.941.688.688,0,0,1,.474-.411l2.52-1.125a.582.582,0,0,0,.426-.7l-.661-2.7a.585.585,0,0,0-.707-.426l-2.75.168a.73.73,0,0,1-.278.005,9.672,9.672,0,0,0-1.087-1.663.7.7,0,0,1,.043-.625l.987-2.576a.581.581,0,0,0-.2-.8L54.769,1.382a.581.581,0,0,0-.8.194L52.142,3.64a.645.645,0,0,1-.194.2,9.187,9.187,0,0,0-1.941-.408.7.7,0,0,1-.413-.474L48.474.443a.586.586,0,0,0-.707-.426l-2.7.658a.582.582,0,0,0-.426.7l.166,2.755a.684.684,0,0,1,.008.278A9.131,9.131,0,0,0,43.155,5.5a.7.7,0,0,1-.628-.046l-2.576-.985a.576.576,0,0,0-.8.194L37.709,7.04a.584.584,0,0,0,.2.8l2.066,1.826a.739.739,0,0,1,.2.2,9.556,9.556,0,0,0-.411,1.941.694.694,0,0,1-.474.411l-2.518,1.122a.582.582,0,0,0-.426.707l.663,2.7a.576.576,0,0,0,.7.429m10.41-8.308A4,4,0,1,1,45.19,13.69a4,4,0,0,1,2.928-4.831" transform="translate(56.345 0.001)" fill="#69d2cd"/>
    <rect id="Rectángulo_455729" data-name="Rectángulo 455729" width="77.12" height="5.556" transform="translate(134.068 142.833)" fill="#e0e0e0"/>
    <rect id="Rectángulo_455730" data-name="Rectángulo 455730" width="77.12" height="2.778" transform="translate(134.068 145.611)" fill="#fff"/>
    <rect id="Rectángulo_455731" data-name="Rectángulo 455731" width="77.12" height="5.556" transform="translate(134.068 137.277)" fill="#e0e0e0"/>
    <rect id="Rectángulo_455732" data-name="Rectángulo 455732" width="77.12" height="2.778" transform="translate(134.068 140.055)" fill="#fff"/>
    <rect id="Rectángulo_455733" data-name="Rectángulo 455733" width="34.009" height="3.987" transform="translate(39.907 158.095)" fill="#2d4375"/>
    <rect id="Rectángulo_455734" data-name="Rectángulo 455734" width="34.017" height="3.987" transform="translate(73.916 158.095)" fill="#1e2d4f"/>
    <rect id="Rectángulo_455735" data-name="Rectángulo 455735" width="34.009" height="3.987" transform="translate(39.907 158.095)" fill="#2d4375"/>
    <rect id="Rectángulo_455736" data-name="Rectángulo 455736" width="34.017" height="3.987" transform="translate(73.916 158.095)" fill="#1e2d4f"/>
    <rect id="Rectángulo_455737" data-name="Rectángulo 455737" width="23.828" height="22.522" transform="translate(73.919 135.573)" fill="#2d4375"/>
    <rect id="Rectángulo_455738" data-name="Rectángulo 455738" width="23.831" height="22.522" transform="translate(50.09 135.573)" fill="#1e2d4f"/>
    <path id="Trazado_1263358" data-name="Trazado 1263358" d="M96.245,17.834H28.976v98.479H96.245a6.66,6.66,0,0,0,6.645-6.643V24.482a6.66,6.66,0,0,0-6.645-6.648" transform="translate(44.94 27.66)" fill="#1e2d4f"/>
    <path id="Trazado_1263359" data-name="Trazado 1263359" d="M6.645,17.834A6.663,6.663,0,0,0,0,24.482v85.189a6.663,6.663,0,0,0,6.645,6.643H73.914V17.834Z" transform="translate(0 27.66)" fill="#2d4375"/>
    <path id="Trazado_1263360" data-name="Trazado 1263360" d="M6.078,20.607A3.986,3.986,0,0,0,2.093,24.6V95.9a4,4,0,0,0,3.985,3.995h64.59V20.607Z" transform="translate(3.246 31.96)" fill="#b9f0e8"/>
    <path id="Trazado_1263361" data-name="Trazado 1263361" d="M93.558,20.607H28.976V99.893H93.558A4.014,4.014,0,0,0,97.553,95.9V24.6a4,4,0,0,0-3.995-3.99" transform="translate(44.94 31.96)" fill="#69d2cd"/>
    <path id="Trazado_1263362" data-name="Trazado 1263362" d="M15.378,66.5a5.821,5.821,0,0,0-5.814,5.816V99.046a5.821,5.821,0,0,0,5.814,5.816H59.083V66.5Z" transform="translate(14.833 103.135)" fill="#1e2d4f"/>
    <path id="Trazado_1263363" data-name="Trazado 1263363" d="M72.68,66.5H28.975v38.364H72.68A5.823,5.823,0,0,0,78.5,99.046V72.314A5.823,5.823,0,0,0,72.68,66.5" transform="translate(44.939 103.135)" fill="#2d4375"/>
    <path id="Trazado_1263364" data-name="Trazado 1263364" d="M72.68,67.225H28.975v34.652H72.68a3.96,3.96,0,0,0,3.962-3.959V71.187a3.962,3.962,0,0,0-3.962-3.962" transform="translate(44.939 104.262)" fill="#1e2d4f"/>
    <path id="Trazado_1263365" data-name="Trazado 1263365" d="M14.25,67.225a3.96,3.96,0,0,0-3.959,3.962V97.918a3.958,3.958,0,0,0,3.959,3.959H57.955V67.225Z" transform="translate(15.961 104.262)" fill="#2d4375"/>
    <path id="Rectángulo_455739" data-name="Rectángulo 455739" d="M.173,0H6.864a.172.172,0,0,1,.172.172V6.864a.172.172,0,0,1-.172.172H.173A.173.173,0,0,1,0,6.863V.173A.173.173,0,0,1,.173,0Z" transform="translate(30.21 175.032)" fill="#f5f5f5"/>
    <path id="Rectángulo_455740" data-name="Rectángulo 455740" d="M.173,0H6.864a.172.172,0,0,1,.172.172V6.864a.172.172,0,0,1-.172.172H.173A.173.173,0,0,1,0,6.863V.173A.173.173,0,0,1,.173,0Z" transform="translate(30.21 185.298)" fill="#f5f5f5"/>
    <path id="Rectángulo_455741" data-name="Rectángulo 455741" d="M.173,0H6.864a.172.172,0,0,1,.172.172V6.864a.172.172,0,0,1-.172.172H.173A.173.173,0,0,1,0,6.863V.173A.173.173,0,0,1,.173,0Z" transform="translate(30.21 195.562)" fill="#f5f5f5"/>
    <path id="Rectángulo_455742" data-name="Rectángulo 455742" d="M.172,0H6.861a.172.172,0,0,1,.172.172V6.863a.173.173,0,0,1-.173.173H.172A.172.172,0,0,1,0,6.864V.172A.172.172,0,0,1,.172,0Z" transform="translate(40.364 175.032)" fill="#f5f5f5"/>
    <path id="Rectángulo_455743" data-name="Rectángulo 455743" d="M.173,0H6.861a.172.172,0,0,1,.172.172V6.864a.172.172,0,0,1-.172.172H.172A.172.172,0,0,1,0,6.864V.173A.173.173,0,0,1,.173,0Z" transform="translate(40.364 185.298)" fill="#f5f5f5"/>
    <path id="Rectángulo_455744" data-name="Rectángulo 455744" d="M.173,0H6.864a.172.172,0,0,1,.172.172V6.863a.173.173,0,0,1-.173.173H.173A.173.173,0,0,1,0,6.863V.173A.173.173,0,0,1,.173,0Z" transform="translate(50.274 175.032)" fill="#f5f5f5"/>
    <path id="Rectángulo_455745" data-name="Rectángulo 455745" d="M.173,0H6.864a.172.172,0,0,1,.172.172V6.864a.172.172,0,0,1-.172.172H.173A.173.173,0,0,1,0,6.863V.173A.173.173,0,0,1,.173,0Z" transform="translate(50.274 185.298)" fill="#f5f5f5"/>
    <path id="Rectángulo_455746" data-name="Rectángulo 455746" d="M.174,0H6.866a.172.172,0,0,1,.172.172V6.863a.173.173,0,0,1-.173.173H.174A.174.174,0,0,1,0,6.862V.174A.174.174,0,0,1,.174,0Z" transform="translate(60.425 175.032)" fill="#f5f5f5"/>
    <path id="Rectángulo_455747" data-name="Rectángulo 455747" d="M.173,0H6.865a.173.173,0,0,1,.173.173v6.69a.173.173,0,0,1-.173.173H.172A.172.172,0,0,1,0,6.864V.173A.173.173,0,0,1,.173,0Z" transform="translate(60.425 185.298)" fill="#f5f5f5"/>
    <path id="Rectángulo_455748" data-name="Rectángulo 455748" d="M.173,0H6.866a.172.172,0,0,1,.172.172V6.863a.173.173,0,0,1-.173.173H.173A.173.173,0,0,1,0,6.863V.173A.173.173,0,0,1,.173,0Z" transform="translate(70.335 175.032)" fill="#f5f5f5"/>
    <path id="Rectángulo_455749" data-name="Rectángulo 455749" d="M.172,0H6.865a.173.173,0,0,1,.173.173v6.69a.173.173,0,0,1-.173.173H.173A.173.173,0,0,1,0,6.863V.172A.172.172,0,0,1,.172,0Z" transform="translate(80.489 175.032)" fill="#f5f5f5"/>
    <path id="Rectángulo_455750" data-name="Rectángulo 455750" d="M.173,0H6.865a.173.173,0,0,1,.173.173V6.864a.172.172,0,0,1-.172.172H.172A.172.172,0,0,1,0,6.864V.173A.173.173,0,0,1,.173,0Z" transform="translate(70.335 185.298)" fill="#f5f5f5"/>
    <path id="Trazado_1263366" data-name="Trazado 1263366" d="M52.391,76.662H16.262a.441.441,0,0,0-.439.441v6.153a.439.439,0,0,0,.439.441H52.391a.441.441,0,0,0,.441-.441V77.1a.443.443,0,0,0-.441-.441" transform="translate(24.541 118.899)" fill="#f5f5f5"/>
    <path id="Trazado_1263367" data-name="Trazado 1263367" d="M48.255,68.615H42.1a.441.441,0,0,0-.439.441V78.88H31.946a.441.441,0,0,0-.441.439v6.155a.443.443,0,0,0,.441.441H48.255a.441.441,0,0,0,.441-.441V69.056a.441.441,0,0,0-.441-.441" transform="translate(48.863 106.418)" fill="#f5f5f5"/>
    <rect id="Rectángulo_455751" data-name="Rectángulo 455751" width="7.038" height="7.036" rx="0.173" transform="translate(80.489 195.562)" fill="#f5f5f5"/>
    <path id="Rectángulo_455752" data-name="Rectángulo 455752" d="M.173,0h6.69a.173.173,0,0,1,.173.173V6.864a.172.172,0,0,1-.172.172H.172A.172.172,0,0,1,0,6.864V.173A.173.173,0,0,1,.173,0Z" transform="translate(90.523 195.562)" fill="#f5f5f5"/>
    <path id="Rectángulo_455753" data-name="Rectángulo 455753" d="M.173,0H6.864a.174.174,0,0,1,.174.174V6.862a.174.174,0,0,1-.174.174H.173A.173.173,0,0,1,0,6.863V.173A.173.173,0,0,1,.173,0Z" transform="translate(100.431 185.298)" fill="#f5f5f5"/>
    <path id="Rectángulo_455754" data-name="Rectángulo 455754" d="M.173,0h6.69a.173.173,0,0,1,.173.173v6.69a.173.173,0,0,1-.173.173H.172A.172.172,0,0,1,0,6.864V.173A.173.173,0,0,1,.173,0Z" transform="translate(110.585 185.298)" fill="#f5f5f5"/>
    <path id="Rectángulo_455755" data-name="Rectángulo 455755" d="M.173,0H6.864a.174.174,0,0,1,.174.174V6.863a.173.173,0,0,1-.173.173H.173A.173.173,0,0,1,0,6.863V.173A.173.173,0,0,1,.173,0Z" transform="translate(100.431 175.032)" fill="#f5f5f5"/>
    <path id="Rectángulo_455756" data-name="Rectángulo 455756" d="M.172,0H6.863a.173.173,0,0,1,.173.173v6.69a.173.173,0,0,1-.173.173H.172A.172.172,0,0,1,0,6.864V.172A.172.172,0,0,1,.172,0Z" transform="translate(110.585 175.032)" fill="#f5f5f5"/>
    <path id="Rectángulo_455757" data-name="Rectángulo 455757" d="M.173,0H6.864a.174.174,0,0,1,.174.174v6.69a.172.172,0,0,1-.172.172H.173A.173.173,0,0,1,0,6.863V.173A.173.173,0,0,1,.173,0Z" transform="translate(100.431 195.562)" fill="#f5f5f5"/>
    <path id="Rectángulo_455758" data-name="Rectángulo 455758" d="M.173,0h6.69a.173.173,0,0,1,.173.173v6.69a.173.173,0,0,1-.173.173H.172A.172.172,0,0,1,0,6.864V.173A.173.173,0,0,1,.173,0Z" transform="translate(110.585 195.562)" fill="#f5f5f5"/>
    <rect id="Rectángulo_455759" data-name="Rectángulo 455759" width="59.904" height="65.945" transform="translate(13.959 59.1)" fill="#fff"/>
    <path id="Trazado_1263368" data-name="Trazado 1263368" d="M6.4,31.275l1.977-.569L6.4,30.249V28.433l4,1.388v1.816l-4,1.451Z" transform="translate(9.925 44.098)" fill="#ff4140"/>
    <path id="Trazado_1263369" data-name="Trazado 1263369" d="M6.4,43.143l1.977-.566L6.4,42.118V40.3l4,1.39v1.814l-4,1.454Z" transform="translate(9.925 62.505)" fill="#ff4140"/>
    <path id="Trazado_1263370" data-name="Trazado 1263370" d="M6.4,47.1l1.977-.566L6.4,46.074V44.257l4,1.39v1.816l-4,1.451Z" transform="translate(9.925 68.641)" fill="#ff4140"/>
    <path id="Trazado_1263371" data-name="Trazado 1263371" d="M9.065,35.231l1.977-.566-1.977-.459V32.389l4,1.388v1.816l-4,1.454Z" transform="translate(14.06 50.234)" fill="#ff4140"/>
    <path id="Trazado_1263372" data-name="Trazado 1263372" d="M9.065,39.187l1.977-.566-1.977-.459V36.345l4,1.388v1.816L9.065,41Z" transform="translate(14.06 56.37)" fill="#ff4140"/>
    <rect id="Rectángulo_455760" data-name="Rectángulo 455760" width="58.299" height="65.945" transform="translate(73.865 59.1)" fill="#e0e0e0"/>
    <rect id="Rectángulo_455761" data-name="Rectángulo 455761" width="81.235" height="4.809" transform="translate(23.124 72.455)" fill="#2d4375"/>
    <rect id="Rectángulo_455762" data-name="Rectángulo 455762" width="33.948" height="4.809" transform="translate(30.3 82.549)" fill="#2d4375"/>
    <rect id="Rectángulo_455763" data-name="Rectángulo 455763" width="70.322" height="4.809" transform="translate(30.3 92.64)" fill="#2d4375"/>
    <rect id="Rectángulo_455764" data-name="Rectángulo 455764" width="79.171" height="4.809" transform="translate(23.127 112.823)" fill="#2d4375"/>
    <rect id="Rectángulo_455765" data-name="Rectángulo 455765" width="99.867" height="4.809" transform="translate(23.073 102.732)" fill="#2d4375"/>
    <rect id="Rectángulo_455766" data-name="Rectángulo 455766" width="59.904" height="7.232" transform="translate(13.959 59.1)" fill="#2d4375"/>
    <rect id="Rectángulo_455767" data-name="Rectángulo 455767" width="58.299" height="7.232" transform="translate(73.865 59.1)" fill="#1e2d4f"/>
    <rect id="Rectángulo_455768" data-name="Rectángulo 455768" width="3.65" height="3.406" transform="translate(125.723 61.014)" fill="#fff"/>
    <rect id="Rectángulo_455769" data-name="Rectángulo 455769" width="3.653" height="3.406" transform="translate(118.073 61.014)" fill="#fff"/>
    <path id="Trazado_1263373" data-name="Trazado 1263373" d="M83.91,46.1a8.2,8.2,0,1,0,8.2,8.2,8.2,8.2,0,0,0-8.2-8.2m0,13.926A5.724,5.724,0,1,1,89.637,54.3a5.724,5.724,0,0,1-5.727,5.724" transform="translate(117.416 71.493)" fill="#cc2221"/>
    <rect id="Rectángulo_455770" data-name="Rectángulo 455770" width="8.885" height="22.974" transform="translate(183.556 114.303)" fill="#ff4140"/>
    <rect id="Rectángulo_455771" data-name="Rectángulo 455771" width="8.885" height="22.974" transform="translate(192.441 114.3)" fill="#cc2221"/>
    <path id="Trazado_1263374" data-name="Trazado 1263374" d="M60.23,104.265H71.375V66.644H60.23a7.666,7.666,0,0,0-7.666,7.666V96.6a7.666,7.666,0,0,0,7.666,7.666" transform="translate(81.524 103.361)" fill="#1e2d4f"/>
    <path id="Trazado_1263375" data-name="Trazado 1263375" d="M71.079,104.265A7.67,7.67,0,0,0,78.75,96.6V74.31a7.67,7.67,0,0,0-7.671-7.666H59.939v37.621Z" transform="translate(92.962 103.361)" fill="#2d4375"/>
    <path id="Trazado_1263376" data-name="Trazado 1263376" d="M70.2,67.225H59.939v34.652H70.2a7.064,7.064,0,0,0,7.066-7.061V74.289A7.067,7.067,0,0,0,70.2,67.225" transform="translate(92.962 104.262)" fill="#1e2d4f"/>
    <path id="Trazado_1263377" data-name="Trazado 1263377" d="M60.207,67.225a7.064,7.064,0,0,0-7.061,7.064V94.816a7.062,7.062,0,0,0,7.061,7.061H70.475V67.225Z" transform="translate(82.427 104.262)" fill="#2d4375"/>
    <path id="Trazado_1263378" data-name="Trazado 1263378" d="M65.149,69.014H64.075a7.5,7.5,0,0,0-7.5,7.5v2.6h8.571Z" transform="translate(87.75 107.037)" fill="#e0e0e0"/>
    <path id="Trazado_1263379" data-name="Trazado 1263379" d="M56.578,72.973V80.9a7.5,7.5,0,0,0,7.5,7.5h1.074V72.973Z" transform="translate(87.75 113.177)" fill="#e0e0e0"/>
    <path id="Trazado_1263380" data-name="Trazado 1263380" d="M68.505,79.115v-2.6a7.5,7.5,0,0,0-7.5-7.5H59.939v10.1Z" transform="translate(92.962 107.036)" fill="#e0e0e0"/>
    <path id="Trazado_1263381" data-name="Trazado 1263381" d="M59.938,72.973V88.4h1.069a7.5,7.5,0,0,0,7.5-7.5V72.973Z" transform="translate(92.961 113.177)" fill="#f5f5f5"/>
    <rect id="Rectángulo_455772" data-name="Rectángulo 455772" width="17.14" height="1.444" transform="translate(144.328 185.757)" fill="#e0e0e0"/>
    <path id="Trazado_1263382" data-name="Trazado 1263382" d="M56.578,76.511a7.5,7.5,0,0,1,7.5-7.5h1.074v10.1H56.578Z" transform="translate(87.75 107.037)" fill="#f5f5f5"/>
    <path id="Trazado_1263383" data-name="Trazado 1263383" d="M59.006,9.082a1.155,1.155,0,0,0-.847,1.4l.329,5.477a1.365,1.365,0,0,1,.015.556,18.351,18.351,0,0,0-3.3,2.156,1.4,1.4,0,0,1-1.245-.084L48.833,16.62a1.154,1.154,0,0,0-1.587.385l-2.867,4.727a1.15,1.15,0,0,0,.385,1.587l4.1,3.638a1.373,1.373,0,0,1,.408.385,18.066,18.066,0,0,0-.811,3.86,1.389,1.389,0,0,1-.946.821l-5.01,2.235a1.156,1.156,0,0,0-.847,1.393l1.316,5.37a1.155,1.155,0,0,0,1.4.849l5.469-.332a1.477,1.477,0,0,1,.559-.015,18.305,18.305,0,0,0,2.161,3.306,1.389,1.389,0,0,1-.089,1.245L50.514,51.2a1.152,1.152,0,0,0,.388,1.587l4.727,2.865a1.151,1.151,0,0,0,1.584-.388l3.638-4.1a1.33,1.33,0,0,1,.388-.4,18.824,18.824,0,0,0,3.857.814,1.373,1.373,0,0,1,.819.939l2.237,5.01a1.15,1.15,0,0,0,1.4.847L72.5,57.64,61.654,8.437Z" transform="translate(64.567 13.085)" fill="#cbcfc2"/>
    <path id="Trazado_1263384" data-name="Trazado 1263384" d="M80.086,30.908l-1.319-5.37a1.154,1.154,0,0,0-1.4-.849L71.9,25.02a1.321,1.321,0,0,1-.556.013,18.35,18.35,0,0,0-2.156-3.3,1.374,1.374,0,0,1,.084-1.242l1.964-5.125a1.154,1.154,0,0,0-.388-1.587L66.12,10.908a1.151,1.151,0,0,0-1.584.385L60.9,15.4a1.312,1.312,0,0,1-.385.408,18.589,18.589,0,0,0-3.86-.816,1.393,1.393,0,0,1-.821-.941L53.6,9.044A1.15,1.15,0,0,0,52.2,8.2L49.48,8.86,60.327,58.065l2.411-.592a1.151,1.151,0,0,0,.849-1.4L63.258,50.6a1.366,1.366,0,0,1-.015-.556,18.285,18.285,0,0,0,3.3-2.161,1.416,1.416,0,0,1,1.25.089l5.12,1.964a1.152,1.152,0,0,0,1.584-.388l2.87-4.727a1.154,1.154,0,0,0-.388-1.587L72.88,39.6a1.313,1.313,0,0,1-.408-.385,18.388,18.388,0,0,0,.814-3.86,1.376,1.376,0,0,1,.941-.821L79.239,32.3a1.156,1.156,0,0,0,.847-1.393" transform="translate(76.741 12.66)" fill="#a8ada0"/>
    <path id="Trazado_1263385" data-name="Trazado 1263385" d="M67.833,26.878A14.451,14.451,0,0,0,50.387,12.741l6.227,28.221A14.453,14.453,0,0,0,67.833,26.878" transform="translate(78.148 19.274)" fill="#e3e8c0"/>
    <path id="Trazado_1263386" data-name="Trazado 1263386" d="M45.9,26.687A14.434,14.434,0,0,0,63.577,40.771L57.35,12.55A14.451,14.451,0,0,0,45.9,26.687" transform="translate(71.182 19.464)" fill="#f7f7d7"/>
    <rect id="Rectángulo_455773" data-name="Rectángulo 455773" width="77.123" height="8.961" transform="translate(123.741 150.815)" fill="#e0e0e0"/>
    <rect id="Rectángulo_455774" data-name="Rectángulo 455774" width="81.546" height="2.309" transform="translate(121.532 159.774)" fill="#ff4140"/>
    <rect id="Rectángulo_455775" data-name="Rectángulo 455775" width="81.546" height="2.426" transform="translate(121.532 148.386)" fill="#ff4140"/>
    <rect id="Rectángulo_455776" data-name="Rectángulo 455776" width="77.123" height="4.479" transform="translate(123.741 155.297)" fill="#fff"/>
  </g>
</svg>
