<svg xmlns="http://www.w3.org/2000/svg" width="84" height="84" viewBox="0 0 84 84">
  <g id="Grupo_1205038" data-name="Grupo 1205038" transform="translate(-706 -382.153)">
    <circle id="Elipse_13698" data-name="Elipse 13698" cx="42" cy="42" r="42" transform="translate(706 382.153)" fill="#a6f6af"/>
    <path id="Trazado_1263725" data-name="Trazado 1263725" d="M166.668,177.982l-3.5-8.748v-21.42A1.813,1.813,0,0,0,161.355,146H121.443a1.813,1.813,0,0,0-1.814,1.814v21.42l-3.5,8.748a1.815,1.815,0,0,0,1.685,2.488h47.169a1.815,1.815,0,0,0,1.685-2.487Zm-43.411-28.354h36.284V167.77H123.257Zm-2.764,27.213,2.178-5.443h37.457l2.177,5.443Z" transform="translate(606.918 259.93)" fill="#0f5f6b"/>
  </g>
</svg>
