<svg xmlns="http://www.w3.org/2000/svg" xmlns:xlink="http://www.w3.org/1999/xlink" width="257" height="257" viewBox="0 0 257 257">
  <defs>
    <clipPath id="clip-path">
      <rect id="Rectángulo_455524" data-name="Rectángulo 455524" width="257" height="257" fill="#f2f6e6"/>
    </clipPath>
  </defs>
  <g id="Grupo_1205057" data-name="Grupo 1205057" transform="translate(-581.578 -2979)">
    <g id="Grupo_1205056" data-name="Grupo 1205056">
      <g id="Grupo_1204614" data-name="Grupo 1204614" transform="translate(581.578 2979)" clip-path="url(#clip-path)">
        <path id="Trazado_1262709" data-name="Trazado 1262709" d="M128.721,0A128.721,128.721,0,1,1,0,128.721,128.721,128.721,0,0,1,128.721,0" fill="#ffffeb"/>
        <path id="Trazado_1262710" data-name="Trazado 1262710" d="M445.915,184.719V241.78h-103.7V184.172h103.7v.547Zm-1.529,11.892H431.351v10.147h13.036Zm-14.619,0H416.73v10.147h13.037Zm-14.564,0H402.164v10.147H415.2Zm-14.619,0H387.545v10.147h13.039Zm-14.567,0H372.924v10.147h13.093Zm-14.619,0H358.361v10.147H371.4Zm-14.566,0H343.74v10.147h13.092Zm-13.092-1.146h13.092V185.318H343.74Zm14.62,0H371.4V185.318H358.361Zm14.563,0h13.093V185.318H372.924Zm14.622,0h13.039V185.318H387.545Zm14.619,0H415.2V185.318H402.164Zm14.566,0h13.037V185.318H416.73Zm14.62,0h13.036V185.318H431.351ZM444.387,207.9H431.351v10.146h13.036Zm-14.619,0H416.73v10.146h13.037Zm-14.564,0H402.164v10.146H415.2Zm-14.619,0H387.545v10.146h13.039Zm-14.567,0H372.924v10.146h13.093Zm-14.619,0H358.361v10.146H371.4Zm-14.566,0H343.74v10.146h13.092Zm87.554,11.292H431.351v10.147h13.036Zm-14.619,0H416.73v10.147h13.037Zm-14.564,0H402.164v10.147H415.2Zm-14.619,0H387.545v10.147h13.039Zm-14.567,0H372.924v10.147h13.093Zm-14.619,0H358.361v10.147H371.4Zm-14.566,0H343.74v10.147h13.092Zm87.554,11.293H431.351v10.147h13.036Zm-14.619,0H416.73v10.147h13.037Zm-14.564,0H402.164v10.147H415.2Zm-14.619,0H387.545v10.147h13.039Zm-14.567,0H372.924v10.147h13.093Zm-14.619,0H358.361v10.147H371.4Zm-14.566,0H343.74v10.147h13.092Z" transform="translate(-258.308 -139.016)" fill="#cf7659"/>
        <path id="Trazado_1262711" data-name="Trazado 1262711" d="M215.4,410H358.6a5.311,5.311,0,0,1,5.293,5.347v97.811H210.053V415.351A5.356,5.356,0,0,1,215.4,410" transform="translate(-158.552 -309.478)" fill="#4d565e" fill-rule="evenodd"/>
        <path id="Trazado_1262712" data-name="Trazado 1262712" d="M111.966,846.793H313.425c.547,0,.437-.437-.22-.929l-21.654-16.637a4.284,4.284,0,0,0-2.24-.927H136.077a4.278,4.278,0,0,0-2.235.927l-21.657,16.637c-.657.491-.766.929-.218.929" transform="translate(-84.249 -625.216)" fill="#343b42" fill-rule="evenodd"/>
        <path id="Trazado_1262713" data-name="Trazado 1262713" d="M112.36,898.828H312.294c1.474,0,1.636,1.256.326,2.781l-2.727,3.056a8.232,8.232,0,0,1-5.183,2.728H119.942a8.233,8.233,0,0,1-5.182-2.728l-2.728-3.056c-1.307-1.525-1.2-2.781.328-2.781" transform="translate(-83.881 -678.451)" fill="#4d565e" fill-rule="evenodd"/>
        <path id="Trazado_1262714" data-name="Trazado 1262714" d="M445.305,865.9h31.368l4.745,5.183H440.56Z" transform="translate(-332.542 -653.595)" fill="#e6e6e6" fill-rule="evenodd"/>
        <rect id="Rectángulo_455508" data-name="Rectángulo 455508" width="144.182" height="91.265" transform="translate(56.356 107.182)" fill="#f8f8c5"/>
        <path id="Trazado_1262715" data-name="Trazado 1262715" d="M30.843,628.074a30.6,30.6,0,1,0-30.6-30.6,30.663,30.663,0,0,0,30.6,30.6" transform="translate(-0.181 -427.881)" fill="#a6f6af" fill-rule="evenodd"/>
        <path id="Trazado_1262716" data-name="Trazado 1262716" d="M707.279,257.889A47.76,47.76,0,1,0,659.49,210.1a47.877,47.877,0,0,0,47.789,47.787" transform="translate(-497.795 -122.559)" fill="#c6ffcf" fill-rule="evenodd"/>
        <rect id="Rectángulo_455509" data-name="Rectángulo 455509" width="79.59" height="4.528" transform="translate(66.393 124.529)" fill="gray"/>
        <rect id="Rectángulo_455510" data-name="Rectángulo 455510" width="47.187" height="3.872" transform="translate(112.817 133.421)" fill="gray"/>
        <rect id="Rectángulo_455511" data-name="Rectángulo 455511" width="47.134" height="3.875" transform="translate(69.175 141.603)" fill="gray"/>
        <rect id="Rectángulo_455512" data-name="Rectángulo 455512" width="47.134" height="3.874" transform="translate(69.175 158.734)" fill="gray"/>
        <rect id="Rectángulo_455513" data-name="Rectángulo 455513" width="47.134" height="3.928" transform="translate(69.175 165.552)" fill="gray"/>
        <rect id="Rectángulo_455514" data-name="Rectángulo 455514" width="14.892" height="3.928" transform="translate(120.4 165.552)" fill="#f77b55"/>
        <rect id="Rectángulo_455515" data-name="Rectángulo 455515" width="14.893" height="3.928" transform="translate(140.474 165.552)" fill="gray"/>
        <rect id="Rectángulo_455516" data-name="Rectángulo 455516" width="33.712" height="3.873" transform="translate(121.656 158.952)" fill="gray"/>
        <rect id="Rectángulo_455517" data-name="Rectángulo 455517" width="25.421" height="3.875" transform="translate(126.837 141.603)" fill="gray"/>
        <rect id="Rectángulo_455518" data-name="Rectángulo 455518" width="13.638" height="3.872" transform="translate(72.503 133.421)" fill="gray"/>
        <rect id="Rectángulo_455519" data-name="Rectángulo 455519" width="13.636" height="3.872" transform="translate(92.032 133.421)" fill="#f77b55"/>
        <rect id="Rectángulo_455520" data-name="Rectángulo 455520" width="12.165" height="4.528" transform="translate(154.659 124.529)" fill="#f77b55"/>
        <rect id="Rectángulo_455521" data-name="Rectángulo 455521" width="15.057" height="3.873" transform="translate(69.175 175.154)" fill="gray"/>
        <rect id="Rectángulo_455522" data-name="Rectángulo 455522" width="15.056" height="3.873" transform="translate(89.251 175.154)" fill="#f77b55"/>
        <rect id="Rectángulo_455523" data-name="Rectángulo 455523" width="24.384" height="3.873" transform="translate(110.908 175.154)" fill="gray"/>
        <path id="Trazado_1262717" data-name="Trazado 1262717" d="M46.963,658.682v-2.455l14.129-6v2.618l-11.184,4.582,11.184,4.691v2.62Zm15.764,9.654L68.948,646.3h2.126l-6.218,22.038Zm24.058-9.654-14.073,6.055v-2.62l11.128-4.691-11.128-4.582v-2.618l14.073,6v2.455Z" transform="translate(-35.449 -487.837)" fill="#4d565e" fill-rule="evenodd"/>
        <path id="Trazado_1262718" data-name="Trazado 1262718" d="M712.893,331.473v-2.4l10.91-5.836V325.8l-8.673,4.472,8.673,4.584v2.564Z" transform="translate(-538.104 -243.984)" fill="#4d565e" fill-rule="evenodd"/>
        <path id="Trazado_1262719" data-name="Trazado 1262719" d="M782.932,336l1.8.272a4.83,4.83,0,0,1-1.529,2.946,4.513,4.513,0,0,1-3.056,1.037,4.732,4.732,0,0,1-3.6-1.472,5.819,5.819,0,0,1-1.365-4.2,7.69,7.69,0,0,1,.6-3.108,4.322,4.322,0,0,1,1.8-2.019,5.192,5.192,0,0,1,2.62-.655,4.585,4.585,0,0,1,2.891.928,4.187,4.187,0,0,1,1.473,2.563l-1.8.274a2.975,2.975,0,0,0-.928-1.691,2.637,2.637,0,0,0-1.58-.545,2.849,2.849,0,0,0-2.293,1.036,4.573,4.573,0,0,0-.872,3.165,5.061,5.061,0,0,0,.817,3.218,2.861,2.861,0,0,0,2.237.983,2.75,2.75,0,0,0,1.855-.656,3.493,3.493,0,0,0,.928-2.072" transform="translate(-585.123 -248.181)" fill="#4d565e" fill-rule="evenodd"/>
        <path id="Trazado_1262720" data-name="Trazado 1262720" d="M817.688,334.524a5.481,5.481,0,0,1,1.745-4.474,5.373,5.373,0,0,1,7.146.217A5.827,5.827,0,0,1,828,334.36a6.929,6.929,0,0,1-.654,3.328,4.363,4.363,0,0,1-1.8,1.91,5.707,5.707,0,0,1-2.673.654,5.093,5.093,0,0,1-3.763-1.472,5.974,5.974,0,0,1-1.419-4.255m1.908,0a4.748,4.748,0,0,0,.93,3.163,3.029,3.029,0,0,0,2.345,1.037,2.847,2.847,0,0,0,2.291-1.037,5.77,5.77,0,0,0,0-6.274,2.848,2.848,0,0,0-2.291-1.037,3.031,3.031,0,0,0-2.345,1.037,4.592,4.592,0,0,0-.93,3.11" transform="translate(-617.205 -248.181)" fill="#4d565e" fill-rule="evenodd"/>
        <path id="Trazado_1262721" data-name="Trazado 1262721" d="M873.548,327.938v-1.363a3.4,3.4,0,0,1-3.057,1.581,4.131,4.131,0,0,1-2.4-.71,4.872,4.872,0,0,1-1.745-2.017,7.375,7.375,0,0,1-.6-3,8.346,8.346,0,0,1,.545-2.946,4.387,4.387,0,0,1,4.091-2.783,3.817,3.817,0,0,1,1.8.436,4.02,4.02,0,0,1,1.256,1.092v-5.456h1.855v15.166h-1.745Zm-5.893-5.456a4.607,4.607,0,0,0,.927,3.11,2.664,2.664,0,0,0,2.074,1.037,2.609,2.609,0,0,0,2.073-.983,4.441,4.441,0,0,0,.874-3.054,4.991,4.991,0,0,0-.874-3.274,2.691,2.691,0,0,0-4.2-.055,4.731,4.731,0,0,0-.873,3.219" transform="translate(-653.481 -236.085)" fill="#4d565e" fill-rule="evenodd"/>
        <path id="Trazado_1262722" data-name="Trazado 1262722" d="M922.378,336.488l1.909.219a4.436,4.436,0,0,1-1.691,2.618,4.8,4.8,0,0,1-3.112.927,4.97,4.97,0,0,1-3.816-1.472,5.778,5.778,0,0,1-1.419-4.146,6.2,6.2,0,0,1,1.419-4.31,4.919,4.919,0,0,1,3.708-1.528,4.583,4.583,0,0,1,3.6,1.528,5.894,5.894,0,0,1,1.365,4.2v.49h-8.183a4.03,4.03,0,0,0,1.034,2.783,2.933,2.933,0,0,0,2.291.928,2.779,2.779,0,0,0,1.747-.547,3.324,3.324,0,0,0,1.146-1.691m-6.11-3h6.11a3.475,3.475,0,0,0-.708-2.074,2.9,2.9,0,0,0-2.293-1.09,2.721,2.721,0,0,0-2.128.873,3.191,3.191,0,0,0-.981,2.291" transform="translate(-690.092 -248.181)" fill="#4d565e" fill-rule="evenodd"/>
        <path id="Trazado_1262723" data-name="Trazado 1262723" d="M984.344,331.473l-10.908,5.946v-2.564l8.618-4.584-8.618-4.472v-2.564l10.908,5.836Z" transform="translate(-734.767 -243.984)" fill="#4d565e" fill-rule="evenodd"/>
        <path id="Trazado_1262724" data-name="Trazado 1262724" d="M157.095,262.577a13.667,13.667,0,0,1,4.2,3.492l5.238-1.91,2.945,8.128-5.237,1.909a11.732,11.732,0,0,1-.218,2.727,13.112,13.112,0,0,1-.71,2.619l4.255,3.6-5.563,6.6-4.257-3.546a13.745,13.745,0,0,1-5.127,1.855l-.983,5.455-8.454-1.473.927-5.509a13.716,13.716,0,0,1-4.2-3.491l-5.183,1.909-3-8.129,5.238-1.909a15.715,15.715,0,0,1,.218-2.727,13.146,13.146,0,0,1,.764-2.619l-4.313-3.6,5.567-6.6,4.254,3.6a13.636,13.636,0,0,1,5.129-1.909l.981-5.456,8.511,1.473Z" transform="translate(-99.431 -192.927)" fill="#69d2cd" fill-rule="evenodd"/>
        <path id="Trazado_1262725" data-name="Trazado 1262725" d="M330.872,157.522a20.047,20.047,0,0,1,2.672,7.583l8.021,1.528-2.347,12.383-8.019-1.473a21.991,21.991,0,0,1-2.29,3.273,19.955,19.955,0,0,1-2.89,2.783l2.671,7.692-11.946,4.2L314.07,187.8a19.514,19.514,0,0,1-7.855-1.473l-5.346,6.165-9.6-8.238,5.347-6.165a20.041,20.041,0,0,1-2.672-7.583l-8.021-1.472,2.347-12.438,8.018,1.472a22.1,22.1,0,0,1,2.29-3.273,20.4,20.4,0,0,1,2.948-2.784l-2.728-7.69,11.947-4.2,2.673,7.692a20.968,20.968,0,0,1,7.909,1.473l5.291-6.165,9.6,8.238Z" transform="translate(-215.818 -105.765)" fill="#69d2cd" fill-rule="evenodd"/>
        <path id="Trazado_1262726" data-name="Trazado 1262726" d="M183.383,302.5a4.292,4.292,0,0,1-1.474,8.456,4.292,4.292,0,1,1,1.474-8.456m.708-4.145a8.5,8.5,0,1,1-9.819,6.927,8.492,8.492,0,0,1,9.819-6.927" transform="translate(-131.445 -225.108)" fill="#363f48" fill-rule="evenodd"/>
        <path id="Trazado_1262727" data-name="Trazado 1262727" d="M365.26,210a6.3,6.3,0,1,1-8.946.655A6.306,6.306,0,0,1,365.26,210m3.982-4.637a12.437,12.437,0,1,1-17.566,1.31,12.433,12.433,0,0,1,17.566-1.31" transform="translate(-263.19 -152.73)" fill="#363f48" fill-rule="evenodd"/>
      </g>
    </g>
  </g>
</svg>
