<svg xmlns="http://www.w3.org/2000/svg" xmlns:xlink="http://www.w3.org/1999/xlink" width="84" height="84" viewBox="0 0 84 84">
  <defs>
    <clipPath id="clip-path">
      <rect id="Rectángulo_456206" data-name="Rectángulo 456206" width="52.971" height="59.333" transform="translate(-5 -3)" fill="#0f5f6b" stroke="#0f5f6b" stroke-width="2"/>
    </clipPath>
  </defs>
  <g id="Grupo_1205040" data-name="Grupo 1205040" transform="translate(-703.999 -2313.12)">
    <circle id="Elipse_13698" data-name="Elipse 13698" cx="42" cy="42" r="42" transform="translate(703.999 2313.12)" fill="#a6f6af"/>
    <g id="Grupo_1204973" data-name="Grupo 1204973" transform="translate(724.015 2328)">
      <g id="Grupo_1204973-2" data-name="Grupo 1204973" clip-path="url(#clip-path)">
        <path id="Trazado_1263728" data-name="Trazado 1263728" d="M39.206,47.922c0,1.177.477,4.055-1.113,4.333a9.833,9.833,0,0,1-1.632.077L1.816,52.324C.121,52.308.05,51,.053,49.773l0-37.6C.051,8.7-.48,9.535,1.841,7.222l2.876-2.86c.795-.778,3.838-4.04,4.6-4.337.48-.057,1.381,0,1.887,0H36.777c3.232,0,2.437,1.339,2.429,4.227l2.186,0c2.2,0,2.558.1,2.563,2.429l0,5.638a7.556,7.556,0,0,1-.136,2.227c-1.159,1.3-1.288-.788-1.284-1.491V5.665c-1.1-.013-2.226,0-3.331,0V46.521h3.331V23.1a15.823,15.823,0,0,1,.083-3.065c.646-.721,1.283-.183,1.335.612V46.009c0,1.984-.9,1.924-2.63,1.918ZM10.194,1.436l0,4.27c0,4.326-.3,4.39-4.278,4.384l-4.454,0,.007,40.188a1.073,1.073,0,0,0,.108.6c.486.084,2.057.049,2.641.049H34.83c.966,0,2.023.022,2.983,0-.043-1.74,0-3.682,0-5.435V1.436Zm-1.415.969A74.616,74.616,0,0,0,2.5,8.622l.033.042,3.716,0c1.777,0,2.548.454,2.538-1.586L8.778,3.99c0-.463.025-1.148,0-1.585" transform="translate(0 0)" fill="#0f5f6b" stroke="#0f5f6b" stroke-width="2"/>
        <path id="Trazado_1263729" data-name="Trazado 1263729" d="M77.891,165.243a34.039,34.039,0,0,1-3.934-3.963c-.294-.533,1.322-1.8,1.654-2.14a10.813,10.813,0,0,1,2.28-2.129.7.7,0,0,1,.692,1.111,7.517,7.517,0,0,1-.909.964l-2.007,1.986c.457.539,4.949,4.146,2.224,4.171" transform="translate(-68.622 -141.504)" fill="#0f5f6b" stroke="#0f5f6b" stroke-linecap="round" stroke-linejoin="round" stroke-width="2"/>
        <path id="Trazado_1263730" data-name="Trazado 1263730" d="M148.21,169.511a29.516,29.516,0,0,1-4.584-.119c-.573-.386-.271-1.213.478-1.295a26.3,26.3,0,0,1,4.469.136.71.71,0,0,1-.363,1.278" transform="translate(-129.175 -151.478)" fill="#0f5f6b" stroke="#0f5f6b" stroke-linecap="round" stroke-linejoin="round" stroke-width="2"/>
        <path id="Trazado_1263731" data-name="Trazado 1263731" d="M215.782,169.6a.817.817,0,0,1,.171-1.414c.713-.031,1.551,0,2.278,0H223.4c.414.515.474,1.225-.178,1.414h-4.6c-.923,0-1.926.029-2.841,0" transform="translate(-191.739 -151.564)" fill="#0f5f6b" stroke="#0f5f6b" stroke-linecap="round" stroke-linejoin="round" stroke-width="2"/>
        <path id="Trazado_1263732" data-name="Trazado 1263732" d="M160.119,225.837H145.905c-.5,0-2.1.157-2.473-.194-.575-.535-.1-1.167.685-1.237l16.031.008c1.038.009,1.266,1.353-.029,1.422" transform="translate(-129.04 -202.249)" fill="#0f5f6b" stroke="#0f5f6b" stroke-width="2"/>
        <path id="Trazado_1263733" data-name="Trazado 1263733" d="M86.66,287.881l-2.235,0a11.98,11.98,0,0,1-1.25-.015c-.422-.041-.969-1.333.578-1.426h2.2a8.666,8.666,0,0,1,1.246.041c.494.087.927,1.428-.539,1.4" transform="translate(-74.557 -258.155)" fill="#0f5f6b" stroke="#0f5f6b" stroke-width="2"/>
        <path id="Trazado_1263734" data-name="Trazado 1263734" d="M172.926,287.819h-4.851a16.281,16.281,0,0,1-2.5-.051c-.486-.093-.68-1.012.055-1.388.382-.024.964,0,1.363,0h4.756a7.753,7.753,0,0,1,1.247.046c.483.084.636,1.021-.071,1.395" transform="translate(-148.838 -258.093)" fill="#0f5f6b" stroke="#0f5f6b" stroke-linecap="round" stroke-linejoin="round" stroke-width="2"/>
        <path id="Trazado_1263735" data-name="Trazado 1263735" d="M280.354,341.736c-.806-.865-3.88-3.05-2.287-3.851a.692.692,0,0,1,.57.136c.583.54,3.949,3.349,3.3,4.108-1.017,1.184-2.258,2.212-3.288,3.383-.839.368-1.3-.684-.994-1,.892-.931,1.815-1.828,2.7-2.775" transform="translate(-249.152 -304.515)" fill="#0f5f6b" stroke="#0f5f6b" stroke-linecap="round" stroke-width="2"/>
        <path id="Trazado_1263736" data-name="Trazado 1263736" d="M98.783,345.676l-13.188,0a9.7,9.7,0,0,1-2.378-.114.725.725,0,0,1,.318-1.278c.547-.031,1.395,0,1.971,0h9.774a35.25,35.25,0,0,1,3.612.065.7.7,0,0,1-.11,1.326" transform="translate(-74.757 -310.278)" fill="#0f5f6b" stroke="#0f5f6b" stroke-linecap="round" stroke-width="2"/>
        <path id="Trazado_1263737" data-name="Trazado 1263737" d="M98.741,402.129l-14.95.008c-1.064,0-1.19-1.208-.3-1.425,1.742-.03,3.589,0,5.34,0H98.86c.539.438.634,1.216-.119,1.417" transform="translate(-74.714 -361.133)" fill="#0f5f6b" stroke="#0f5f6b" stroke-linecap="round" stroke-width="2"/>
      </g>
    </g>
  </g>
</svg>
