<svg xmlns="http://www.w3.org/2000/svg" width="201" height="190.421" viewBox="0 0 201 190.421">
  <g id="internet-svgrepo-com" transform="translate(0 -6)">
    <g id="Grupo_1204248" data-name="Grupo 1204248" transform="translate(0 6)">
      <g id="Grupo_1204247" data-name="Grupo 1204247">
        <path id="Trazado_1261787" data-name="Trazado 1261787" d="M98.737,55.368a49.368,49.368,0,1,0-49.368,49.368A49.424,49.424,0,0,0,98.737,55.368Zm-28.725,36.9c6.069-8.721,9.847-21.3,9.847-35.554,0-.457-.034-.9-.042-1.35H91.684A42.326,42.326,0,0,1,70.011,92.272ZM91.048,48.316H79.381c-1.436-13.306-6.21-24.587-13-31.662A42.4,42.4,0,0,1,91.048,48.316ZM52.895,16.288c9.514,2.641,17.344,15.676,19.385,32.028H52.895Zm0,39.08H72.766c.009.451.041.895.041,1.35,0,20.111-8.812,37.345-19.911,40.427ZM32.35,16.655c-6.786,7.076-11.56,18.356-13,31.661H7.689A42.4,42.4,0,0,1,32.35,16.655ZM7.053,55.368H18.917c-.008.453-.042.894-.042,1.35,0,14.253,3.778,26.832,9.847,35.552A42.327,42.327,0,0,1,7.053,55.368ZM45.842,97.146c-11.1-3.081-19.915-20.317-19.915-40.427,0-.456.032-.9.041-1.351H45.842Zm0-48.831H26.454c2.041-16.352,9.872-29.387,19.389-32.029Z" transform="translate(0 -6)" fill="#ffffeb"/>
        <path id="Trazado_1261788" data-name="Trazado 1261788" d="M214.486,208.165l-6.8-17V149.526A3.524,3.524,0,0,0,204.158,146H126.579a3.524,3.524,0,0,0-3.526,3.526v41.635l-6.8,17A3.527,3.527,0,0,0,119.526,213h91.684a3.527,3.527,0,0,0,3.275-4.835Zm-84.38-55.113h70.526v35.263H130.105Zm-5.372,52.895,4.232-10.579h72.806L206,205.947Z" transform="translate(-13.737 -22.579)" fill="#ffffeb"/>
        <path id="Trazado_1261789" data-name="Trazado 1261789" d="M95.469,167.376a3.526,3.526,0,0,0-4.986,4.986l3.954,3.953H57.713v-29.67l3.953,3.953a3.526,3.526,0,0,0,4.986-4.986L57.5,136.456a3.459,3.459,0,0,0-6.621,0l-9.156,9.156a3.526,3.526,0,0,0,4.986,4.986l3.954-3.953v33.2a3.524,3.524,0,0,0,3.526,3.526H94.436l-3.953,3.953a3.526,3.526,0,1,0,4.986,4.986l9.972-9.972a3.526,3.526,0,0,0,0-4.986Z" transform="translate(-4.818 -21.158)" fill="#ffffeb"/>
      </g>
    </g>
  </g>
</svg>
