<svg xmlns="http://www.w3.org/2000/svg" width="107" height="107" viewBox="0 0 107 107">
  <g id="Grupo_1205053" data-name="Grupo 1205053" transform="translate(-359.02 -1330)">
    <g id="Grupo_1119617" data-name="Grupo 1119617" transform="translate(18.52 -7363)">
      <g id="Grupo_156312" data-name="Grupo 156312" transform="translate(51.832 4244.563)">
        <path id="Elipse_5845" data-name="Elipse 5845" d="M53.5,0A53.5,53.5,0,1,1,0,53.5,53.5,53.5,0,0,1,53.5,0Z" transform="translate(288.668 4448.437)" fill="#0f5f6b"/>
      </g>
      <g id="Grupo_1098917" data-name="Grupo 1098917" transform="translate(-46.027 2674.787)">
        <path id="Trazado_873216" data-name="Trazado 873216" d="M0,0H63.184V63.186H0Z" transform="translate(408.527 6040.213)" fill="none"/>
      </g>
    </g>
    <g id="_-Product-Icons" data-name="🔍-Product-Icons" transform="translate(382.995 1356.814)">
      <g id="ic_fluent_people_community_28_filled" transform="translate(2 4)">
        <path id="_-Color" data-name="🎨-Color" d="M37.693,35.727a3.966,3.966,0,0,1,3.966,3.966V44.23l-.018.246c-.7,4.818-5.032,7.135-12.3,7.135-7.237,0-11.634-2.29-12.583-7.053l-.033-.332V39.693A3.966,3.966,0,0,1,20.7,35.727Zm1.119-13.6H52.424A3.966,3.966,0,0,1,56.39,26.1v4.537l-.018.246c-.7,4.818-5.032,7.135-12.3,7.135l-.381,0a6.237,6.237,0,0,0-5.6-4.536l-.405-.013-2.09,0A10.212,10.212,0,0,0,38.813,22.13Zm-32.847,0H19.577a10.212,10.212,0,0,0,2.81,10.993l.4.34-2.09,0a6.235,6.235,0,0,0-6,4.554h-.077c-7.236,0-11.634-2.29-12.583-7.053L2,30.628V26.1A3.966,3.966,0,0,1,5.966,22.13ZM29.195,17.6a7.932,7.932,0,1,1-7.932,7.932A7.932,7.932,0,0,1,29.195,17.6ZM43.925,4a7.932,7.932,0,1,1-7.932,7.932A7.932,7.932,0,0,1,43.925,4ZM14.464,4a7.932,7.932,0,1,1-7.932,7.932A7.932,7.932,0,0,1,14.464,4Z" transform="translate(-2 -4)" fill="#a6f6af"/>
      </g>
    </g>
  </g>
</svg>
