<svg xmlns="http://www.w3.org/2000/svg" width="107" height="107" viewBox="0 0 107 107">
  <g id="Grupo_1205054" data-name="Grupo 1205054" transform="translate(-359.02 -1542)">
    <g id="Grupo_1119617" data-name="Grupo 1119617" transform="translate(18.52 -7151)">
      <g id="Grupo_156312" data-name="Grupo 156312" transform="translate(51.832 4244.563)">
        <path id="Elipse_5845" data-name="Elipse 5845" d="M53.5,0A53.5,53.5,0,1,1,0,53.5,53.5,53.5,0,0,1,53.5,0Z" transform="translate(288.668 4448.437)" fill="#1c526e"/>
      </g>
      <g id="Grupo_1098917" data-name="Grupo 1098917" transform="translate(-46.027 2674.787)">
        <path id="Trazado_873216" data-name="Trazado 873216" d="M0,0H63.184V63.186H0Z" transform="translate(408.527 6040.213)" fill="none"/>
      </g>
    </g>
    <g id="speed-meter-svgrepo-com" transform="translate(377.406 1473.078)">
      <g id="Grupo_1204974" data-name="Grupo 1204974" transform="translate(0 91.922)">
        <path id="Trazado_1263742" data-name="Trazado 1263742" d="M52.357,173.363a.852.852,0,0,0-.21-.617l-6.752-7.682a.853.853,0,0,0-1.2-.077,35.125,35.125,0,0,0-7.655,9.559.852.852,0,0,0,.339,1.156l8.974,4.905a.852.852,0,0,0,1.157-.339,23.224,23.224,0,0,1,5.062-6.321A.849.849,0,0,0,52.357,173.363Z" transform="translate(-32.252 -156.415)" fill="#69d2cd"/>
        <path id="Trazado_1263743" data-name="Trazado 1263743" d="M163.725,107.2a.852.852,0,0,0,1.152.354,22.95,22.95,0,0,1,7.691-2.474.852.852,0,0,0,.73-.959l-1.375-10.134a.853.853,0,0,0-.959-.73,34.838,34.838,0,0,0-11.678,3.757.852.852,0,0,0-.354,1.152Z" transform="translate(-140.607 -93.094)" fill="#69d2cd"/>
        <path id="Trazado_1263744" data-name="Trazado 1263744" d="M12.139,313.456l-9.871-2.678a.852.852,0,0,0-1.046.6A35.207,35.207,0,0,0,0,320.591c0,.534.013,1.07.039,1.639a.852.852,0,0,0,.851.813H.93l10.216-.472a.852.852,0,0,0,.812-.891c-.018-.383-.026-.739-.026-1.088a23.263,23.263,0,0,1,.807-6.089A.853.853,0,0,0,12.139,313.456Z" transform="translate(0 -285.638)" fill="#69d2cd"/>
        <path id="Trazado_1263745" data-name="Trazado 1263745" d="M332.8,95.23a34.854,34.854,0,0,0-11.811-3.3.852.852,0,0,0-.931.766l-.986,10.18a.852.852,0,0,0,.766.93,22.958,22.958,0,0,1,7.78,2.175.852.852,0,0,0,1.138-.4l4.441-9.213A.852.852,0,0,0,332.8,95.23Z" transform="translate(-282.454 -91.922)" fill="#69d2cd"/>
        <path id="Trazado_1263746" data-name="Trazado 1263746" d="M446.571,167.458a.852.852,0,0,0-.1-.645,35.142,35.142,0,0,0-8.015-9.259.852.852,0,0,0-1.2.123l-6.453,7.934a.853.853,0,0,0,.124,1.2,23.237,23.237,0,0,1,5.3,6.124.852.852,0,0,0,1.169.294l8.779-5.247A.854.854,0,0,0,446.571,167.458Z" transform="translate(-381.204 -149.853)" fill="#69d2cd"/>
        <path id="Trazado_1263747" data-name="Trazado 1263747" d="M509.9,300.327a.852.852,0,0,0-1.068-.559l-9.759,3.058a.852.852,0,0,0-.558,1.068,23.2,23.2,0,0,1,1.056,6.942c0,.349-.009.705-.026,1.088a.852.852,0,0,0,.812.891l10.216.472h.04a.852.852,0,0,0,.851-.813c.026-.569.039-1.1.039-1.639A35.108,35.108,0,0,0,509.9,300.327Z" transform="translate(-441.278 -275.883)" fill="#69d2cd"/>
        <path id="Trazado_1263748" data-name="Trazado 1263748" d="M185.337,316.895c-.147,0-.293,0-.439.013l-13.845-8.169a.877.877,0,0,0-1.22,1.169l7.552,14.155a8.144,8.144,0,0,0-.043.826,7.994,7.994,0,1,0,7.994-7.994Z" transform="translate(-150.253 -283.751)" fill="#69d2cd"/>
      </g>
    </g>
  </g>
</svg>
