<svg xmlns="http://www.w3.org/2000/svg" width="107" height="107" viewBox="0 0 107 107">
  <g id="Grupo_1205055" data-name="Grupo 1205055" transform="translate(-359.02 -1757)">
    <g id="Grupo_1205051" data-name="Grupo 1205051">
      <g id="Grupo_1204606" data-name="Grupo 1204606" transform="translate(18.52 -6936)">
        <g id="Grupo_156312" data-name="Grupo 156312" transform="translate(51.832 4244.563)">
          <path id="Elipse_5845" data-name="Elipse 5845" d="M53.5,0A53.5,53.5,0,1,1,0,53.5,53.5,53.5,0,0,1,53.5,0Z" transform="translate(288.668 4448.437)" fill="#694d02"/>
        </g>
        <g id="Grupo_1098917" data-name="Grupo 1098917" transform="translate(-46.027 2674.787)">
          <path id="Trazado_873216" data-name="Trazado 873216" d="M0,0H63.184V63.186H0Z" transform="translate(408.527 6040.213)" fill="none"/>
        </g>
      </g>
      <g id="legal-hammer-symbol-svgrepo-com" transform="translate(377 1734.287)">
        <g id="Grupo_1204975" data-name="Grupo 1204975" transform="translate(0 43.48)">
          <path id="Trazado_1263749" data-name="Trazado 1263749" d="M29.032,386.456a2.672,2.672,0,0,0-2.672-2.672H6.181a2.672,2.672,0,0,0-2.344,3.955H0v5.54H32.542v-5.54H28.7A2.659,2.659,0,0,0,29.032,386.456Z" transform="translate(0 -334.259)" fill="#e3e8c0"/>
          <path id="Trazado_1263750" data-name="Trazado 1263750" d="M169.283,49.991l17.05,10.827a2.919,2.919,0,0,0,3.787-1.037l.818-1.288a2.92,2.92,0,0,0-.9-4.03L173.458,43.935a2.919,2.919,0,0,0-4.029.9l-.818,1.288A2.92,2.92,0,0,0,169.283,49.991Z" transform="translate(-143.684 -43.48)" fill="#e3e8c0"/>
          <path id="Trazado_1263751" data-name="Trazado 1263751" d="M160.662,144.116l-.012-.258-.021-.243c-.011-.166-.034-.314-.055-.466a7.5,7.5,0,0,0-.392-1.593,5.224,5.224,0,0,0-1.436-2.16c-.149-.133-.309-.249-.468-.368l-.476-.356c-.316-.239-.638-.468-.959-.7s-.643-.461-.967-.688-.647-.455-.974-.677c-.65-.45-1.307-.888-1.966-1.325l-.991-.65-1-.641c-.667-.424-1.334-.846-2.006-1.261s-1.345-.83-2.022-1.236l-2.034-1.217-2.048-1.2-2.059-1.178-2.069-1.162-2.079-1.147-2.089-1.131c-.7-.373-1.4-.748-2.1-1.114s-1.4-.738-2.11-1.1l-.64,1.008-3.226-1.521,3.606-5.679-17.05-10.827L104.152,119.2l17.05,10.827,3.606-5.679,2.749,2.273-.64,1.008c.627.486,1.26.963,1.892,1.442s1.266.954,1.9,1.427l1.912,1.41,1.923,1.394,1.932,1.379,1.942,1.362,1.953,1.345,1.967,1.324q.985.661,1.98,1.3c.662.432,1.328.856,1.995,1.28l1,.629,1.009.621c.676.41,1.352.819,2.035,1.216q.51.3,1.027.593c.343.2.687.393,1.034.582s.691.385,1.042.569l.524.28c.175.093.348.189.532.267a5.224,5.224,0,0,0,2.566.38,7.493,7.493,0,0,0,1.609-.322c.146-.046.29-.088.445-.149l.229-.084.239-.1a9.01,9.01,0,0,0,1.027-.513A9.03,9.03,0,0,0,160.662,144.116Z" transform="translate(-88.995 -96.243)" fill="#e3e8c0"/>
          <path id="Trazado_1263752" data-name="Trazado 1263752" d="M59.941,222.7l16.579,10.528a2.92,2.92,0,0,0,4.03-.9l.818-1.288a2.92,2.92,0,0,0-.672-3.869l-17.05-10.827a2.92,2.92,0,0,0-3.787,1.038l-.818,1.288A2.919,2.919,0,0,0,59.941,222.7Z" transform="translate(-50.06 -190.918)" fill="#e3e8c0"/>
        </g>
      </g>
    </g>
  </g>
</svg>
