<svg xmlns="http://www.w3.org/2000/svg" xmlns:xlink="http://www.w3.org/1999/xlink" width="129.117" height="127.499" viewBox="0 0 129.117 127.499">
  <defs>
    <clipPath id="clip-path">
      <rect id="Rectángulo_455726" data-name="Rectángulo 455726" width="65.34" height="69.603" fill="none"/>
    </clipPath>
  </defs>
  <g id="Grupo_1205047" data-name="Grupo 1205047" transform="translate(-492.348 -8836)">
    <g id="Grupo_108927" data-name="Grupo 108927" transform="translate(102.348 4369)">
      <path id="Rectángulo_36179" data-name="Rectángulo 36179" d="M0,0H129.117V127.5H0Z" transform="translate(390 4467)" fill="#b9f0e8"/>
    </g>
    <g id="Grupo_1204723" data-name="Grupo 1204723" transform="translate(523.68 8864)">
      <g id="Grupo_1204722" data-name="Grupo 1204722" transform="translate(0 0)" clip-path="url(#clip-path)">
        <path id="Trazado_1263297" data-name="Trazado 1263297" d="M17.986,15.725c-.387,0-6.1-.174-8.606,1.4v-.61a.791.791,0,1,0-1.583,0v6.6a.791.791,0,0,0,1.583.017c2.2.383,8.251.774,8.606.774a.793.793,0,0,0,.791-.791v-6.6a.791.791,0,0,0-.791-.791" transform="translate(19.381 39.074)" fill="#005294" fill-rule="evenodd"/>
        <path id="Trazado_1263298" data-name="Trazado 1263298" d="M38.215,25.817H5.2a.793.793,0,0,1-.791-.791,7.418,7.418,0,0,1,7.411-7.411H31.6a7.42,7.42,0,0,1,7.411,7.411.791.791,0,0,1-.791.791" transform="translate(10.962 43.786)" fill="#2874a3" fill-rule="evenodd"/>
        <path id="Trazado_1263299" data-name="Trazado 1263299" d="M61.624,48.856H3.719A3.72,3.72,0,0,1,0,45.141V6.742A3.72,3.72,0,0,1,3.719,3.026h57.9A3.719,3.719,0,0,1,65.34,6.742v38.4a3.719,3.719,0,0,1-3.716,3.716" transform="translate(0 7.521)" fill="#2874a3" fill-rule="evenodd"/>
        <path id="Trazado_1263300" data-name="Trazado 1263300" d="M62.631,5.617A2.137,2.137,0,0,0,60.495,3.48H2.59A2.137,2.137,0,0,0,.453,5.617V37.8a1.427,1.427,0,0,0,1.429,1.429H61.2A1.427,1.427,0,0,0,62.631,37.8Z" transform="translate(1.126 8.65)" fill="#e3f2ff" fill-rule="evenodd"/>
        <path id="Trazado_1263301" data-name="Trazado 1263301" d="M2.91,2.085V27.36a2.434,2.434,0,0,0,2.43,2.43H24.682a.791.791,0,1,0,0-1.583H40.552a.791.791,0,0,0,0,1.583h2.168a2.434,2.434,0,0,0,2.43-2.43V2.085Z" transform="translate(7.233 5.182)" fill="#c5e3ff" fill-rule="evenodd"/>
        <path id="Trazado_1263302" data-name="Trazado 1263302" d="M42.72,0H5.342A2.435,2.435,0,0,0,2.909,2.43V7.264h42.24V2.43A2.434,2.434,0,0,0,42.72,0" transform="translate(7.231 0)" fill="#2874a3" fill-rule="evenodd"/>
        <path id="Trazado_1263303" data-name="Trazado 1263303" d="M5.286,2.795h0a.957.957,0,1,1,.959-.955.957.957,0,0,1-.959.955" transform="translate(10.756 2.19)" fill="#fdd537" fill-rule="evenodd"/>
        <path id="Trazado_1263304" data-name="Trazado 1263304" d="M6.365,2.795h0A.957.957,0,1,1,7.32,1.84a.954.954,0,0,1-.955.955" transform="translate(13.448 2.19)" fill="#fd8f58" fill-rule="evenodd"/>
        <path id="Trazado_1263305" data-name="Trazado 1263305" d="M7.447,2.795h0A.957.957,0,1,1,8.4,1.84a.954.954,0,0,1-.955.955" transform="translate(16.137 2.19)" fill="#b8e352" fill-rule="evenodd"/>
        <path id="Trazado_1263306" data-name="Trazado 1263306" d="M22.933,7.3H4.838a.791.791,0,1,1,0-1.583H22.933a.791.791,0,1,1,0,1.583" transform="translate(10.06 14.213)" fill="#7ec7ec" fill-rule="evenodd"/>
        <path id="Trazado_1263307" data-name="Trazado 1263307" d="M16.739,8.566H4.838a.791.791,0,1,1,0-1.583h11.9a.791.791,0,1,1,0,1.583" transform="translate(10.06 17.358)" fill="#7ec7ec" fill-rule="evenodd"/>
        <path id="Trazado_1263308" data-name="Trazado 1263308" d="M19.774,9.83H4.837a.791.791,0,0,1,0-1.583H19.774a.791.791,0,0,1,0,1.583" transform="translate(10.057 20.499)" fill="#7ec7ec" fill-rule="evenodd"/>
        <path id="Trazado_1263309" data-name="Trazado 1263309" d="M20.792,4.771H4.838a.791.791,0,1,1,0-1.583H20.792a.791.791,0,1,1,0,1.583" transform="translate(10.06 7.924)" fill="#7ec7ec" fill-rule="evenodd"/>
        <path id="Trazado_1263310" data-name="Trazado 1263310" d="M24.2,4.771H10.215a.791.791,0,1,1,0-1.583H24.2a.791.791,0,0,1,0,1.583" transform="translate(23.426 7.924)" fill="#7ec7ec" fill-rule="evenodd"/>
        <path id="Trazado_1263311" data-name="Trazado 1263311" d="M15,6.037H4.838a.791.791,0,1,1,0-1.583H15a.791.791,0,1,1,0,1.583" transform="translate(10.06 11.071)" fill="#7ec7ec" fill-rule="evenodd"/>
        <path id="Trazado_1263312" data-name="Trazado 1263312" d="M15.185,6.037H8.443a.791.791,0,0,1,0-1.583h6.741a.791.791,0,0,1,0,1.583" transform="translate(19.021 11.071)" fill="#7ec7ec" fill-rule="evenodd"/>
        <path id="Trazado_1263313" data-name="Trazado 1263313" d="M16.247,9.681a.8.8,0,0,0-1.119,0l-2.165,2.165a.8.8,0,0,0,0,1.119l5.765,5.762,3.284-3.28Z" transform="translate(31.651 23.492)" fill="#005294" fill-rule="evenodd"/>
        <path id="Trazado_1263314" data-name="Trazado 1263314" d="M17.737,11.171l-3.284,3.284.857.857A2.324,2.324,0,0,0,18.6,12.025Z" transform="translate(35.926 27.768)" fill="#2874a3" fill-rule="evenodd"/>
        <path id="Trazado_1263315" data-name="Trazado 1263315" d="M18.826,26.072a10.521,10.521,0,1,1,7.446-3.078,10.486,10.486,0,0,1-7.446,3.078" transform="translate(20.626 12.466)" fill="#2874a3" fill-rule="evenodd"/>
        <path id="Trazado_1263316" data-name="Trazado 1263316" d="M16.521,20.531a7.3,7.3,0,1,1,5.159-2.137,7.273,7.273,0,0,1-5.159,2.137" transform="translate(22.931 14.772)" fill="#c5e3ff" fill-rule="evenodd"/>
      </g>
    </g>
  </g>
</svg>
