<svg xmlns="http://www.w3.org/2000/svg" xmlns:xlink="http://www.w3.org/1999/xlink" width="129.117" height="127.499" viewBox="0 0 129.117 127.499">
  <defs>
    <clipPath id="clip-path">
      <rect id="Rectángulo_455724" data-name="Rectángulo 455724" width="65.34" height="59.136" fill="none"/>
    </clipPath>
  </defs>
  <g id="Grupo_1205050" data-name="Grupo 1205050" transform="translate(-492.348 -8536)">
    <g id="Grupo_108927" data-name="Grupo 108927" transform="translate(102.348 4069)">
      <path id="Rectángulo_36179" data-name="Rectángulo 36179" d="M0,0H129.117V127.5H0Z" transform="translate(390 4467)" fill="#b9f0e8"/>
    </g>
    <g id="Grupo_1204719" data-name="Grupo 1204719" transform="translate(524.236 8567.255)">
      <g id="Grupo_1204718" data-name="Grupo 1204718" transform="translate(0 0)" clip-path="url(#clip-path)">
        <path id="Trazado_1263262" data-name="Trazado 1263262" d="M18.28,13.543a.745.745,0,0,0-.635.36,20.256,20.256,0,0,0-4.267-.36c-2.745,0-4.974.334-4.974.743V20.9c0,.409,2.228.743,4.974.743a20.014,20.014,0,0,0,4.267-.363.74.74,0,0,0,1.378-.38V14.286a.744.744,0,0,0-.743-.743" transform="translate(19.096 30.773)" fill="#005294" fill-rule="evenodd"/>
        <path id="Trazado_1263263" data-name="Trazado 1263263" d="M61.665,45.8H3.671A3.677,3.677,0,0,1,0,42.127V3.675A3.677,3.677,0,0,1,3.671,0H61.665A3.68,3.68,0,0,1,65.34,3.675V42.13A3.677,3.677,0,0,1,61.665,45.8" transform="translate(0 0)" fill="#2874a3" fill-rule="evenodd"/>
        <path id="Trazado_1263264" data-name="Trazado 1263264" d="M62.823,2.643A2.191,2.191,0,0,0,60.634.454H2.643A2.189,2.189,0,0,0,.454,2.643V35.359H62.823Z" transform="translate(1.032 1.032)" fill="#e3f2ff" fill-rule="evenodd"/>
        <path id="Trazado_1263265" data-name="Trazado 1263265" d="M38.513,23.707H5.447a.744.744,0,0,1-.743-.743,7.382,7.382,0,0,1,7.372-7.372H31.883a7.379,7.379,0,0,1,7.369,7.372.739.739,0,0,1-.74.743" transform="translate(10.689 35.429)" fill="#2874a3" fill-rule="evenodd"/>
        <path id="Trazado_1263266" data-name="Trazado 1263266" d="M22.315,8.817H15.659a.743.743,0,1,1,0-1.486h6.656a.743.743,0,1,1,0,1.486" transform="translate(33.886 16.658)" fill="#2874a3" fill-rule="evenodd"/>
        <path id="Trazado_1263267" data-name="Trazado 1263267" d="M21.068,8.817H12.184a.743.743,0,1,1,0-1.486h8.884a.743.743,0,0,1,0,1.486" transform="translate(25.997 16.658)" fill="#2874a3" fill-rule="evenodd"/>
        <path id="Trazado_1263268" data-name="Trazado 1263268" d="M25.571,10.653H14.223a.743.743,0,1,1,0-1.486H25.571a.743.743,0,1,1,0,1.486" transform="translate(30.63 20.829)" fill="#2874a3" fill-rule="evenodd"/>
        <path id="Trazado_1263269" data-name="Trazado 1263269" d="M16.229,10.653H12.185a.743.743,0,0,1,0-1.486h4.044a.743.743,0,0,1,0,1.486" transform="translate(25.999 20.829)" fill="#2874a3" fill-rule="evenodd"/>
        <path id="Trazado_1263270" data-name="Trazado 1263270" d="M16.755,11.161a.732.732,0,0,1-.452-.154L11.732,7.483a.75.75,0,0,1-.291-.589.741.741,0,0,1,.291-.589L16.3,2.781a.742.742,0,1,1,.906,1.175L13.4,6.894,17.21,9.833a.742.742,0,0,1-.455,1.329" transform="translate(25.997 5.966)" fill="#005294" fill-rule="evenodd"/>
        <path id="Trazado_1263271" data-name="Trazado 1263271" d="M16.295,11.161a.742.742,0,0,1-.455-1.329l3.809-2.938L15.84,3.955a.742.742,0,1,1,.906-1.175l4.571,3.527a.738.738,0,0,1,0,1.175l-4.571,3.524a.732.732,0,0,1-.452.154" transform="translate(35.334 5.966)" fill="#005294" fill-rule="evenodd"/>
        <path id="Trazado_1263272" data-name="Trazado 1263272" d="M14.43,15.714a.783.783,0,0,1-.193-.026.743.743,0,0,1-.527-.906L17.041,2.354a.742.742,0,0,1,1.433.386L15.147,15.165a.743.743,0,0,1-.717.55" transform="translate(31.096 4.099)" fill="#005294" fill-rule="evenodd"/>
        <path id="Trazado_1263273" data-name="Trazado 1263273" d="M10.233,5.134H3.309a.743.743,0,0,1,0-1.486h6.924a.743.743,0,0,1,0,1.486" transform="translate(5.831 8.289)" fill="#2874a3" fill-rule="evenodd"/>
        <path id="Trazado_1263274" data-name="Trazado 1263274" d="M15.581,6.971H7.142a.743.743,0,0,1,0-1.486h8.439a.743.743,0,1,1,0,1.486" transform="translate(14.547 12.463)" fill="#2874a3" fill-rule="evenodd"/>
        <path id="Trazado_1263275" data-name="Trazado 1263275" d="M12.936,6.971H3.312a.743.743,0,1,1,0-1.486h9.624a.743.743,0,0,1,0,1.486" transform="translate(5.831 12.463)" fill="#2874a3" fill-rule="evenodd"/>
        <path id="Trazado_1263276" data-name="Trazado 1263276" d="M17.494,8.808H6.3a.743.743,0,0,1,0-1.486H17.494a.743.743,0,1,1,0,1.486" transform="translate(12.634 16.637)" fill="#2874a3" fill-rule="evenodd"/>
        <path id="Trazado_1263277" data-name="Trazado 1263277" d="M10.439,8.808H3.309a.743.743,0,1,1,0-1.486h7.13a.743.743,0,0,1,0,1.486" transform="translate(5.831 16.637)" fill="#2874a3" fill-rule="evenodd"/>
        <path id="Trazado_1263278" data-name="Trazado 1263278" d="M12.472,10.644H8.513a.743.743,0,0,1,0-1.486h3.959a.743.743,0,1,1,0,1.486" transform="translate(17.655 20.809)" fill="#2874a3" fill-rule="evenodd"/>
        <path id="Trazado_1263279" data-name="Trazado 1263279" d="M17.71,10.644H3.309a.743.743,0,0,1,0-1.486h14.4a.743.743,0,0,1,0,1.486" transform="translate(5.831 20.809)" fill="#2874a3" fill-rule="evenodd"/>
        <path id="Trazado_1263280" data-name="Trazado 1263280" d="M17.562,5.134H6.273a.743.743,0,0,1,0-1.486H17.562a.743.743,0,1,1,0,1.486" transform="translate(12.565 8.289)" fill="#2874a3" fill-rule="evenodd"/>
        <path id="Trazado_1263281" data-name="Trazado 1263281" d="M13.295,3.3H8.151a.741.741,0,1,1,0-1.482h5.144a.741.741,0,1,1,0,1.482" transform="translate(16.833 4.122)" fill="#2874a3" fill-rule="evenodd"/>
        <path id="Trazado_1263282" data-name="Trazado 1263282" d="M16.378,3.3H3.312a.741.741,0,1,1,0-1.482H16.378a.741.741,0,1,1,0,1.482" transform="translate(5.831 4.122)" fill="#2874a3" fill-rule="evenodd"/>
      </g>
    </g>
  </g>
</svg>
