<svg xmlns="http://www.w3.org/2000/svg" xmlns:xlink="http://www.w3.org/1999/xlink" width="129.117" height="127.499" viewBox="0 0 129.117 127.499">
  <defs>
    <clipPath id="clip-path">
      <rect id="Rectángulo_455313" data-name="Rectángulo 455313" width="56.827" height="56.827" fill="#69d2cd"/>
    </clipPath>
    <clipPath id="clip-path-2">
      <rect id="Rectángulo_455809" data-name="Rectángulo 455809" width="70.425" height="58.158" fill="none"/>
    </clipPath>
  </defs>
  <g id="Grupo_1205036" data-name="Grupo 1205036" transform="translate(-598.059 -1401)">
    <g id="Grupo_108927" data-name="Grupo 108927" transform="translate(208.059 -3066)">
      <path id="Rectángulo_36179" data-name="Rectángulo 36179" d="M0,0H129.117V127.5H0Z" transform="translate(390 4467)" fill="#b9f0e8"/>
    </g>
    <g id="Grupo_1204742" data-name="Grupo 1204742" transform="translate(609.766 1414.586)">
      <g id="Grupo_1204367" data-name="Grupo 1204367" transform="translate(0 0)" clip-path="url(#clip-path)">
        <path id="Trazado_1262154" data-name="Trazado 1262154" d="M55.891,20.507,50.763,10.58l-5.491,2.837a22.422,22.422,0,0,0-4.892-4.15l1.872-5.874L31.607,0,29.744,5.844a22.433,22.433,0,0,0-6.43.525L20.507.936,10.58,6.064,13.387,11.5a22.407,22.407,0,0,0-4.15,4.94L3.393,14.575,0,25.22l5.874,1.872a22.4,22.4,0,0,0,.553,6.391L.936,36.32l5.129,9.926,5.529-2.856a22.426,22.426,0,0,0,4.881,4.083l-1.9,5.96L25.22,56.827l1.909-5.99a22.42,22.42,0,0,0,6.305-.532l2.885,5.586,9.927-5.128-2.885-5.586a22.414,22.414,0,0,0,4.083-4.834l5.99,1.909,3.393-10.645-5.96-1.9a22.419,22.419,0,0,0-.505-6.344ZM32.35,36.033a8.663,8.663,0,1,1,3.72-11.672,8.672,8.672,0,0,1-3.72,11.672" transform="translate(0 0)" fill="#69d2cd"/>
      </g>
    </g>
    <g id="Grupo_1204737" data-name="Grupo 1204737" transform="translate(640.425 1444)">
      <g id="Grupo_1204736" data-name="Grupo 1204736" clip-path="url(#clip-path-2)">
        <path id="Trazado_1263420" data-name="Trazado 1263420" d="M65.283,32.141v23.1a2.923,2.923,0,0,1-2.918,2.916H2.918A2.923,2.923,0,0,1,0,55.242V2.916A2.923,2.923,0,0,1,2.918,0H62.365a2.923,2.923,0,0,1,2.918,2.916V18.811c.066.02.13.041.2.064a3.6,3.6,0,0,1,.983.541L69.026,21.4a3.625,3.625,0,0,1,.647,5.072Z" transform="translate(-0.001)"/>
        <path id="Trazado_1263421" data-name="Trazado 1263421" d="M66.848,81.164V60.485l-8.971,11.59a.943.943,0,0,1-.434.323l-2.578.938h5.046a.937.937,0,0,1,0,1.875H39.2a.937.937,0,0,1,0-1.875h9.509l.433-4.524H39.2a.937.937,0,0,1,0-1.874H49.318l.071-.746a.925.925,0,0,1,.195-.508l2.528-3.268H39.2a.937.937,0,0,1,0-1.875H53.564l3.5-4.522H39.2a.937.937,0,0,1,0-1.874H58.515l6.317-8.159a3.562,3.562,0,0,1,1.322-1.058,3.613,3.613,0,0,1,.694-.243V40.011H5.315V81.164a1.046,1.046,0,0,0,1.041,1.041h59.45a1.047,1.047,0,0,0,1.042-1.041M39.2,49.62a.936.936,0,0,1,0-1.873H59.912a.936.936,0,1,1,0,1.873ZM28.135,70.953a2.2,2.2,0,0,1,.061.51v1a2.085,2.085,0,0,1-.443,1.292,1.649,1.649,0,0,1-1.3.644h-.016a4.084,4.084,0,0,1-1.307,2.116,5.061,5.061,0,0,1-6.5,0A4.064,4.064,0,0,1,17.324,74.4h-.018a1.65,1.65,0,0,1-1.294-.644,2.078,2.078,0,0,1-.444-1.292v-1a2.133,2.133,0,0,1,.055-.48A3.225,3.225,0,0,1,15,70.525a2.978,2.978,0,0,1-.955-2.173c0-.062.006-.5.011-.931.029-1.95.05-3.5-1.343-5.145A10.917,10.917,0,0,1,10.8,59.019a10.577,10.577,0,0,1-.665-3.684A10.33,10.33,0,0,1,17.1,45.225a13.747,13.747,0,0,1,9.5.007A10.416,10.416,0,0,1,33.628,55.4a10.531,10.531,0,0,1-.666,3.684,10.92,10.92,0,0,1-1.912,3.259c-1.449,1.709-1.429,3.1-1.4,5.05.005.428.013.88.013.958a2.973,2.973,0,0,1-.956,2.173,3.131,3.131,0,0,1-.571.428Z" transform="translate(-3.443 -25.922)" fill="#fff"/>
        <path id="Trazado_1263422" data-name="Trazado 1263422" d="M39.746,80.641a1.118,1.118,0,0,0,.362-.812c0-.581,0-.76-.006-.936-.034-2.36-.057-4.04,1.841-6.281a9.038,9.038,0,0,0,1.59-2.7,8.959,8.959,0,0,0-5.272-11.452,11.837,11.837,0,0,0-8.182-.007,8.536,8.536,0,0,0-5.748,8.361,8.7,8.7,0,0,0,.541,3.033,9.04,9.04,0,0,0,1.591,2.7c1.841,2.173,1.814,4.035,1.782,6.375,0,.166,0,.339,0,.908a1.118,1.118,0,0,0,.361.812,1.373,1.373,0,0,0,.942.364H38.8a1.37,1.37,0,0,0,.942-.364Z" transform="translate(-15.764 -37.399)" fill="#fcc16d"/>
        <path id="Trazado_1263423" data-name="Trazado 1263423" d="M50.2,137.671H45.042a2.368,2.368,0,0,0,.556.7,3.2,3.2,0,0,0,4.044,0,2.352,2.352,0,0,0,.557-.7" transform="translate(-29.182 -89.194)" fill="gray"/>
        <path id="Trazado_1263424" data-name="Trazado 1263424" d="M48.637,129.221a.285.285,0,0,0-.006-.061h-8.87a.5.5,0,0,0,0,.061v1a.5.5,0,0,0,0,.061h8.87a.285.285,0,0,0,.006-.061Z" transform="translate(-25.758 -83.68)" fill="#999"/>
        <path id="Trazado_1263425" data-name="Trazado 1263425" d="M134.459,119.586l-.465,4.857,4.586-1.668Z" transform="translate(-86.811 -77.477)" fill="#6e6e6e"/>
        <path id="Trazado_1263426" data-name="Trazado 1263426" d="M5.315,6.366v9.3H66.848v-9.3a1.047,1.047,0,0,0-1.042-1.042H6.357A1.047,1.047,0,0,0,5.315,6.366m5.944,5.13a.938.938,0,1,1,.974-.936.936.936,0,0,1-.974.936m5,0a.938.938,0,1,1,.974-.936.936.936,0,0,1-.974.936m5,0a.938.938,0,1,1,.974-.936.936.936,0,0,1-.974.936m9.979,0a.937.937,0,0,1,0-1.874H60.9a.937.937,0,0,1,0,1.874Z" transform="translate(-3.443 -3.449)" fill="#2c84c0"/>
        <path id="Trazado_1263427" data-name="Trazado 1263427" d="M156.856,63.1a1.752,1.752,0,0,0-.311-2.449l-2.563-1.984a1.708,1.708,0,0,0-.946-.358h-.03a.864.864,0,0,1-.09,0,1.8,1.8,0,0,0-.749.166,1.722,1.722,0,0,0-.633.508l-14.678,18.96,5.325,4.122q7.337-9.48,14.676-18.96" transform="translate(-88.665 -37.774)" fill="#fcc16d"/>
      </g>
    </g>
  </g>
</svg>
