<svg xmlns="http://www.w3.org/2000/svg" xmlns:xlink="http://www.w3.org/1999/xlink" width="129.117" height="127.499" viewBox="0 0 129.117 127.499">
  <defs>
    <clipPath id="clip-path">
      <rect id="Rectángulo_455725" data-name="Rectángulo 455725" width="65.34" height="58.988" fill="none"/>
    </clipPath>
  </defs>
  <g id="Grupo_1205046" data-name="Grupo 1205046" transform="translate(-492.348 -8686)">
    <g id="Grupo_108927" data-name="Grupo 108927" transform="translate(102.348 4219)">
      <path id="Rectángulo_36179" data-name="Rectángulo 36179" d="M0,0H129.117V127.5H0Z" transform="translate(390 4467)" fill="#b9f0e8"/>
    </g>
    <g id="Grupo_1204721" data-name="Grupo 1204721" transform="translate(524.236 8719.954)">
      <g id="Grupo_1204720" data-name="Grupo 1204720" transform="translate(0 0)" clip-path="url(#clip-path)">
        <path id="Trazado_1263283" data-name="Trazado 1263283" d="M18.507,13.5a.745.745,0,0,0-.635.36,20.256,20.256,0,0,0-4.267-.36c-2.745,0-5.3.334-5.3.743v6.613c0,.409,2.556.743,5.3.743a20.014,20.014,0,0,0,4.267-.363.74.74,0,0,0,1.378-.38V14.241a.744.744,0,0,0-.743-.743" transform="translate(18.869 30.671)" fill="#005294" fill-rule="evenodd"/>
        <path id="Trazado_1263284" data-name="Trazado 1263284" d="M61.665,45.8H3.671A3.677,3.677,0,0,1,0,42.127V3.675A3.677,3.677,0,0,1,3.671,0H61.665A3.68,3.68,0,0,1,65.34,3.675V42.13A3.677,3.677,0,0,1,61.665,45.8" transform="translate(0 0.001)" fill="#2874a3" fill-rule="evenodd"/>
        <path id="Trazado_1263285" data-name="Trazado 1263285" d="M62.823,2.6A2.191,2.191,0,0,0,60.634.409H2.643A2.189,2.189,0,0,0,.454,2.6V35.314H62.823Z" transform="translate(1.032 0.93)" fill="#e3f2ff" fill-rule="evenodd"/>
        <path id="Trazado_1263286" data-name="Trazado 1263286" d="M38.513,23.662H5.447a.744.744,0,0,1-.743-.743,7.382,7.382,0,0,1,7.372-7.372H31.883a7.379,7.379,0,0,1,7.369,7.372.739.739,0,0,1-.74.743" transform="translate(10.689 35.327)" fill="#2874a3" fill-rule="evenodd"/>
        <path id="Trazado_1263287" data-name="Trazado 1263287" d="M21.224,22.01H19.185a.744.744,0,0,1-.743-.743V20.119a7.155,7.155,0,0,1-1.865-.772l-.815.812a.741.741,0,0,1-1.05,0l-1.44-1.44a.747.747,0,0,1,0-1.05l.812-.815a7.177,7.177,0,0,1-.772-1.868H12.163a.744.744,0,0,1-.743-.743V12.2a.742.742,0,0,1,.743-.74h1.149A7.177,7.177,0,0,1,14.084,9.6l-.812-.815a.73.73,0,0,1-.216-.524.751.751,0,0,1,.216-.527l1.44-1.44a.741.741,0,0,1,1.05,0l.815.815a7.054,7.054,0,0,1,1.865-.776V5.181a.744.744,0,0,1,.743-.743h2.039a.744.744,0,0,1,.743.743V6.329a7.186,7.186,0,0,1,1.868.776l.815-.815a.741.741,0,0,1,1.05,0l1.44,1.44a.751.751,0,0,1,.216.527.743.743,0,0,1-.216.524l-.815.815a7.066,7.066,0,0,1,.772,1.868h1.152a.742.742,0,0,1,.743.74v2.039a.744.744,0,0,1-.743.743H27.1a7.177,7.177,0,0,1-.772,1.868l.815.815a.743.743,0,0,1,.216.524.751.751,0,0,1-.216.527l-1.44,1.44a.741.741,0,0,1-1.05,0l-.815-.812a7.177,7.177,0,0,1-1.868.772v1.149a.744.744,0,0,1-.743.743" transform="translate(25.949 10.085)" fill="#005294" fill-rule="evenodd"/>
        <path id="Trazado_1263288" data-name="Trazado 1263288" d="M17.132,14.508A4.359,4.359,0,1,1,21.49,10.15a4.366,4.366,0,0,1-4.359,4.359" transform="translate(29.023 13.159)" fill="#2874a3" fill-rule="evenodd"/>
        <path id="Trazado_1263289" data-name="Trazado 1263289" d="M32.757,4.564H11.35a.743.743,0,0,1,0-1.486H32.757a.743.743,0,1,1,0,1.486" transform="translate(24.102 6.995)" fill="#7ec7ec" fill-rule="evenodd"/>
        <path id="Trazado_1263290" data-name="Trazado 1263290" d="M32.757,2.995H11.35a.743.743,0,0,1,0-1.486H32.757a.743.743,0,1,1,0,1.486" transform="translate(24.102 3.43)" fill="#7ec7ec" fill-rule="evenodd"/>
        <path id="Trazado_1263291" data-name="Trazado 1263291" d="M8,10.023A.725.725,0,0,1,7.55,9.87L3.469,6.722a.741.741,0,0,1,0-1.178L7.55,2.4A.742.742,0,0,1,8.456,3.57L5.138,6.133,8.456,8.692A.744.744,0,0,1,8,10.023" transform="translate(7.221 5.095)" fill="#005294" fill-rule="evenodd"/>
        <path id="Trazado_1263292" data-name="Trazado 1263292" d="M7.59,10.023a.741.741,0,0,1-.455-1.329l3.321-2.562L7.135,3.573A.743.743,0,1,1,8.045,2.4l4.08,3.148a.743.743,0,0,1,0,1.175L8.045,9.869a.741.741,0,0,1-.455.154" transform="translate(15.558 5.096)" fill="#005294" fill-rule="evenodd"/>
        <path id="Trazado_1263293" data-name="Trazado 1263293" d="M5.928,14.087a.763.763,0,0,1-.193-.026.742.742,0,0,1-.53-.906L8.18,2.058a.743.743,0,0,1,1.437.383l-2.971,11.1a.743.743,0,0,1-.717.55" transform="translate(11.771 3.431)" fill="#005294" fill-rule="evenodd"/>
        <path id="Trazado_1263294" data-name="Trazado 1263294" d="M24.515,7.7H3.108a.743.743,0,0,1,0-1.486H24.515a.743.743,0,1,1,0,1.486" transform="translate(5.374 14.123)" fill="#7ec7ec" fill-rule="evenodd"/>
        <path id="Trazado_1263295" data-name="Trazado 1263295" d="M24.515,9.271H3.108a.743.743,0,0,1,0-1.486H24.515a.743.743,0,1,1,0,1.486" transform="translate(5.374 17.69)" fill="#7ec7ec" fill-rule="evenodd"/>
        <path id="Trazado_1263296" data-name="Trazado 1263296" d="M24.515,10.84H3.108a.743.743,0,1,1,0-1.486H24.515a.743.743,0,1,1,0,1.486" transform="translate(5.374 21.255)" fill="#7ec7ec" fill-rule="evenodd"/>
      </g>
    </g>
  </g>
</svg>
