<svg xmlns="http://www.w3.org/2000/svg" xmlns:xlink="http://www.w3.org/1999/xlink" width="129" height="127" viewBox="0 0 129 127">
  <defs>
    <clipPath id="clip-path">
      <rect id="Rectángulo_455313" data-name="Rectángulo 455313" width="56.827" height="56.827" fill="#69d2cd"/>
    </clipPath>
    <clipPath id="clip-path-2">
      <rect id="Rectángulo_455808" data-name="Rectángulo 455808" width="65.575" height="58.405" fill="none"/>
    </clipPath>
  </defs>
  <g id="Grupo_1205037" data-name="Grupo 1205037" transform="translate(-598.059 -1260)">
    <g id="Grupo_108927" data-name="Grupo 108927" transform="translate(208 -3207)">
      <rect id="Rectángulo_36179" data-name="Rectángulo 36179" width="129" height="127" transform="translate(390.059 4467)" fill="#b9f0e8"/>
      <path id="Rectángulo_36181" data-name="Rectángulo 36181" d="M6.106,0H81.412a21.71,21.71,0,0,1,21.71,21.71V95.659a6.106,6.106,0,0,1-6.106,6.106H6.106A6.106,6.106,0,0,1,0,95.659V6.106A6.106,6.106,0,0,1,6.106,0Z" transform="translate(402.89 4479.89)" fill="#b9f0e8"/>
    </g>
    <g id="Grupo_1204368" data-name="Grupo 1204368" transform="translate(609.766 1272.586)">
      <g id="Grupo_1204367" data-name="Grupo 1204367" transform="translate(0 0)" clip-path="url(#clip-path)">
        <path id="Trazado_1262154" data-name="Trazado 1262154" d="M55.891,20.507,50.763,10.58l-5.491,2.837a22.422,22.422,0,0,0-4.892-4.15l1.872-5.874L31.607,0,29.744,5.844a22.433,22.433,0,0,0-6.43.525L20.507.936,10.58,6.064,13.387,11.5a22.407,22.407,0,0,0-4.15,4.94L3.393,14.575,0,25.22l5.874,1.872a22.4,22.4,0,0,0,.553,6.391L.936,36.32l5.129,9.926,5.529-2.856a22.426,22.426,0,0,0,4.881,4.083l-1.9,5.96L25.22,56.827l1.909-5.99a22.42,22.42,0,0,0,6.305-.532l2.885,5.586,9.927-5.128-2.885-5.586a22.414,22.414,0,0,0,4.083-4.834l5.99,1.909,3.393-10.645-5.96-1.9a22.419,22.419,0,0,0-.505-6.344ZM32.35,36.033a8.663,8.663,0,1,1,3.72-11.672,8.672,8.672,0,0,1-3.72,11.672" transform="translate(0 0)" fill="#69d2cd"/>
      </g>
    </g>
    <g id="Grupo_1204735" data-name="Grupo 1204735" transform="translate(640.425 1303)">
      <g id="Grupo_1204734" data-name="Grupo 1204734" clip-path="url(#clip-path-2)">
        <path id="Trazado_1263413" data-name="Trazado 1263413" d="M2.865,0H62.71a2.87,2.87,0,0,1,2.865,2.865V55.538A2.874,2.874,0,0,1,62.71,58.4H2.865A2.873,2.873,0,0,1,0,55.538V2.865A2.869,2.869,0,0,1,2.865,0"/>
        <path id="Trazado_1263414" data-name="Trazado 1263414" d="M112.225,104.517a.871.871,0,0,1-.642-.666l-.309-1.435-2.292.03-.257,1.357a.869.869,0,0,1-.615.715,7.31,7.31,0,0,0-1.338.553.871.871,0,0,1-.93-.007l-1.237-.8-1.6,1.641.794,1.166a.873.873,0,0,1,.057.915,7.064,7.064,0,0,0-.562,1.352.869.869,0,0,1-.665.641l-1.435.31.028,2.291,1.359.259a.869.869,0,0,1,.716.614,7.279,7.279,0,0,0,.553,1.339.871.871,0,0,1-.007.93l-.8,1.237,1.641,1.6,1.165-.794a.871.871,0,0,1,.916-.057,7.055,7.055,0,0,0,1.336.556.868.868,0,0,1,.657.67l.311,1.435,2.291-.03.257-1.357a.876.876,0,0,1,.614-.718,7.174,7.174,0,0,0,1.339-.551.871.871,0,0,1,.932.007l1.237.8,1.6-1.641-.792-1.166a.866.866,0,0,1-.057-.915,7.164,7.164,0,0,0,.56-1.352.871.871,0,0,1,.664-.643l1.435-.309-.028-2.292-1.357-.258a.87.87,0,0,1-.717-.614,7.257,7.257,0,0,0-.551-1.337.87.87,0,0,1,.007-.931l.8-1.238-1.64-1.6-1.166.794a.871.871,0,0,1-.917.056,7.012,7.012,0,0,0-1.35-.56Zm-2.1,2.35v0a4.524,4.524,0,0,1,4.57,4.382,4.53,4.53,0,0,1-4.478,4.671v0a4.531,4.531,0,0,1-4.574-4.48h0a4.526,4.526,0,0,1,4.383-4.567c.031,0,.065,0,.1,0Z" transform="translate(-68.013 -68.836)" fill="#3b98d3"/>
        <path id="Trazado_1263415" data-name="Trazado 1263415" d="M146.683,60.583a.87.87,0,0,1-.835-.418l-.415-.686-1.092.39.1.718a.872.872,0,0,1-.349.88c-.081.06-.736.654-.736.654a.873.873,0,0,1-.852.259l-.782-.192-.495,1.046.62.465a.869.869,0,0,1,.337.837,4.732,4.732,0,0,0-.059.936.873.873,0,0,1-.417.835l-.688.415.39,1.091.719-.1a.872.872,0,0,1,.879.347c.048.067.654.736.654.736a.873.873,0,0,1,.259.852l-.193.783,1.047.5.465-.62a.873.873,0,0,1,.837-.339,4.743,4.743,0,0,0,.937.061.871.871,0,0,1,.835.417l.415.686,1.091-.39-.1-.717a.873.873,0,0,1,.347-.88c.066-.048.736-.652.736-.652a.867.867,0,0,1,.852-.259l.782.193.5-1.048-.62-.465a.869.869,0,0,1-.339-.837,4.733,4.733,0,0,0,.061-.936.871.871,0,0,1,.417-.835l.686-.415-.39-1.091-.718.1a.87.87,0,0,1-.88-.349c-.059-.081-.653-.736-.653-.736a.871.871,0,0,1-.261-.852l.194-.783-1.048-.494-.465.619a.868.868,0,0,1-.837.337,4.762,4.762,0,0,0-.937-.06m-2.917,3.264a3.408,3.408,0,1,1-.13,2.608,3.4,3.4,0,0,1,.13-2.608" transform="translate(-94.786 -39.977)" fill="#3b98d3"/>
        <path id="Trazado_1263416" data-name="Trazado 1263416" d="M67.408,42.821H5.324v41.5a1.126,1.126,0,0,0,1.12,1.121H66.289a1.126,1.126,0,0,0,1.119-1.121ZM25.174,69.038A.873.873,0,1,1,23.94,67.8l3.6-3.6-3.6-3.6a.873.873,0,1,1,1.234-1.234l4.217,4.219a.872.872,0,0,1,0,1.234Zm-9.016-1.38a.872.872,0,1,1-1.233,1.234l-4.218-4.217a.873.873,0,0,1,0-1.234l4.218-4.217a.872.872,0,1,1,1.233,1.234l-3.6,3.6ZM19.137,70.9a.871.871,0,0,1-1.682-.45L20.961,57.36a.872.872,0,0,1,1.684.45Zm29.61-7.958c.249.091.5.192.739.3l1.344-.915a.872.872,0,0,1,1.123.119l2.636,2.571a.871.871,0,0,1,.125,1.093L53.8,67.533q.172.361.309.737l1.6.3a.874.874,0,0,1,.71.892l.045,3.671a.871.871,0,0,1-.688.861l-1.642.355q-.136.376-.3.739l.915,1.343a.873.873,0,0,1-.119,1.123l-2.572,2.636a.869.869,0,0,1-1.094.124l-1.415-.912c-.241.115-.487.218-.738.311l-.3,1.594a.872.872,0,0,1-.892.709l-3.671.046a.869.869,0,0,1-.86-.689l-.356-1.643c-.251-.09-.5-.191-.739-.3l-1.346.915a.87.87,0,0,1-1.122-.119l-2.634-2.571a.869.869,0,0,1-.126-1.093l.914-1.417c-.115-.241-.218-.486-.311-.737l-1.594-.3a.873.873,0,0,1-.71-.892l-.046-3.671a.872.872,0,0,1,.689-.86l1.641-.355c.089-.251.191-.5.3-.739l-.915-1.343a.869.869,0,0,1,.12-1.123l2.57-2.636a.871.871,0,0,1,1.094-.126l1.415.913c.241-.115.488-.217.739-.311l.3-1.595a.87.87,0,0,1,.891-.709l3.671-.046a.87.87,0,0,1,.861.689Zm7.131-15.3c.093,0,.186.01.277.017l.589-.788a.873.873,0,0,1,1.114-.244l2.292,1.083a.873.873,0,0,1,.469,1.017l-.239.973c.063.068.126.138.186.209l.973-.141a.874.874,0,0,1,.943.57l.872,2.433a.868.868,0,0,1-.4,1.056l-.845.512c0,.093-.008.186-.017.277l.788.588a.874.874,0,0,1,.244,1.116l-1.083,2.29a.871.871,0,0,1-1.015.469l-.972-.24c-.07.063-.14.126-.211.186L59.98,60a.872.872,0,0,1-.57.943l-2.432.872a.871.871,0,0,1-1.057-.4l-.512-.845c-.093,0-.184-.009-.277-.017l-.588.788a.871.871,0,0,1-1.115.244L51.137,60.5a.872.872,0,0,1-.469-1.015l.241-.973c-.065-.07-.126-.139-.188-.211l-.973.141a.872.872,0,0,1-.943-.57l-.872-2.432a.874.874,0,0,1,.4-1.058l.845-.512c0-.093.01-.184.017-.277l-.787-.588a.871.871,0,0,1-.244-1.114L49.248,49.6a.873.873,0,0,1,1.017-.47l.973.241c.068-.065.137-.126.209-.188l-.141-.973a.874.874,0,0,1,.57-.943l2.433-.87a.871.871,0,0,1,1.056.4Z" transform="translate(-3.578 -28.781)" fill="#fff"/>
        <path id="Trazado_1263417" data-name="Trazado 1263417" d="M16.416,11.539a.874.874,0,1,1,.91-.871.872.872,0,0,1-.91.871m5.036,0a.874.874,0,1,1,.91-.871.872.872,0,0,1-.91.871m10.045,0a.873.873,0,0,1,0-1.746H61.354a.873.873,0,0,1,0,1.746ZM5.324,15.874H67.408V6.444a1.124,1.124,0,0,0-1.12-1.119H6.443A1.124,1.124,0,0,0,5.324,6.444Zm6.054-4.335a.874.874,0,1,1,.91-.871.872.872,0,0,1-.91.871" transform="translate(-3.578 -3.579)" fill="#2c84c0"/>
        <path id="Trazado_1263418" data-name="Trazado 1263418" d="M122.82,121.309a2.786,2.786,0,0,0-2.739,2.884,2.787,2.787,0,0,0,4.779,1.844,2.784,2.784,0,0,0-.049-3.938,2.782,2.782,0,0,0-1.992-.792Z" transform="translate(-80.71 -81.533)" fill="#f3f5fb"/>
        <path id="Trazado_1263419" data-name="Trazado 1263419" d="M154.808,72.255a1.666,1.666,0,1,0,1.279.062,1.667,1.667,0,0,0-1.279-.062Z" transform="translate(-103.306 -48.498)" fill="#f3f5fb"/>
      </g>
    </g>
  </g>
</svg>
