<svg xmlns="http://www.w3.org/2000/svg" xmlns:xlink="http://www.w3.org/1999/xlink" width="129.117" height="127.499" viewBox="0 0 129.117 127.499">
  <defs>
    <clipPath id="clip-path">
      <rect id="Rectángulo_455313" data-name="Rectángulo 455313" width="56.827" height="56.827" fill="#69d2cd"/>
    </clipPath>
    <clipPath id="clip-path-2">
      <rect id="Rectángulo_455811" data-name="Rectángulo 455811" width="74.304" height="58.15" fill="none"/>
    </clipPath>
  </defs>
  <g id="Grupo_1205034" data-name="Grupo 1205034" transform="translate(-598.059 -1681)">
    <g id="Grupo_108927" data-name="Grupo 108927" transform="translate(208.059 -2786)">
      <path id="Rectángulo_36179" data-name="Rectángulo 36179" d="M0,0H129.117V127.5H0Z" transform="translate(390 4467)" fill="#b9f0e8"/>
    </g>
    <g id="Grupo_1204744" data-name="Grupo 1204744" transform="translate(609.766 1694.586)">
      <g id="Grupo_1204367" data-name="Grupo 1204367" transform="translate(0 0)" clip-path="url(#clip-path)">
        <path id="Trazado_1262154" data-name="Trazado 1262154" d="M55.891,20.507,50.763,10.58l-5.491,2.837a22.422,22.422,0,0,0-4.892-4.15l1.872-5.874L31.607,0,29.744,5.844a22.433,22.433,0,0,0-6.43.525L20.507.936,10.58,6.064,13.387,11.5a22.407,22.407,0,0,0-4.15,4.94L3.393,14.575,0,25.22l5.874,1.872a22.4,22.4,0,0,0,.553,6.391L.936,36.32l5.129,9.926,5.529-2.856a22.426,22.426,0,0,0,4.881,4.083l-1.9,5.96L25.22,56.827l1.909-5.99a22.42,22.42,0,0,0,6.305-.532l2.885,5.586,9.927-5.128-2.885-5.586a22.414,22.414,0,0,0,4.083-4.834l5.99,1.909,3.393-10.645-5.96-1.9a22.419,22.419,0,0,0-.505-6.344ZM32.35,36.033a8.663,8.663,0,1,1,3.72-11.672,8.672,8.672,0,0,1-3.72,11.672" transform="translate(0 0)" fill="#69d2cd"/>
      </g>
    </g>
    <g id="Grupo_1204741" data-name="Grupo 1204741" transform="translate(640.425 1723.85)">
      <g id="Grupo_1204740" data-name="Grupo 1204740" clip-path="url(#clip-path-2)">
        <path id="Trazado_1263434" data-name="Trazado 1263434" d="M65.259,26.411A16.822,16.822,0,1,1,44.694,52.254H2.757A2.763,2.763,0,0,1,0,49.5V2.757A2.762,2.762,0,0,1,2.757,0H62.5a2.764,2.764,0,0,1,2.759,2.757Z"/>
        <path id="Trazado_1263435" data-name="Trazado 1263435" d="M60.826,46.31a16.766,16.766,0,0,1,5.8,1.026V34.686H5.319V71.3a.786.786,0,0,0,.781.779H46.58A16.821,16.821,0,0,1,60.826,46.31M31.57,59a.989.989,0,0,1-1.4-1.4l4.641-4.643-4.641-4.641a.989.989,0,0,1,1.4-1.4l5.341,5.342a.989.989,0,0,1,0,1.4ZM23.9,61.406a.988.988,0,0,1-1.909-.51l4.442-16.579a.988.988,0,0,1,1.908.51Zm-3.743-3.994a.989.989,0,0,1-1.4,1.4l-5.341-5.341a.99.99,0,0,1,0-1.4l5.341-5.341a.989.989,0,0,1,1.4,1.4l-4.643,4.643Z" transform="translate(-3.343 -21.799)" fill="#fff"/>
        <path id="Trazado_1263436" data-name="Trazado 1263436" d="M11.2,10.834a.989.989,0,1,1,1.026-.988.988.988,0,0,1-1.026.988m4.994,0a.989.989,0,1,1,1.026-.988.988.988,0,0,1-1.026.988m4-.988a1.008,1.008,0,1,1,1.026.988A.99.99,0,0,1,20.2,9.846m10.948.988a.988.988,0,0,1,0-1.976h29.6a.988.988,0,0,1,0,1.976ZM5.318,14.251h61.3V6.1a.787.787,0,0,0-.781-.782H6.1a.787.787,0,0,0-.781.782v8.151Z" transform="translate(-3.342 -3.343)" fill="#2c84c0"/>
        <path id="Trazado_1263437" data-name="Trazado 1263437" d="M140.11,75.639a14.843,14.843,0,1,0,4.347,10.5,14.8,14.8,0,0,0-4.347-10.5M129.615,80.6a.989.989,0,0,1,.988.99V93.155h1.581a.989.989,0,0,1,0,1.978h-5.14a.989.989,0,0,1,0-1.978h1.581V82.58h-1.1a.989.989,0,0,1,0-1.978Zm.033-3.749a1.305,1.305,0,1,1-.066,0Z" transform="translate(-72.132 -44.805)" fill="#fcc16d"/>
      </g>
    </g>
  </g>
</svg>
