<svg xmlns="http://www.w3.org/2000/svg" xmlns:xlink="http://www.w3.org/1999/xlink" width="129.117" height="127.499" viewBox="0 0 129.117 127.499">
  <defs>
    <clipPath id="clip-path">
      <rect id="Rectángulo_455723" data-name="Rectángulo 455723" width="65.34" height="59.044" fill="none"/>
    </clipPath>
  </defs>
  <g id="Grupo_1205045" data-name="Grupo 1205045" transform="translate(-492.348 -8386)">
    <g id="Grupo_108927" data-name="Grupo 108927" transform="translate(102.348 3919)">
      <path id="Rectángulo_36179" data-name="Rectángulo 36179" d="M0,0H129.117V127.5H0Z" transform="translate(390 4467)" fill="#b9f0e8"/>
    </g>
    <g id="Grupo_1204717" data-name="Grupo 1204717" transform="translate(524.236 8416.145)">
      <g id="Grupo_1204716" data-name="Grupo 1204716" transform="translate(0 0)" clip-path="url(#clip-path)">
        <path id="Trazado_1263248" data-name="Trazado 1263248" d="M18.28,13.543a.742.742,0,0,0-.635.36,20.256,20.256,0,0,0-4.267-.36c-2.745,0-4.974.334-4.974.743V20.9c0,.409,2.228.743,4.974.743a20.014,20.014,0,0,0,4.267-.363.74.74,0,0,0,1.378-.38V14.286a.744.744,0,0,0-.743-.743" transform="translate(19.096 30.773)" fill="#005294" fill-rule="evenodd"/>
        <path id="Trazado_1263249" data-name="Trazado 1263249" d="M61.665,45.8H3.671A3.677,3.677,0,0,1,0,42.127V3.675A3.677,3.677,0,0,1,3.671,0H61.665A3.68,3.68,0,0,1,65.34,3.675V42.127A3.68,3.68,0,0,1,61.665,45.8" transform="translate(0 0)" fill="#2874a3" fill-rule="evenodd"/>
        <path id="Trazado_1263250" data-name="Trazado 1263250" d="M38.513,23.679H5.447a.744.744,0,0,1-.743-.743,7.382,7.382,0,0,1,7.372-7.372H31.883a7.379,7.379,0,0,1,7.369,7.372.739.739,0,0,1-.74.743" transform="translate(10.689 35.365)" fill="#2874a3" fill-rule="evenodd"/>
        <path id="Trazado_1263251" data-name="Trazado 1263251" d="M13.019,14.461A7.834,7.834,0,0,0,.454,8.211V21.346H9.116a8.2,8.2,0,0,0,3.9-6.885" transform="translate(1.032 15.044)" fill="#002d72" fill-rule="evenodd"/>
        <path id="Trazado_1263252" data-name="Trazado 1263252" d="M20.971,21.989l0-4-3.439,0a12.435,12.435,0,0,0-2.2-5.317l2.431-2.431-2.824-2.83L12.509,9.839A12.468,12.468,0,0,0,7.192,7.633l0-3.442h-4l0,3.439A12.254,12.254,0,0,0,.454,8.4v5.334a7.831,7.831,0,0,1,12.565,6.247,8.191,8.191,0,0,1-3.9,6.885h6.358a14.359,14.359,0,0,0,2.058-4.882Z" transform="translate(1.032 9.523)" fill="#005294" fill-rule="evenodd"/>
        <path id="Trazado_1263253" data-name="Trazado 1263253" d="M62.823,2.643A2.191,2.191,0,0,0,60.634.454H2.643A2.189,2.189,0,0,0,.454,2.643V16.89a12.4,12.4,0,0,1,2.739-.772l0-3.439,4,0,0,3.439a12.432,12.432,0,0,1,5.317,2.209L14.943,15.9l2.824,2.83-2.435,2.431a12.418,12.418,0,0,1,2.2,5.317l3.439,0v4l-3.442,0a14.387,14.387,0,0,1-2.058,4.882H62.823Z" transform="translate(1.032 1.032)" fill="#e3f2ff" fill-rule="evenodd"/>
        <path id="Trazado_1263254" data-name="Trazado 1263254" d="M29.895,6.491a.573.573,0,0,0-.013-.131l0-.02a.7.7,0,0,0-.036-.108L29.826,6.2a.659.659,0,0,0-.046-.082l-.02-.036a1.182,1.182,0,0,0-.082-.1h0l-4.29-4.293a.793.793,0,0,0-.1-.082l-.033-.02-.079-.046-.039-.016a.679.679,0,0,0-.108-.033l-.02-.007c-.043-.007-.085-.01-.131-.013H10.281a.742.742,0,0,0-.743.743v8.446a.74.74,0,0,0,.743.743l18.871,2.673a.742.742,0,0,0,.743-.743V6.491" transform="translate(21.672 3.342)" fill="#c5e3ff" fill-rule="evenodd"/>
        <path id="Trazado_1263255" data-name="Trazado 1263255" d="M19.541,3.88h-8.3a.743.743,0,1,1,0-1.486h8.3a.743.743,0,1,1,0,1.486" transform="translate(23.858 5.44)" fill="#7ec7ec" fill-rule="evenodd"/>
        <path id="Trazado_1263256" data-name="Trazado 1263256" d="M19.541,4.657h-8.3a.743.743,0,1,1,0-1.486h8.3a.743.743,0,1,1,0,1.486" transform="translate(23.858 7.205)" fill="#7ec7ec" fill-rule="evenodd"/>
        <path id="Trazado_1263257" data-name="Trazado 1263257" d="M37.518,7.468a.744.744,0,0,0-.743-.743H22L19.344,4.252a.744.744,0,0,0-.507-.2H9.6a.744.744,0,0,0-.743.743V18.829H37.518Z" transform="translate(20.116 9.207)" fill="#fdae48" fill-rule="evenodd"/>
        <path id="Trazado_1263258" data-name="Trazado 1263258" d="M8.853,8.568v3.544a.742.742,0,0,0,.743.74H36.775a.742.742,0,0,0,.743-.74V8.568Z" transform="translate(20.116 19.468)" fill="#e69e41" fill-rule="evenodd"/>
        <path id="Trazado_1263259" data-name="Trazado 1263259" d="M14.561,11.563a.725.725,0,0,1-.452-.154L11.38,9.3a.741.741,0,0,1,0-1.178l2.729-2.1A.742.742,0,1,1,15.016,7.2L13.049,8.713l1.967,1.518a.744.744,0,0,1-.455,1.332" transform="translate(25.197 13.332)" fill="#db973e" fill-rule="evenodd"/>
        <path id="Trazado_1263260" data-name="Trazado 1263260" d="M14.832,11.563a.741.741,0,0,1-.455-1.329l1.967-1.518L14.377,7.2a.742.742,0,1,1,.906-1.175l2.732,2.1a.746.746,0,0,1,0,1.178l-2.732,2.107a.771.771,0,0,1-.452.151" transform="translate(32.01 13.332)" fill="#db973e" fill-rule="evenodd"/>
        <path id="Trazado_1263261" data-name="Trazado 1263261" d="M13.446,14.28a.783.783,0,0,1-.193-.026.743.743,0,0,1-.527-.906l1.99-7.421a.742.742,0,0,1,1.433.383L14.163,13.73a.743.743,0,0,1-.717.55" transform="translate(28.86 12.218)" fill="#db973e" fill-rule="evenodd"/>
      </g>
    </g>
  </g>
</svg>
