<svg xmlns="http://www.w3.org/2000/svg" xmlns:xlink="http://www.w3.org/1999/xlink" width="261" height="145" viewBox="0 0 261 145">
  <defs>
    <clipPath id="clip-path">
      <rect id="Rectángulo_455998" data-name="Rectángulo 455998" width="188.121" height="98" fill="none"/>
    </clipPath>
    <clipPath id="clip-path-2">
      <rect id="Rectángulo_455885" data-name="Rectángulo 455885" width="37.069" height="2.19" fill="none"/>
    </clipPath>
    <clipPath id="clip-path-3">
      <rect id="Rectángulo_455917" data-name="Rectángulo 455917" width="21.833" height="31.842" fill="none"/>
    </clipPath>
  </defs>
  <g id="Grupo_1205041" data-name="Grupo 1205041" transform="translate(-1018.289 -6885)">
    <rect id="Rectángulo_454987" data-name="Rectángulo 454987" width="261" height="145" rx="25" transform="translate(1018.289 6885)" fill="#f7f7d7"/>
    <g id="Grupo_1204899" data-name="Grupo 1204899" transform="translate(1078 6844)">
      <g id="Grupo_1204898" data-name="Grupo 1204898" transform="translate(-18 53)" clip-path="url(#clip-path)">
        <g id="Grupo_1204897" data-name="Grupo 1204897" transform="translate(9.901 19.561)">
          <g id="Grupo_1204900" data-name="Grupo 1204900">
            <path id="Trazado_1263568" data-name="Trazado 1263568" d="M768.766,615.834l1.569.354s.066-.288.165-.719.189-1.017.3-1.6.179-1.169.241-1.607.1-.733.1-.733l-1.6-.181s-.038.282-.094.7-.118.988-.232,1.547-.2,1.122-.286,1.54-.16.694-.16.694" transform="translate(-660.118 -610.104)" fill="#efefef"/>
            <path id="Trazado_1263569" data-name="Trazado 1263569" d="M754.827,662.751l1.505.568s.1-.276.258-.688.345-.972.526-1.532.379-1.116.487-1.546l.2-.71-1.55-.43-.191.686c-.1.415-.3.953-.471,1.5s-.351,1.088-.511,1.486l-.251.669" transform="translate(-648.149 -650.517)" fill="#efefef"/>
            <path id="Trazado_1263570" data-name="Trazado 1263570" d="M735.182,707.966l1.432.733.337-.651c.207-.389.443-.928.7-1.458s.51-1.059.673-1.47l.286-.677-1.482-.627-.278.659c-.158.4-.415.913-.656,1.433s-.477,1.043-.68,1.422l-.329.637" transform="translate(-631.281 -689.503)" fill="#efefef"/>
            <path id="Trazado_1263571" data-name="Trazado 1263571" d="M711.172,751.17l1.359.86,1.222-2c.31-.5.583-1.018.8-1.4l.36-.638-1.408-.779-.352.626c-.217.372-.483.88-.787,1.369-.6.98-1.2,1.961-1.2,1.961" transform="translate(-610.664 -726.768)" fill="#efefef"/>
            <path id="Trazado_1263572" data-name="Trazado 1263572" d="M683.659,792.279l1.292.957.439-.584c.26-.353.592-.836.931-1.312l.926-1.316.4-.612-1.337-.894-.4.6-.911,1.294c-.334.469-.66.943-.916,1.291l-.432.576" transform="translate(-587.039 -762.234)" fill="#efefef"/>
            <path id="Trazado_1263586" data-name="Trazado 1263586" d="M1105.452,898.147l2,.785.374-.88c.219-.53.487-1.246.767-1.957s.552-1.427.76-1.961l.317-.9-2.035-.691-.311.886-.748,1.929c-.275.7-.539,1.4-.753,1.926l-.368.867" transform="translate(-949.222 -851.555)" fill="#efefef"/>
            <path id="Trazado_1263587" data-name="Trazado 1263587" d="M224.02,831.57l-1.537.471s.281.918.583,1.832c.151.456.308.912.43,1.254l.21.576,1.5-.574-.2-.541c-.118-.33-.271-.775-.419-1.222-.3-.893-.572-1.8-.572-1.8" transform="translate(-191.04 -799.202)" fill="#efefef"/>
            <path id="Trazado_1263588" data-name="Trazado 1263588" d="M213.282,793.2l-1.56.386.144.582c.091.348.212.812.333,1.276.247.927.511,1.849.511,1.849l1.545-.442s-.259-.908-.5-1.821l-.327-1.257-.142-.573" transform="translate(-181.8 -766.258)" fill="#efefef"/>
            <path id="Trazado_1263589" data-name="Trazado 1263589" d="M204.586,754.317l-1.578.306.115.588c.073.352.17.822.267,1.291s.205.937.282,1.288l.132.584,1.566-.36-.13-.577c-.075-.346-.184-.806-.277-1.269s-.191-.925-.263-1.272-.112-.58-.112-.58" transform="translate(-174.317 -732.867)" fill="#efefef"/>
            <path id="Trazado_1263608" data-name="Trazado 1263608" d="M641.26,1035.656c-4.409-3.894-2.4-12.979-2.4-12.979H625.714s2,9.085-2.4,12.979a15.806,15.806,0,0,1-9.56,3.894v2.19h37.069v-2.19a15.808,15.808,0,0,1-9.56-3.894" transform="translate(-527.01 -963.3)" fill="#a5a5a5"/>
            <g id="Grupo_1204886" data-name="Grupo 1204886" transform="translate(86.74 76.25)" opacity="0.3" style="isolation: isolate">
              <g id="Grupo_1204885" data-name="Grupo 1204885">
                <g id="Grupo_1204884" data-name="Grupo 1204884" clip-path="url(#clip-path-2)">
                  <rect id="Rectángulo_455884" data-name="Rectángulo 455884" width="37.069" height="2.19" transform="translate(0 0)" fill="#fff"/>
                </g>
              </g>
            </g>
            <path id="Rectángulo_455886" data-name="Rectángulo 455886" d="M29.689,0H68.3A29.687,29.687,0,0,1,97.989,29.687v0A29.685,29.685,0,0,1,68.3,59.377H29.687A29.687,29.687,0,0,1,0,29.689v0A29.689,29.689,0,0,1,29.689,0Z" transform="translate(56.28)" fill="#ccc"/>
            <path id="Trazado_1263609" data-name="Trazado 1263609" d="M398.226,620.03v47.7a5.8,5.8,0,0,0,.887,3.083h96.216a5.8,5.8,0,0,0,.887-3.083v-47.7a5.81,5.81,0,0,0-1.523-3.922H399.748a5.813,5.813,0,0,0-1.522,3.922" transform="translate(-341.946 -614.191)" fill="#223666"/>
            <rect id="Rectángulo_455887" data-name="Rectángulo 455887" width="89.554" height="50.698" transform="translate(60.497 3.894)" fill="#e2e2e2"/>
            <rect id="Rectángulo_455888" data-name="Rectángulo 455888" width="14.057" height="13.004" transform="translate(65.917 15.289)" fill="#f95a78"/>
            <rect id="Rectángulo_455889" data-name="Rectángulo 455889" width="14.056" height="13.004" transform="translate(99.74 15.289)" fill="#f9f94b"/>
            <rect id="Rectángulo_455890" data-name="Rectángulo 455890" width="14.057" height="13.004" transform="translate(129.766 15.289)" fill="#f49625"/>
            <rect id="Rectángulo_455891" data-name="Rectángulo 455891" width="22.536" height="0.948" transform="translate(65.917 31.021)" fill="#aec647"/>
            <rect id="Rectángulo_455892" data-name="Rectángulo 455892" width="22.536" height="0.948" transform="translate(65.917 33.863)" fill="#f3ae1b"/>
            <rect id="Rectángulo_455893" data-name="Rectángulo 455893" width="22.536" height="0.947" transform="translate(65.917 36.496)" fill="#df3f11"/>
            <rect id="Rectángulo_455894" data-name="Rectángulo 455894" width="18.501" height="0.947" transform="translate(88.103 42.497)" fill="#f3ae1b"/>
            <rect id="Rectángulo_455895" data-name="Rectángulo 455895" width="17.075" height="0.947" transform="translate(68.742 42.497)" fill="#aec647"/>
            <rect id="Rectángulo_455896" data-name="Rectángulo 455896" width="17.075" height="0.948" transform="translate(68.742 45.129)" fill="#f3ae1b"/>
            <rect id="Rectángulo_455897" data-name="Rectángulo 455897" width="8.689" height="0.948" transform="translate(88.103 45.129)" fill="#aec647"/>
            <rect id="Rectángulo_455898" data-name="Rectángulo 455898" width="17.075" height="0.947" transform="translate(68.742 50.223)" fill="#aec647"/>
            <rect id="Rectángulo_455899" data-name="Rectángulo 455899" width="8.689" height="0.947" transform="translate(88.103 50.223)" fill="#f3ae1b"/>
            <rect id="Rectángulo_455900" data-name="Rectángulo 455900" width="6.212" height="0.948" transform="translate(106.797 47.656)" fill="#f3ae1b"/>
            <rect id="Rectángulo_455901" data-name="Rectángulo 455901" width="36.886" height="0.949" transform="translate(68.742 39.443)" fill="#bcdede"/>
            <rect id="Rectángulo_455902" data-name="Rectángulo 455902" width="36.886" height="0.948" transform="translate(68.742 47.656)" fill="#bcdede"/>
            <rect id="Rectángulo_455903" data-name="Rectángulo 455903" width="6.212" height="0.948" transform="translate(106.797 53.236)" fill="#aec647"/>
            <rect id="Rectángulo_455904" data-name="Rectángulo 455904" width="36.886" height="0.948" transform="translate(68.742 53.236)" fill="#aec647"/>
            <rect id="Rectángulo_455905" data-name="Rectángulo 455905" width="14.959" height="0.948" transform="translate(131.605 42.824)" fill="#f3ae1b"/>
            <rect id="Rectángulo_455906" data-name="Rectángulo 455906" width="13.806" height="0.948" transform="translate(115.95 42.824)" fill="#aec647"/>
            <rect id="Rectángulo_455907" data-name="Rectángulo 455907" width="13.806" height="0.948" transform="translate(115.95 45.457)" fill="#f3ae1b"/>
            <rect id="Rectángulo_455908" data-name="Rectángulo 455908" width="7.025" height="0.948" transform="translate(131.605 45.457)" fill="#aec647"/>
            <rect id="Rectángulo_455909" data-name="Rectángulo 455909" width="13.806" height="0.948" transform="translate(115.95 50.55)" fill="#aec647"/>
            <rect id="Rectángulo_455910" data-name="Rectángulo 455910" width="7.025" height="0.948" transform="translate(131.605 50.55)" fill="#f3ae1b"/>
            <rect id="Rectángulo_455911" data-name="Rectángulo 455911" width="29.825" height="0.949" transform="translate(115.95 39.771)" fill="#bcdede"/>
            <rect id="Rectángulo_455912" data-name="Rectángulo 455912" width="29.825" height="0.948" transform="translate(115.95 47.983)" fill="#bcdede"/>
            <rect id="Rectángulo_455913" data-name="Rectángulo 455913" width="29.825" height="0.948" transform="translate(115.95 53.563)" fill="#aec647"/>
            <rect id="Rectángulo_455914" data-name="Rectángulo 455914" width="89.593" height="8.874" transform="translate(60.514 3.859)" fill="#34495e"/>
            <path id="Trazado_1263610" data-name="Trazado 1263610" d="M497.129,644.668a1.969,1.969,0,0,1-1.96,1.977h-38.6a1.977,1.977,0,0,1,0-3.954h38.6a1.969,1.969,0,0,1,1.96,1.977" transform="translate(-390.361 -637.017)" fill="#e2e1e0"/>
            <path id="Trazado_1263611" data-name="Trazado 1263611" d="M961.5,643.967a1.266,1.266,0,1,1-1.266-1.276,1.272,1.272,0,0,1,1.266,1.276" transform="translate(-823.443 -637.017)" fill="#ff614f"/>
            <path id="Trazado_1263612" data-name="Trazado 1263612" d="M991.116,643.967a1.266,1.266,0,1,1-1.266-1.276,1.272,1.272,0,0,1,1.266,1.276" transform="translate(-848.87 -637.017)" fill="#84e570"/>
            <path id="Trazado_1263613" data-name="Trazado 1263613" d="M1021.976,643.967a1.266,1.266,0,1,1-1.266-1.276,1.272,1.272,0,0,1,1.266,1.276" transform="translate(-875.369 -637.017)" fill="#7d57ff"/>
            <rect id="Rectángulo_455915" data-name="Rectángulo 455915" width="26.771" height="46.579" rx="2" transform="translate(134.598 29.946)" fill="#0b2e44"/>
            <g id="Grupo_1204889" data-name="Grupo 1204889" transform="translate(137.067 35.472)" opacity="0.8" style="isolation: isolate">
              <g id="Grupo_1204888" data-name="Grupo 1204888">
                <g id="Grupo_1204887" data-name="Grupo 1204887" clip-path="url(#clip-path-3)">
                  <rect id="Rectángulo_455916" data-name="Rectángulo 455916" width="21.833" height="31.842" fill="#fff"/>
                </g>
              </g>
            </g>
            <rect id="Rectángulo_455918" data-name="Rectángulo 455918" width="3.426" height="5.712" transform="translate(138.387 40.434)" fill="#f95a78"/>
            <rect id="Rectángulo_455919" data-name="Rectángulo 455919" width="3.426" height="5.712" transform="translate(146.631 40.434)" fill="#f9f94b"/>
            <rect id="Rectángulo_455920" data-name="Rectángulo 455920" width="3.426" height="5.712" transform="translate(153.949 40.434)" fill="#f49625"/>
            <rect id="Rectángulo_455921" data-name="Rectángulo 455921" width="5.493" height="0.416" transform="translate(138.387 47.344)" fill="#aec647"/>
            <rect id="Rectángulo_455922" data-name="Rectángulo 455922" width="5.493" height="0.416" transform="translate(138.387 48.592)" fill="#f3ae1b"/>
            <rect id="Rectángulo_455923" data-name="Rectángulo 455923" width="5.493" height="0.416" transform="translate(138.387 49.749)" fill="#df3f11"/>
            <rect id="Rectángulo_455924" data-name="Rectángulo 455924" width="4.51" height="0.416" transform="translate(143.795 52.385)" fill="#f3ae1b"/>
            <rect id="Rectángulo_455925" data-name="Rectángulo 455925" width="4.162" height="0.416" transform="translate(139.075 52.385)" fill="#aec647"/>
            <rect id="Rectángulo_455926" data-name="Rectángulo 455926" width="4.162" height="0.416" transform="translate(139.075 53.541)" fill="#f3ae1b"/>
            <rect id="Rectángulo_455927" data-name="Rectángulo 455927" width="2.118" height="0.416" transform="translate(143.795 53.541)" fill="#aec647"/>
            <rect id="Rectángulo_455928" data-name="Rectángulo 455928" width="4.162" height="0.416" transform="translate(139.075 55.778)" fill="#aec647"/>
            <rect id="Rectángulo_455929" data-name="Rectángulo 455929" width="2.118" height="0.416" transform="translate(143.795 55.778)" fill="#f3ae1b"/>
            <rect id="Rectángulo_455930" data-name="Rectángulo 455930" width="1.514" height="0.416" transform="translate(148.351 54.65)" fill="#f3ae1b"/>
            <rect id="Rectángulo_455931" data-name="Rectángulo 455931" width="8.991" height="0.416" transform="translate(139.075 51.043)" fill="#bcdede"/>
            <rect id="Rectángulo_455932" data-name="Rectángulo 455932" width="8.991" height="0.416" transform="translate(139.075 54.65)" fill="#bcdede"/>
            <rect id="Rectángulo_455933" data-name="Rectángulo 455933" width="1.514" height="0.416" transform="translate(148.351 57.101)" fill="#aec647"/>
            <rect id="Rectángulo_455934" data-name="Rectángulo 455934" width="8.991" height="0.416" transform="translate(139.075 57.101)" fill="#aec647"/>
            <rect id="Rectángulo_455935" data-name="Rectángulo 455935" width="3.647" height="0.416" transform="translate(154.397 52.528)" fill="#f3ae1b"/>
            <rect id="Rectángulo_455936" data-name="Rectángulo 455936" width="3.365" height="0.416" transform="translate(150.582 52.528)" fill="#aec647"/>
            <rect id="Rectángulo_455937" data-name="Rectángulo 455937" width="3.365" height="0.416" transform="translate(150.582 53.685)" fill="#f3ae1b"/>
            <rect id="Rectángulo_455938" data-name="Rectángulo 455938" width="1.712" height="0.416" transform="translate(154.397 53.685)" fill="#aec647"/>
            <rect id="Rectángulo_455939" data-name="Rectángulo 455939" width="3.365" height="0.416" transform="translate(150.582 55.922)" fill="#aec647"/>
            <rect id="Rectángulo_455940" data-name="Rectángulo 455940" width="1.712" height="0.416" transform="translate(154.397 55.922)" fill="#f3ae1b"/>
            <rect id="Rectángulo_455941" data-name="Rectángulo 455941" width="7.27" height="0.417" transform="translate(150.582 51.187)" fill="#bcdede"/>
            <rect id="Rectángulo_455942" data-name="Rectángulo 455942" width="7.27" height="0.416" transform="translate(150.582 54.795)" fill="#bcdede"/>
            <rect id="Rectángulo_455943" data-name="Rectángulo 455943" width="7.27" height="0.417" transform="translate(150.582 57.245)" fill="#aec647"/>
            <rect id="Rectángulo_455944" data-name="Rectángulo 455944" width="21.837" height="3.899" transform="translate(137.07 35.413)" fill="#34495e"/>
            <path id="Trazado_1263614" data-name="Trazado 1263614" d="M986.682,859.626c0,.48-.214.869-.478.869H976.8c-.264,0-.478-.388-.478-.869s.214-.869.478-.869H986.2c.264,0,.478.389.478.869" transform="translate(-838.338 -822.547)" fill="#e2e1e0"/>
            <path id="Trazado_1263615" data-name="Trazado 1263615" d="M1099.867,859.319c0,.309-.138.56-.308.56s-.309-.251-.309-.56.138-.561.309-.561.308.251.308.561" transform="translate(-943.896 -822.548)" fill="#ff614f"/>
            <path id="Trazado_1263616" data-name="Trazado 1263616" d="M1107.084,859.319c0,.309-.137.56-.308.56s-.309-.251-.309-.56.138-.561.309-.561.308.251.308.561" transform="translate(-950.093 -822.548)" fill="#84e570"/>
            <path id="Trazado_1263617" data-name="Trazado 1263617" d="M1114.608,859.319c0,.309-.138.56-.308.56s-.309-.251-.309-.56.137-.561.309-.561.308.251.308.561" transform="translate(-956.554 -822.548)" fill="#7d57ff"/>
            <g id="Grupo_1204892" data-name="Grupo 1204892" transform="translate(137.067 35.472)" opacity="0.1" style="isolation: isolate">
              <g id="Grupo_1204891" data-name="Grupo 1204891">
                <g id="Grupo_1204890" data-name="Grupo 1204890" clip-path="url(#clip-path-3)">
                  <path id="Trazado_1263618" data-name="Trazado 1263618" d="M991.687,853.536h-.405l-21.427,30.557v1.284h21.833Z" transform="translate(-969.854 -853.536)" fill-rule="evenodd"/>
                </g>
              </g>
            </g>
            <path id="Trazado_1263626" data-name="Trazado 1263626" d="M73.833,772.439c0,5.319-.7,5.016-6.019,5.016h-62c-5.319,0-5.818-.5-5.818-5.818V730.105c0-5.319,1.1-5.617,6.421-5.617l59.587-.061c5.319,0,7.772-1.058,7.772,4.261Z" transform="translate(0 -707.128)" fill="#34495e"/>
            <rect id="Rectángulo_455969" data-name="Rectángulo 455969" width="64.675" height="42.96" transform="translate(4.579 22.292)" fill="#ededed"/>
            <rect id="Rectángulo_455970" data-name="Rectángulo 455970" width="10.147" height="10.147" transform="translate(8.48 31.213)" fill="#f95a78"/>
            <rect id="Rectángulo_455971" data-name="Rectángulo 455971" width="10.147" height="10.147" transform="translate(32.895 31.213)" fill="#f9f94b"/>
            <rect id="Rectángulo_455972" data-name="Rectángulo 455972" width="10.147" height="10.147" transform="translate(54.571 31.213)" fill="#f49625"/>
            <rect id="Rectángulo_455973" data-name="Rectángulo 455973" width="16.269" height="0.739" transform="translate(8.48 43.488)" fill="#aec647"/>
            <rect id="Rectángulo_455974" data-name="Rectángulo 455974" width="16.269" height="0.74" transform="translate(8.48 45.706)" fill="#f3ae1b"/>
            <rect id="Rectángulo_455975" data-name="Rectángulo 455975" width="16.269" height="0.739" transform="translate(8.48 47.761)" fill="#df3f11"/>
            <rect id="Rectángulo_455976" data-name="Rectángulo 455976" width="13.355" height="0.739" transform="translate(24.495 52.443)" fill="#f3ae1b"/>
            <rect id="Rectángulo_455977" data-name="Rectángulo 455977" width="12.326" height="0.739" transform="translate(10.519 52.443)" fill="#aec647"/>
            <rect id="Rectángulo_455978" data-name="Rectángulo 455978" width="12.326" height="0.74" transform="translate(10.519 54.497)" fill="#f3ae1b"/>
            <rect id="Rectángulo_455979" data-name="Rectángulo 455979" width="6.272" height="0.74" transform="translate(24.495 54.497)" fill="#aec647"/>
            <rect id="Rectángulo_455980" data-name="Rectángulo 455980" width="12.326" height="0.74" transform="translate(10.519 58.471)" fill="#aec647"/>
            <rect id="Rectángulo_455981" data-name="Rectángulo 455981" width="6.272" height="0.74" transform="translate(24.495 58.471)" fill="#f3ae1b"/>
            <rect id="Rectángulo_455982" data-name="Rectángulo 455982" width="4.484" height="0.74" transform="translate(37.99 56.468)" fill="#f3ae1b"/>
            <rect id="Rectángulo_455983" data-name="Rectángulo 455983" width="26.627" height="0.74" transform="translate(10.519 50.061)" fill="#bcdede"/>
            <rect id="Rectángulo_455984" data-name="Rectángulo 455984" width="26.627" height="0.74" transform="translate(10.519 56.468)" fill="#bcdede"/>
            <rect id="Rectángulo_455985" data-name="Rectángulo 455985" width="4.484" height="0.739" transform="translate(37.99 60.823)" fill="#aec647"/>
            <rect id="Rectángulo_455986" data-name="Rectángulo 455986" width="26.627" height="0.739" transform="translate(10.519 60.823)" fill="#aec647"/>
            <rect id="Rectángulo_455987" data-name="Rectángulo 455987" width="10.799" height="0.74" transform="translate(55.898 52.699)" fill="#f3ae1b"/>
            <rect id="Rectángulo_455988" data-name="Rectángulo 455988" width="9.966" height="0.74" transform="translate(44.598 52.699)" fill="#aec647"/>
            <rect id="Rectángulo_455989" data-name="Rectángulo 455989" width="9.966" height="0.739" transform="translate(44.598 54.753)" fill="#f3ae1b"/>
            <rect id="Rectángulo_455990" data-name="Rectángulo 455990" width="5.071" height="0.739" transform="translate(55.898 54.753)" fill="#aec647"/>
            <rect id="Rectángulo_455991" data-name="Rectángulo 455991" width="9.966" height="0.74" transform="translate(44.598 58.727)" fill="#aec647"/>
            <rect id="Rectángulo_455992" data-name="Rectángulo 455992" width="5.071" height="0.74" transform="translate(55.898 58.727)" fill="#f3ae1b"/>
            <rect id="Rectángulo_455993" data-name="Rectángulo 455993" width="21.529" height="0.74" transform="translate(44.598 50.316)" fill="#bcdede"/>
            <rect id="Rectángulo_455994" data-name="Rectángulo 455994" width="21.529" height="0.74" transform="translate(44.598 56.724)" fill="#bcdede"/>
            <rect id="Rectángulo_455995" data-name="Rectángulo 455995" width="21.529" height="0.74" transform="translate(44.598 61.079)" fill="#aec647"/>
            <rect id="Rectángulo_455996" data-name="Rectángulo 455996" width="64.675" height="6.926" transform="translate(4.579 22.292)" fill="#34495e"/>
            <path id="Trazado_1263627" data-name="Trazado 1263627" d="M82.168,771.845a1.483,1.483,0,0,1-1.415,1.543H52.89a1.549,1.549,0,0,1,0-3.087H80.753a1.484,1.484,0,0,1,1.415,1.544" transform="translate(-44.199 -746.592)" fill="#e2e1e0"/>
            <path id="Trazado_1263628" data-name="Trazado 1263628" d="M417.391,771.3a.917.917,0,1,1-.914-1,.958.958,0,0,1,.914,1" transform="translate(-356.833 -746.592)" fill="#ff614f"/>
            <path id="Trazado_1263629" data-name="Trazado 1263629" d="M438.768,771.3a.918.918,0,1,1-.914-1,.959.959,0,0,1,.914,1" transform="translate(-375.188 -746.592)" fill="#84e570"/>
            <path id="Trazado_1263630" data-name="Trazado 1263630" d="M461.043,771.3a.918.918,0,1,1-.914-1,.958.958,0,0,1,.914,1" transform="translate(-394.315 -746.592)" fill="#7d57ff"/>
          </g>
        </g>
      </g>
    </g>
  </g>
</svg>
