<svg xmlns="http://www.w3.org/2000/svg" width="261" height="145" viewBox="0 0 261 145">
  <g id="Grupo_1205048" data-name="Grupo 1205048" transform="translate(-320.652 -8773.711)">
    <rect id="Rectángulo_454804" data-name="Rectángulo 454804" width="261" height="145" rx="25" transform="translate(320.652 8773.711)" fill="#e3e8c0"/>
    <g id="Grupo_1204395" data-name="Grupo 1204395" transform="translate(374.141 8795.2)">
      <path id="Trazado_1262173" data-name="Trazado 1262173" d="M37.832,170.519c6.09-.623,11.229-.984,15.052-1.2,18.456-1.062,23.155.187,27.027,2.763a19.089,19.089,0,0,1,5.844,5.844c4.053,6.5.951,11.025.779,24.546-.173,13.636,2.827,21.313-1.948,24.936a7.29,7.29,0,0,1-2.338,1.169l-41.69.779a11.939,11.939,0,0,1-6.234-3.117c-5.107-5.127-2.763-14.141.39-33.9.8-5.018,1.941-12.531,3.117-21.819" transform="translate(-26.193 -105.842)" fill="#33c1e1"/>
      <path id="Trazado_1262174" data-name="Trazado 1262174" d="M145.542,166.053c3.273-.465,8.478-.681,13.006,2.168,8.237,5.182,8.8,17.087,11.329,16.8,1.276-.146,1.172-3.648,3.846-12.822,2-6.874,3.475-9.785,6.285-11.335a16.061,16.061,0,0,1,4.286-1.169c3.8-.766,7.813-1.576,11.3.39a10.818,10.818,0,0,1,2.727,2.338c2.065,2.535,2.549,6.139-.779,23.377-1.725,8.934-3.29,14.817-7.365,21.185-.159.249-.3.454-.428.634-3.1,4.408-8.608,12.228-16.754,12.858-15.8,1.221-26.145-25.789-26.368-26.6-.113-.409-.19-.822-.19-.822a10.176,10.176,0,0,1-.171-1.707l-.722-25.29" transform="translate(-95.898 -99.689)" fill="#33c1e1"/>
      <path id="Trazado_1262175" data-name="Trazado 1262175" d="M246.416,116.694a12.436,12.436,0,0,0,6.384-8.215c.184-.764.338-1.465.469-2.1,1.772-8.555.4-10.235-.05-10.705a4.7,4.7,0,0,0-2.633-1.291,2.6,2.6,0,0,0-4.932-.563,2.681,2.681,0,0,0-3.531-.45,2.65,2.65,0,0,0-.9,2.914c-.5-2.287-.834-4.174-1.05-5.489-.64-3.907-.764-6.06-1.97-6.451a1.746,1.746,0,0,0-1.345.223c-1.7,1.055-.964,5.016-.285,8.687,2.238,12.113,3.641,19.92,3.688,20.124,0,0,.145,6.364,6.155,3.313" transform="translate(-151 -54.174)" fill="#ffc4c5"/>
      <path id="Trazado_1262176" data-name="Trazado 1262176" d="M234.507,132.8a14.074,14.074,0,0,1-4.416-3.877c-2.153-2.939-1-3.96-3.394-7.819a19.408,19.408,0,0,1-2.648-5.847c-.118-.5-.28-1.32.137-1.7.6-.544,2.035.146,2.582.409,3.684,1.771,13.552,10.645,10.663,16.252a5.856,5.856,0,0,1-2.924,2.581" transform="translate(-143.737 -71.914)" fill="#ffc4c5"/>
      <path id="Trazado_1262177" data-name="Trazado 1262177" d="M252.4,126.817h-.042a2.7,2.7,0,0,1-2.089-1.382,2.877,2.877,0,0,1-2.361.606c-1-.247-1.727-1.133-2.964-5.288-.482-1.619-.9-3.263-1.236-4.885a.721.721,0,1,1,1.411-.294c.33,1.583.735,3.187,1.206,4.768.815,2.738,1.465,4.185,1.93,4.3.418.1,1.027-.187,1.717-.818a.721.721,0,0,1,1.124.2c.45.852.921,1.346,1.291,1.356s.777-.47.918-.705a.723.723,0,0,1,1.062-.2c.932.725,1.661.958,2.162.691,1.448-.767,1.826-5.41,1.632-8.461a.721.721,0,1,1,1.439-.092c.054.847.445,8.323-2.4,9.827a3.017,3.017,0,0,1-3.136-.413,2.358,2.358,0,0,1-1.668.8" transform="translate(-155.806 -72.92)" fill="#f09db7"/>
      <path id="Trazado_1262178" data-name="Trazado 1262178" d="M269.872,124.955h-.036a.721.721,0,0,1-.684-.755l.479-9.72a.721.721,0,1,1,1.44.071l-.479,9.72a.721.721,0,0,1-.719.685" transform="translate(-171.346 -72.184)" fill="#f09db7"/>
      <path id="Trazado_1262179" data-name="Trazado 1262179" d="M258.334,124.786a.721.721,0,0,1-.716-.646l-1.018-9.678a.721.721,0,0,1,1.434-.151l1.018,9.679a.72.72,0,0,1-.718.8" transform="translate(-163.683 -72.106)" fill="#f09db7"/>
      <path id="Trazado_1262180" data-name="Trazado 1262180" d="M238,160.266l1.532-4.3s4.7,2.325,13.274,0v4.3s-3.117,10.13-14.806,0" transform="translate(-152.333 -97.926)" fill="#ff88c4"/>
      <path id="Trazado_1262181" data-name="Trazado 1262181" d="M125.13,150.675v9.351a6.64,6.64,0,0,1-10.13-.779q.976-6.622,1.948-13.247Z" transform="translate(-77.256 -91.842)" fill="#ffc4c5"/>
      <path id="Trazado_1262182" data-name="Trazado 1262182" d="M127.5,160.893v5.657c-5.307-1.516-8.618-6.67-8.618-6.67Z" transform="translate(-79.624 -100.314)" fill="#f09db7"/>
      <path id="Trazado_1262183" data-name="Trazado 1262183" d="M110.263,98.543c-2.058,2.764-1.863,6.02-1.559,10.13.307,4.147.486,6.218,1.559,8.182,2.951,5.4,10.645,9.021,15.975,6.624a10.755,10.755,0,0,0,4.286-3.9,12.6,12.6,0,0,0,2.338-8.572c-.079-.455-.2-.98-.2-.98-.172-.686-.418-1.375-.965-2.916-2.355-6.636-1.432-7.649-3.117-9.741-2.365-2.936-6.169-3.4-7.013-3.507a12.5,12.5,0,0,0-8.162,2.011,10.175,10.175,0,0,0-3.137,2.665" transform="translate(-73.298 -59.97)" fill="#ffc4c5"/>
      <path id="Trazado_1262184" data-name="Trazado 1262184" d="M123.4,88.95a4.085,4.085,0,0,0,.779-5.065,4,4,0,0,0-2.727-1.558,4.7,4.7,0,0,0-2.727.39c.125-.448.726-2.745-.39-3.9-1.292-1.334-4.78-1.02-7.792,1.948-4-1.9-7.317-1.8-8.182-.39-.129.209-.613,1.114.39,3.117a4.655,4.655,0,0,0-4.286,0,3.688,3.688,0,0,0-1.559,1.948,3.877,3.877,0,0,0,.39,3.117,5.953,5.953,0,0,0-2.207,3.076c-.552,2.142.148,5.4,5.324,9.781a6.894,6.894,0,0,0,1.558-3.117c.475-2.435-1.124-3.918-.39-6.234a5.314,5.314,0,0,1,1.169-1.948c2.724-3.147,7.942-2.432,8.572-2.338a24.333,24.333,0,0,0,9.741,1.948,3.823,3.823,0,0,0,2.338-.779" transform="translate(-65.007 -50.378)" fill="#0d0a0e"/>
      <path id="Trazado_1262185" data-name="Trazado 1262185" d="M106.856,126.364a1.938,1.938,0,0,0-.7-.669,2.794,2.794,0,0,0-3.317.98c-1.142,1.843,1.1,5.623,3.09,5.58a2.229,2.229,0,0,0,1.561-.822,3.906,3.906,0,0,0,.679-2.249,4.03,4.03,0,0,0-1.308-2.82" transform="translate(-69.641 -79.312)" fill="#ffc4c5"/>
      <path id="Trazado_1262186" data-name="Trazado 1262186" d="M107.154,132.38a.39.39,0,0,1-.322-.169c-.015-.022-.925-1.316-2-1.077a.39.39,0,1,1-.169-.761c1.591-.353,2.759,1.326,2.808,1.4a.39.39,0,0,1-.321.609" transform="translate(-70.763 -82.275)" fill="#f09db7"/>
      <path id="Trazado_1262187" data-name="Trazado 1262187" d="M106.661,133.436a.39.39,0,0,1-.38-.305c-.359-1.609.561-2.169.6-2.192a.39.39,0,0,1,.4.667c-.032.022-.467.346-.242,1.356a.39.39,0,0,1-.3.465.4.4,0,0,1-.085.009" transform="translate(-71.884 -82.617)" fill="#f09db7"/>
      <path id="Trazado_1262188" data-name="Trazado 1262188" d="M145.649,125.825a.721.721,0,0,1-.043-1.44,5.452,5.452,0,0,0,1.563-.253c-.108-.12-.264-.272-.4-.4a9.017,9.017,0,0,1-1.751-2.172,7.611,7.611,0,0,1-.861-2.581.721.721,0,1,1,1.426-.211,6.177,6.177,0,0,0,.7,2.094,7.651,7.651,0,0,0,1.494,1.836c.569.553,1.107,1.076.909,1.816-.271,1.014-1.664,1.233-2.991,1.313h-.044m1.645-1.528h0Z" transform="translate(-95.049 -74.843)" fill="#f09db7"/>
      <path id="Trazado_1262189" data-name="Trazado 1262189" d="M125.87,115.386a.721.721,0,0,1-.535-1.2,4.986,4.986,0,0,1,2.963-1.595,5.037,5.037,0,0,1,3.646.91.721.721,0,1,1-.849,1.165,3.632,3.632,0,0,0-2.588-.648,3.592,3.592,0,0,0-2.1,1.133.719.719,0,0,1-.536.238" transform="translate(-83.451 -71.417)" fill="#0d0a0e"/>
      <path id="Trazado_1262190" data-name="Trazado 1262190" d="M149.371,114.561a.721.721,0,0,1-.448-1.285,5.2,5.2,0,0,1,3.4-1.13,5.138,5.138,0,0,1,2.72.905.721.721,0,0,1-.817,1.188,3.7,3.7,0,0,0-1.955-.653,3.8,3.8,0,0,0-2.448.818.718.718,0,0,1-.448.156" transform="translate(-97.795 -71.177)" fill="#0d0a0e"/>
      <path id="Trazado_1262191" data-name="Trazado 1262191" d="M134.113,126.584h0a.7.7,0,0,1-.7-.7v-.349a.7.7,0,0,1,1.4,0v.349a.7.7,0,0,1-.7.7" transform="translate(-88.496 -78.925)" fill="#0d0a0e"/>
      <path id="Trazado_1262192" data-name="Trazado 1262192" d="M158.113,124.584h0a.7.7,0,0,1-.7-.7v-.349a.7.7,0,1,1,1.4,0v.349a.7.7,0,0,1-.7.7" transform="translate(-103.145 -77.704)" fill="#0d0a0e"/>
      <path id="Trazado_1262193" data-name="Trazado 1262193" d="M143.948,141.026c-1.549,1.336-2.622,1.48-3.343,1.315-.757-.174-1.236-.715-3.239-3.04a17.342,17.342,0,0,0,6.582,1.726" transform="translate(-90.908 -87.753)" fill="#fff"/>
      <path id="Trazado_1262194" data-name="Trazado 1262194" d="M173.846,248.721h0a.72.72,0,0,1-.72-.72c0-1.061.014-26.051.4-31.666a.721.721,0,1,1,1.438.1c-.384,5.566-.4,31.308-.4,31.567a.721.721,0,0,1-.721.72" transform="translate(-112.734 -134.363)" fill="#f5ffff"/>
      <path id="Trazado_1262195" data-name="Trazado 1262195" d="M201.871,235.5a.72.72,0,0,1-.718-.8,57.651,57.651,0,0,1,1.981-11.062.721.721,0,0,1,1.368.455,57.789,57.789,0,0,0-1.915,10.758.721.721,0,0,1-.716.645" transform="translate(-129.84 -138.933)" fill="#f5ffff"/>
      <path id="Trazado_1262196" data-name="Trazado 1262196" d="M48.079,94.445c.224-3.264-.145-1.417,0-8.572.1-5.12.367-8.015-1.558-9.741a5.252,5.252,0,0,0-2.338-1.169,66.369,66.369,0,0,1,10.13-5.844c5.219-2.415,8.459-3.059,10.13-6.234.773-1.469.775-2.928.779-5.844.005-3.573.018-12.591-4.675-14.806a6.092,6.092,0,0,0-3.4-.418c-9.445,1.033-19.09,6.681-23.17,9.4-9.506,6.335-12.746,10.417-14.09,13.729-.731,1.8-1.078,3.384-1.445,11.2-.167,3.552-.334,6.395-.316,9.794.057,10.392.023,15.588,1.761,21.638,1.528,5.323,3.446,8.449,5.981,12.581,2.644,4.311,3.862,5.152,5.065,5.455,4.329,1.091,9.108-4.622,10.13-5.844,5.747-6.871,6.343-15.554,7.013-25.325" transform="translate(-18.127 -28.209)" fill="#33c1e1"/>
      <path id="Trazado_1262197" data-name="Trazado 1262197" d="M133.681,41.826a12.436,12.436,0,0,1,7.058-7.644c.723-.306,1.39-.574,1.991-.806,8.149-3.15,10.032-2.071,10.569-1.7A4.7,4.7,0,0,1,155,34.058a2.6,2.6,0,0,1,1.364,4.773,2.681,2.681,0,0,1,1.023,3.409,2.65,2.65,0,0,1-2.727,1.364c1.518-.255,11.09-1.8,12.274,1.023a1.841,1.841,0,0,1,0,1.364c-.762,1.848-4.79,1.772-8.523,1.7-12.316-.223-20.248-.328-20.456-.341,0,0-6.3.9-4.277-5.528" transform="translate(-88.414 -21.768)" fill="#ffc4c5"/>
      <path id="Trazado_1262198" data-name="Trazado 1262198" d="M167.07,44.9h-.03c-1.659-.068-3.349-.209-5.022-.419-4.3-.54-5.3-1.116-5.7-2.058A2.879,2.879,0,0,1,156.527,40a2.7,2.7,0,0,1-1.705-1.834,2.341,2.341,0,0,1,.5-1.817,3.018,3.018,0,0,1-.921-3.026c1.018-3.049,8.456-3.888,9.3-3.974a.721.721,0,0,1,.146,1.434c-3.043.31-7.562,1.444-8.08,3-.18.539.169,1.219,1.036,2.019a.721.721,0,0,1-.028,1.084c-.205.175-.613.658-.542,1.018s.635.747,1.549,1.052a.721.721,0,0,1,.376,1.077c-.509.784-.7,1.432-.525,1.827.191.44,1.724.844,4.559,1.2,1.633.2,3.282.342,4.9.408a.721.721,0,0,1-.029,1.441" transform="translate(-101.232 -20.638)" fill="#f09db7"/>
      <path id="Trazado_1262199" data-name="Trazado 1262199" d="M158.382,42.561a.721.721,0,0,1-.152-1.425l9.51-2.065a.721.721,0,1,1,.306,1.408l-9.51,2.065a.722.722,0,0,1-.154.017" transform="translate(-103.296 -26.565)" fill="#f09db7"/>
      <path id="Trazado_1262200" data-name="Trazado 1262200" d="M160.242,54.654a.721.721,0,0,1-.042-1.44l9.714-.581A.721.721,0,1,1,170,54.071l-9.714.582h-.044" transform="translate(-104.431 -34.852)" fill="#f09db7"/>
      <path id="Trazado_1262201" data-name="Trazado 1262201" d="M220.937,10.681V41.892a3.681,3.681,0,0,1-3.681,3.681H169.681A3.68,3.68,0,0,1,166,41.892V10.681A3.681,3.681,0,0,1,169.681,7h47.575a3.681,3.681,0,0,1,3.681,3.681" transform="translate(-108.385 -7)" fill="#212e5c"/>
      <path id="Trazado_1262202" data-name="Trazado 1262202" d="M220.937,10.56v3.453H166V10.56A3.56,3.56,0,0,1,169.56,7h47.816a3.56,3.56,0,0,1,3.56,3.56" transform="translate(-108.385 -7)" fill="#40d4bf"/>
      <path id="Trazado_1262203" data-name="Trazado 1262203" d="M175.727,13.364A1.364,1.364,0,1,1,174.364,12a1.364,1.364,0,0,1,1.364,1.364" transform="translate(-112.658 -10.052)" fill="#fff"/>
      <path id="Trazado_1262204" data-name="Trazado 1262204" d="M188.727,13.364A1.364,1.364,0,1,1,187.364,12a1.364,1.364,0,0,1,1.364,1.364" transform="translate(-120.593 -10.052)" fill="#fff"/>
      <path id="Trazado_1262205" data-name="Trazado 1262205" d="M178.922,41.727h-1.559a1.364,1.364,0,0,1,0-2.727h1.559a1.364,1.364,0,1,1,0,2.727" transform="translate(-114.489 -26.532)" fill="#fff"/>
      <path id="Trazado_1262206" data-name="Trazado 1262206" d="M215.286,41.727H197.364a1.364,1.364,0,1,1,0-2.727h17.923a1.364,1.364,0,0,1,0,2.727" transform="translate(-126.697 -26.532)" fill="#fff"/>
      <path id="Trazado_1262207" data-name="Trazado 1262207" d="M266.74,41.727h-13.5A1.239,1.239,0,0,1,252,40.493v-.258A1.239,1.239,0,0,1,253.235,39h13.5a1.238,1.238,0,0,1,1.235,1.235v.258a1.238,1.238,0,0,1-1.235,1.235" transform="translate(-160.878 -26.532)" fill="#fff"/>
      <path id="Trazado_1262208" data-name="Trazado 1262208" d="M178.922,54.727h-1.559a1.364,1.364,0,0,1,0-2.727h1.559a1.364,1.364,0,1,1,0,2.727" transform="translate(-114.489 -34.467)" fill="#fff"/>
      <path id="Trazado_1262209" data-name="Trazado 1262209" d="M200.091,54.727h-2.727a1.364,1.364,0,1,1,0-2.727h2.727a1.364,1.364,0,0,1,0,2.727" transform="translate(-126.697 -34.467)" fill="#fff"/>
      <path id="Trazado_1262210" data-name="Trazado 1262210" d="M221.987,54.727h-6.624a1.364,1.364,0,0,1,0-2.727h6.624a1.364,1.364,0,1,1,0,2.727" transform="translate(-137.684 -34.467)" fill="#fff"/>
      <path id="Trazado_1262211" data-name="Trazado 1262211" d="M259.9,54.727H242.364a1.364,1.364,0,0,1,0-2.727H259.9a1.364,1.364,0,0,1,0,2.727" transform="translate(-154.164 -34.467)" fill="#fff"/>
      <path id="Trazado_1262212" data-name="Trazado 1262212" d="M178.922,67.727h-1.559a1.364,1.364,0,0,1,0-2.727h1.559a1.364,1.364,0,1,1,0,2.727" transform="translate(-114.489 -42.402)" fill="#fff"/>
      <path id="Trazado_1262213" data-name="Trazado 1262213" d="M209.442,67.727H197.364a1.364,1.364,0,1,1,0-2.727h12.078a1.364,1.364,0,0,1,0,2.727" transform="translate(-126.697 -42.402)" fill="#fff"/>
      <path id="Trazado_1262214" data-name="Trazado 1262214" d="M257.455,67.727H238.364a1.364,1.364,0,1,1,0-2.727h19.092a1.364,1.364,0,1,1,0,2.727" transform="translate(-151.722 -42.402)" fill="#fff"/>
      <path id="Trazado_1262215" data-name="Trazado 1262215" d="M178.922,80.727h-1.559a1.364,1.364,0,0,1,0-2.727h1.559a1.364,1.364,0,1,1,0,2.727" transform="translate(-114.489 -50.337)" fill="#fff"/>
      <path id="Trazado_1262216" data-name="Trazado 1262216" d="M215.286,80.727H197.364a1.364,1.364,0,1,1,0-2.727h17.923a1.364,1.364,0,0,1,0,2.727" transform="translate(-126.697 -50.337)" fill="#fff"/>
      <path id="Trazado_1262217" data-name="Trazado 1262217" d="M281.26,80.727h-3.9a1.364,1.364,0,0,1,0-2.727h3.9a1.364,1.364,0,0,1,0,2.727" transform="translate(-175.527 -50.337)" fill="#fff"/>
      <path id="Trazado_1262218" data-name="Trazado 1262218" d="M259.429,80.727h-5.065a1.364,1.364,0,0,1,0-2.727h5.065a1.364,1.364,0,0,1,0,2.727" transform="translate(-161.488 -50.337)" fill="#fff"/>
      <path id="Trazado_1262219" data-name="Trazado 1262219" d="M140.411,62.863a14.076,14.076,0,0,0,4.548,3.721c3.252,1.643,4.071.339,8.269,2.067a19.4,19.4,0,0,0,6.2,1.654c.514.034,1.348.06,1.654-.413.439-.68-.478-1.984-.827-2.481-2.351-3.344-12.722-11.624-17.779-7.856a5.856,5.856,0,0,0-2.067,3.308" transform="translate(-92.767 -38.491)" fill="#ffc4c5"/>
      <path id="Trazado_1262220" data-name="Trazado 1262220" d="M129.071,42.911l-6.857-.411s-9.066,10.193,4.038,16.3l3.364-4.8s-4.989-6.191-.546-11.083" transform="translate(-79.795 -28.668)" fill="#ff88c4"/>
      <path id="Trazado_1262221" data-name="Trazado 1262221" d="M77.87,199.414a.721.721,0,0,1-.573-1.158c6.017-7.9,6.06-26.932,6.06-27.124a.72.72,0,0,1,.72-.722h0a.721.721,0,0,1,.721.72c0,.8-.046,19.718-6.355,28a.719.719,0,0,1-.574.284" transform="translate(-54.153 -106.742)" fill="#f5ffff"/>
      <path id="Trazado_1262222" data-name="Trazado 1262222" d="M66.869,130.1a.721.721,0,0,1-.576-1.153c2.5-3.34,7.7-3.776,7.924-3.793a.721.721,0,0,1,.111,1.437c-.048,0-4.772.408-6.882,3.221a.72.72,0,0,1-.577.288" transform="translate(-47.439 -79.116)" fill="#f5ffff"/>
    </g>
  </g>
</svg>
