<svg xmlns="http://www.w3.org/2000/svg" width="261" height="145" viewBox="0 0 261 145">
  <g id="Grupo_1205047" data-name="Grupo 1205047" transform="translate(-1017.711 -8579)">
    <g id="Grupo_1205046" data-name="Grupo 1205046">
      <rect id="Rectángulo_454987" data-name="Rectángulo 454987" width="261" height="145" rx="25" transform="translate(1017.711 8579)" fill="#f7f7d7"/>
    </g>
    <g id="Grupo_1204392" data-name="Grupo 1204392" transform="translate(1066.471 8586.637)">
      <path id="Trazado_1262228" data-name="Trazado 1262228" d="M57.446,42.248A58.088,58.088,0,0,0,56.4,20.854a10.74,10.74,0,0,0-2.609-6.783c-3.178-3.522-8.333-3.919-12-2.609-.845.3-4.456,1.55-6.084,5.051-2.807,6.032,3.694,13.937.9,19.765-.666,1.389-1.614,2.079-3.162,3.36-5.336,4.418-10,3.442-14.22,5.329-7.11,3.181-12.971,14.513-9.482,23.48,2.528,6.5,9.371,10.226,15.353,10.837,7.239.741,12.563-3.248,15.8-5.419C54.266,64.917,56.6,48.3,57.446,42.248" transform="translate(-4.774 -5.909)" fill="#0d0a0e"/>
      <path id="Trazado_1262230" data-name="Trazado 1262230" d="M66.513,132.313a66.03,66.03,0,0,1,29.35-4.967,64.917,64.917,0,0,1,17.61,3.612,301.978,301.978,0,0,0,2.709,34.317c1.734,12.609,4.273,24.955,0,27.093a4.168,4.168,0,0,1-3.161,0,120.347,120.347,0,0,1-46.509,0,15.773,15.773,0,0,1-2.258-1.806c-4.528-4.365-6.043-11.131-5.419-22.577a121.97,121.97,0,0,1,7.676-35.672" transform="translate(-32.196 -69.774)" fill="#33c1e1"/>
      <path id="Trazado_1262231" data-name="Trazado 1262231" d="M57.845,128.815s-9.18,3.118-13.7,16.213c-3.908,11.334-16.95,34.845-10.432,40.964a6.824,6.824,0,0,0,4.562,1.482c31.306,2.007,46.959,3.01,51.024-4.064,2.174-3.783,2.281-9.187,0-12.643-2.792-4.23-11.232-4.985-28-6.322,0,0,23.327-41.909-3.463-35.63" transform="translate(-17.508 -70.298)" fill="#33c1e1"/>
      <path id="Trazado_1262232" data-name="Trazado 1262232" d="M156.521,129.642s10.219-.982,17.9,8.952,15.8,21.223,15.8,21.223c5.511-11.346,12.137-17.569,16.256-20.771,3.906-3.037,6.51-4.1,9.031-3.612,4.692.9,7.357,6.828,8.128,9.482,4.007,13.794-13.23,42.218-36.262,41.091-14.268-.7-27.594-12.583-32.373-29.35q.761-13.507,1.521-27.014" transform="translate(-85.011 -71.088)" fill="#33c1e1"/>
      <path id="Trazado_1262233" data-name="Trazado 1262233" d="M121,188.031a.888.888,0,0,1-.452-.124c-11.771-6.976-29.019-3.986-29.191-3.954l-1.637.294,11.193-25.682a.89.89,0,0,1,1.631.711l-9.888,22.688c4.688-.6,18.493-1.694,28.8,4.413a.889.889,0,0,1-.454,1.654" transform="translate(-49.209 -86.673)" fill="#f5ffff"/>
      <path id="Trazado_1262234" data-name="Trazado 1262234" d="M73.92,220.986a.889.889,0,0,1-.852-1.145c1.452-4.841,8.312-8.09,8.6-8.227a.889.889,0,0,1,.753,1.612c-.064.03-6.43,3.05-7.653,7.127a.89.89,0,0,1-.851.634" transform="translate(-40.054 -116.016)" fill="#f5ffff"/>
      <path id="Trazado_1262235" data-name="Trazado 1262235" d="M184.145,194.874a.889.889,0,0,1-.873-.726c-3.111-16.616-4.8-46.2-4.813-46.5a.89.89,0,0,1,1.776-.1c.016.3,1.7,29.765,4.785,46.269a.89.89,0,0,1-.875,1.053" transform="translate(-97.876 -80.465)" fill="#f5ffff"/>
      <path id="Trazado_1262236" data-name="Trazado 1262236" d="M230.138,204.216a.89.89,0,0,1-.878-.752c-1.136-7.272-.787-12.349,1.01-14.683a2.884,2.884,0,0,1,1.862-1.239l.184,1.769a.262.262,0,0,0,.051-.007c-.034.008-3.339,1.152-1.349,13.887a.889.889,0,0,1-.741,1.016.958.958,0,0,1-.138.01" transform="translate(-125.38 -102.858)" fill="#f5ffff"/>
      <path id="Trazado_1262237" data-name="Trazado 1262237" d="M290.957,126.626l-7.211,8.6a13.82,13.82,0,0,0,7.669,7.789l5.6-8.4Z" transform="translate(-155.622 -69.449)" fill="#ffc4c5"/>
      <path id="Trazado_1262238" data-name="Trazado 1262238" d="M325.654,115.521c-1.46-.684-4.066,1.211-4.434,1.483a5.64,5.64,0,0,0,1.687-1.125c.313-.3,1.308-1.274,1.039-1.878a.783.783,0,0,0-.476-.371c-1.434-.511-4.413,1.419-6.657,2.523A27.956,27.956,0,0,1,312,117.886l-13.479,3.824,9.766,4.756a28.389,28.389,0,0,0,7.46-.843,20.076,20.076,0,0,0,6.118-2.523c1-.647,4.187-2.7,3.789-4.421a1.5,1.5,0,0,0-.344-.646c.773-.7,1.132-1.477.9-2a1.07,1.07,0,0,0-.559-.508" transform="translate(-163.725 -62.275)" fill="#ffc4c5"/>
      <path id="Trazado_1262239" data-name="Trazado 1262239" d="M291.475,122.086a10.152,10.152,0,0,1,1.22-3.1,12.021,12.021,0,0,1,5.233-4.361c.216-.092.669-.192,1.308-.438a10.49,10.49,0,0,0,2.376-1.146c1.811-1.311,1.611-3.23,3.127-3.585a.867.867,0,0,1,.632,0c1.1.586-.139,4.9-.465,6.042a19.5,19.5,0,0,1-.779,2.321c-2.008,4.3-11.853,4.277-12.65,4.268" transform="translate(-159.861 -59.998)" fill="#ffc4c5"/>
      <path id="Trazado_1262240" data-name="Trazado 1262240" d="M292.751,131.573a8.871,8.871,0,0,1,2.812-3.936,9.664,9.664,0,0,1,6.819-1.789c.235.036.481.087.481.087,5.349,1.047,4.959,4.967,9.259,5.181,3.219.161,7.082-1.46,8.909-.1a.667.667,0,0,1,.322.467c.028.9-3.178,1.759-6.245,2.52-6.921,1.716-10.38,2.579-11.544,2.5-1.808-.125-6.109-.748-10.812-4.928" transform="translate(-160.561 -68.971)" fill="#ffc4c5"/>
      <path id="Trazado_1262241" data-name="Trazado 1262241" d="M314.5,131.054a9.839,9.839,0,0,1-6.034-1.892,3.878,3.878,0,0,1-.779-.792,3.527,3.527,0,0,0-.6-.632,8.48,8.48,0,0,0-12.474,1.725.481.481,0,0,1-.788-.55,9.442,9.442,0,0,1,13.891-1.9,4.443,4.443,0,0,1,.732.777,2.932,2.932,0,0,0,.613.622,9.276,9.276,0,0,0,6.24,1.649,13.352,13.352,0,0,0,1.763-.31,7.227,7.227,0,0,1,3.536-.134,8.032,8.032,0,0,1,1.283.4.481.481,0,0,1-.361.891,7.124,7.124,0,0,0-1.13-.352,6.275,6.275,0,0,0-3.117.134,14.289,14.289,0,0,1-1.884.329c-.159.015-.474.038-.9.038" transform="translate(-161.104 -68.448)" fill="#f09db7"/>
      <path id="Trazado_1262242" data-name="Trazado 1262242" d="M155.549,222.086l-9.966,2.72s-3.525,6.5.754,10.942l8.865-3.776Z" transform="translate(-79.097 -121.804)" fill="#ffc4c5"/>
      <path id="Trazado_1262243" data-name="Trazado 1262243" d="M183.49,209.228a.923.923,0,0,1,.288.647c-.064.866-2.077,1.343-2.984,1.559-2.618.623-5.819,1.4-9.645,2.32a27.606,27.606,0,0,1,3.661.758,4.967,4.967,0,0,1,1.931.968,3.721,3.721,0,0,1,.563.87,1.582,1.582,0,0,1,.2,1.252,1.135,1.135,0,0,1-.793.614,2.312,2.312,0,0,1,1.347,1.424,2.637,2.637,0,0,1-.172,2.027,2.306,2.306,0,0,1,.555,1.647,2.492,2.492,0,0,1-1.1,1.546c-2.675,2.2-4.026,3.3-5.009,2.808a1.3,1.3,0,0,1-.643-.636,1.91,1.91,0,0,1,.279-1.572,10.124,10.124,0,0,1,2.738-2.9,31.846,31.846,0,0,1-7.642,3.171c-.913.246-1.742.415-2.464.545-3.411.614-7.651,1.279-9.174-.787-1.351-1.833-.5-5.761,1.987-9.338,1.267-.616,2.288-1.1,3-1.438,1.349-.638,1.491-.7,2.109-1.006,1.1-.541,1.458-.751,2.563-1.23,2.882-1.25,5.431-1.866,10.411-3.047,2.3-.546,6.767-1.551,8-.2" transform="translate(-84.891 -114.38)" fill="#ffc4c5"/>
      <path id="Trazado_1262244" data-name="Trazado 1262244" d="M132.363,121.483l4.446-8.453-1.091-7.311-.323-2.186-10.629-3.47-.522,5.213-.308,3.1-.517,5.171,8.944,7.936" transform="translate(-67.69 -54.881)" fill="#ffc4c5"/>
      <path id="Trazado_1262245" data-name="Trazado 1262245" d="M124.564,114.707c4.1,4.268,10.008,5.119,12.925,5.265a4.032,4.032,0,0,0-.052-.61l-1.09-7.311-11.474-.443Z" transform="translate(-68.318 -61.212)" fill="#f09db7"/>
      <path id="Trazado_1262246" data-name="Trazado 1262246" d="M129.024,36.821c.547.308,5.2,3.016,6.262,7.827.634,2.88-.485,4.4.4,9.175.413,2.215.68,2.025,1.161,4.391.749,3.679,1.429,7.026,0,9.914-1.9,3.838-6.562,4.923-7.827,5.218-6.9,1.606-12.511-2.786-13.567-3.653a18.893,18.893,0,0,1-5.36-7.629c-.7-1.606-4.487-10.244-.434-18.652a14.046,14.046,0,0,1,4.121-5.422,14.191,14.191,0,0,1,15.24-1.17" transform="translate(-59.134 -19.267)" fill="#ffc4c5"/>
      <path id="Trazado_1262247" data-name="Trazado 1262247" d="M130.622,61.8a.962.962,0,0,0,.66-.261,4.877,4.877,0,0,1,1.812-1.089,5.392,5.392,0,0,1,4.032.379A.965.965,0,0,0,138,59.106a7.345,7.345,0,0,0-5.511-.489,6.8,6.8,0,0,0-2.525,1.514.965.965,0,0,0,.661,1.669" transform="translate(-71.111 -31.965)" fill="#0d0a0e"/>
      <path id="Trazado_1262248" data-name="Trazado 1262248" d="M158.071,61.769a.962.962,0,0,0,.687-.182,4.9,4.9,0,0,1,1.926-.872,4.836,4.836,0,0,1,1.7-.033.965.965,0,1,0,.291-1.909,6.662,6.662,0,0,0-5.062,1.262.965.965,0,0,0,.461,1.735" transform="translate(-86.228 -32.19)" fill="#0d0a0e"/>
      <path id="Trazado_1262249" data-name="Trazado 1262249" d="M138.71,74.857h0a.87.87,0,0,0,.867-.867v-.434a.867.867,0,1,0-1.735,0v.434a.87.87,0,0,0,.867.867" transform="translate(-75.601 -39.866)" fill="#0d0a0e"/>
      <path id="Trazado_1262250" data-name="Trazado 1262250" d="M161.105,74.855h0a.87.87,0,0,0,.923-.808l.029-.433a.868.868,0,1,0-1.732-.115l-.028.433a.87.87,0,0,0,.808.923" transform="translate(-87.915 -39.867)" fill="#0d0a0e"/>
      <path id="Trazado_1262251" data-name="Trazado 1262251" d="M144.382,90.877c.863,3.061,3.13,4.7,4.794,4.345a3.119,3.119,0,0,0,1.989-1.736Z" transform="translate(-79.187 -49.842)" fill="#fff"/>
      <path id="Trazado_1262252" data-name="Trazado 1262252" d="M161.373,76.02a5.961,5.961,0,1,1,5.814-5.959,5.9,5.9,0,0,1-5.814,5.959m0-10.175a4.218,4.218,0,1,0,4.07,4.215,4.149,4.149,0,0,0-4.07-4.215" transform="translate(-85.317 -35.157)" fill="#40d4bf"/>
      <path id="Trazado_1262253" data-name="Trazado 1262253" d="M131.756,76.02a5.961,5.961,0,1,1,5.815-5.959,5.895,5.895,0,0,1-5.815,5.959m0-10.175a4.218,4.218,0,1,0,4.07,4.215,4.149,4.149,0,0,0-4.07-4.215" transform="translate(-69.074 -35.157)" fill="#40d4bf"/>
      <path id="Trazado_1262254" data-name="Trazado 1262254" d="M153.736,80.034a.889.889,0,0,1-.351-1.707l.615-.263a31.73,31.73,0,0,1-1.414-3.033c-.273-.676-.525-1.369-.749-2.06a.889.889,0,1,1,1.692-.549c.211.652.449,1.305.706,1.943a29.788,29.788,0,0,0,1.79,3.686.89.89,0,0,1-.421,1.26l-1.518.651a.889.889,0,0,1-.35.072" transform="translate(-83.252 -39.383)" fill="#f09db7"/>
      <path id="Trazado_1262255" data-name="Trazado 1262255" d="M149.5,73.636l-1.156-1.1a3.961,3.961,0,0,1,4.837-1.1l-.811,1.37.405-.685-.4.691c-.141-.078-1.419-.717-2.88.824" transform="translate(-81.361 -38.957)" fill="#40d4bf"/>
      <path id="Trazado_1262256" data-name="Trazado 1262256" d="M114.651,30.061s9.392-4.7,16.176,9.392h-8.349l-5.218-5.218,1.565,5.218c-4.774.037-8.815,1.671-9.963,4.183a14.077,14.077,0,0,0-.995,4.166,14.681,14.681,0,0,0,0,2.609,5.125,5.125,0,0,1-.522-.522c-.718-.829-.73-1.387-1.044-1.565-.347-.2-1.135.025-3.131,2.087-4.335-6.331-4.557-13.673-1.044-17.741,2.247-2.6,7.263-5.3,10.958-3.653a5.745,5.745,0,0,1,1.566,1.044" transform="translate(-54.674 -15.638)" fill="#0d0a0e"/>
      <path id="Trazado_1262257" data-name="Trazado 1262257" d="M107.718,71.866a2.423,2.423,0,0,0-.68-1.01,3.5,3.5,0,0,0-4.328.294c-1.9,1.944-.193,7.181,2.26,7.672a2.792,2.792,0,0,0,2.134-.58,9.812,9.812,0,0,1,.612-6.376" transform="translate(-55.887 -38.522)" fill="#ffc4c5"/>
      <path id="Trazado_1262258" data-name="Trazado 1262258" d="M107.2,77.83a.481.481,0,0,1-.446-.3c-.008-.019-.773-1.868-2.157-1.868a.481.481,0,1,1,0-.961c2.037,0,3.008,2.37,3.049,2.471a.481.481,0,0,1-.446.659" transform="translate(-57.104 -40.97)" fill="#f09db7"/>
      <path id="Trazado_1262259" data-name="Trazado 1262259" d="M105.558,78.93a.481.481,0,0,1-.48-.48c0-2.062,1.273-2.495,1.327-2.512a.481.481,0,0,1,.3.912c-.044.018-.671.295-.671,1.6a.481.481,0,0,1-.48.48" transform="translate(-57.631 -41.636)" fill="#f09db7"/>
      <path id="Trazado_1262260" data-name="Trazado 1262260" d="M170.948,267.919H42.709a2.709,2.709,0,1,1,0-5.419H170.948a2.709,2.709,0,1,1,0,5.419" transform="translate(-21.938 -143.97)" fill="#feca78"/>
      <path id="Trazado_1262261" data-name="Trazado 1262261" d="M223.812,208.848H162.85a4,4,0,0,1-3.839-5.1l10.2-35.357a4,4,0,0,1,3.839-2.889h60.962a4,4,0,0,1,3.839,5.1l-10.2,35.357a4,4,0,0,1-3.839,2.889" transform="translate(-87.123 -90.769)" fill="#212e5c"/>
      <path id="Trazado_1262262" data-name="Trazado 1262262" d="M196.537,257.661H121.58a1.58,1.58,0,1,1,0-3.161h74.956a1.58,1.58,0,0,1,0,3.161" transform="translate(-65.815 -139.582)" fill="#212e5c"/>
      <path id="Trazado_1262263" data-name="Trazado 1262263" d="M241.743,206.072c-.726.4-1.507.7-2.2,1.158a4.045,4.045,0,0,0-1.617,1.885,2.55,2.55,0,0,0,.13,2.281,2.576,2.576,0,0,0,1.778,1.137,6.905,6.905,0,0,0,2.489-.121.678.678,0,0,0-.36-1.306c-.179.035-.359.068-.541.094.113-.016-.145.018-.169.019q-.14.015-.281.023a4.971,4.971,0,0,1-.556,0c-.024,0-.287-.026-.156-.009a2.422,2.422,0,0,1-.259-.049c-.084-.019-.164-.047-.247-.071s-.079-.029-.014,0c-.038-.017-.075-.035-.112-.055a1.709,1.709,0,0,1-.211-.13c.107.078-.079-.079-.1-.1s-.057-.063-.084-.1c.041.051.038.043-.009-.023-.013-.025-.117-.243-.085-.155a1.426,1.426,0,0,1-.069-.267c.018.12,0-.1,0-.129s.017-.247,0-.134a2.016,2.016,0,0,1,.063-.278,1.5,1.5,0,0,1,.191-.442,2.373,2.373,0,0,1,.69-.762,20.38,20.38,0,0,1,2.413-1.3c.763-.422.08-1.593-.684-1.17" transform="translate(-130.377 -112.972)" fill="#fff"/>
      <path id="Trazado_1262264" data-name="Trazado 1262264" d="M248.029,210.747l.1-.133c.113-.149-.086.107.032-.041.07-.089.141-.177.214-.262a5.022,5.022,0,0,1,.425-.447c.041-.037.083-.073.125-.109.135-.118-.111.074.035-.028a2.881,2.881,0,0,1,.274-.173c.047-.026.1-.049.144-.072-.083.039-.055.023.014,0,.051-.018.1-.033.156-.047.035-.009.186-.014.084-.021s.026,0,.052,0,.129-.011.143.006c-.093-.014-.113-.017-.061-.008l.071.015c.047.011.093.024.139.039l.046.016q.1.041-.028-.012c.028,0,.106.055.127.068s.066.047.1.065-.094-.092.012.011c.028.027.056.052.084.08s.042.045.061.069l-.051-.065c.016,0,.061.093.071.112.076.138-.01,0,0,0s.033.124.034.124c-.014,0-.025-.178-.009-.009.012.114.039-.091.008-.028-.022.045-.028.106-.046.154a.68.68,0,0,0,.473.833.7.7,0,0,0,.834-.473c.459-1.231-.845-2.339-1.988-2.348-1.268-.009-2.158,1.087-2.849,2a.679.679,0,0,0,.243.927.7.7,0,0,0,.927-.243" transform="translate(-135.337 -114.111)" fill="#fff"/>
      <path id="Trazado_1262265" data-name="Trazado 1262265" d="M326.394,61.722V87.6a2.84,2.84,0,0,1-2.563,3.052H290.694a2.84,2.84,0,0,1-2.563-3.052V61.722a2.84,2.84,0,0,1,2.563-3.052h33.136a2.84,2.84,0,0,1,2.563,3.052" transform="translate(-158.027 -32.178)" fill="#212e5c"/>
      <path id="Trazado_1262266" data-name="Trazado 1262266" d="M326.394,61.622v2.863H288.131V61.622a2.747,2.747,0,0,1,2.48-2.952h33.3a2.747,2.747,0,0,1,2.48,2.952" transform="translate(-158.027 -32.178)" fill="#40d4bf"/>
      <path id="Trazado_1262267" data-name="Trazado 1262267" d="M295.4,63.379a1.131,1.131,0,1,1-1.131-1.131,1.131,1.131,0,0,1,1.131,1.131" transform="translate(-160.774 -34.14)" fill="#fff"/>
      <path id="Trazado_1262268" data-name="Trazado 1262268" d="M304.7,63.379a1.131,1.131,0,1,1-1.131-1.131,1.131,1.131,0,0,1,1.131,1.131" transform="translate(-165.875 -34.14)" fill="#fff"/>
      <path id="Trazado_1262269" data-name="Trazado 1262269" d="M308.171,83.388l-4.487,3.5-2.2,1.714c-.744.579-1.831,1.291-1.23,2.39a7.268,7.268,0,0,0,1.661,1.689c.625.548,1.276,1.066,1.945,1.559a26.805,26.805,0,0,0,4.285,2.572,1.123,1.123,0,0,0,1.5-.392,1.1,1.1,0,0,0-.392-1.5,26.708,26.708,0,0,1-3.9-2.29q-.868-.616-1.674-1.309-.438-.377-.86-.771a4.393,4.393,0,0,1-.677-.665l.149.552c-.005-.042-.01-.084-.016-.126l-.149.552c.118-.236.607-.486.816-.649l.968-.754,1.935-1.509,3.871-3.017a1.1,1.1,0,0,0,0-1.546,1.121,1.121,0,0,0-1.546,0" transform="translate(-164.581 -45.565)" fill="#fff"/>
      <path id="Trazado_1262270" data-name="Trazado 1262270" d="M339.082,84.938l3.871,3.017,1.935,1.509.88.685c.234.182.773.456.9.718l-.149-.552c-.005.042-.01.084-.015.126.049-.184.1-.368.149-.552a4.291,4.291,0,0,1-.677.665q-.421.395-.86.771-.808.693-1.674,1.309a26.819,26.819,0,0,1-3.895,2.29,1.1,1.1,0,0,0-.393,1.5,1.116,1.116,0,0,0,1.5.392,26.8,26.8,0,0,0,4.208-2.515c.67-.491,1.323-1.007,1.95-1.552a7.307,7.307,0,0,0,1.733-1.753c.567-1.068-.408-1.748-1.142-2.321l-2.2-1.714-4.575-3.565a1.128,1.128,0,0,0-1.546,0,1.1,1.1,0,0,0,0,1.546" transform="translate(-185.797 -45.568)" fill="#fff"/>
      <path id="Trazado_1262271" data-name="Trazado 1262271" d="M327.349,78.342q-3.084,8.059-6.427,16.016a1.1,1.1,0,0,0,.764,1.345,1.122,1.122,0,0,0,1.345-.764q3.342-7.956,6.426-16.016a1.1,1.1,0,0,0-.764-1.345,1.118,1.118,0,0,0-1.345.764" transform="translate(-175.98 -42.526)" fill="#fff"/>
    </g>
  </g>
</svg>
