<svg xmlns="http://www.w3.org/2000/svg" width="261" height="145" viewBox="0 0 261 145">
  <g id="Grupo_1205049" data-name="Grupo 1205049" transform="translate(-1017.711 -8989.095)">
    <rect id="Rectángulo_454804" data-name="Rectángulo 454804" width="261" height="145" rx="25" transform="translate(1017.711 8989.095)" fill="#f7f7d7"/>
    <path id="Trazado_1262278" data-name="Trazado 1262278" d="M25.66,131.69a73.928,73.928,0,0,1-13.23-1.2,9.149,9.149,0,0,1-5.85-4.251C.4,117.137-.351,95.032.113,78.092.629,59.206,2.74,41.638,3.339,38.64a6.176,6.176,0,0,1,2.651-4.127c2.953-1.947,7.088-1.107,7.263-1.07l-.18.855c-.039-.008-3.96-.8-6.605.947A5.33,5.33,0,0,0,4.2,38.811c-.988,4.938-8.49,69.87,3.107,86.939a8.316,8.316,0,0,0,5.283,3.882c18.873,3.431,32.406-1.674,32.541-1.726l.316.815c-.1.039-7.853,2.968-19.782,2.968" transform="translate(1097.527 8983.386)" fill="#ff88c4"/>
    <path id="Trazado_1262279" data-name="Trazado 1262279" d="M35.6,133.425a81.528,81.528,0,0,1-13.223-1.083,9.48,9.48,0,0,1-6.273-4.449c-11.38-16.809-3.83-74.169-2.824-78.722,1.386-6.273,9.82-4.744,9.9-4.728l-.163.859c-.313-.059-7.684-1.387-8.888,4.058-.958,4.333-8.318,61.776,2.694,78.043a8.647,8.647,0,0,0,5.69,4.077c18.885,3.106,32.427-1.516,32.561-1.563l.289.825c-.1.036-7.846,2.684-19.769,2.684" transform="translate(1091.954 8977.174)" fill="#40d4bf"/>
    <path id="Trazado_1262280" data-name="Trazado 1262280" d="M181.938,59.541c-.227,0-1.37.225-1.416-.461-.215-3.176-.317-6.115-.347-8.787-.06-5.32.176-8.638,2.5-10.892a4.053,4.053,0,0,1,.42-.376c1.078-.74,3.841-.977,19.985-.319,4.7.191,6.815.957,7.94,2.765.666,1.07.634,2.388.544,4.98-.158,4.535-.236,6.8-1.477,8.218-1.559,1.78-4.746,1.672-11.056,1.383-8.151-.373-10.981-1.7-13.171.353-1.176,1.1-2.137,3.147-3.925,3.136" transform="translate(996.097 8980.521)" fill="#ff88c4"/>
    <path id="Trazado_1262281" data-name="Trazado 1262281" d="M199.247,54.439a3.962,3.962,0,0,1-.35-.3,11.249,11.249,0,0,1-3.554-.475.7.7,0,0,1,.412-1.334,11.207,11.207,0,0,0,2.217.4,4.031,4.031,0,0,1,.038-2.778c.94-2.606,2.363-2.471,2.775-2.366,1.011.254,1.877,1.566,1.531,3.927a2.79,2.79,0,0,1-1.281,2.025,3.154,3.154,0,0,1-.278.156,3.681,3.681,0,0,0,2.96-.215c-.621-1.766-.217-4.127.958-4.962a1.822,1.822,0,0,1,1.85-.223A2.155,2.155,0,0,1,207.7,50.12c.058.633-.041,2.228-2.081,3.806a1.537,1.537,0,0,0,1.622,0,7.882,7.882,0,0,0,.959-.486,2.7,2.7,0,0,1,.929-2.458c.764-.65,1.315-.6,1.643-.445a1.063,1.063,0,0,1,.579,1.026,3.6,3.6,0,0,1-1.492,2.41.977.977,0,0,0,1.384.268.7.7,0,0,1,.657,1.231,2.38,2.38,0,0,1-3.195-.712,9.51,9.51,0,0,1-.918.451,2.811,2.811,0,0,1-3.38-.518,5.529,5.529,0,0,1-2.855.606,4.282,4.282,0,0,1-2.308-.861m.076-4.009a2.534,2.534,0,0,0,.161,2.234,2.411,2.411,0,0,0,.806-.3,1.378,1.378,0,0,0,.645-1.046c.222-1.514-.217-2.3-.489-2.37l-.021,0c-.187-.014-.681.323-1.1,1.489m6.16-.772c-.545.388-.818,1.851-.545,3.026a2.967,2.967,0,0,0,1.372-2.437.818.818,0,0,0-.369-.682.323.323,0,0,0-.114-.029.54.54,0,0,0-.345.122" transform="translate(987.83 8975.327)" fill="#fff"/>
    <path id="Trazado_1262282" data-name="Trazado 1262282" d="M33.043,76.483a4.438,4.438,0,0,0,1.971-1.027c1.848-1.717.52-3.844,2.1-7.436.787-1.783,1.637-2.442,1.6-4.116-.021-1.084-.408-2.342-.954-2.41-.586-.073-.883,1.283-2.261,2.781a11.377,11.377,0,0,1-2.689,2.017c-2.836,1.82-6.357,4.08-6.431,6.841a4.043,4.043,0,0,0,1.32,2.921,4.964,4.964,0,0,0,5.336.43" transform="translate(1082.672 8967.477)" fill="#ffc4c5"/>
    <path id="Trazado_1262283" data-name="Trazado 1262283" d="M53.265,191.979c-8.122-4.185-37.058-18.623-43.19-11a5.577,5.577,0,0,0-1.1,3.3c-.829,12.621,27.161,32.529,55.294,32.186,17.942-.219,39.952-8.722,42.915-21.458.316-1.356.876-3.927-.455-6.091-5.642-9.172-37.365,1.829-41.635,3.34l-11.829-.275" transform="translate(1092.484 8901.438)" fill="#feca78"/>
    <path id="Trazado_1262284" data-name="Trazado 1262284" d="M64.781,193.882l7.178-15.13,38.284,1.651,5.811,15.13S87,199.659,64.781,193.882" transform="translate(1061.057 8901.461)" fill="#feca78"/>
    <path id="Trazado_1262285" data-name="Trazado 1262285" d="M87.609,203.983a.832.832,0,0,1-.474-.148c-2.664-1.841-5.438-3.593-8.245-5.208a118.722,118.722,0,0,0-16.756-7.957.836.836,0,0,1,.6-1.561,120.328,120.328,0,0,1,16.993,8.07c2.847,1.637,5.66,3.414,8.362,5.281a.836.836,0,0,1-.476,1.523" transform="translate(1062.85 8895.661)" fill="#fff"/>
    <path id="Trazado_1262286" data-name="Trazado 1262286" d="M89.878,237.989a7.183,7.183,0,0,1-2.5,2.144,90.378,90.378,0,0,0-8.175,4.734c-7.4,4.812-10.709,8.5-12.112,7.545-1.2-.819-.185-4.525.69-6.6,1.936-4.576,4.3-3.867,6.832-8.684,1.617-3.066,1.728-5.377,4.354-7.35.009,0,.019-.014.028-.019a5.513,5.513,0,0,1,4.321-.963l5.345,1a48.479,48.479,0,0,0,1.218,8.194" transform="translate(1060.067 8873.34)" fill="#39d8bf"/>
    <path id="Trazado_1262287" data-name="Trazado 1262287" d="M118.626,226.489a.834.834,0,0,1-.624-.279,14.7,14.7,0,0,1-2.931-6.255,38.35,38.35,0,0,1-.978-6.571c-.165-2.376-.113-4.075-.111-4.146a.836.836,0,0,1,.349-.653,75.6,75.6,0,0,1,32.327-13.225.836.836,0,0,1,.259,1.651A73.936,73.936,0,0,0,115.647,209.7c-.005.633,0,1.946.114,3.568a36.608,36.608,0,0,0,.933,6.282,13.1,13.1,0,0,0,2.555,5.546.836.836,0,0,1-.623,1.392" transform="translate(1033.362 8892.116)" fill="#fff"/>
    <path id="Trazado_1262288" data-name="Trazado 1262288" d="M124.252,184.86a1.091,1.091,0,0,0,0-2.18,1.091,1.091,0,0,0,0,2.18" transform="translate(1028.168 8899.249)" fill="#fff"/>
    <path id="Trazado_1262289" data-name="Trazado 1262289" d="M118.165,195.17H118.1a.85.85,0,0,1-.809-.869l.353-14.986a.85.85,0,0,1,.849-.83h.02a.85.85,0,0,1,.83.87l-.328,13.958a4.39,4.39,0,0,0,2.229-1.848c.016-.024.033-.048.052-.071,0,0,1.532-2.3,1.147-11.817a.85.85,0,1,1,1.7-.069c.4,9.782-1.169,12.467-1.489,12.91a5.551,5.551,0,0,1-4.483,2.754" transform="translate(1031.497 8901.611)" fill="#fff"/>
    <path id="Trazado_1262290" data-name="Trazado 1262290" d="M127.616,200.293s-5.043-1.454-7.442-.928-6.379-1.141-6.638-.178.5,2.085,3.312,2.7,2.834,1,2.834,1-13.28,5.2-13.554,6.106c-.15.5-.51.855-.43,1.12.147.489,1.087.485,1.437.488,2.269.019,8.189-2.4,10.37-3.316l.022.387c-2.539.992-4.6,1.948-6.093,2.682-2.951,1.451-5.14,2.759-4.989,3.783a1.918,1.918,0,0,0,.39.754,2.009,2.009,0,0,0,1.429.7,1.806,1.806,0,0,0,.413,1.141c.634.663,1.813.275,5.145-1.072,3.51-1.419,5.424-2.254,5.424-2.254-2.9,2.189-5,3.77-5.659,4.21a1.472,1.472,0,0,0-.647.814,1.014,1.014,0,0,0,.045.774c.367.482,1.758-.195,2.4-.526,4.464-2.306,9.713-7.032,10.324-7.587l3.627-3.317Z" transform="translate(1038.027 8890.128)" fill="#ffc4c5"/>
    <path id="Trazado_1262291" data-name="Trazado 1262291" d="M57.653,16.669V35.29a2.044,2.044,0,0,1-1.845,2.2H31.966a2.044,2.044,0,0,1-1.845-2.2V16.669a2.044,2.044,0,0,1,1.845-2.2H55.808a2.044,2.044,0,0,1,1.845,2.2" transform="translate(1080.569 8993.946)" fill="#212e5c"/>
    <path id="Trazado_1262292" data-name="Trazado 1262292" d="M57.653,16.6v2.06H30.121V16.6a1.977,1.977,0,0,1,1.784-2.124H55.869A1.977,1.977,0,0,1,57.653,16.6" transform="translate(1080.569 8993.946)" fill="#40d4bf"/>
    <path id="Trazado_1262293" data-name="Trazado 1262293" d="M35.472,17.947a.814.814,0,1,1-.814-.814.814.814,0,0,1,.814.814" transform="translate(1078.474 8992.449)" fill="#fff"/>
    <path id="Trazado_1262294" data-name="Trazado 1262294" d="M42.387,17.947a.814.814,0,1,1-.814-.814.814.814,0,0,1,.814.814" transform="translate(1074.58 8992.449)" fill="#fff"/>
    <path id="Trazado_1262295" data-name="Trazado 1262295" d="M44.827,32.843l-3.253,2.536-1.66,1.294c-.515.4-1.19.9-.783,1.64a5.179,5.179,0,0,0,1.184,1.207c.449.394.917.767,1.4,1.121a19.26,19.26,0,0,0,3.1,1.86.808.808,0,0,0,1.076-.282.793.793,0,0,0-.282-1.076,19.328,19.328,0,0,1-2.8-1.648q-.627-.444-1.208-.945-.3-.26-.593-.531a3.183,3.183,0,0,1-.51-.5l.108.4c0-.03-.007-.06-.011-.09q-.053.2-.107.4c.083-.167.4-.319.548-.437l.73-.569,1.394-1.087,2.789-2.173a.792.792,0,0,0,0-1.113.807.807,0,0,0-1.113,0" transform="translate(1075.567 8983.73)" fill="#fff"/>
    <path id="Trazado_1262296" data-name="Trazado 1262296" d="M67.994,33.958l2.789,2.173,1.328,1.035.73.569c.162.126.524.308.615.489l-.108-.4c0,.03-.007.06-.011.09l.108-.4A5.435,5.435,0,0,1,72.4,38.5q-.608.526-1.263.993a19.267,19.267,0,0,1-2.8,1.648.794.794,0,0,0-.282,1.076.8.8,0,0,0,1.076.282,19.283,19.283,0,0,0,3.037-1.817c.5-.368.989-.754,1.456-1.165A5.054,5.054,0,0,0,74.8,38.314c.4-.748-.262-1.234-.783-1.64l-1.593-1.242-3.32-2.587a.813.813,0,0,0-1.113,0,.792.792,0,0,0,0,1.113" transform="translate(1059.377 8983.728)" fill="#fff"/>
    <path id="Trazado_1262297" data-name="Trazado 1262297" d="M59.123,29.142q-2.22,5.8-4.624,11.524a.792.792,0,0,0,.549.968.806.806,0,0,0,.968-.549q2.4-5.725,4.624-11.524c.362-.946-1.158-1.356-1.517-.418" transform="translate(1066.869 8985.987)" fill="#fff"/>
    <path id="Trazado_1262298" data-name="Trazado 1262298" d="M71.4,88.132a14.645,14.645,0,0,0-8.191.248,15.847,15.847,0,0,0-7.49,6.079c-4.252,5.687-9.8,12.778-16.505,21.458a11.72,11.72,0,0,0,1.685,3.989c3.334,4.989,9.5,5.579,10.578,5.664,1.188-1.014,2.845-2.486,4.723-4.359a72.692,72.692,0,0,0,9.7-11.621c1.818-2.932,5.523-9.97,5.5-21.458" transform="translate(1075.451 8952.742)" fill="#33c1e1"/>
    <path id="Trazado_1262299" data-name="Trazado 1262299" d="M172.073,121.748c.964,9.894-9.562,17.94-11.227,19.212-3.031,2.317-7.259,5.548-12.674,4.807-4.874-.667-10.088-4.467-10.051-8.3.014-1.58.916-2.76,4.807-6.555,2.844-2.774,6.193-5.881,10.051-9.177L142.5,100.758l4.042-9.3v0l1.2-2.77a16.639,16.639,0,0,1,2.609.707c6.12,2.21,9.533,7.572,11.682,11.048a29.539,29.539,0,0,1,3.067,5.94c6.051,13.821,6.715,12.8,6.967,15.368" transform="translate(1019.768 8952.167)" fill="#33c1e1"/>
    <path id="Trazado_1262300" data-name="Trazado 1262300" d="M75.037,131.611a5.811,5.811,0,0,1-1.311-1.311c-2.182-3.046-.556-7.345.437-10.925,1.418-5.114-.308-2.083,2.185-18.355,1.572-10.26,2.239-11.343,3.059-12.237,3.233-3.524,8.337-3.558,16.607-3.5,10.151.076,15.227.114,18.355,3.059,5.313,5-.746,10.037,3.5,26.658,1.136,4.451,3.3,10.858,0,15.3a8.614,8.614,0,0,1-1.748,1.748,107.645,107.645,0,0,1-41.08-.437" transform="translate(1056.631 8954.087)" fill="#33c1e1"/>
    <path id="Trazado_1262301" data-name="Trazado 1262301" d="M30.916,99.7a74.451,74.451,0,0,1-.378-9.3l6.214-.436A76.975,76.975,0,0,1,45.06,106.68c1.991,5.726,3.353,9.81,1.1,11.635-2.036,1.652-6.471,1.122-9.443-1.025-4.306-3.111-4.919-9.024-5.8-17.586" transform="translate(1080.346 8951.445)" fill="#ffc4c5"/>
    <path id="Trazado_1262302" data-name="Trazado 1262302" d="M16.787,55.4c1.211-1.22,3.726-.614,9.36-.219,1.735.121,3.3.191,4.078,1.293a1.686,1.686,0,0,1,.323,1.4c-.34.978-2.591.843-2.578,1.011,0,.026.057.07.927.149.984.09,1.256.066,1.6.264a1.7,1.7,0,0,1,.565.561,2.214,2.214,0,0,1,.153,2.18,2.354,2.354,0,0,1-2.557,1.138.366.366,0,0,0-.082.314c.148.365,1.379-.186,2,.33A1.675,1.675,0,0,1,29.1,66.652a.4.4,0,0,0,.143.236c.32.235.9-.313,1.15-.168.3.175.252,1.429-.373,2.26-1.183,1.574-3.943,1.152-8.434.466a4.3,4.3,0,0,1-3.08-1.387,3.289,3.289,0,0,1-.588-1.9A2.834,2.834,0,0,1,16.655,63.3a1.984,1.984,0,0,1,.527-.867,2.776,2.776,0,0,1-1.119-2.64,2.645,2.645,0,0,1,.915-1.536,2.247,2.247,0,0,1-.787-1.724,1.9,1.9,0,0,1,.6-1.131" transform="translate(1088.505 8971.312)" fill="#ffc4c5"/>
    <path id="Trazado_1262303" data-name="Trazado 1262303" d="M34.173,85.225a23.679,23.679,0,0,1-3.475-.3.808.808,0,1,1,.242-1.6c3.907.589,5.374.126,5.9-.2.312-.194.882-.551.924-.968a1.072,1.072,0,0,0-.284-.7.809.809,0,0,1,1.252-1.024,2.607,2.607,0,0,1,.642,1.882A3.117,3.117,0,0,1,37.7,84.5a6.8,6.8,0,0,1-3.529.729" transform="translate(1080.632 8956.979)" fill="#f09db7"/>
    <path id="Trazado_1262304" data-name="Trazado 1262304" d="M33.872,63.851c-2.791,0-6.266-.367-6.451-.387a.808.808,0,1,1,.172-1.607,53.36,53.36,0,0,0,8.131.293.809.809,0,0,1,.19,1.606,18.127,18.127,0,0,1-2.041.1" transform="translate(1082.497 8967.273)" fill="#f09db7"/>
    <path id="Trazado_1262305" data-name="Trazado 1262305" d="M35.924,73.58c-2.761,0-6.172-.358-6.355-.378a.808.808,0,1,1,.171-1.608,52.235,52.235,0,0,0,8.059.282.809.809,0,1,1,.194,1.606,18.048,18.048,0,0,1-2.069.1" transform="translate(1081.288 8961.791)" fill="#f09db7"/>
    <path id="Trazado_1262306" data-name="Trazado 1262306" d="M35.841,82.052c-2.584,0-5.631-.31-5.8-.328a.809.809,0,0,1,.166-1.609,47.4,47.4,0,0,0,7.652.218.809.809,0,0,1,.216,1.6,17.612,17.612,0,0,1-2.234.116" transform="translate(1081.022 8956.993)" fill="#f09db7"/>
    <path id="Trazado_1262307" data-name="Trazado 1262307" d="M124.761,79.57a5.975,5.975,0,0,1-4.16-4.458l.026-.184.109-.721.4-2.688.052-.363.594-4,8.9-2.906,1.128,11.293a6.2,6.2,0,0,1-7.053,4.025" transform="translate(1029.631 8965.922)" fill="#ffc4c5"/>
    <path id="Trazado_1262308" data-name="Trazado 1262308" d="M129.6,76.3a8.67,8.67,0,0,1-3.059,3.933,8.787,8.787,0,0,1-5.882,1.477l.109-.721.4-2.688c1.114-.179,2.281-.4,3.487-.673,1.783-.4,3.435-.852,4.943-1.329" transform="translate(1029.598 8959.138)" fill="#f09db7"/>
    <path id="Trazado_1262309" data-name="Trazado 1262309" d="M111.461,12.487a8.606,8.606,0,0,0-2.5,1.8c-2.116,2.282-1.6,4.562-3.015,9.447-1.049,3.61-1.515,2.992-2.013,5.561-.41,2.117-1.111,5.933,1.1,9.015,2.057,2.863,5.465,3.453,7.119,3.74a12.542,12.542,0,0,0,8.3-1.221c2.755-1.551,3.938-3.8,5.532-6.826,1.7-3.232,4.73-8.954,2.877-15.359a10.591,10.591,0,0,0-2.674-5.038c-3.829-3.751-10.535-3.355-14.726-1.117" transform="translate(1039.264 8996.02)" fill="#ffc4c5"/>
    <path id="Trazado_1262310" data-name="Trazado 1262310" d="M116.645,44.23a.8.8,0,0,1-.433-.126l-.862-.549a1.1,1.1,0,0,1-.225-1.678,10.273,10.273,0,0,0,2.43-4.59.809.809,0,1,1,1.574.371,11.893,11.893,0,0,1-2.412,4.85l.362.231a.808.808,0,0,1-.435,1.491" transform="translate(1032.877 8981.454)" fill="#f09db7"/>
    <path id="Trazado_1262311" data-name="Trazado 1262311" d="M130.049,32.424a4.168,4.168,0,0,1,1.668-.521,4.641,4.641,0,0,1,1.789.153,4.416,4.416,0,0,1,1.6.841,3.744,3.744,0,0,1,1.074,1.4.467.467,0,0,1-.7.565l-.019-.013a10.176,10.176,0,0,0-1.181-.749,6.5,6.5,0,0,0-1.216-.474,8.7,8.7,0,0,0-2.708-.216h-.022a.528.528,0,0,1-.289-.984" transform="translate(1024.46 8984.149)"/>
    <path id="Trazado_1262312" data-name="Trazado 1262312" d="M110.989,28.53a3.366,3.366,0,0,1,2.41.257,3.282,3.282,0,0,1,1.661,1.759.479.479,0,0,1-.663.592l-.038-.019c-.316-.157-.59-.316-.861-.463s-.537-.277-.8-.4-.538-.235-.82-.348-.579-.21-.9-.344l-.037-.016a.54.54,0,0,1,.053-1.015" transform="translate(1035.259 8986.101)"/>
    <path id="Trazado_1262313" data-name="Trazado 1262313" d="M133.614,43.058h0a.729.729,0,0,1-.6-.834l.059-.358a.727.727,0,1,1,1.434.234l-.059.358a.729.729,0,0,1-.834.6" transform="translate(1022.648 8978.868)" fill="#0d0a0e"/>
    <path id="Trazado_1262314" data-name="Trazado 1262314" d="M116.46,40.25h0a.729.729,0,0,1-.654-.792l.035-.362a.727.727,0,1,1,1.447.139l-.035.361a.729.729,0,0,1-.793.654" transform="translate(1032.333 8980.454)" fill="#0d0a0e"/>
    <path id="Trazado_1262315" data-name="Trazado 1262315" d="M113.462,55.328a3.437,3.437,0,0,0,6.25-.308,8.912,8.912,0,0,1-6.25.308" transform="translate(1033.65 8971.119)" fill="#fff"/>
    <path id="Trazado_1262316" data-name="Trazado 1262316" d="M43.532,109.075S41.46,98.348,36.378,98.03c0,0,.51,4.006-8.4,3.811,0,0-2.359-1.506-1.922,4.612s4.807,35.4,17.481,25.347c0,0,6.118-6.992,0-22.725" transform="translate(1082.892 8946.905)" fill="#33c1e1"/>
    <path id="Trazado_1262317" data-name="Trazado 1262317" d="M110.9,9.845s-5.393-7.091,1.6-9.276,4.807,2.622,4.807,2.622,8.74-4.37,11.8-.437,1.748,4.807,1.748,4.807c3.809,1.476,6.316,4.555,6.306,7.755-.009,2.585-1.664,6.137-4.121,6.23-1.8.068-3.179-1.747-3.5-2.185l-.874,2.622-1.311-1.311a42.8,42.8,0,0,0,.437-5.244,9.807,9.807,0,0,0-.236-2.553,5.007,5.007,0,0,0-.638-1.817c-1.447-1.843-6.631,1.719-12.237.437a11.435,11.435,0,0,1-3.784-1.65" transform="translate(1036.208 9002.095)" fill="#0d0a0e"/>
    <path id="Trazado_1262318" data-name="Trazado 1262318" d="M155.943,43.423a2.032,2.032,0,0,1,.7-.743,2.935,2.935,0,0,1,3.537.828c1.308,1.863-.81,5.961-2.9,6.037a2.338,2.338,0,0,1-1.686-.768,8.214,8.214,0,0,0,.355-5.353" transform="translate(1009.934 8978.234)" fill="#ffc4c5"/>
    <path id="Trazado_1262319" data-name="Trazado 1262319" d="M158.181,49.029a.437.437,0,0,1-.374-.662c.048-.079,1.179-1.929,2.889-1.647a.437.437,0,1,1-.141.862c-1.121-.182-1.991,1.222-2,1.237a.437.437,0,0,1-.374.21" transform="translate(1008.721 8975.809)" fill="#f09db7"/>
    <path id="Trazado_1262320" data-name="Trazado 1262320" d="M161.46,50.048a.437.437,0,0,1-.432-.507c.174-1.068-.3-1.367-.323-1.379a.444.444,0,0,1-.165-.591.431.431,0,0,1,.575-.181c.043.022,1.058.563.776,2.292a.437.437,0,0,1-.431.367" transform="translate(1007.176 8975.442)" fill="#f09db7"/>
    <path id="Trazado_1262321" data-name="Trazado 1262321" d="M137.079,160.931a.809.809,0,0,1-.745-1.122c3.118-7.4,12.391-13.645,14.972-15.273L144.075,130.9a.808.808,0,1,1,1.429-.757l7.946,14.991-.663.393c-.115.069-11.612,6.956-14.963,14.914a.809.809,0,0,1-.746.5" transform="translate(1020.81 8929.071)" fill="#f5ffff"/>
    <path id="Trazado_1262322" data-name="Trazado 1262322" d="M179.073,165.954a.805.805,0,0,1-.526-.194,6.978,6.978,0,0,0-6.213-1.157.809.809,0,0,1-.509-1.535,8.494,8.494,0,0,1,7.774,1.464.809.809,0,0,1-.527,1.423" transform="translate(1001.104 8910.501)" fill="#f5ffff"/>
    <path id="Trazado_1262323" data-name="Trazado 1262323" d="M72.161,139.771a.783.783,0,0,1-.161-.017.808.808,0,0,1-.632-.953c.91-4.495,1.779-9.061,2.583-13.572.774-4.342,1.508-8.747,2.182-13.093a.808.808,0,0,1,1.6.248c-.676,4.357-1.412,8.774-2.188,13.128-.806,4.523-1.678,9.1-2.59,13.61a.809.809,0,0,1-.791.648" transform="translate(1057.357 8939.35)" fill="#f5ffff"/>
    <path id="Trazado_1262324" data-name="Trazado 1262324" d="M67.159,131.4a.809.809,0,0,1-.808-.808c-.008-5.8-2.918-11.858-2.947-11.918a.809.809,0,0,1,1.454-.707c.126.26,3.1,6.45,3.11,12.623a.808.808,0,0,1-.807.81Z" transform="translate(1061.878 8935.938)" fill="#f5ffff"/>
    <rect id="Rectángulo_455321" data-name="Rectángulo 455321" width="110.184" height="123.809" transform="translate(1097.527 9002.095)" fill="none"/>
  </g>
</svg>
