<svg xmlns="http://www.w3.org/2000/svg" width="46.571" height="46.571" viewBox="0 0 46.571 46.571">
  <g id="Grupo_1205047" data-name="Grupo 1205047" transform="translate(-1186 -7294)">
    <g id="Grupo_1205046" data-name="Grupo 1205046">
      <path id="Trazado_1261906" data-name="Trazado 1261906" d="M42.205,0H4.366A4.366,4.366,0,0,0,0,4.366V42.205a4.366,4.366,0,0,0,4.366,4.366H42.205a4.366,4.366,0,0,0,4.366-4.366V4.366A4.366,4.366,0,0,0,42.205,0ZM40.446,3.184a1.728,1.728,0,1,1-1.728,1.728A1.728,1.728,0,0,1,40.446,3.184Zm-6.413,0a1.728,1.728,0,1,1-1.728,1.728A1.728,1.728,0,0,1,34.034,3.184Zm-6.413,0a1.728,1.728,0,1,1-1.728,1.728A1.728,1.728,0,0,1,27.621,3.184ZM42.933,42.205a.729.729,0,0,1-.728.728H4.366a.729.729,0,0,1-.728-.728V9.46H42.933Z" transform="translate(1186 7294)" fill="#0f5f6b"/>
      <rect id="Rectángulo_455295" data-name="Rectángulo 455295" width="13.242" height="2.408" transform="translate(1195.029 7311.679)" fill="#0f5f6b"/>
      <rect id="Rectángulo_455297" data-name="Rectángulo 455297" width="10.835" height="10.835" transform="translate(1213.688 7311.679)" fill="#0f5f6b"/>
      <path id="Trazado_1261907" data-name="Trazado 1261907" d="M108.1,274.911h1.724V272H96v2.911h12.1Z" transform="translate(1098.732 7046.741)" fill="#0f5f6b"/>
    </g>
  </g>
</svg>
