<svg id="Grupo_1204364" data-name="Grupo 1204364" xmlns="http://www.w3.org/2000/svg" width="51.732" height="47.792" viewBox="0 0 51.732 47.792">
  <g id="Grupo_1204363" data-name="Grupo 1204363">
    <path id="Trazado_1262147" data-name="Trazado 1262147" d="M34.851,57.431a2.3,2.3,0,0,1-.687-.647,2.337,2.337,0,0,1-.218-.385H3.484V26.375H44.831v19.6a2.305,2.305,0,0,1,1.934,1.453,2.295,2.295,0,0,1,1.55-.237V18.9a2.907,2.907,0,0,0-2.9-2.9H2.9A2.907,2.907,0,0,0,0,18.9V56.98a2.907,2.907,0,0,0,2.9,2.9H34.586a2.3,2.3,0,0,1,.265-2.453Zm6.792-36.563A1.072,1.072,0,0,1,42.714,19.8h1.072a1.072,1.072,0,0,1,1.072,1.072v1.215a1.072,1.072,0,0,1-1.072,1.072H42.714a1.072,1.072,0,0,1-1.072-1.072Zm-4.985,0A1.072,1.072,0,0,1,37.729,19.8H38.8a1.072,1.072,0,0,1,1.072,1.072v1.215A1.072,1.072,0,0,1,38.8,23.155H37.729a1.072,1.072,0,0,1-1.072-1.072Zm-4.985,0A1.072,1.072,0,0,1,32.744,19.8h1.072a1.072,1.072,0,0,1,1.072,1.072v1.215a1.072,1.072,0,0,1-1.072,1.072H32.744a1.072,1.072,0,0,1-1.072-1.072Z" transform="translate(0 -15.992)" fill="#0f5f6b"/>
    <path id="Trazado_1262148" data-name="Trazado 1262148" d="M304.628,281.9l-.322-1.827a.452.452,0,0,0-.524-.367l-1.625.286a6.1,6.1,0,0,0-.74-1.279l1.061-1.265a.452.452,0,0,0-.056-.637L301,275.614a.453.453,0,0,0-.638.056l-1.06,1.264a6.073,6.073,0,0,0-1.389-.506v-1.65a.453.453,0,0,0-.452-.453h-1.855a.453.453,0,0,0-.452.453v1.65a6.065,6.065,0,0,0-1.388.506l-1.06-1.264a.453.453,0,0,0-.638-.056l-1.421,1.192a.453.453,0,0,0-.056.638l1.061,1.265a6.116,6.116,0,0,0-.74,1.279l-1.625-.286a.453.453,0,0,0-.524.367l-.322,1.827a.452.452,0,0,0,.367.524l1.626.287a6.094,6.094,0,0,0,.255,1.455l-1.429.825a.452.452,0,0,0-.166.618l.928,1.607a.452.452,0,0,0,.618.166l1.43-.826a6.1,6.1,0,0,0,1.131.95l-.565,1.551a.452.452,0,0,0,.27.58l1.743.634a.452.452,0,0,0,.58-.27l.565-1.551a6.154,6.154,0,0,0,1.477,0l.565,1.551a.452.452,0,0,0,.425.3.447.447,0,0,0,.155-.028l1.743-.634a.453.453,0,0,0,.27-.58l-.565-1.551a6.13,6.13,0,0,0,1.131-.95l1.43.826a.454.454,0,0,0,.226.061.461.461,0,0,0,.117-.015.452.452,0,0,0,.275-.211l.928-1.607a.452.452,0,0,0-.166-.618l-1.429-.825a6.1,6.1,0,0,0,.255-1.455l1.626-.287a.451.451,0,0,0,.292-.186A.443.443,0,0,0,304.628,281.9Zm-8.093,2.9a2.489,2.489,0,1,1,2.489-2.489A2.489,2.489,0,0,1,296.535,284.8Z" transform="translate(-252.902 -242.501)" fill="#0f5f6b"/>
    <g id="Grupo_1204362" data-name="Grupo 1204362" transform="translate(9.497 13.92)">
      <path id="Trazado_1262149" data-name="Trazado 1262149" d="M87.886,172.706a1.515,1.515,0,0,0-.874-1.37l-4.861-2.258,4.861-2.259a1.516,1.516,0,0,0,.874-1.37v-.039a1.508,1.508,0,0,0-1.512-1.509,1.518,1.518,0,0,0-.636.14l-7.771,3.614a1.516,1.516,0,0,0-.874,1.37v.108a1.518,1.518,0,0,0,.874,1.37l7.771,3.614a1.511,1.511,0,0,0,2.147-1.37v-.04Z" transform="translate(-77.094 -159.599)" fill="#0f5f6b"/>
      <path id="Trazado_1262150" data-name="Trazado 1262150" d="M170.791,129.6a1.515,1.515,0,0,0-1.22-.62h-.039a1.506,1.506,0,0,0-1.439,1.049l-5.12,15.864a1.511,1.511,0,0,0,1.439,1.97h.039a1.505,1.505,0,0,0,1.438-1.049l5.119-15.863A1.514,1.514,0,0,0,170.791,129.6Z" transform="translate(-152.332 -128.982)" fill="#0f5f6b"/>
      <path id="Trazado_1262151" data-name="Trazado 1262151" d="M237.412,167.655l-7.771-3.614a1.511,1.511,0,0,0-2.147,1.37v.039a1.518,1.518,0,0,0,.874,1.37l4.86,2.258-4.861,2.258a1.515,1.515,0,0,0-.874,1.37v.04a1.511,1.511,0,0,0,2.148,1.37l7.771-3.614a1.516,1.516,0,0,0,.873-1.369v-.108A1.517,1.517,0,0,0,237.412,167.655Z" transform="translate(-208.966 -159.6)" fill="#0f5f6b"/>
    </g>
  </g>
</svg>
