<svg id="Grupo_1204305" data-name="Grupo 1204305" xmlns="http://www.w3.org/2000/svg" width="52.393" height="45.851" viewBox="0 0 52.393 45.851">
  <g id="Grupo_1204304" data-name="Grupo 1204304" transform="translate(0 0)">
    <path id="Trazado_1261909" data-name="Trazado 1261909" d="M136.815,91.111a.622.622,0,0,0-.721-.5L133.861,91a8.377,8.377,0,0,0-1.017-1.758L134.3,87.5a.622.622,0,0,0-.077-.876l-1.953-1.639a.622.622,0,0,0-.877.077L129.939,86.8a8.338,8.338,0,0,0-1.908-.695V83.84a.622.622,0,0,0-.622-.622h-2.55a.622.622,0,0,0-.622.622v2.268a8.335,8.335,0,0,0-1.909.695l-1.458-1.737a.622.622,0,0,0-.876-.076l-1.953,1.639a.622.622,0,0,0-.077.876l1.459,1.738A8.383,8.383,0,0,0,118.406,91l-2.233-.394a.623.623,0,0,0-.721.5l-.443,2.511a.622.622,0,0,0,.5.72l2.235.394a8.36,8.36,0,0,0,.351,2l-1.964,1.134a.622.622,0,0,0-.228.85l1.275,2.208a.621.621,0,0,0,.85.228L120,100.021a8.473,8.473,0,0,0,1.554,1.306l-.776,2.132a.622.622,0,0,0,.372.8l2.4.872a.622.622,0,0,0,.8-.372l.776-2.132a8.418,8.418,0,0,0,2.03,0l.776,2.132a.622.622,0,0,0,.8.372l2.4-.872a.622.622,0,0,0,.372-.8l-.776-2.132a8.449,8.449,0,0,0,1.555-1.305l1.966,1.135a.622.622,0,0,0,.85-.228l1.275-2.208a.621.621,0,0,0-.227-.85l-1.964-1.134a8.386,8.386,0,0,0,.351-2l2.235-.394a.622.622,0,0,0,.5-.72Zm-10.681,6.5a3.421,3.421,0,1,1,3.421-3.421A3.421,3.421,0,0,1,126.134,97.613Z" transform="translate(-99.937 -75.589)" fill="#0f5f6b"/>
    <path id="Trazado_1261910" data-name="Trazado 1261910" d="M48.029,24.971H4.364A4.369,4.369,0,0,0,0,29.335V57.794a4.369,4.369,0,0,0,4.364,4.364H18.433l-2.67,5.888a1.965,1.965,0,0,0,1.789,2.776H34.844a1.965,1.965,0,0,0,1.744-2.871L33.96,62.158H48.029a4.369,4.369,0,0,0,4.364-4.364V29.335A4.368,4.368,0,0,0,48.029,24.971Zm.434,32.823a.435.435,0,0,1-.434.434H4.364a.435.435,0,0,1-.434-.434V29.335a.435.435,0,0,1,.434-.434H48.029a.435.435,0,0,1,.434.434V57.794Z" transform="translate(0 -24.971)" fill="#0f5f6b"/>
  </g>
</svg>
