<svg xmlns="http://www.w3.org/2000/svg" xmlns:xlink="http://www.w3.org/1999/xlink" width="183.515" height="134.889" viewBox="0 0 183.515 134.889">
  <defs>
    <clipPath id="clip-path">
      <rect id="Rectángulo_455313" data-name="Rectángulo 455313" width="92.951" height="92.951" fill="#69d2cd"/>
    </clipPath>
    <clipPath id="clip-path-2">
      <rect id="Rectángulo_455314" data-name="Rectángulo 455314" width="121.799" height="106.413" fill="none"/>
    </clipPath>
  </defs>
  <g id="Grupo_1205044" data-name="Grupo 1205044" transform="translate(-995.877 -5222.168)">
    <g id="Grupo_1204368" data-name="Grupo 1204368" transform="translate(1086.441 5222.168)">
      <g id="Grupo_1204367" data-name="Grupo 1204367" transform="translate(0 0)" clip-path="url(#clip-path)">
        <path id="Trazado_1262154" data-name="Trazado 1262154" d="M91.42,33.543,83.032,17.306l-8.981,4.64a36.675,36.675,0,0,0-8-6.788L69.111,5.55,51.7,0,48.651,9.559a36.693,36.693,0,0,0-10.518.859L33.543,1.531,17.305,9.919,21.9,18.806a36.651,36.651,0,0,0-6.788,8.08L5.55,23.84,0,41.252l9.608,3.062a36.642,36.642,0,0,0,.9,10.453L1.53,59.408,9.919,75.645l9.044-4.672a36.681,36.681,0,0,0,7.983,6.679L23.839,87.4l17.413,5.55,3.123-9.8a36.672,36.672,0,0,0,10.313-.871l4.72,9.137,16.238-8.388-4.72-9.137A36.662,36.662,0,0,0,77.6,65.988l9.8,3.123L92.951,51.7,83.2,48.591a36.67,36.67,0,0,0-.827-10.376Zm-38.506,25.4A14.169,14.169,0,1,1,59,39.847a14.185,14.185,0,0,1-6.085,19.092" transform="translate(0 0)" fill="#69d2cd"/>
      </g>
    </g>
    <g id="Grupo_1204370" data-name="Grupo 1204370" transform="translate(995.877 5250.644)">
      <g id="Grupo_1204369" data-name="Grupo 1204369" transform="translate(0 0)" clip-path="url(#clip-path-2)">
        <path id="Trazado_1262155" data-name="Trazado 1262155" d="M1267.386,520.453h52.468a4.593,4.593,0,0,0,4.586-4.587V473.036h-41.524a1.442,1.442,0,0,1-.929-.339l-4.1-3.467H1262.82v46.636a4.582,4.582,0,0,0,4.566,4.587m46.061-12.357H1284.78a1.439,1.439,0,0,1,0-2.877h28.667a1.439,1.439,0,0,1,0,2.877m-7.849-22.463h7.849a1.439,1.439,0,0,1,0,2.877H1305.6a1.439,1.439,0,1,1,0-2.877m-33.209,0h24.783a1.439,1.439,0,1,1,0,2.877h-24.783a1.439,1.439,0,0,1,0-2.877m0,9.793h41.058a1.439,1.439,0,0,1,0,2.877h-41.058a1.439,1.439,0,0,1,0-2.877m0,9.793h6.184a1.439,1.439,0,0,1,0,2.877h-6.184a1.439,1.439,0,0,1,0-2.877" transform="translate(-1221.241 -453.78)" fill="#a6f6af"/>
        <path id="Trazado_1262156" data-name="Trazado 1262156" d="M266.317,724.545h95.176a4.454,4.454,0,0,0,4.45-4.449V666.2a4.455,4.455,0,0,0-4.45-4.451h-2.172v40.3a7.473,7.473,0,0,1-7.464,7.465H299.389a7.463,7.463,0,0,1-7.443-7.465v-40.3H266.317a4.456,4.456,0,0,0-4.451,4.451v53.9a4.454,4.454,0,0,0,4.451,4.449m2.147-46.86h16.151l-1.641-1.63A1.438,1.438,0,1,1,285,674.013l4.118,4.089,0,0a1.081,1.081,0,0,1,.366.735,1.366,1.366,0,0,1,.057.283s0,0,0,.007,0,.005,0,.008a1.416,1.416,0,0,1-.053.247,1.461,1.461,0,0,1-.066.306c-.019.044-.057.077-.08.118a1.439,1.439,0,0,1-.239.341s-.005.01-.01.014l-4.118,3.919A1.438,1.438,0,1,1,282.995,682l1.511-1.438H268.463a1.439,1.439,0,1,1,0-2.877m-1.439,15.051a1.419,1.419,0,0,1,.053-.247,1.465,1.465,0,0,1,.066-.306,1.379,1.379,0,0,1,.08-.118,1.435,1.435,0,0,1,.239-.342s.005-.01.01-.014l4.119-3.919a1.438,1.438,0,1,1,1.984,2.083l-1.511,1.438H288.1a1.439,1.439,0,1,1,0,2.877H271.954l1.642,1.63a1.438,1.438,0,1,1-2.027,2.042l-4.119-4.089,0,0a1.081,1.081,0,0,1-.366-.735,1.374,1.374,0,0,1-.057-.283s0,0,0-.007,0-.005,0-.008" transform="translate(-253.244 -639.958)" fill="#fff"/>
        <path id="Trazado_1262157" data-name="Trazado 1262157" d="M1279.343,97.417l4.1,3.467h41V91.948a4.581,4.581,0,0,0-4.587-4.565h-52.467a4.57,4.57,0,0,0-4.566,4.565v5.131h15.594a1.442,1.442,0,0,1,.929.339m35.39-4.67h2.123a1.439,1.439,0,0,1,0,2.877h-2.123a1.439,1.439,0,1,1,0-2.877m-8.121,0h2.122a1.439,1.439,0,0,1,0,2.877h-2.122a1.439,1.439,0,0,1,0-2.877m-8.121,0h2.123a1.439,1.439,0,0,1,0,2.877h-2.123a1.439,1.439,0,0,1,0-2.877" transform="translate(-1221.241 -84.506)" fill="#a5e1ea"/>
        <path id="Trazado_1262158" data-name="Trazado 1262158" d="M1592.949,2896.3h15.259a.851.851,0,0,0,.85-.851V2893.6H1592.1v1.841a.851.851,0,0,0,.849.851" transform="translate(-1539.68 -2798.331)" fill="#fff"/>
        <path id="Trazado_1262159" data-name="Trazado 1262159" d="M156.763,2895.446a3.732,3.732,0,0,1-3.728,3.728H137.777a3.732,3.732,0,0,1-3.727-3.728V2893.6H87.384v3.9a4.369,4.369,0,0,0,4.364,4.364H199.065a4.369,4.369,0,0,0,4.363-4.364v-3.9H156.763Z" transform="translate(-84.507 -2798.331)" fill="#a5e1ea"/>
        <path id="Trazado_1262160" data-name="Trazado 1262160" d="M181.811,87.463h95.176a7.334,7.334,0,0,0,7.327-7.326v-53.9a7.335,7.335,0,0,0-7.327-7.328h-2.172V7.441A7.461,7.461,0,0,0,267.35,0H214.883a7.451,7.451,0,0,0-7.443,7.442V18.91H181.811a7.336,7.336,0,0,0-7.328,7.328v53.9a7.335,7.335,0,0,0,7.328,7.326M210.317,7.441a4.57,4.57,0,0,1,4.566-4.565H267.35a4.581,4.581,0,0,1,4.587,4.565v8.937h-41l-4.1-3.467a1.442,1.442,0,0,0-.929-.339H210.317V7.441Zm0,8.008h15.068l4.1,3.467a1.442,1.442,0,0,0,.929.339h41.524V62.084a4.593,4.593,0,0,1-4.586,4.587H214.883a4.582,4.582,0,0,1-4.566-4.587ZM177.36,26.238a4.456,4.456,0,0,1,4.451-4.451H207.44v40.3a7.463,7.463,0,0,0,7.443,7.464h52.468a7.473,7.473,0,0,0,7.464-7.464v-40.3h2.172a4.455,4.455,0,0,1,4.45,4.451v53.9a4.454,4.454,0,0,1-4.45,4.449H181.811a4.454,4.454,0,0,1-4.451-4.449Z" transform="translate(-168.738 0.001)" fill="#1c526e"/>
        <path id="Trazado_1262161" data-name="Trazado 1262161" d="M120.36,2806.221H1.439A1.439,1.439,0,0,0,0,2807.66V2813a7.25,7.25,0,0,0,7.242,7.241H114.558A7.249,7.249,0,0,0,121.8,2813v-5.337a1.439,1.439,0,0,0-1.439-1.439m-67.94,2.877H69.379v1.841a.852.852,0,0,1-.85.851H53.27a.852.852,0,0,1-.849-.851Zm66.5,3.9a4.368,4.368,0,0,1-4.363,4.364H7.242A4.369,4.369,0,0,1,2.877,2813v-3.9H49.544v1.841a3.732,3.732,0,0,0,3.727,3.728H68.529a3.732,3.732,0,0,0,3.728-3.728V2809.1h46.665Z" transform="translate(0 -2713.824)" fill="#1c526e"/>
        <path id="Trazado_1262162" data-name="Trazado 1262162" d="M2797.249,253.193h2.124a1.439,1.439,0,0,0,0-2.877h-2.124a1.439,1.439,0,0,0,0,2.877" transform="translate(-2703.757 -242.074)" fill="#1c526e"/>
        <path id="Trazado_1262163" data-name="Trazado 1262163" d="M2550.6,253.193h2.123a1.439,1.439,0,0,0,0-2.877H2550.6a1.439,1.439,0,0,0,0,2.877" transform="translate(-2465.23 -242.074)" fill="#1c526e"/>
        <path id="Trazado_1262164" data-name="Trazado 1262164" d="M2303.956,253.193h2.123a1.439,1.439,0,0,0,0-2.877h-2.123a1.439,1.439,0,0,0,0,2.877" transform="translate(-2226.706 -242.074)" fill="#1c526e"/>
        <path id="Trazado_1262165" data-name="Trazado 1262165" d="M2519.8,970.3h7.85a1.439,1.439,0,0,0,0-2.877h-7.85a1.439,1.439,0,0,0,0,2.877" transform="translate(-2435.44 -935.565)" fill="#1c526e"/>
        <path id="Trazado_1262166" data-name="Trazado 1262166" d="M1511.19,970.3h24.783a1.439,1.439,0,1,0,0-2.877H1511.19a1.439,1.439,0,0,0,0,2.877" transform="translate(-1460.042 -935.565)" fill="#1c526e"/>
        <path id="Trazado_1262167" data-name="Trazado 1262167" d="M1511.19,1267.716h41.058a1.438,1.438,0,1,0,0-2.877H1511.19a1.438,1.438,0,1,0,0,2.877" transform="translate(-1460.042 -1223.193)" fill="#1c526e"/>
        <path id="Trazado_1262168" data-name="Trazado 1262168" d="M1916.215,1562.261h-28.667a1.438,1.438,0,0,0,0,2.877h28.667a1.438,1.438,0,0,0,0-2.877" transform="translate(-1824.009 -1510.823)" fill="#1c526e"/>
        <path id="Trazado_1262169" data-name="Trazado 1262169" d="M1511.19,1565.138h6.184a1.438,1.438,0,0,0,0-2.877h-6.184a1.438,1.438,0,0,0,0,2.877" transform="translate(-1460.042 -1510.823)" fill="#1c526e"/>
        <path id="Trazado_1262170" data-name="Trazado 1262170" d="M419.98,1028.6h16.043l-1.511,1.439a1.438,1.438,0,1,0,1.984,2.083l4.118-3.919s.005-.01.01-.014a1.441,1.441,0,0,0,.239-.342c.023-.042.061-.074.08-.118a1.473,1.473,0,0,0,.066-.306,1.427,1.427,0,0,0,.053-.247s0-.005,0-.008,0,0,0-.007a1.37,1.37,0,0,0-.057-.283,1.081,1.081,0,0,0-.366-.735v0l-4.118-4.089a1.439,1.439,0,0,0-2.027,2.042l1.641,1.63H419.98a1.438,1.438,0,1,0,0,2.877" transform="translate(-404.76 -987.997)" fill="#1c526e"/>
        <path id="Trazado_1262171" data-name="Trazado 1262171" d="M418.6,1446.28a1.082,1.082,0,0,0,.366.735l0,0,4.119,4.089a1.438,1.438,0,0,0,2.027-2.042l-1.642-1.63H439.62a1.439,1.439,0,1,0,0-2.877H423.578l1.512-1.438a1.438,1.438,0,0,0-1.984-2.083l-4.119,3.918s-.005.01-.01.014a1.436,1.436,0,0,0-.239.341c-.023.042-.061.075-.08.118a1.467,1.467,0,0,0-.066.306,1.424,1.424,0,0,0-.053.246s0,.005,0,.008,0,0,0,.007a1.369,1.369,0,0,0,.057.283" transform="translate(-404.759 -1393.205)" fill="#1c526e"/>
      </g>
    </g>
  </g>
</svg>
