<svg xmlns="http://www.w3.org/2000/svg" xmlns:xlink="http://www.w3.org/1999/xlink" width="170.142" height="117.727" viewBox="0 0 170.142 117.727">
  <defs>
    <clipPath id="clip-path">
      <rect id="Rectángulo_455325" data-name="Rectángulo 455325" width="123.666" height="117.727" fill="none"/>
    </clipPath>
    <clipPath id="clip-path-2">
      <rect id="Rectángulo_455313" data-name="Rectángulo 455313" width="46.476" height="46.476" fill="#69d2cd"/>
    </clipPath>
  </defs>
  <g id="Grupo_1205043" data-name="Grupo 1205043" transform="translate(-458.334 -5221.75)">
    <rect id="Rectángulo_455322" data-name="Rectángulo 455322" width="11.054" height="11.054" transform="translate(512.598 5293.415)" fill="#e3e8c0"/>
    <g id="Grupo_1204411" data-name="Grupo 1204411" transform="translate(458.334 5221.75)">
      <g id="Grupo_1204410" data-name="Grupo 1204410" transform="translate(0 0)" clip-path="url(#clip-path)">
        <path id="Trazado_1262328" data-name="Trazado 1262328" d="M1327.275,1796.423h-6.683v48.53a6.227,6.227,0,0,0,6.221,6.221h64.163a6.221,6.221,0,0,0,6.208-6.221v-48.53h-69.908Zm7.693,44.153h-5.721a1.461,1.461,0,0,1,0-2.921h5.721a1.461,1.461,0,1,1,0,2.921m-7.181-10.742a1.461,1.461,0,0,1,1.461-1.461h45.011a1.461,1.461,0,1,1,0,2.921h-45.011a1.461,1.461,0,0,1-1.461-1.461m60.747,10.742h-46.371a1.461,1.461,0,0,1,0-2.921h46.371a1.461,1.461,0,1,1,0,2.921m0-9.281h-7.1a1.461,1.461,0,1,1,0-2.921h7.1a1.461,1.461,0,1,1,0,2.921m-15.441-24.722a1.461,1.461,0,0,1,1.461-1.461h13.975a1.461,1.461,0,0,1,1.461,1.461v13.975a1.461,1.461,0,0,1-1.461,1.461h-13.975a1.461,1.461,0,0,1-1.461-1.461Zm-22.653,0a1.461,1.461,0,0,1,1.461-1.461h13.975a1.461,1.461,0,0,1,1.461,1.461v13.975a1.461,1.461,0,0,1-1.461,1.461H1351.9a1.461,1.461,0,0,1-1.461-1.461Zm-21.192-1.461h13.975a1.461,1.461,0,0,1,1.461,1.461v13.975a1.461,1.461,0,0,1-1.461,1.461h-13.975a1.461,1.461,0,0,1-1.461-1.461v-13.975a1.461,1.461,0,0,1,1.461-1.461" transform="translate(-1276.444 -1736.368)" fill="#fff"/>
        <path id="Trazado_1262329" data-name="Trazado 1262329" d="M446.73,988.631v-5.4H390.38v11.752h28.657a9.123,9.123,0,0,1,8.661-6.354Z" transform="translate(-377.329 -950.364)" fill="#e3e8c0"/>
        <rect id="Rectángulo_455323" data-name="Rectángulo 455323" width="11.054" height="11.054" transform="translate(99.57 71.666)" fill="#e3e8c0"/>
        <rect id="Rectángulo_455324" data-name="Rectángulo 455324" width="11.054" height="11.054" transform="translate(76.917 71.666)" fill="#e3e8c0"/>
        <path id="Trazado_1262330" data-name="Trazado 1262330" d="M94.592,533.994V519.321a1.461,1.461,0,0,1,1.461-1.461h59.271a1.461,1.461,0,0,1,1.461,1.461v6.858h7.206V509.7H118.306a1.458,1.458,0,0,1-1.194-.62l-3.024-4.291H99.817L96.1,509.18a1.46,1.46,0,0,1-1.115.517h-7.6v48.537a6.225,6.225,0,0,0,6.219,6.217h32.086v-29H96.053a1.461,1.461,0,0,1-1.461-1.461m7.176,19.857H96.047a1.461,1.461,0,1,1,0-2.921h5.721a1.461,1.461,0,1,1,0,2.921m15.839,0h-8.644a1.461,1.461,0,1,1,0-2.921h8.644a1.461,1.461,0,0,1,0,2.921m3.18-10.742a1.461,1.461,0,0,1-1.461,1.461H96.047a1.461,1.461,0,1,1,0-2.921h23.279a1.461,1.461,0,0,1,1.461,1.461" transform="translate(-84.463 -487.912)" fill="#fff"/>
        <path id="Trazado_1262331" data-name="Trazado 1262331" d="M1390.974,1232.072H1357.45c-.007,0-.012,0-.019,0s-.012,0-.019,0h-10.09c-.007,0-.012,0-.019,0s-.012,0-.019,0h-20.474a6.227,6.227,0,0,0-6.221,6.221v9.724h76.591v-9.724a6.221,6.221,0,0,0-6.208-6.221M1372,1241.435h-1.75a1.461,1.461,0,0,1,0-2.921H1372a1.461,1.461,0,0,1,0,2.921m7.992,0h-1.75a1.461,1.461,0,1,1,0-2.921h1.75a1.461,1.461,0,0,1,0,2.921m7.992,0h-1.75a1.461,1.461,0,1,1,0-2.921h1.75a1.461,1.461,0,0,1,0,2.921" transform="translate(-1276.442 -1190.884)" fill="#a6f6af"/>
        <path id="Trazado_1262332" data-name="Trazado 1262332" d="M98.024,98.936c.013-.016.033-.022.046-.037a1.729,1.729,0,0,1,1.011-.469c.02,0,.037-.012.057-.012h15.705a1.458,1.458,0,0,1,1.194.62l3.024,4.291H163.99V93.605a6.225,6.225,0,0,0-6.217-6.219H93.6a6.226,6.226,0,0,0-6.219,6.219v9.724H94.31Zm55.005-5.11h1.75a1.461,1.461,0,1,1,0,2.921h-1.75a1.461,1.461,0,1,1,0-2.921m-7.992,0h1.75a1.461,1.461,0,1,1,0,2.921h-1.75a1.461,1.461,0,1,1,0-2.921m-7.99,0h1.75a1.461,1.461,0,1,1,0,2.921h-1.75a1.461,1.461,0,1,1,0-2.921" transform="translate(-84.462 -84.465)" fill="#a6f6af"/>
        <path id="Trazado_1262333" data-name="Trazado 1262333" d="M1530.782,282.935h1.75a1.461,1.461,0,0,0,0-2.921h-1.75a1.461,1.461,0,1,0,0,2.921" transform="translate(-1478.195 -270.653)" fill="#1c526e"/>
        <path id="Trazado_1262334" data-name="Trazado 1262334" d="M1769.778,282.935h1.75a1.461,1.461,0,1,0,0-2.921h-1.75a1.461,1.461,0,1,0,0,2.921" transform="translate(-1709.202 -270.653)" fill="#1c526e"/>
        <path id="Trazado_1262335" data-name="Trazado 1262335" d="M2008.83,282.935h1.75a1.461,1.461,0,1,0,0-2.921h-1.75a1.461,1.461,0,1,0,0,2.921" transform="translate(-1940.262 -270.653)" fill="#1c526e"/>
        <path id="Trazado_1262336" data-name="Trazado 1262336" d="M302.826,1608.895a1.461,1.461,0,0,0,1.461,1.461h23.279a1.461,1.461,0,1,0,0-2.921H304.287a1.461,1.461,0,0,0-1.461,1.461" transform="translate(-292.702 -1553.697)" fill="#1c526e"/>
        <path id="Trazado_1262337" data-name="Trazado 1262337" d="M699.272,1885.058h-8.644a1.461,1.461,0,1,0,0,2.921h8.644a1.461,1.461,0,1,0,0-2.921" transform="translate(-666.128 -1822.04)" fill="#1c526e"/>
        <path id="Trazado_1262338" data-name="Trazado 1262338" d="M310.007,1885.058h-5.721a1.461,1.461,0,1,0,0,2.921h5.721a1.461,1.461,0,1,0,0-2.921" transform="translate(-292.702 -1822.04)" fill="#1c526e"/>
        <path id="Trazado_1262339" data-name="Trazado 1262339" d="M123.66,47.411a9.145,9.145,0,0,0-9.129-9.142H82.449V9.142A9.15,9.15,0,0,0,73.311,0H9.14A9.151,9.151,0,0,0,0,9.142V70.325a9.15,9.15,0,0,0,9.14,9.138H41.226v29.123a9.152,9.152,0,0,0,9.142,9.142h64.163a9.145,9.145,0,0,0,9.129-9.142V58.624c0-.01.006-.018.006-.028s-.005-.018-.006-.028ZM2.921,9.142A6.226,6.226,0,0,1,9.14,2.923h64.17a6.225,6.225,0,0,1,6.217,6.219v9.724H34.6l-3.024-4.291a1.458,1.458,0,0,0-1.194-.62H14.677c-.02,0-.037.011-.057.012a1.444,1.444,0,0,0-.315.064,1.447,1.447,0,0,0-.235.066,3.633,3.633,0,0,0-.461.339c-.014.015-.033.021-.046.037L9.848,18.866H2.921Zm38.305,67.4H9.14a6.225,6.225,0,0,1-6.219-6.217V21.788h7.6a1.46,1.46,0,0,0,1.114-.517l3.714-4.393H29.625l3.024,4.291a1.457,1.457,0,0,0,1.194.62H79.528V38.269H72.322V31.411a1.461,1.461,0,0,0-1.461-1.461H11.59a1.461,1.461,0,0,0-1.461,1.461V46.084a1.461,1.461,0,0,0,1.461,1.461H41.226v29Zm.481-31.919H13.05V32.872H69.4v5.4H50.369a9.123,9.123,0,0,0-8.661,6.354m79.032,63.963a6.221,6.221,0,0,1-6.208,6.221H50.369a6.227,6.227,0,0,1-6.221-6.221V60.057h76.591v48.53Zm0-51.451H44.148V47.411a6.227,6.227,0,0,1,6.221-6.221H70.842c.007,0,.012,0,.019,0s.012,0,.019,0H80.97c.007,0,.012,0,.019,0s.012,0,.019,0h33.524a6.221,6.221,0,0,1,6.208,6.221v9.724Z" transform="translate(0 -0.002)" fill="#1c526e"/>
        <path id="Trazado_1262340" data-name="Trazado 1262340" d="M2765.458,1424.758h-1.75a1.461,1.461,0,1,0,0,2.921h1.75a1.461,1.461,0,0,0,0-2.921" transform="translate(-2669.905 -1377.128)" fill="#1c526e"/>
        <path id="Trazado_1262341" data-name="Trazado 1262341" d="M3004.509,1424.758h-1.75a1.461,1.461,0,1,0,0,2.921h1.75a1.461,1.461,0,1,0,0-2.921" transform="translate(-2900.964 -1377.128)" fill="#1c526e"/>
        <path id="Trazado_1262342" data-name="Trazado 1262342" d="M3243.563,1424.758h-1.75a1.461,1.461,0,1,0,0,2.921h1.75a1.461,1.461,0,1,0,0-2.921" transform="translate(-3132.026 -1377.128)" fill="#1c526e"/>
        <path id="Trazado_1262343" data-name="Trazado 1262343" d="M3105.489,2752.178h-7.1a1.461,1.461,0,0,0,0,2.921h7.1a1.461,1.461,0,0,0,0-2.921" transform="translate(-2993.4 -2660.172)" fill="#1c526e"/>
        <path id="Trazado_1262344" data-name="Trazado 1262344" d="M1537.268,2755.1h45.011a1.461,1.461,0,1,0,0-2.921h-45.011a1.461,1.461,0,1,0,0,2.921" transform="translate(-1484.465 -2660.172)" fill="#1c526e"/>
        <path id="Trazado_1262345" data-name="Trazado 1262345" d="M1969.98,3029.8h-46.371a1.461,1.461,0,1,0,0,2.921h46.371a1.461,1.461,0,1,0,0-2.921" transform="translate(-1857.89 -2928.515)" fill="#1c526e"/>
        <path id="Trazado_1262346" data-name="Trazado 1262346" d="M1542.988,3029.8h-5.721a1.461,1.461,0,1,0,0,2.921h5.721a1.461,1.461,0,1,0,0-2.921" transform="translate(-1484.465 -2928.515)" fill="#1c526e"/>
        <path id="Trazado_1262347" data-name="Trazado 1262347" d="M1535.807,2071.791a1.461,1.461,0,0,0,1.461,1.46h13.975a1.461,1.461,0,0,0,1.461-1.46v-13.975a1.461,1.461,0,0,0-1.461-1.461h-13.975a1.461,1.461,0,0,0-1.461,1.461Zm2.921-12.514h11.054v11.054h-11.054Z" transform="translate(-1484.465 -1987.611)" fill="#1c526e"/>
        <path id="Trazado_1262348" data-name="Trazado 1262348" d="M2214.887,2073.251h13.975a1.461,1.461,0,0,0,1.461-1.46v-13.975a1.461,1.461,0,0,0-1.461-1.461h-13.975a1.461,1.461,0,0,0-1.461,1.461v13.975a1.461,1.461,0,0,0,1.461,1.46m1.46-13.975H2227.4v11.054h-11.054Z" transform="translate(-2139.431 -1987.611)" fill="#1c526e"/>
        <path id="Trazado_1262349" data-name="Trazado 1262349" d="M2892.506,2073.251h13.975a1.461,1.461,0,0,0,1.46-1.46v-13.975a1.461,1.461,0,0,0-1.46-1.461h-13.975a1.461,1.461,0,0,0-1.461,1.461v13.975a1.461,1.461,0,0,0,1.461,1.46m1.461-13.975h11.053v11.054h-11.053Z" transform="translate(-2794.396 -1987.611)" fill="#1c526e"/>
        <path id="Trazado_1262350" data-name="Trazado 1262350" d="M256.108,2594.344l-5.978-5.48a1.461,1.461,0,1,0-1.974,2.153l3.2,2.936h-21.6a1.461,1.461,0,0,0,0,2.921h21.518l-3.1,2.731a1.461,1.461,0,1,0,1.932,2.191l5.987-5.272c.021-.019.029-.046.049-.066a1.48,1.48,0,0,0,.1-.137,1.446,1.446,0,0,0,.22-.327,1.488,1.488,0,0,0,.058-.261,1.412,1.412,0,0,0,.064-.288c0-.005,0-.01,0-.015s0-.01,0-.015a1.444,1.444,0,0,0-.483-1.07" transform="translate(-220.667 -2501.947)" fill="#1c526e"/>
        <path id="Trazado_1262351" data-name="Trazado 1262351" d="M255.133,3117.594H233.613l3.1-2.733a1.461,1.461,0,0,0-1.932-2.191l-5.987,5.272c-.022.02-.031.049-.052.07a1.4,1.4,0,0,0-.085.115,1.436,1.436,0,0,0-.235.348,1.49,1.49,0,0,0-.054.241,1.41,1.41,0,0,0-.068.306c0,.006,0,.01,0,.016s0,.01,0,.016a1.443,1.443,0,0,0,.491,1.075l5.97,5.473a1.46,1.46,0,1,0,1.974-2.153l-3.2-2.935h21.6a1.46,1.46,0,1,0,0-2.921" transform="translate(-220.67 -3008.26)" fill="#1c526e"/>
        <path id="Trazado_1262352" data-name="Trazado 1262352" d="M2632.917,858.762a1.461,1.461,0,0,0,1.461-1.461v-3.908a1.461,1.461,0,0,0-2.921,0V857.3a1.461,1.461,0,0,0,1.461,1.461" transform="translate(-2543.486 -823.452)" fill="#1c526e"/>
        <path id="Trazado_1262353" data-name="Trazado 1262353" d="M2632.917,268.051a1.461,1.461,0,0,0,1.461-1.461V252.007a1.461,1.461,0,0,0-2.921,0V266.59a1.461,1.461,0,0,0,1.461,1.461" transform="translate(-2543.486 -242.17)" fill="#1c526e"/>
      </g>
    </g>
    <g id="Grupo_1204733" data-name="Grupo 1204733" transform="translate(582 5221.75)">
      <g id="Grupo_1204367" data-name="Grupo 1204367" transform="translate(0 0)" clip-path="url(#clip-path-2)">
        <path id="Trazado_1262154" data-name="Trazado 1262154" d="M45.71,16.771,41.516,8.653l-4.491,2.32a18.337,18.337,0,0,0-4-3.394l1.531-4.8L25.849,0,24.326,4.779a18.347,18.347,0,0,0-5.259.429L16.771.766,8.653,4.959l2.3,4.444a18.326,18.326,0,0,0-3.394,4.04L2.775,11.92,0,20.626l4.8,1.531a18.321,18.321,0,0,0,.452,5.227L.765,29.7l4.194,8.118,4.522-2.336a18.34,18.34,0,0,0,3.992,3.339L11.92,43.7l8.707,2.775,1.561-4.9a18.336,18.336,0,0,0,5.157-.435L29.7,45.71l8.119-4.194-2.36-4.569A18.331,18.331,0,0,0,38.8,32.994l4.9,1.561,2.775-8.706L41.6,24.3a18.335,18.335,0,0,0-.413-5.188ZM26.457,29.47A7.085,7.085,0,1,1,29.5,19.924a7.093,7.093,0,0,1-3.043,9.546" transform="translate(0 0)" fill="#69d2cd"/>
      </g>
    </g>
  </g>
</svg>
