<svg id="Grupo_1205015" data-name="Grupo 1205015" xmlns="http://www.w3.org/2000/svg" xmlns:xlink="http://www.w3.org/1999/xlink" width="127.3" height="131.372" viewBox="0 0 127.3 131.372">
  <defs>
    <clipPath id="clip-path">
      <rect id="Rectángulo_456292" data-name="Rectángulo 456292" width="127.3" height="131.371" fill="none"/>
    </clipPath>
  </defs>
  <g id="Grupo_1205014" data-name="Grupo 1205014" clip-path="url(#clip-path)">
    <path id="Trazado_1263764" data-name="Trazado 1263764" d="M123.921,48.144v-.006l.037.063.16.276.089.156Zm0-.663v-.657a.559.559,0,0,1,.694.235l0,0,.166.28.165.281.163.282.089.156-.586-1Zm.373,53.235a.573.573,0,1,0,1,.56l.139-.247.159-.285.156-.286.106-.2a.574.574,0,0,0-1.012-.541l-.1.189-.153.28-.155.279Zm2.962-6.126a.574.574,0,0,0,.968.587.59.59,0,0,0,.1-.159l.075-.186.122-.305.119-.307.107-.279a.574.574,0,1,0-1.072-.408l-.1.272-.117.3-.119.3Zm2.144-6.456a.574.574,0,0,0,1.065.408.634.634,0,0,0,.046-.122l.05-.191.083-.324.08-.324.068-.284a.573.573,0,1,0-1.116-.265l-.067.277-.079.317-.08.317Zm1.29-6.678a.574.574,0,1,0,1.139.137l.039-.312.04-.338.038-.339.017-.161a.574.574,0,0,0-1.085-.312.586.586,0,0,0-.056.2l-.016.154-.037.332-.039.331Zm.421-6.792a.573.573,0,1,0,1.147-.007V74.4l0-.348-.006-.348,0-.208a.574.574,0,0,0-1.147.029l0,.2.006.341,0,.341Zm-.445-6.791a.574.574,0,0,0,1.133.027.591.591,0,0,0,0-.179l-.023-.175-.046-.337-.048-.335-.045-.3a.574.574,0,0,0-1.134.173l.044.292.047.328.045.329ZM129.355,61.2a.574.574,0,1,0,1.108-.3l-.073-.27-.088-.321-.09-.32-.059-.2a.573.573,0,1,0-1.1.32l.056.2.088.313.086.315Zm-2.166-6.449a.574.574,0,1,0,1.059-.44l-.1-.247-.127-.3-.129-.3-.093-.214a.574.574,0,0,0-1.1.265.586.586,0,0,0,.047.195l.09.207.126.3.124.3Zm-2.982-6.116a.574.574,0,0,0,1.06-.4.583.583,0,0,0-.066-.174ZM78.326,20.819a.574.574,0,1,0,0,1.147h.342l.341,0,.341.006.113,0a.574.574,0,1,0,.022-1.147l-.113,0-.348-.006-.348,0Zm45.595,26.005v.657l-.286.173h0a.586.586,0,0,1-.068-.168.561.561,0,0,1,.355-.662m0,1.314-.124-.211-.162-.272.286.489ZM74.567,22.1a.574.574,0,0,0,.165-1.106.567.567,0,0,0-.252-.037l-.3.022L73.835,21l-.342.029-.167.016a.574.574,0,0,0-.008,1.141.613.613,0,0,0,.116,0l.16-.015.335-.029.335-.027Zm-6.744.913a.574.574,0,0,0-.027-1.129.581.581,0,0,0-.2,0l-.136.027-.329.068-.328.07-.327.072-.016,0a.573.573,0,1,0,.258,1.118l.009,0,.321-.071.321-.069.322-.067Zm-6.566,1.776a.573.573,0,0,0-.375-1.084l-.166.057-.312.109-.311.11-.3.109a.574.574,0,0,0,.149,1.11.564.564,0,0,0,.246-.033l.3-.107.3-.108.305-.106ZM54.974,27.4a.573.573,0,1,0-.51-1.027l-.107.053-.292.146-.291.148-.29.149-.054.028a.574.574,0,0,0,.535,1.015l.048-.025.284-.147.285-.145.286-.143Zm-5.893,3.4a.574.574,0,0,0-.473-1.029.585.585,0,0,0-.163.075l0,0-.27.181-.269.182-.267.184-.15.105a.573.573,0,1,0,.659.939l.145-.1.262-.18.262-.179.264-.177Zm-5.405,4.13a.573.573,0,1,0-.756-.863l-.132.115-.243.214-.242.216-.24.217-.011.01a.574.574,0,0,0,.559.97.567.567,0,0,0,.218-.126l.006-.006.235-.212.236-.211.237-.209Zm-4.836,4.79a.573.573,0,1,0-.858-.761l-.01.01-.214.243-.212.244-.211.245-.114.134a.573.573,0,1,0,.876.74l.109-.128.207-.24.208-.239.209-.238Zm-4.18,5.366a.574.574,0,1,0-.951-.642l-.1.153-.181.27-.179.271-.177.27a.574.574,0,1,0,.962.625l.173-.265.176-.265.177-.264ZM31.2,50.947a.574.574,0,1,0-1.024-.517l-.03.06L30,50.782l-.145.293-.143.294-.049.1a.573.573,0,1,0,1.036.491l.046-.1.14-.288.141-.287.143-.286ZM28.528,57.2a.574.574,0,0,0-.984-.555.561.561,0,0,0-.1.174l0,.007-.109.312-.107.313-.105.314-.051.154a.574.574,0,1,0,1.091.354l.048-.147.1-.307.1-.306.106-.305Zm-1.839,6.549a.574.574,0,0,0-1.122-.237l-.008.038-.068.329-.066.329-.064.33-.021.112a.583.583,0,0,0,0,.207.574.574,0,0,0,1.128,0l.02-.105.063-.323.065-.322.067-.322Zm-.977,6.731a.573.573,0,1,0-1.144-.087l-.016.205-.025.343-.023.343-.016.264a.574.574,0,1,0,1.145.066l.016-.257.022-.336.024-.335Zm-.11,6.8a.574.574,0,0,0-1.14-.058.647.647,0,0,0-.006.116l.009.179.019.344.02.344.02.288a.574.574,0,0,0,1.118.136.584.584,0,0,0,.026-.216l-.019-.281-.02-.336-.018-.337Zm.756,6.763a.574.574,0,1,0-1.129.2l.008.044.06.332.063.331.064.33.021.1a.574.574,0,0,0,1.124-.23l-.02-.1-.063-.323-.061-.324-.059-.325Zm1.622,6.607a.574.574,0,1,0-1.093.347l.031.1.1.315.1.315.105.314.02.06a.574.574,0,0,0,1.111-.262.541.541,0,0,0-.027-.113l-.018-.053-.1-.307-.1-.308-.1-.309ZM30.445,97a.574.574,0,0,0-1.04.485l.027.057.139.3.141.3.143.294.052.1a.568.568,0,0,0,.255.256.574.574,0,0,0,.773-.767l-.048-.1-.14-.288-.138-.289-.136-.29Zm3.262,5.968a.574.574,0,0,0-1.036.461.583.583,0,0,0,.07.157l.149.234.176.273.178.272.127.192a.574.574,0,0,0,1.029-.473.568.568,0,0,0-.075-.163l-.123-.186-.174-.266-.173-.267Zm4.005,5.5a.573.573,0,1,0-.88.735l.084.1.209.248.21.246.211.245.038.043a.573.573,0,1,0,.863-.756l-.033-.038-.207-.24L38,108.814l-.2-.242Zm4.674,4.942a.574.574,0,1,0-.776.844l.215.2.239.218.24.217.163.145a.574.574,0,0,0,.84-.773.632.632,0,0,0-.079-.085l-.157-.14-.235-.212-.234-.214Zm5.271,4.306a.574.574,0,0,0-.752.859.693.693,0,0,0,.087.076l.113.081.265.187.266.186.267.184.04.027a.574.574,0,1,0,.642-.951l-.035-.024-.262-.18-.26-.182-.259-.183Zm5.779,3.594a.573.573,0,1,0-.541,1.011l.011.006.288.153.289.152.29.149.151.076a.574.574,0,0,0,.667-.914.566.566,0,0,0-.151-.109l-.145-.073-.284-.147-.283-.148-.282-.15Zm6.19,2.817a.574.574,0,0,0-.4,1.075l.249.093.309.114.31.113.219.078a.574.574,0,1,0,.381-1.082l-.212-.076-.3-.11-.3-.112Zm6.5,1.992a.574.574,0,0,0-.5,1,.567.567,0,0,0,.243.122l.275.064.327.074.327.072.2.043a.574.574,0,0,0,.237-1.122l-.194-.042-.321-.071-.319-.073Zm6.71,1.135a.574.574,0,1,0-.116,1.141l.088.009.34.033.341.031.342.029.046,0a.574.574,0,1,0,.087-1.144l-.039,0-.335-.028-.334-.031-.333-.033Zm6.8.265a.574.574,0,0,0,.029,1.147h.048l.347-.01.346-.012.345-.014.075,0a.574.574,0,0,0,.058-1.14.647.647,0,0,0-.116-.006l-.067,0-.338.014-.339.012-.339.01Zm6.775-.6a.574.574,0,0,0-.023,1.129.584.584,0,0,0,.2,0l.277-.043.334-.054.333-.056.2-.035a.574.574,0,1,0-.2-1.129l-.192.033-.326.055-.326.053Zm6.645-1.468a.573.573,0,0,0,.32,1.1l.028-.008.319-.094.318-.1.317-.1.13-.041a.574.574,0,1,0-.348-1.093l-.123.039-.31.1-.311.093-.312.092Zm6.4-2.316a.574.574,0,0,0,.46,1.051l0,0,.3-.132.3-.134.3-.136.157-.073a.574.574,0,0,0-.289-1.091.565.565,0,0,0-.2.052l-.151.07-.292.133-.293.131-.293.129Zm6.041-3.123a.573.573,0,1,0,.6.98l.2-.119.278-.17.276-.171.235-.148a.573.573,0,1,0-.613-.969l-.229.144-.27.168-.272.166Zm5.593-3.877a.574.574,0,1,0,.714.9l.07-.055.253-.2.252-.2.25-.206.077-.064a.574.574,0,1,0-.735-.881l-.072.06-.245.2-.246.2-.247.2Zm5.049-4.559a.574.574,0,1,0,.826.8l.174-.179.224-.234.222-.235.178-.19a.574.574,0,0,0-.546-.95.567.567,0,0,0-.293.169l-.173.185-.218.23-.219.229Zm4.426-5.17a.574.574,0,0,0,.919.687l.056-.075.193-.26.192-.261.19-.263.055-.077a.574.574,0,0,0-.859-.752.663.663,0,0,0-.076.087l-.051.071-.186.257-.188.256-.189.255Zm-.108-63.456a.574.574,0,0,0,.915-.692l-.027-.036-.2-.258-.2-.256-.2-.255-.09-.113a.574.574,0,1,0-.9.714l.085.108.2.25.194.251.192.252ZM116.019,37.8a.574.574,0,0,0,.816-.806l-.146-.148-.228-.229-.229-.228-.216-.212a.574.574,0,0,0-.912.671.581.581,0,0,0,.11.15l.211.207.225.223.223.225Zm-5.066-4.545a.574.574,0,1,0,.709-.9l-.039-.03-.255-.2-.256-.2-.258-.2-.111-.084a.574.574,0,0,0-.812.79.593.593,0,0,0,.125.128l.106.08.252.192.251.194.25.2Zm-5.6-3.856a.574.574,0,0,0,.722-.873.58.58,0,0,0-.138-.114l-.2-.119-.281-.165-.282-.163-.238-.136a.574.574,0,1,0-.566,1l.232.133.276.16.275.161Zm-6.055-3.1a.574.574,0,0,0,.616-.949.568.568,0,0,0-.162-.105l-.127-.055-.3-.129-.3-.127-.3-.125-.034-.014a.574.574,0,1,0-.427,1.065l.028.011.3.123.3.124.3.126ZM92.89,24a.574.574,0,0,0,.421-1.061A.584.584,0,0,0,93.2,22.9l-.113-.033-.32-.09-.321-.088-.322-.086-.043-.011a.574.574,0,0,0-.408,1.065.633.633,0,0,0,.122.046l.036.009.315.084.314.086.314.088Zm-6.647-1.445a.573.573,0,1,0,.166-1.135l-.206-.031-.336-.048-.336-.046-.269-.035a.574.574,0,1,0-.145,1.138l.262.034.329.045.328.047Z" transform="translate(-13.829 -11.773)" fill="#ffdddb"/>
    <path id="Trazado_1263765" data-name="Trazado 1263765" d="M241.831,185.927a7.039,7.039,0,1,1,0,14.077v1.178a8.217,8.217,0,0,0,0-16.434Zm0,14.077a7.039,7.039,0,0,1,0-14.077v-1.178a8.217,8.217,0,0,0,0,16.434Z" transform="translate(-132.106 -104.474)" fill="#ffae00" fill-rule="evenodd"/>
    <path id="Trazado_1263766" data-name="Trazado 1263766" d="M244.083,195.222a4.2,4.2,0,1,1,0,5.941,4.2,4.2,0,0,1,0-5.941" transform="translate(-137.33 -109.7)" fill="#ffae00" fill-rule="evenodd"/>
    <path id="Trazado_1263767" data-name="Trazado 1263767" d="M105.163,94.425h26.894a9.5,9.5,0,0,1,9.47,9.47v71.4a9.5,9.5,0,0,1-9.47,9.47H105.163a9.5,9.5,0,0,1-9.47-9.47v-71.4a9.5,9.5,0,0,1,9.47-9.47" transform="translate(-54.113 -53.396)" fill="#004e78" fill-rule="evenodd"/>
    <path id="Trazado_1263768" data-name="Trazado 1263768" d="M105.1,111.86H142.61a.133.133,0,0,1,.133.133v74.168a.133.133,0,0,1-.133.133H105.1a.133.133,0,0,1-.133-.133V111.993a.133.133,0,0,1,.133-.133" transform="translate(-59.36 -63.256)" fill="#427bad" fill-rule="evenodd"/>
    <path id="Trazado_1263769" data-name="Trazado 1263769" d="M131.554,99.568h13.9a.687.687,0,0,1,.685.685h0a.687.687,0,0,1-.685.685h-13.9a.687.687,0,0,1-.685-.685h0a.686.686,0,0,1,.685-.685" transform="translate(-74.005 -56.305)" fill="#5085a1" fill-rule="evenodd"/>
    <path id="Trazado_1263770" data-name="Trazado 1263770" d="M145.423,291.759a2.316,2.316,0,1,0-2.316-2.316,2.32,2.32,0,0,0,2.316,2.316" transform="translate(-80.925 -162.368)" fill="#5085a1" fill-rule="evenodd"/>
    <path id="Trazado_1263771" data-name="Trazado 1263771" d="M218.569,62.872a12.613,12.613,0,1,0-12.613-12.613,12.637,12.637,0,0,0,12.613,12.613" transform="translate(-116.466 -21.288)" fill="#ffae00" fill-rule="evenodd"/>
    <path id="Trazado_1263772" data-name="Trazado 1263772" d="M227.1,62.213a.738.738,0,0,1-1.043,0l-.264-.264a2.052,2.052,0,0,0-1.259-.521H218.8a1.128,1.128,0,0,1-.988-.694l-2.43-6.744a1.131,1.131,0,0,1,1.135-1.616h4.776a1.876,1.876,0,0,0-.107-1.548,3.463,3.463,0,0,1-.952-2.491,3.347,3.347,0,0,1,.539-1.357c.709-.929,1.742-.714,1.742.12,0,.99-.524,1.98,1.34,3.2a11.234,11.234,0,0,1,3.138,3.624c0,.007.234.246.521.535l3.15,3.15a.738.738,0,0,1,0,1.043Z" transform="translate(-121.742 -26.222)" fill="#fff"/>
    <rect id="Rectángulo_456275" data-name="Rectángulo 456275" width="5.966" height="1.366" transform="translate(105.475 36.826) rotate(-45)" fill="#fff"/>
    <path id="Trazado_1263773" data-name="Trazado 1263773" d="M28.961,66.269a5.022,5.022,0,0,1,.552.031l.249-.821,1.732.526-.25.821a4.926,4.926,0,0,1,1.59,1.307l.757-.4.852,1.6-.757.4a4.926,4.926,0,0,1,.2,2.048l.821.249-.527,1.732-.821-.25A4.938,4.938,0,0,1,32.054,75.1l.4.757-1.6.852-.4-.757a4.928,4.928,0,0,1-1.5.232v-1.3a3.661,3.661,0,0,0,0-7.323v-1.3Zm-3.094,1.084-.4-.757,1.6-.852.4.757a4.928,4.928,0,0,1,1.5-.232v1.3a3.661,3.661,0,0,0,0,7.322v1.3a5.036,5.036,0,0,1-.552-.031l-.249.821-1.732-.527.25-.821a4.929,4.929,0,0,1-1.59-1.306l-.757.4-.852-1.6.757-.4a4.926,4.926,0,0,1-.2-2.048l-.821-.25.527-1.732.821.249a4.95,4.95,0,0,1,1.307-1.59" transform="translate(-13.127 -37.028)" fill="#fff"/>
    <path id="Trazado_1263774" data-name="Trazado 1263774" d="M44.915,95.311l.449.377L44.43,96.8l-.449-.378a3.348,3.348,0,0,1-1.053.549l.051.584-1.062.093V96.011a2.268,2.268,0,0,0,0-4.537V89.837L42.3,89.8l.051.584a3.376,3.376,0,0,1,1.132.358l.377-.449,1.112.933-.377.45a3.343,3.343,0,0,1,.548,1.053l.584-.051.127,1.446-.585.051a3.346,3.346,0,0,1-.357,1.132m-3,2.337-.385.033-.051-.584a3.38,3.38,0,0,1-1.132-.357l-.377.449-1.112-.933.377-.45a3.335,3.335,0,0,1-.548-1.053L38.1,94.8l-.126-1.447.584-.051a3.373,3.373,0,0,1,.358-1.132L38.47,91.8l.933-1.112.449.377a3.348,3.348,0,0,1,1.053-.548l-.051-.584,1.062-.093v1.637a2.268,2.268,0,0,0,0,4.537v1.638" transform="translate(-21.476 -50.783)" fill="#fff"/>
    <path id="Trazado_1263775" data-name="Trazado 1263775" d="M70.687,32.386A12.735,12.735,0,1,0,57.952,19.651,12.76,12.76,0,0,0,70.687,32.386" transform="translate(-32.771 -3.911)" fill="#ffae00" fill-rule="evenodd"/>
    <path id="Trazado_1263776" data-name="Trazado 1263776" d="M84.725,20.458l-8.413,6.074L67.9,20.458l8.413-6.074Z" transform="translate(-38.396 -8.134)" fill="#3f73a1" fill-rule="evenodd"/>
    <rect id="Rectángulo_456276" data-name="Rectángulo 456276" width="12.23" height="14.939" transform="translate(31.801 7.317)" fill="#fffdfa"/>
    <rect id="Rectángulo_456277" data-name="Rectángulo 456277" width="3.494" height="0.704" transform="translate(33.709 9.36)" fill="#badaf5"/>
    <rect id="Rectángulo_456278" data-name="Rectángulo 456278" width="8.482" height="0.704" transform="translate(33.675 10.728)" fill="#badaf5"/>
    <rect id="Rectángulo_456279" data-name="Rectángulo 456279" width="8.482" height="0.704" transform="translate(33.675 12.04)" fill="#badaf5"/>
    <rect id="Rectángulo_456280" data-name="Rectángulo 456280" width="8.482" height="0.704" transform="translate(33.675 13.353)" fill="#badaf5"/>
    <rect id="Rectángulo_456281" data-name="Rectángulo 456281" width="8.482" height="0.705" transform="translate(33.675 14.665)" fill="#badaf5"/>
    <rect id="Rectángulo_456282" data-name="Rectángulo 456282" width="8.482" height="0.704" transform="translate(33.675 15.978)" fill="#badaf5"/>
    <rect id="Rectángulo_456283" data-name="Rectángulo 456283" width="8.482" height="0.704" transform="translate(33.675 17.29)" fill="#badaf5"/>
    <path id="Trazado_1263777" data-name="Trazado 1263777" d="M67.9,38.3H84.725V28.363l-8.414,6.074L67.9,28.363Z" transform="translate(-38.396 -16.039)" fill="#4d86b8" fill-rule="evenodd"/>
    <path id="Trazado_1263778" data-name="Trazado 1263778" d="M67.9,44.757H84.725l-6.878-4.966h-3.07Z" transform="translate(-38.396 -22.501)" fill="#5896cc" fill-rule="evenodd"/>
    <path id="Trazado_1263779" data-name="Trazado 1263779" d="M147.682,5.022a14.089,14.089,0,1,1,1.718,19.85,14.088,14.088,0,0,1-1.718-19.85" transform="translate(-86.336 -0.736)" fill="#5896cc" fill-rule="evenodd"/>
    <path id="Trazado_1263781" data-name="Trazado 1263781" d="M9.4,129.118a9.4,9.4,0,1,0-9.4-9.4,9.418,9.418,0,0,0,9.4,9.4" transform="translate(0 -62.384)" fill="#f06358" fill-rule="evenodd"/>
    <path id="Trazado_1263782" data-name="Trazado 1263782" d="M13.915,119.66a5.954,5.954,0,0,0-5.207,8.791v-1.574a1.271,1.271,0,0,1,.284-.79q-.023-.236-.023-.474a4.948,4.948,0,1,1,9.867.524,1.257,1.257,0,0,1,.246.74v1.654a5.954,5.954,0,0,0-5.167-8.871" transform="translate(-4.518 -67.666)" fill="#fff"/>
    <path id="Trazado_1263783" data-name="Trazado 1263783" d="M10.436,134.4a.879.879,0,0,0-.038.254v2.223c0,.686.817,1.242,1.825,1.242h.768V133.41h-.768a1.8,1.8,0,0,0-1.787.988" transform="translate(-5.88 -75.442)" fill="#fff"/>
    <path id="Trazado_1263784" data-name="Trazado 1263784" d="M29.393,136.875v-2.223a.871.871,0,0,0-.015-.158,1.726,1.726,0,0,0-1.81-1.084H26.8v4.707h.769c1.008,0,1.825-.557,1.825-1.242" transform="translate(-15.155 -75.442)" fill="#fff"/>
    <path id="Trazado_1263785" data-name="Trazado 1263785" d="M252.336,119.335a9.546,9.546,0,1,1-.975,13.464,9.545,9.545,0,0,1,.975-13.464" transform="translate(-140.827 -66.167)" fill="#6a8733" fill-rule="evenodd"/>
    <rect id="Rectángulo_456284" data-name="Rectángulo 456284" width="1.304" height="2.896" transform="translate(120.201 55.567)" fill="#fff"/>
    <rect id="Rectángulo_456285" data-name="Rectángulo 456285" width="1.304" height="5.161" transform="translate(120.201 60.039)" fill="#fff"/>
    <rect id="Rectángulo_456286" data-name="Rectángulo 456286" width="1.304" height="5.368" transform="translate(117.104 55.567)" fill="#fff"/>
    <rect id="Rectángulo_456287" data-name="Rectángulo 456287" width="1.304" height="2.689" transform="translate(117.104 62.511)" fill="#fff"/>
    <rect id="Rectángulo_456288" data-name="Rectángulo 456288" width="1.304" height="0.887" transform="translate(114.008 55.567)" fill="#fff"/>
    <rect id="Rectángulo_456289" data-name="Rectángulo 456289" width="1.304" height="7.17" transform="translate(114.008 58.029)" fill="#fff"/>
    <path id="Trazado_1263786" data-name="Trazado 1263786" d="M261.132,130.551v1.032h2.39v-1.032h-2.39Z" transform="translate(-147.667 -73.825)" fill="#fff"/>
    <path id="Trazado_1263787" data-name="Trazado 1263787" d="M268.258,140.865V141.9h2.39v-1.032h-2.39Z" transform="translate(-151.697 -79.658)" fill="#fff"/>
    <path id="Trazado_1263788" data-name="Trazado 1263788" d="M275.927,135.176h-.544v1.032h2.39v-1.032h-1.847Z" transform="translate(-155.726 -76.441)" fill="#fff"/>
    <path id="Trazado_1263789" data-name="Trazado 1263789" d="M45.168,185.08h.67c1.924,0,2.007-2.179,0-2.182h-.67v.174a.914.914,0,1,1,0,1.828v.18m-15.842,0H45.168v-.18a.914.914,0,1,1,0-1.828V182.9q-7.92-.012-15.842,0v.174a.914.914,0,1,1,0,1.828v.18m-.67,0h.67v-.18a.914.914,0,1,1,0-1.828V182.9h-.67c-2.007,0-1.924,2.182,0,2.182" transform="translate(-15.371 -103.423)" fill="#fff" fill-rule="evenodd"/>
    <path id="Trazado_1263790" data-name="Trazado 1263790" d="M51.95,165.781a.914.914,0,1,0,.914.914.914.914,0,0,0-.914-.914" transform="translate(-28.86 -93.747)" fill="#fff" fill-rule="evenodd"/>
    <path id="Trazado_1263791" data-name="Trazado 1263791" d="M60.384,175.6l-6.238-6.977a.393.393,0,1,0-.586.524l6.238,6.977a.393.393,0,1,0,.586-.524" transform="translate(-30.231 -95.281)" fill="#fff" fill-rule="evenodd"/>
    <path id="Trazado_1263792" data-name="Trazado 1263792" d="M46.363,165.781a.914.914,0,1,1-.914.914.914.914,0,0,1,.914-.914" transform="translate(-25.701 -93.747)" fill="#fff" fill-rule="evenodd"/>
    <path id="Trazado_1263793" data-name="Trazado 1263793" d="M31.17,174.777l6.8-7.609a.393.393,0,1,1,.585.524l-6.8,7.61a.393.393,0,0,1-.586-.524" transform="translate(-17.57 -94.458)" fill="#fff" fill-rule="evenodd"/>
    <path id="Trazado_1263794" data-name="Trazado 1263794" d="M44.6,189.424h3.195l-.836,4.817a1.978,1.978,0,0,1-2.28,1.818H44.6v-1.453a.8.8,0,0,0,.438-.6q.113-.824.227-1.649c.075-.549.152-1.1.227-1.649a.6.6,0,0,0-.637-.671.809.809,0,0,0-.255.041Zm-2.631,0H44.6v.657a.779.779,0,0,0-.546.63c-.057.55-.117,1.1-.174,1.649s-.116,1.1-.174,1.649a.588.588,0,0,0,.586.671.7.7,0,0,0,.309-.074v1.453h-2.63v-1.4a.738.738,0,0,0,.538-.65c.042-.549.086-1.1.127-1.649s.085-1.1.126-1.649a.641.641,0,0,0-.676-.671.791.791,0,0,0-.116.009v-.624Zm-2.655,0h2.655v.625a.734.734,0,0,0-.645.663c-.024.55-.05,1.1-.074,1.649s-.05,1.1-.074,1.649a.631.631,0,0,0,.626.671.652.652,0,0,0,.167-.022v1.4H39.312V194.68a.677.677,0,0,0,.665-.671q.014-.824.027-1.649t.027-1.649a.689.689,0,0,0-.717-.671h0v-.616Zm-2.656,0h2.656v.617a.691.691,0,0,0-.718.671c.009.55.017,1.1.027,1.649s.016,1.1.025,1.649a.679.679,0,0,0,.666.671h0v1.378H36.656v-1.4a.656.656,0,0,0,.168.022.63.63,0,0,0,.624-.671q-.036-.824-.073-1.649t-.074-1.649a.733.733,0,0,0-.646-.663v-.624Zm-2.629,0h2.629v.624a.806.806,0,0,0-.113-.008.643.643,0,0,0-.678.671q.063.825.127,1.649c.043.55.083,1.1.126,1.649a.74.74,0,0,0,.539.649v1.4H34.027v-1.453a.7.7,0,0,0,.308.074.587.587,0,0,0,.584-.671q-.087-.824-.173-1.649c-.058-.55-.117-1.1-.174-1.649a.778.778,0,0,0-.545-.631v-.657Zm-.075,6.635a1.977,1.977,0,0,1-2.28-1.818l-.836-4.817h3.191v.657a.825.825,0,0,0-.254-.04.6.6,0,0,0-.637.671q.112.825.227,1.649t.226,1.649a.8.8,0,0,0,.438.6v1.453Z" transform="translate(-17.437 -107.117)" fill="#fff" fill-rule="evenodd"/>
    <path id="Trazado_1263795" data-name="Trazado 1263795" d="M244.159,225.252l1.1,5.754c.15.786,1.612,4.425,2.408,4.343s.713-3.32.547-4.1l-1.058-4.272c-.607-2.449-3.115-2.354-2.994-1.721" transform="translate(-138.067 -127.162)" fill="#e3e2e0" fill-rule="evenodd"/>
    <path id="Trazado_1263796" data-name="Trazado 1263796" d="M252.328,202.889l-.127,7.192a1.488,1.488,0,0,1,2.565.9c.586-1.112,2.259-.688,2.605.466a1.406,1.406,0,0,1,2.395,1.058l-.086,6.107c-.127,9-10.247,6.457-10.246,1.208l.025-17.012c0-2.151,2.918-1.689,2.87.079" transform="translate(-141.052 -113.875)" fill="#fffdfa" fill-rule="evenodd"/>
    <path id="Trazado_1263797" data-name="Trazado 1263797" d="M261.033,224.6s.041-1.211.073-2.286a1.11,1.11,0,0,0-.133.147,1.483,1.483,0,0,0-.12-.286c.073,1.1.18,2.426.18,2.426m-5.21-3.536a1.167,1.167,0,0,1,.218-.221c-.04,1.205-.154,3.264-.154,3.264s-.087-2.118-.085-3.016c0,.014.008,0,.021-.028m2.4.415a1.464,1.464,0,0,1,.148.516,1.32,1.32,0,0,1,.131-.2c-.025,1.191-.062,2.665-.062,2.665s-.153-1.838-.217-2.98" transform="translate(-144.653 -124.884)" fill="#e3e2e0" fill-rule="evenodd"/>
    <rect id="Rectángulo_456290" data-name="Rectángulo 456290" width="33.666" height="5.687" transform="translate(3.916 99.775)" fill="#fff"/>
    <rect id="Rectángulo_456291" data-name="Rectángulo 456291" width="6.655" height="5.687" transform="translate(30.927 99.775)" fill="#6a8733"/>
    <path id="Trazado_1263798" data-name="Trazado 1263798" d="M76.914,234.162a1.461,1.461,0,0,0-1.269-2.232v.5a.96.96,0,1,1,0,1.921v.5a1.46,1.46,0,0,0,.8-.219l1.038,1.038.471-.471Zm-1.269-2.232a1.462,1.462,0,0,0,0,2.923v-.5h0a.96.96,0,0,1,0-1.921h0Z" transform="translate(-41.965 -131.154)" fill="#fff"/>
    <path id="Trazado_1263799" data-name="Trazado 1263799" d="M142.743,112.165l-37.64,74.3-.133-74.3Z" transform="translate(-59.36 -63.428)" fill="#5896cc" fill-rule="evenodd"/>
    <g id="legal-hammer-symbol-svgrepo-com" transform="translate(63.811 -38.781)">
      <g id="Grupo_1204975" data-name="Grupo 1204975" transform="translate(0 43.48)">
        <path id="Trazado_1263749" data-name="Trazado 1263749" d="M6.739,384.4a.62.62,0,0,0-.62-.62H1.435a.62.62,0,0,0-.544.918H0v1.286H7.554V384.7H6.663A.617.617,0,0,0,6.739,384.4Z" transform="translate(0 -372.288)" fill="#fff"/>
        <path id="Trazado_1263750" data-name="Trazado 1263750" d="M168.417,44.991l3.958,2.513a.678.678,0,0,0,.879-.241l.19-.3a.678.678,0,0,0-.209-.935l-3.849-2.444a.678.678,0,0,0-.935.209l-.19.3A.678.678,0,0,0,168.417,44.991Z" transform="translate(-162.475 -43.48)" fill="#fff"/>
        <path id="Trazado_1263751" data-name="Trazado 1263751" d="M117.27,114.257l0-.06,0-.056c0-.039-.008-.073-.013-.108a1.741,1.741,0,0,0-.091-.37,1.213,1.213,0,0,0-.333-.5c-.035-.031-.072-.058-.109-.085l-.111-.083c-.073-.056-.148-.109-.223-.163s-.149-.107-.224-.16-.15-.106-.226-.157c-.151-.1-.3-.206-.456-.308l-.23-.151-.231-.149c-.155-.1-.31-.2-.466-.293s-.312-.193-.469-.287l-.472-.283-.475-.278-.478-.273-.48-.27-.483-.266-.485-.263c-.162-.087-.324-.174-.488-.259s-.326-.171-.49-.255l-.149.234-.749-.353.837-1.318-3.958-2.513-2.059,3.242,3.958,2.513.837-1.318.638.528-.149.234c.146.113.292.224.439.335s.294.221.441.331l.444.327.446.324.448.32.451.316.453.312.457.307q.229.153.46.3c.154.1.308.2.463.3l.233.146.234.144c.157.1.314.19.472.282q.118.07.238.138c.08.046.159.091.24.135s.16.089.242.132l.122.065c.041.022.081.044.124.062a1.213,1.213,0,0,0,.6.088,1.739,1.739,0,0,0,.373-.075c.034-.011.067-.02.1-.035l.053-.02.055-.023a2.092,2.092,0,0,0,.238-.119A2.1,2.1,0,0,0,117.27,114.257Z" transform="translate(-100.633 -103.144)" fill="#fff"/>
        <path id="Trazado_1263752" data-name="Trazado 1263752" d="M58.9,217.578l3.849,2.444a.678.678,0,0,0,.935-.209l.19-.3a.678.678,0,0,0-.156-.9L59.761,216.1a.678.678,0,0,0-.879.241l-.19.3A.678.678,0,0,0,58.9,217.578Z" transform="translate(-56.607 -210.2)" fill="#fff"/>
      </g>
    </g>
  </g>
</svg>
