<svg xmlns="http://www.w3.org/2000/svg" xmlns:xlink="http://www.w3.org/1999/xlink" width="141.571" height="147.403" viewBox="0 0 141.571 147.403">
  <defs>
    <clipPath id="clip-path">
      <rect id="Rectángulo_455721" data-name="Rectángulo 455721" width="141.571" height="147.403" transform="translate(0 -30)" fill="none"/>
    </clipPath>
  </defs>
  <g id="Grupo_1204713" data-name="Grupo 1204713" transform="translate(0 30)">
    <g id="Grupo_1204712" data-name="Grupo 1204712" clip-path="url(#clip-path)">
      <path id="Trazado_1263189" data-name="Trazado 1263189" d="M167.493,17.636a19.682,19.682,0,0,1,2.188.124l.99-3.256,6.868,2.088-.99,3.256a19.56,19.56,0,0,1,6.308,5.181l3-1.6,3.381,6.332-3,1.6a19.579,19.579,0,0,1,.794,8.124l3.255.99L188.2,47.343l-3.255-.99a19.58,19.58,0,0,1-5.181,6.308l1.6,3-6.332,3.379-1.6-3a19.556,19.556,0,0,1-5.935.918V51.817a14.52,14.52,0,0,0,0-29.039V17.636Zm-12.269,4.3-1.6-3,6.331-3.38,1.6,3a19.536,19.536,0,0,1,5.935-.919v5.141a14.52,14.52,0,0,0,0,29.04v5.142a19.582,19.582,0,0,1-2.188-.124l-.99,3.256L157.446,58l.99-3.257a19.547,19.547,0,0,1-6.307-5.181l-3,1.6-3.379-6.332,3-1.6a19.55,19.55,0,0,1-.794-8.123l-3.256-.99,2.088-6.869,3.256.99a19.563,19.563,0,0,1,5.181-6.307" transform="translate(-79.958 -38.015)" fill="#ffae00"/>
      <path id="Trazado_1263190" data-name="Trazado 1263190" d="M274.094,79.183l1.782,1.5-3.7,4.411-1.781-1.5a13.248,13.248,0,0,1-4.176,2.175l.2,2.317-4.212.368V81.959a9,9,0,0,0,0-17.991V57.474l1.524-.133.2,2.317a13.4,13.4,0,0,1,4.492,1.418l1.5-1.783,4.412,3.7-1.5,1.783a13.242,13.242,0,0,1,2.174,4.178l2.318-.2.5,5.737-2.319.2a13.238,13.238,0,0,1-1.415,4.493m-11.889,9.271-1.525.133-.2-2.317a13.388,13.388,0,0,1-4.488-1.417l-1.5,1.782-4.41-3.7,1.5-1.783a13.217,13.217,0,0,1-2.174-4.178l-2.318.2-.5-5.737,2.317-.2a13.311,13.311,0,0,1,1.418-4.491l-1.782-1.5,3.7-4.411,1.783,1.5a13.263,13.263,0,0,1,4.177-2.174l-.2-2.318,4.212-.368V63.97a9,9,0,0,0,0,17.99v6.493Z" transform="translate(-136.257 -31.686)" fill="#b3d6f5"/>
      <path id="Trazado_1263191" data-name="Trazado 1263191" d="M.6,61.882q-.151.726-.261,1.467T.152,64.839a30.576,30.576,0,0,0,0,6.092q.075.751.191,1.491T.6,73.89q.149.727.332,1.441.368,1.427.87,2.8c.168.456.345.906.534,1.353s.387.885.6,1.32c.1.216.212.432.32.646q.33.643.689,1.267a29.942,29.942,0,0,0,2.407,3.564q.664.844,1.387,1.638c.319.353.65.7.986,1.035s.683.665,1.035.987a29.762,29.762,0,0,0,5.2,3.791q.624.36,1.266.689,1.284.657,2.638,1.193c.451.178.906.345,1.37.5a29.955,29.955,0,0,0,16.182.825,29.4,29.4,0,0,0,2.927-.823q.691-.236,1.369-.5,1.352-.534,2.639-1.193.641-.329,1.265-.688a29.934,29.934,0,0,0,5.2-3.793q.53-.481,1.034-.986c.336-.337.667-.682.987-1.035q.721-.794,1.384-1.638a29.361,29.361,0,0,0,1.944-2.79c.157-.255.313-.513.464-.774q.36-.625.687-1.266c.111-.214.217-.43.323-.647q.312-.651.6-1.32t.533-1.353c.333-.914.625-1.847.868-2.8q.186-.713.333-1.441c.1-.485.186-.974.264-1.468s.137-.99.189-1.49a30.408,30.408,0,0,0,0-6.093c-.052-.5-.115-1-.189-1.491s-.164-.983-.264-1.467-.209-.966-.333-1.441a29.231,29.231,0,0,0-.868-2.8c-.084-.228-.17-.455-.26-.68q-.4-1.015-.872-1.992c-.1-.217-.213-.433-.322-.647q-.33-.642-.687-1.266a29.745,29.745,0,0,0-2.408-3.565q-.664-.844-1.384-1.638-.483-.529-.987-1.035t-1.034-.987Q48.8,44.9,47.686,44.067a30,30,0,0,0-3.068-2.027q-.623-.357-1.265-.688c-.2-.1-.391-.2-.589-.291-.237-.114-.474-.227-.714-.335l-.3-.134c-.342-.15-.685-.294-1.034-.432l-.015-.007c-.372-.145-.748-.281-1.124-.413-.077-.027-.153-.055-.232-.081q-1.321-.448-2.7-.772c-.286-.068-.573-.132-.863-.191-.21-.042-.419-.082-.63-.12a29.9,29.9,0,0,0-4.818-.476c-.181,0-.362-.006-.545-.006-.308,0-.614.006-.922.016a29.7,29.7,0,0,0-8.632,1.55c-.461.156-.919.323-1.368.5-.138.055-.278.112-.417.169-.309.127-.617.258-.921.4-.44.2-.873.408-1.3.628s-.849.448-1.265.687a29.872,29.872,0,0,0-4.692,3.34c-.172.149-.342.3-.51.452q-.53.483-1.036.987c-.337.336-.667.681-.985,1.034q-.721.794-1.386,1.638a30.046,30.046,0,0,0-2.408,3.565c-.24.416-.468.839-.687,1.266-.111.214-.217.43-.322.647q-.469.977-.87,1.993c-.089.225-.177.452-.258.68a29.293,29.293,0,0,0-.87,2.8C.814,60.915.7,61.4.6,61.882" transform="translate(0 -21.05)" fill="#4d86b8"/>
      <path id="Trazado_1263192" data-name="Trazado 1263192" d="M46.232,92.053V65.588a3.659,3.659,0,0,1,.368.188c.759.455,1.822,1.063,2.126.38s1.291-.455,2.126-.3a14.453,14.453,0,0,0,3.038.38,1.864,1.864,0,0,0,1.594-1.443c.076-.683-.987-.835-2.278-.835s-1.822-.228-1.595-.987A2.584,2.584,0,0,1,52.9,61.22a4.677,4.677,0,0,1,1.974-.456c.683,0,1.595.532,2.43.456s.532-.835-.3-1.291-.987-1.139-.607-1.519.152-.759-.532-.38-1.671,1.367-1.9.759-1.9-.076-1.9.835.228,1.063-.076,1.67a1.718,1.718,0,0,1-1.594.987c-.608-.076.076,1.064-.532,1.367s-.911-.455-1.291-1.215a7.981,7.981,0,0,0-1.064-1.671,8.083,8.083,0,0,0-1.139-1.139,1.132,1.132,0,0,0-.14-.1V53.245a2.32,2.32,0,0,1,.6-.074c.835,0,1.443.683,2.05.152s-.455-1.443.456-1.443,1.67.076.987-.607.228-.3.987-.683.683-.987-.228-.835-1.67.683-2.05-.228.759-1.974,1.367-2.658a.374.374,0,0,0,.118-.39q.176.17.348.343.5.506.987,1.035.719.794,1.384,1.638a29.8,29.8,0,0,1,2.408,3.565q.356.623.687,1.266c.109.214.217.43.322.647q.473.977.872,1.992.135.338.26.68a29.233,29.233,0,0,1,.868,2.8q.186.713.333,1.441c.1.484.186.973.264,1.467s.137.991.189,1.491a30.407,30.407,0,0,1,0,6.093q-.078.75-.189,1.49c-.077.493-.164.982-.264,1.468q-.062.3-.13.6l-.028-.063c-.683-1.595-2.2-3.341-2.733-4.784s-1.064-2.354-1.6-2.278.683,2.809,1.215,3.8a15.021,15.021,0,0,0,2.05,3.493,4.568,4.568,0,0,0,.88.7c-.242.941-.531,1.866-.86,2.77q-.251.685-.533,1.353t-.6,1.32q-.158.325-.323.647-.327.642-.687,1.266c-.151.26-.307.518-.464.774a29.276,29.276,0,0,1-1.944,2.79q-.664.845-1.384,1.638c-.32.353-.65.7-.987,1.035s-.681.665-1.034.986a30.128,30.128,0,0,1-3.455,2.706,3.159,3.159,0,0,1-.142-.591m0-30.276a4.368,4.368,0,0,1,.14,1.341c0,1.063.835-.38.987-.836s.456-1.519-.152-1.519a1.176,1.176,0,0,1-.975-.44v1.454Zm0-9.363a.628.628,0,0,1,.368-.155c.532,0,.759-.683,1.367-1.291s-.532-1.367-.228-2.2,1.215-1.215,1.443-2.05a.825.825,0,0,1,1.135-.429q-.242-.23-.487-.454Q48.8,44.9,47.694,44.068q-.256-.193-.516-.38a7.652,7.652,0,0,0-.946.918Zm0-7.808v7.808c-.369.283-.674.8-.847.225-.228-.759-.683-1.595-1.215-1.215s-.456,1.67-1.139.607-1.291-2.582-.532-3.417,1.822-1.519,2.43-2.354c.289-.4.766-1.051,1.3-1.654m0,8.639a4.422,4.422,0,0,1-1.455.306c-.987,0-.607-.683-1.215-.683s-.455,1.139-.987,1.67a6.011,6.011,0,0,1-2.008,1.335V61.96c.362-.122.468-.817.262-1.576-.228-.835,1.215-.532,2.43-.532s1.367.835,2.2,1.139a1.186,1.186,0,0,1,.771.785V60.323c-.092-.091-.194-.2-.315-.319-.484-.484-.149-.779.315-.484V53.245Zm0,12.343V92.053a3.364,3.364,0,0,0-.468-1.6c-.683-.987-1.367-2.733-.683-3.645s.987-1.594.38-1.822.3-1.29-.532-1.822a2.649,2.649,0,0,1-1.064-2.657c.3-.683.38-1.822-.607-1.822-.729,0-1.789-.414-2.692-.508V63.69a4.1,4.1,0,0,1,1.629-.344c1.443,0,2.506-.532,2.354.607-.13.973.9,1.281,1.682,1.634M40.567,55.26v-.637c.2-.064.344.049.3.262-.035.177-.156.379-.3.375m0-.637v.637a.229.229,0,0,1-.166-.1c-.21-.257-.194-.419.081-.5a.489.489,0,0,1,.085-.036m0,1.25V61.96a.376.376,0,0,1-.118.019,2.463,2.463,0,0,0-.381.026v-5.99c.049-.01.1-.021.153-.035a3.284,3.284,0,0,0,.346-.107m0,7.817V78.177a2.857,2.857,0,0,0-.5-.013V63.869c.174-.055.336-.117.5-.179m-.5-10.974v-.637c.2-.063.344.05.3.262-.035.177-.157.379-.3.374m0-.637v.637a.228.228,0,0,1-.166-.1c-.209-.258-.193-.419.081-.5a.586.586,0,0,1,.085-.036m0,3.936V62c-.322.051-.585.2-.53.582.076.532-.152.455-.532.759a2.317,2.317,0,0,1-.673.4V60.1c.631-.2,1.017-.872.445-1.381a1.617,1.617,0,0,1-.076-2.127c.357-.643.58-.412,1.366-.573m0,7.854V78.163a1.673,1.673,0,0,0-.379.066c-.505.156-.95.291-1.356.417V64.083a3.809,3.809,0,0,1,.673-.054,3.453,3.453,0,0,0,1.062-.161M38.333,56.03a2.259,2.259,0,0,1,.885-.213c1.115,0-.086-1.889.085-2.489.165-.575.093-2.018-.971-1.986V56.03Zm0-4.688v4.688c-.666.285-1.138.669-1.26-.127-.171-1.116-.257-1.03.773-1.459s-.429-3.175.344-3.089a1.176,1.176,0,0,1,.144-.013m0,8.752v3.646a1.032,1.032,0,0,1-.922-.091,2.148,2.148,0,0,0-1.137-.123V60.005c.693.01.863.152,1.668.152a1.262,1.262,0,0,0,.391-.062m0,3.988V78.645c-.388.12-.74.232-1.074.343a1.212,1.212,0,0,1-.985-.336V64.869a1.776,1.776,0,0,1,.454-.157c.612-.122.83-.491,1.605-.63m-2.059-8.425a.756.756,0,0,0,.455-.441c.343-.773.343-2.146-.344-2.06-.039-.005-.077-.009-.112-.012Zm0-13.02v-.895a1.081,1.081,0,0,1,.2,0c.6,0,1.03,1.03.257,1.03a.856.856,0,0,1-.455-.136m0-.895v.895c-.425-.267-.579-.842,0-.895m0,11.4v2.513a.534.534,0,0,1-.66-.7c.166-.747-.391-1.9.66-1.814m0,6.86v3.521c-.381.01-.685-.028-.685-.408,0-.76-.532-1.064-.152-1.747S35.437,60,36.2,60Zm0,4.864V78.653a18.688,18.688,0,0,1-1.9-1.791c-.442-.442-1.052-.991-1.523-1.524V70.063c.34-.641.585-2.242,1.3-2.313a1.625,1.625,0,0,0,1.291-1.594,1.464,1.464,0,0,1,.837-1.287m-3.424.934c.145,0,.266-.2.3-.374.043-.213-.1-.325-.3-.262Zm0-17.945V46.042a.742.742,0,0,1,.617,1.279,3.089,3.089,0,0,1-.617.537m0-1.816v1.816a2.788,2.788,0,0,1-.467.249v-2a1.632,1.632,0,0,1,.467-.069m0,19.124V65.8a.229.229,0,0,1-.166-.1c-.21-.258-.193-.419.081-.5a.525.525,0,0,1,.085-.037m0,4.9v5.275a4.826,4.826,0,0,1-.467-.607V73.617c.591-.559.324-.749,0-1.137V70.859a4.5,4.5,0,0,1,.4-.679.978.978,0,0,0,.072-.117m-.467-2.4v-.643c.177-.036.3.076.26.273-.032.16-.133.34-.26.37m0-21.554v2a1.909,1.909,0,0,1-2-.271l-.055-.045v-2.04a.554.554,0,0,1,.4.026,4.277,4.277,0,0,0,1.63.343Zm0,20.911v.643a.2.2,0,0,1-.208-.1c-.21-.258-.194-.419.081-.5a.443.443,0,0,1,.127-.048m0,3.838V72.48c-.045-.054-.091-.111-.136-.174a1.56,1.56,0,0,1,.136-1.447m0,2.758v1.113c-.265-.423-.347-.8-.06-1.058l.06-.055M30.324,39.1v-1h.017q.276,0,.551.015a.856.856,0,0,1-.281.653,2.971,2.971,0,0,0-.287.334m1.085,26.438c.242-.129.435-.016.387.226s-.258.532-.468.274-.194-.419.081-.5M15.05,55.622l.15,0c.86,0,.228-.6-.15-1.138ZM30.324,38.1v1c-.4.537-.382.89-1.225.89-1.008,0,1.224,1.584.072,1.584s-1.512,1.441-.36,1.3,1.081.36-.144.936-3.168.576-3.744,1.512-2.736.864-2.736,1.728-.36,4.033-2.017,3.457-2.017-2.232-2.664-3.241.36-2.089-.288-2.448,1.44-2.017.72-1.512-1.872-.216-.864-.432.647-1.224-.072-1.008c-.543.162-1.126,0-.98-.4l.212-.109c.43-.22.863-.43,1.3-.628.3-.138.612-.269.921-.4.139-.057.278-.115.417-.169q.674-.267,1.368-.5a29.7,29.7,0,0,1,8.632-1.55c.308-.009.613-.016.922-.016.177,0,.353,0,.528.006m0,7.65c-.574.178-.921,1.265,0,2.04ZM15.05,93.778V77.307a4.427,4.427,0,0,0,2.167,1.069c.936,0,.792.936.792,1.872s1.224.936,2.521,1.369A11.241,11.241,0,0,1,23.7,82.769c1.3.791,1.584,1.224.936,2.16s-2.016,2.377-2.088,3.745-.936,2.664-1.872,2.808-1.8.864-1.8,1.513-.864.36-.936,1.584a2.735,2.735,0,0,1-.107.6q-.811-.356-1.6-.757-.6-.309-1.185-.642m0-35.725v-2.1c.044,0,.095.009.155.013,1.132-.054,1.294.81,1.618,1.51s.107,1.4-.971.917c-.312-.14-.584-.24-.8-.336m-2.457-1.5c.2.187.331.255.519-.072.276-.483.817-.834,1.938-.862v-1.14c-.16-.226-.274-.44-.21-.59.216-.5-.864-.72-1.44-1.3-.419-.419-.458-1.447-.807-2v5.965Zm2.457-.608v2.1c-.534-.235-.745-.446-.438-1.174.394-.936-.022-.972.438-.93m0,21.358V93.777l-.082-.047q-1.226-.7-2.375-1.519V76.146a3.722,3.722,0,0,1,1.455.5c.351.206.683.436,1,.659M12.594,59.831V58.9c.581-.037.683.943.131.943a.6.6,0,0,1-.131-.013m0-13.481v-.9c.251.4.292.816,0,.9m-.937,12.617c.029-.034.059-.07.087-.107a1.06,1.06,0,0,0-.087-1.43Zm0-2.842a.775.775,0,0,1,.519.071,4.14,4.14,0,0,1,.417.361V50.591a.709.709,0,0,0-.561-.372.873.873,0,0,0-.376.034Zm.937-10.674v.9a.634.634,0,0,1-.345-.021,2.374,2.374,0,0,0-.591-.1V44.71c.028.013.057.026.087.036a1.735,1.735,0,0,1,.85.705m0,13.451v.929c-.506-.106-.737-.8-.139-.9a.641.641,0,0,1,.139-.026m0,17.244V92.212q-.475-.336-.937-.691v-15.4a5.558,5.558,0,0,1,.937.024m-.937-3.131v-.19c.071.073.083.145,0,.19m0-12.831a.458.458,0,0,0,.1.01c.409,0,.333-.726-.1-.7Zm0-11.364V47.485a.963.963,0,0,1,0,1.335m-1.38,11.12a3.665,3.665,0,0,0,1.38-.972V57.43a1.83,1.83,0,0,0-1.209-.659c-.556,0,.477-.558,1.209-.647V50.252c-.367.144-.046.655-.633.83a.921.921,0,0,1-.747-.028Zm1.38-15.23v1.523c-.648-.014-.938.353-.2,1.034a1.728,1.728,0,0,1,.2.218V48.82a.6.6,0,0,1-.633.1c-.173-.069-.434-.172-.747-.289V45.38q.532-.463,1.087-.9a.888.888,0,0,0,.293.23m0,14.785v.689c-.375-.079-.546-.6-.1-.669a.411.411,0,0,1,.1-.02m0,13.329v.19a.763.763,0,0,1-.371.046c-.858-.037-1.417-.559-.335-.485a1.1,1.1,0,0,1,.706.25m0,3.3v15.4q-.707-.544-1.38-1.127v-14.2c.289-.016.579-.048.819-.048.171,0,.358-.013.561-.022M9.116,61.065a3.2,3.2,0,0,1,.468-.693,2.394,2.394,0,0,1,.693-.433V51.055a.834.834,0,0,1-.333-.764c0-.272-.344-.659-.827-1.006Zm1.161-15.685v3.253c-.34-.127-.742-.271-1.161-.407V46.443q.321-.309.65-.608c.167-.152.338-.3.51-.452Zm0,30.811v14.2q-.258-.224-.511-.455-.329-.3-.65-.609V75.969a1.663,1.663,0,0,0,1.161.223M9.116,72.938v-.987c.07-.006.147-.009.231-.009.634-.037.559,1.006-.112,1.006a.667.667,0,0,1-.119-.01M6.663,64.745a.787.787,0,0,0,.329-.556c0-.648.432-2.449,1.224-2.449.478,0,.694-.315.9-.675V49.285a4.26,4.26,0,0,0-1.929-.8q-.266.311-.525.628V64.745Zm2.454-18.3v1.784c-.452-.147-.924-.286-1.36-.385.315-.347.641-.688.974-1.021.128-.128.256-.254.386-.379m0,25.508v.987c-.6-.1-1.14-.9,0-.987m0,4.018V89.329c-.078-.075-.155-.15-.232-.226A5.4,5.4,0,0,0,7.8,87.976l-.053-.059q-.559-.614-1.083-1.258V76.216a1.428,1.428,0,0,0,.833-.145c.576-.36,1.152-1.08,1.441-.36a.668.668,0,0,0,.181.257M6.663,71.648v-.579c.587.114.941.612.3.612a1.376,1.376,0,0,1-.3-.033m0-1.76v-.8c.655.341,1.074,1.217.559.915a.811.811,0,0,0-.559-.116M4.833,68.644c.247.126.358-.078.358-.638,0-1.008-.288-1.584.072-2.16.247-.4.971-.724,1.4-1.1V49.114q-.153.189-.3.379-.332.422-.648.856c.03.253.079.5.128.733.216,1.008.72,1.728.144,1.728s-.576.864-.648,2.232c-.036.691-.275.592-.5.242Zm1.829.445v.8c-.328.05-.584.265-.857.116-.41-.224-.3-.932.372-1.044a1.055,1.055,0,0,1,.485.129m0,1.98v.579c-.587-.13-.941-.6-.3-.6a1.23,1.23,0,0,1,.3.022m0,5.147V86.659l-.036-.045c0-.083,0-.165,0-.246,0-.565-1.2-1.512-1.8-2.319V81c.023-.013.046-.025.07-.036.792-.36.432-1.44,1.224-1.656s.288-1.08,0-1.656c-.153-.306-.731-.287-1.294-.289V76.24a.858.858,0,0,0,.5-.025,3.811,3.811,0,0,1,1.328,0m-1.829-5.3v-.744c.651.142,1,.864.264.8a1.328,1.328,0,0,1-.264-.052M.612,61.882q-.151.726-.261,1.467T.159,64.84Q.036,66.053.013,67.294a2.325,2.325,0,0,0,1-.081,2.389,2.389,0,0,1,2.953.5,3.5,3.5,0,0,0,.866.926V55.285a2.91,2.91,0,0,1-.434-1.25c0-.271-.239-.479-.623-.666-.176.315-.346.634-.511.955-.111.214-.217.43-.322.647q-.469.977-.87,1.993c-.089.225-.177.452-.258.68a29.292,29.292,0,0,0-.87,2.8c-.122.474-.232.956-.331,1.44m4.221,8.294v.744c-.663-.2-1.016-.867-.221-.768a1.075,1.075,0,0,1,.221.024m0,6.063a2.167,2.167,0,0,1-1.226-1.033c-.432-.72.289-1.512-.792-1.512s-.323-2.414-.323-3.134c0-.683-1.461.548-2.225,1.291q.039.287.084.572.11.74.261,1.467.054.268.114.534a2.507,2.507,0,0,0,1.3.422c1.224,0,1.3,1.656,1.656,2.232.169.27.656.287,1.154.288Zm0,4.764v3.047a2.425,2.425,0,0,1-.218-.346c-.42-.838-.5-2.286.218-2.7" transform="translate(-0.007 -21.051)" fill="#b3d6f5" fill-rule="evenodd"/>
      <path id="Trazado_1263193" data-name="Trazado 1263193" d="M132.018,195.522h18.907l8.862,16.056H123.155Z" transform="translate(-68.053 -108.042)" fill="#004e78" fill-rule="evenodd"/>
      <path id="Trazado_1263194" data-name="Trazado 1263194" d="M58.884,75.861h89.107a4.573,4.573,0,0,1,4.559,4.559v48.491a4.573,4.573,0,0,1-4.559,4.559H58.884a4.573,4.573,0,0,1-4.559-4.559V80.42a4.572,4.572,0,0,1,4.559-4.559" transform="translate(-30.019 -41.919)" fill="#ffae00" fill-rule="evenodd"/>
      <rect id="Rectángulo_455702" data-name="Rectángulo 455702" width="92.174" height="46.808" transform="translate(27.331 36.601)" fill="#13618a"/>
      <path id="Trazado_1263195" data-name="Trazado 1263195" d="M260.758,195.476a.592.592,0,1,0-.592-.592.593.593,0,0,0,.592.592" transform="translate(-143.763 -107.362)" fill="#808281" fill-rule="evenodd"/>
      <path id="Trazado_1263196" data-name="Trazado 1263196" d="M255.591,195.476a.592.592,0,1,0-.592-.592.593.593,0,0,0,.592.592" transform="translate(-140.908 -107.362)" fill="#808281" fill-rule="evenodd"/>
      <path id="Trazado_1263197" data-name="Trazado 1263197" d="M250.425,195.476a.592.592,0,1,0-.592-.592.593.593,0,0,0,.592.592" transform="translate(-138.053 -107.362)" fill="#808281" fill-rule="evenodd"/>
      <path id="Trazado_1263198" data-name="Trazado 1263198" d="M39.558,220.562H148.315a2.426,2.426,0,1,1,0,4.852H39.558a2.426,2.426,0,1,1,0-4.852" transform="translate(-20.518 -121.879)" fill="#4d86b8" fill-rule="evenodd"/>
      <path id="Trazado_1263199" data-name="Trazado 1263199" d="M150.742,225.984a2.434,2.434,0,0,1-2.426,2.426H39.558a2.433,2.433,0,0,1-2.426-2.426Z" transform="translate(-20.518 -124.875)" fill="#fff" fill-rule="evenodd"/>
      <path id="Trazado_1263200" data-name="Trazado 1263200" d="M153.261,81.8,61.087,128.613h92.174Z" transform="translate(-33.756 -45.204)" fill="#004e78" fill-rule="evenodd"/>
      <rect id="Rectángulo_455703" data-name="Rectángulo 455703" width="28.412" height="1.578" transform="translate(35.777 43.04)" fill="#f06358"/>
      <rect id="Rectángulo_455704" data-name="Rectángulo 455704" width="14.914" height="1.579" transform="translate(35.777 49.382)" fill="#ffae00"/>
      <rect id="Rectángulo_455705" data-name="Rectángulo 455705" width="21.062" height="1.579" transform="translate(89.997 49.382)" fill="#ffae00"/>
      <rect id="Rectángulo_455706" data-name="Rectángulo 455706" width="10.955" height="1.579" transform="translate(35.777 54.843)" fill="#4d86b8"/>
      <rect id="Rectángulo_455707" data-name="Rectángulo 455707" width="49.745" height="1.579" transform="translate(50.692 54.843)" fill="#4d86b8"/>
      <rect id="Rectángulo_455708" data-name="Rectángulo 455708" width="26.947" height="1.579" transform="translate(35.777 60.303)" fill="#f06358"/>
      <rect id="Rectángulo_455709" data-name="Rectángulo 455709" width="30.085" height="1.579" transform="translate(66.684 60.303)" fill="#4d86b8"/>
      <rect id="Rectángulo_455710" data-name="Rectángulo 455710" width="10.955" height="1.579" transform="translate(35.777 65.763)" fill="#b6a94a"/>
      <rect id="Rectángulo_455711" data-name="Rectángulo 455711" width="27.88" height="1.579" transform="translate(50.692 65.763)" fill="#4d86b8"/>
      <rect id="Rectángulo_455712" data-name="Rectángulo 455712" width="23.041" height="1.579" transform="translate(35.777 71.224)" fill="#4d86b8"/>
      <rect id="Rectángulo_455713" data-name="Rectángulo 455713" width="28.631" height="1.579" transform="translate(62.777 71.224)" fill="#4d86b8"/>
      <rect id="Rectángulo_455714" data-name="Rectángulo 455714" width="30.974" height="1.579" transform="translate(54.651 49.382)" fill="#4d86b8"/>
      <rect id="Rectángulo_455715" data-name="Rectángulo 455715" width="6.251" height="1.579" transform="translate(104.809 54.843)" fill="#4d86b8"/>
      <rect id="Rectángulo_455716" data-name="Rectángulo 455716" width="9.918" height="1.579" transform="translate(101.142 60.303)" fill="#f06358"/>
      <rect id="Rectángulo_455717" data-name="Rectángulo 455717" width="28.116" height="1.579" transform="translate(82.944 65.763)" fill="#b6a94a"/>
      <rect id="Rectángulo_455718" data-name="Rectángulo 455718" width="15.278" height="1.579" transform="translate(95.781 71.224)" fill="#4d86b8"/>
      <path id="Trazado_1263201" data-name="Trazado 1263201" d="M287.122,104.482a.546.546,0,1,0-1.044-.322l-.018.062-.1.3-.1.3-.1.3-.019.053a.546.546,0,1,0,1.028.371l.023-.065.106-.31.1-.312.1-.315Z" transform="translate(-157.878 -57.344)" fill="#d9cb62"/>
      <path id="Trazado_1263202" data-name="Trazado 1263202" d="M290.142,90a.546.546,0,0,0-1.089-.1l-.021.241-.032.339-.036.337-.018.153a.547.547,0,0,0,1.085.132l.019-.164.037-.349.034-.35Z" transform="translate(-159.665 -49.402)" fill="#d9cb62"/>
      <path id="Trazado_1263203" data-name="Trazado 1263203" d="M290.078,75.264a.546.546,0,1,0-1.087.116l0,.025.036.358.033.357.027.331a.546.546,0,1,0,1.089-.082l-.027-.343-.034-.368-.038-.369Z" transform="translate(-159.69 -41.321)" fill="#d9cb62"/>
      <path id="Trazado_1263204" data-name="Trazado 1263204" d="M281.685,47.15a.547.547,0,0,0-1.028.327.572.572,0,0,0,.053.166l.1.2.173.347.169.348.033.069a.547.547,0,0,0,1.027-.355.563.563,0,0,0-.036-.1l-.038-.08-.174-.359-.179-.358Z" transform="translate(-155.082 -25.889)" fill="#d9cb62"/>
      <path id="Trazado_1263205" data-name="Trazado 1263205" d="M273.771,34.724a.546.546,0,1,0-.869.662l.211.273.243.323.2.267a.547.547,0,0,0,.945-.537.57.57,0,0,0-.06-.1l-.2-.277L273.981,35Z" transform="translate(-150.739 -19.068)" fill="#d9cb62"/>
      <path id="Trazado_1263206" data-name="Trazado 1263206" d="M263.677,23.983a.547.547,0,0,0-.834.686.572.572,0,0,0,.106.129l.11.1.317.287.313.289.053.051a.547.547,0,0,0,.86-.653.566.566,0,0,0-.1-.136l-.064-.06-.322-.3-.327-.3Z" transform="translate(-145.2 -13.175)" fill="#d9cb62"/>
      <path id="Trazado_1263207" data-name="Trazado 1263207" d="M251.822,15.244a.547.547,0,0,0-.718.8.563.563,0,0,0,.138.123l.357.22.385.245.171.111a.546.546,0,1,0,.6-.912l-.182-.119-.4-.252Z" transform="translate(-138.689 -8.376)" fill="#d9cb62"/>
      <path id="Trazado_1263208" data-name="Trazado 1263208" d="M238.675,8.612a.546.546,0,1,0-.42,1.009l.191.078.458.193.346.151a.547.547,0,0,0,.528-.952.623.623,0,0,0-.085-.047l-.358-.156-.469-.2Z" transform="translate(-131.468 -4.736)" fill="#d9cb62"/>
      <path id="Trazado_1263209" data-name="Trazado 1263209" d="M224.7,4a.547.547,0,0,0-.281,1.056l.438.114.521.142.084.024a.546.546,0,0,0,.3-1.05l-.1-.027-.533-.145Z" transform="translate(-123.786 -2.199)" fill="#d9cb62"/>
      <path id="Trazado_1263210" data-name="Trazado 1263210" d="M210.259,1.212a.547.547,0,0,0-.293,1.042.555.555,0,0,0,.145.041l.114.015.588.083.368.056a.546.546,0,0,0,.169-1.08l-.379-.057-.6-.085Z" transform="translate(-115.843 -0.667)" fill="#d9cb62"/>
      <path id="Trazado_1263211" data-name="Trazado 1263211" d="M195.61,0a.547.547,0,0,0-.044,1.092l.4.014.646.029.04,0a.546.546,0,1,0,.064-1.091l-.05,0-.656-.029Z" transform="translate(-107.777 0)" fill="#d9cb62"/>
      <path id="Trazado_1263212" data-name="Trazado 1263212" d="M180.914.066a.546.546,0,1,0,.052,1.091l.122-.007.7-.03.255-.009a.547.547,0,0,0,.1-1.079.56.56,0,0,0-.137-.013l-.265.01-.714.031Z" transform="translate(-99.682 -0.01)" fill="#d9cb62"/>
      <path id="Trazado_1263213" data-name="Trazado 1263213" d="M166.276,1.22a.546.546,0,1,0,.13,1.084h0l.759-.088.316-.034a.547.547,0,0,0,.112-1.063.556.556,0,0,0-.225-.024l-.325.035-.767.089Z" transform="translate(-91.614 -0.603)" fill="#d9cb62"/>
      <path id="Trazado_1263214" data-name="Trazado 1263214" d="M151.76,3.341a.546.546,0,1,0,.194,1.075l.158-.029.808-.143.1-.017a.546.546,0,0,0-.179-1.078l-.11.019-.816.144Z" transform="translate(-83.611 -1.736)" fill="#d9cb62"/>
      <path id="Trazado_1263215" data-name="Trazado 1263215" d="M137.4,6.28a.547.547,0,0,0,.111,1.079.581.581,0,0,0,.134-.014l.714-.167L138.7,7.1a.547.547,0,0,0-.135-1.079.616.616,0,0,0-.1.013l-.354.081Z" transform="translate(-75.691 -3.327)" fill="#d9cb62"/>
      <path id="Trazado_1263216" data-name="Trazado 1263216" d="M123.192,9.92a.546.546,0,1,0,.293,1.053l.889-.25.159-.044a.547.547,0,0,0-.286-1.055l-.166.046Z" transform="translate(-67.852 -5.308)" fill="#d9cb62"/>
      <path id="Trazado_1263217" data-name="Trazado 1263217" d="M109.188,14.26a.546.546,0,0,0,.25,1.058.525.525,0,0,0,.108-.026l.058-.021.855-.292.113-.038a.546.546,0,1,0-.34-1.038l-.121.04-.864.295Z" transform="translate(-60.133 -7.669)" fill="#d9cb62"/>
      <path id="Trazado_1263218" data-name="Trazado 1263218" d="M95.468,19.412a.546.546,0,1,0,.416,1.01l.39-.162.617-.251a.547.547,0,0,0-.181-1.052.538.538,0,0,0-.227.039l-.625.255Z" transform="translate(-52.567 -10.475)" fill="#d9cb62"/>
      <path id="Trazado_1263219" data-name="Trazado 1263219" d="M82.1,25.426a.546.546,0,0,0,.485.979l.2-.1.737-.361.034-.016a.546.546,0,0,0-.468-.987l-.043.02-.746.365Z" transform="translate(-45.202 -13.753)" fill="#d9cb62"/>
      <path id="Trazado_1263220" data-name="Trazado 1263220" d="M69.195,32.346a.547.547,0,0,0,.347,1.013.555.555,0,0,0,.2-.07l.308-.182.632-.366a.546.546,0,0,0-.544-.948l-.641.371Z" transform="translate(-38.086 -17.528)" fill="#d9cb62"/>
      <path id="Trazado_1263221" data-name="Trazado 1263221" d="M4.64,138.194a.546.546,0,1,0,1.061-.26v-.006l-.1-.416-.09-.419-.039-.2a.546.546,0,0,0-1.074.2l.043.217.094.438.1.435Z" transform="translate(-2.426 -75.4)" fill="#d9cb62"/>
      <path id="Trazado_1263222" data-name="Trazado 1263222" d="M9.8,152.017a.547.547,0,0,0,1.012-.361.561.561,0,0,0-.068-.189l-.05-.084-.207-.364-.2-.367-.058-.112a.547.547,0,0,0-1.015.39.571.571,0,0,0,.04.1l.068.131.21.386.217.382Z" transform="translate(-5.083 -83.02)" fill="#d9cb62"/>
      <path id="Trazado_1263223" data-name="Trazado 1263223" d="M18.785,163.719a.546.546,0,1,0,.742-.8l-.086-.078-.316-.3-.309-.3-.052-.054a.546.546,0,1,0-.788.757l.068.069.324.319.332.313Z" transform="translate(-9.848 -89.525)" fill="#d9cb62"/>
      <path id="Trazado_1263224" data-name="Trazado 1263224" d="M30.7,172.414a.547.547,0,0,0,.509-.967l-.142-.073-.42-.225-.382-.214a.546.546,0,1,0-.543.948l.4.224.437.234Z" transform="translate(-16.271 -94.413)" fill="#d9cb62"/>
      <path id="Trazado_1263225" data-name="Trazado 1263225" d="M44.337,178a.547.547,0,0,0,.289-1.054l-.009,0L44.1,176.8l-.507-.153a.546.546,0,1,0-.323,1.044l.524.158.532.151Z" transform="translate(-23.698 -97.597)" fill="#d9cb62"/>
      <path id="Trazado_1263226" data-name="Trazado 1263226" d="M58.772,180.9a.546.546,0,1,0,.12-1.086l-.2-.021-.6-.07-.273-.036a.547.547,0,0,0-.333,1.022.561.561,0,0,0,.184.06l.288.038.612.072Z" transform="translate(-31.609 -99.29)" fill="#d9cb62"/>
      <path id="Trazado_1263227" data-name="Trazado 1263227" d="M73.464,181.641a.547.547,0,0,0,.106-1.081.572.572,0,0,0-.123-.012l-.295.007-.672.007h-.113a.546.546,0,1,0-.009,1.093h.127l.684-.007Z" transform="translate(-39.685 -99.768)" fill="#d9cb62"/>
      <path id="Trazado_1263228" data-name="Trazado 1263228" d="M88.134,180.572a.547.547,0,0,0-.022-1.088.621.621,0,0,0-.1,0l-.4.048-.681.075a.547.547,0,0,0-.076,1.073.553.553,0,0,0,.19.013l.692-.077Z" transform="translate(-47.765 -99.179)" fill="#d9cb62"/>
      <path id="Trazado_1263229" data-name="Trazado 1263229" d="M102.65,178.2a.546.546,0,1,0-.21-1.072l-.654.132-.413.079a.547.547,0,0,0,.1,1.083.656.656,0,0,0,.1-.009l.423-.081Z" transform="translate(-55.772 -97.869)" fill="#d9cb62"/>
      <path id="Trazado_1263230" data-name="Trazado 1263230" d="M116.951,174.766a.547.547,0,0,0-.113-1.073.568.568,0,0,0-.174.018l-.349.1-.7.187a.546.546,0,1,0,.277,1.057l.71-.189Z" transform="translate(-63.661 -95.98)" fill="#d9cb62"/>
      <path id="Trazado_1263231" data-name="Trazado 1263231" d="M131.016,170.475a.547.547,0,0,0-.243-1.06.586.586,0,0,0-.1.024l-.394.132-.639.21a.546.546,0,1,0,.336,1.039l.647-.213Z" transform="translate(-71.427 -93.613)" fill="#d9cb62"/>
      <path id="Trazado_1263232" data-name="Trazado 1263232" d="M144.831,165.463a.546.546,0,0,0-.39-1.021l-.939.363-.077.029a.547.547,0,0,0,.276,1.052.6.6,0,0,0,.107-.028l.084-.032Z" transform="translate(-79.059 -90.848)" fill="#d9cb62"/>
      <path id="Trazado_1263233" data-name="Trazado 1263233" d="M152.592,151.076l10.211.855-6.189,8.167-4.022-9.021" transform="translate(-84.32 -83.482)" fill="#d9cb62"/>
    </g>
  </g>
</svg>
